<svg width="26" height="26" viewBox="0 0 26 26" fill="none" xmlns="http://www.w3.org/2000/svg">
<path d="M18.9728 8.35675C18.9728 6.69848 18.3065 5.10813 17.1204 3.93556C15.9344 2.76299 14.3258 2.10425 12.6485 2.10425C10.9712 2.10425 9.3626 2.76299 8.17657 3.93556C6.99054 5.10813 6.32424 6.69848 6.32424 8.35675C6.32424 15.6513 3.16211 17.7355 3.16211 17.7355H22.1349C22.1349 17.7355 18.9728 15.6513 18.9728 8.35675Z" stroke="#474D85" strokeWidth="1.5" strokeLinecap="round" strokeLinejoin="round"/>
<path d="M14.4722 21.9038C14.2869 22.2196 14.0209 22.4818 13.7009 22.664C13.3808 22.8463 13.018 22.9422 12.6487 22.9422C12.2794 22.9422 11.9165 22.8463 11.5965 22.664C11.2765 22.4818 11.0105 22.2196 10.8252 21.9038" stroke="#474D85" strokeWidth="1.5" strokeLinecap="round" strokeLinejoin="round"/>
</svg>
