<svg width="27" height="25" viewBox="0 0 27 25" fill="none" xmlns="http://www.w3.org/2000/svg">
<path d="M18.1094 2.5C18.1094 1.1125 19.2219 0 20.6094 0C21.9969 0 23.1094 1.1125 23.1094 2.5C23.1094 3.8875 21.9969 5 20.6094 5C19.2219 5 18.1094 3.8875 18.1094 2.5ZM23.1094 25V17.5H26.2344L23.0594 7.9625C22.8922 7.46464 22.5731 7.0317 22.1471 6.72453C21.7211 6.41736 21.2096 6.25141 20.6844 6.25H20.5344C20.0087 6.24952 19.4963 6.41474 19.0699 6.72217C18.6436 7.02961 18.325 7.46361 18.1594 7.9625L17.0844 11.1875C18.4344 11.9375 19.3594 13.35 19.3594 15V25H23.1094ZM13.7344 11.875C14.7719 11.875 15.6094 11.0375 15.6094 10C15.6094 8.9625 14.7719 8.125 13.7344 8.125C12.6969 8.125 11.8594 8.9625 11.8594 10C11.8594 11.0375 12.6969 11.875 13.7344 11.875ZM4.98438 5C6.37188 5 7.48438 3.8875 7.48438 2.5C7.48438 1.1125 6.37188 0 4.98438 0C3.59688 0 2.48438 1.1125 2.48438 2.5C2.48438 3.8875 3.59688 5 4.98438 5ZM7.48438 25V16.25H9.35938V8.75C9.35938 7.375 8.23438 6.25 6.85938 6.25H3.10938C1.73438 6.25 0.609375 7.375 0.609375 8.75V16.25H2.48438V25H7.48438ZM15.6094 25V20H16.8594V15C16.8594 13.975 16.0094 13.125 14.9844 13.125H12.4844C11.4594 13.125 10.6094 13.975 10.6094 15V20H11.8594V25H15.6094Z" fill="#878AAB"/>
</svg>
