<svg width="24" height="22" viewBox="0 0 24 22" fill="none" xmlns="http://www.w3.org/2000/svg">
<path d="M20.6897 3.60987C20.179 3.09888 19.5725 2.69352 18.9051 2.41696C18.2376 2.14039 17.5222 1.99805 16.7997 1.99805C16.0772 1.99805 15.3618 2.14039 14.6944 2.41696C14.0269 2.69352 13.4205 3.09888 12.9097 3.60987L11.8497 4.66987L10.7897 3.60987C9.75804 2.57818 8.35876 1.99858 6.89973 1.99858C5.4407 1.99858 4.04142 2.57818 3.00973 3.60987C1.97804 4.64156 1.39844 6.04084 1.39844 7.49987C1.39844 8.95891 1.97804 10.3582 3.00973 11.3899L4.06973 12.4499L11.8497 20.2299L19.6297 12.4499L20.6897 11.3899C21.2007 10.8791 21.6061 10.2727 21.8826 9.60523C22.1592 8.93777 22.3016 8.22236 22.3016 7.49987C22.3016 6.77738 22.1592 6.06198 21.8826 5.39452C21.6061 4.72706 21.2007 4.12063 20.6897 3.60987V3.60987Z" stroke="#CB5EFF" stroke-width="2" stroke-linecap="round" stroke-linejoin="round"/>
</svg>
