<svg width="29" height="23" viewBox="0 0 29 23" fill="none" xmlns="http://www.w3.org/2000/svg">
<path d="M18.5059 0C18.3066 0 18.1016 0.0445311 17.8789 0.140625C17.4453 0.331055 17 0.719531 16.6895 1.26562C16.3848 1.8123 16.2852 2.3959 16.3496 2.87051C16.4141 3.33926 16.625 3.6791 16.9531 3.8666C17.2754 4.04824 17.6797 4.0541 18.1133 3.86074C18.5527 3.67324 18.998 3.28066 19.3027 2.73574C19.6133 2.19023 19.7129 1.60605 19.6484 1.13438C19.584 0.660938 19.3672 0.325195 19.0449 0.141211C18.8809 0.0498047 18.6992 0.00175771 18.5059 0.000585839V0ZM15.2773 2.4252C13.4609 3.43301 11.3457 4.33535 8.41016 4.97988C7.60156 5.15566 7.10352 7.03066 7.71289 7.69863H6.83984V8.75332H8.5625C8.81445 9.08145 9.06641 9.40957 9.30078 9.74941L7.77148 12.808C7.19727 12.5912 6.57617 12.4682 5.92578 12.4682C3.05176 12.4682 0.710938 14.8119 0.710938 17.683C0.710938 20.5541 3.05176 22.8979 5.92578 22.8979C8.62109 22.8979 10.8477 20.8354 11.1113 18.2104H12.0371C11.9375 17.8529 11.9492 17.4896 12.0371 17.1557H11.1113C10.9473 15.5326 10.0332 14.1205 8.7207 13.2826L9.98633 10.7514C10.3438 11.308 10.6777 11.8764 10.9766 12.4506C10.7305 12.7084 10.4551 12.9662 10.1387 13.2299C10.4785 13.7338 10.8184 14.226 11.3574 14.5482C11.4863 14.4311 11.6152 14.3021 11.75 14.1674C12.0371 14.9174 12.2598 15.6732 12.4062 16.4525C12.7637 16.0248 13.2969 15.7494 13.8945 15.7494C14.4395 15.7494 14.9375 15.9838 15.2891 16.3529L19.9766 10.9916C20.082 11.7064 20.2344 12.3861 20.416 13.0482C18.7402 13.9154 17.5859 15.6732 17.5859 17.683C17.5859 20.5541 19.9297 22.8979 22.8008 22.8979C25.6719 22.8979 28.0156 20.5541 28.0156 17.683C28.0156 14.8119 25.6719 12.4682 22.8008 12.4682C22.3203 12.4682 21.8516 12.5326 21.4062 12.6615C21.1719 11.7885 21.002 10.892 20.9199 9.91934C21.1953 9.58535 21.4121 9.16348 21.541 8.72402L21.5469 8.71231C22.0332 8.78262 22.6602 9.08731 22.7832 9.50918L23.8027 9.25137C23.1934 7.72793 21.5352 7.43496 20.1641 7.72207C18.2656 7.33535 16.8711 6.87832 16.7012 4.90957C16.6133 4.87441 16.5195 4.8334 16.4316 4.78066C15.7871 4.41738 15.4062 3.74355 15.3066 3.01113C15.2773 2.81777 15.2715 2.62441 15.2773 2.4252ZM15.2012 6.04629C16.6836 8.75918 18.4121 8.87051 20.1641 9.08145C20.0234 9.26895 19.8535 9.45645 19.6777 9.65566H15.2305C15.3828 9.39199 15.4824 9.18691 15.5117 9.06973C15.5762 8.76504 14.8906 8.28457 14.0938 7.8041C13.4082 8.12051 12.5469 8.38418 11.6094 8.48965C12.1309 8.82363 12.6113 9.21035 13.0508 9.65566H12.1777C11.9961 9.27481 11.8027 8.88809 11.6094 8.48965C11.4629 8.19082 11.3164 7.88613 11.1699 7.56973C12.3301 7.41152 13.9238 7.08926 15.2012 6.04629ZM14.5566 10.7104H18.8281L14.3691 15.8021C14.1875 14.5131 13.8418 13.3881 13.3906 12.2865C13.8184 11.7475 14.2168 11.1967 14.5566 10.7104ZM5.92578 13.5229C6.40625 13.5229 6.86914 13.6049 7.29687 13.7572L5.07266 18.2104H10.0508C9.79297 20.2611 8.04688 21.8432 5.92578 21.8432C3.62188 21.8432 1.76562 19.9857 1.76562 17.683C1.76562 15.3803 3.62188 13.5229 5.92578 13.5229ZM22.8008 13.5229C25.1035 13.5229 26.9609 15.3803 26.9609 17.683C26.9609 19.9857 25.1035 21.8432 22.8008 21.8432C20.498 21.8432 18.6406 19.9857 18.6406 17.683C18.6406 16.1361 19.4785 14.7885 20.7266 14.0736C21.1543 15.3393 21.6992 16.5756 22.3203 17.9057L23.2812 17.4604C22.6543 16.1127 22.1152 14.8998 21.7109 13.6693C22.0566 13.5756 22.4199 13.5229 22.8008 13.5229ZM8.24609 14.226C9.21875 14.8822 9.89844 15.9369 10.0508 17.1557H6.78125L8.24609 14.226ZM13.8945 16.8041C13.4023 16.8041 13.0156 17.1908 13.0156 17.683C13.0156 18.1752 13.4023 18.5619 13.8945 18.5619C14.3867 18.5619 14.7734 18.1752 14.7734 17.683C14.7734 17.1908 14.3867 16.8041 13.8945 16.8041Z" fill="#CB5EFF"/>
</svg>
