<svg width="17" height="29" viewBox="0 0 17 29" fill="none" xmlns="http://www.w3.org/2000/svg">
<path d="M11.2314 6.23763C10.5439 7.42513 10.9564 8.96263 12.1439 9.65013C13.3314 10.3376 14.8689 9.92513 15.5564 8.73763C16.2439 7.55013 15.8314 6.01263 14.6439 5.32513C13.4564 4.63763 11.9189 5.05013 11.2314 6.23763Z" fill="#878AAB"/>
<path d="M13.1938 11.7498L9.94375 9.87477C6.96875 8.14977 5.94375 4.32477 7.66875 1.34977L5.50625 0.0997723C3.51875 3.52477 4.14375 7.74977 6.71875 10.4873L0.28125 21.6373L2.44375 22.8873L4.31875 19.6373L6.48125 20.8873L2.73125 27.3873L4.89375 28.6373L12.7562 15.0248C13.4764 16.002 13.8965 17.1677 13.9653 18.3796C14.0341 19.5916 13.7487 20.7973 13.1438 21.8498L15.3063 23.0998C17.3063 19.6623 16.9062 14.8748 13.1938 11.7498ZM9.33125 3.48727C10.2312 3.99977 11.3687 3.69977 11.8938 2.79977C12.4062 1.89977 12.1062 0.762272 11.2062 0.237272C10.7758 -0.00258183 10.2683 -0.0634681 9.7933 0.0677669C9.31833 0.199002 8.91405 0.511822 8.6678 0.93865C8.42156 1.36548 8.35311 1.87204 8.47725 2.34892C8.60139 2.82579 8.90814 3.23469 9.33125 3.48727Z" fill="#878AAB"/>
</svg>
