<svg width="26" height="31" viewBox="0 0 26 31" fill="none" xmlns="http://www.w3.org/2000/svg">
<path d="M11.9389 12.8L17.1153 7.4M6.76241 7.4L10.6448 3.35L19.7036 7.4V10.1L15.8212 14.15L6.76241 7.4ZM9.35064 29C13.639 29 17.1153 25.3735 17.1153 20.9C17.1153 16.4265 13.639 12.8 9.35064 12.8C5.06231 12.8 1.58594 16.4265 1.58594 20.9C1.58594 25.3735 5.06231 29 9.35064 29ZM9.35064 22.25C10.0654 22.25 10.6448 21.6456 10.6448 20.9C10.6448 20.1544 10.0654 19.55 9.35064 19.55C8.63592 19.55 8.05653 20.1544 8.05653 20.9C8.05653 21.6456 8.63592 22.25 9.35064 22.25ZM15.8212 15.5L22.2918 19.55L19.7036 27.65L15.8212 15.5ZM22.2918 4.7C23.0065 4.7 23.5859 4.09558 23.5859 3.35C23.5859 2.60442 23.0065 2 22.2918 2C21.5771 2 20.9977 2.60442 20.9977 3.35C20.9977 4.09558 21.5771 4.7 22.2918 4.7ZM14.5271 12.8L19.7036 7.4L14.5271 12.8Z" stroke="#878AAB" strokeWidth="3.08" strokeLinecap="round" strokeLinejoin="round"/>
</svg>
