<svg width="26" height="26" viewBox="0 0 26 26" fill="none" xmlns="http://www.w3.org/2000/svg">
<path d="M12.6488 22.9459C18.4702 22.9459 23.1893 18.2803 23.1893 12.5251C23.1893 6.76981 18.4702 2.10425 12.6488 2.10425C6.82751 2.10425 2.1084 6.76981 2.1084 12.5251C2.1084 18.2803 6.82751 22.9459 12.6488 22.9459Z" stroke="#474D85" strokeWidth="1.5" strokeLinecap="round" strokeLinejoin="round"/>
<path d="M9.58105 9.39889C9.82886 8.70243 10.318 8.11515 10.9618 7.74107C11.6056 7.36699 12.3626 7.23025 13.0986 7.35506C13.8346 7.47988 14.5022 7.85819 14.9831 8.42301C15.464 8.98782 15.7272 9.70268 15.7261 10.441C15.7261 12.5251 12.564 13.5672 12.564 13.5672" stroke="#474D85" strokeWidth="1.5" strokeLinecap="round" strokeLinejoin="round"/>
<path d="M12.6484 17.7354H12.659" stroke="#474D85" strokeWidth="1.5" strokeLinecap="round" strokeLinejoin="round"/>
</svg>
