<svg width="156" height="71" viewBox="0 0 156 71" fill="none" xmlns="http://www.w3.org/2000/svg">
<path d="M54.4937 21.976C54.6323 21.248 54.7363 20.624 54.8057 20.104C54.9097 19.584 54.979 19.1333 55.0137 18.752C55.0483 18.336 55.0657 17.9547 55.0657 17.608C55.1003 17.2613 55.1177 16.88 55.1177 16.464C55.1177 13.448 54.4763 10.7093 53.1937 8.248C52.9857 7.86667 52.639 7.45067 52.1537 7C51.6683 6.54933 51.2697 6.30667 50.9577 6.272C50.9923 6.272 50.9403 6.28933 50.8017 6.324C50.663 6.324 50.4377 6.34133 50.1257 6.376C49.987 6.34133 49.7443 6.324 49.3977 6.324C47.803 6.324 46.9017 6.87867 46.6937 7.988C47.0057 8.612 47.3177 9.236 47.6297 9.86C47.9417 10.484 48.2537 11.1253 48.5657 11.784C49.259 13.4133 49.5883 14.7307 49.5537 15.736V19.012C49.5537 20.1213 49.2417 21.5773 48.6177 23.38C48.0283 24.9053 47.5603 25.8933 47.2137 26.344C46.4163 26.032 45.723 25.356 45.1337 24.316C44.6483 23.3453 44.4057 22.392 44.4057 21.456V17.972C44.4057 17.556 44.423 17.14 44.4577 16.724C44.4923 16.2733 44.5443 15.8053 44.6137 15.32C44.683 14.8347 44.735 14.4533 44.7697 14.176C44.839 13.864 44.8737 13.6733 44.8737 13.604C44.8737 13.0147 44.5097 12.72 43.7817 12.72C43.019 12.72 40.8523 13.1013 37.2817 13.864C37.8363 12.2347 39.275 10.5533 41.5977 8.82C41.7363 8.196 41.6497 7.832 41.3377 7.728C40.8523 7.52 40.367 7.416 39.8817 7.416C37.9057 7.416 35.9297 8.54267 33.9537 10.796C31.9777 13.0493 30.9897 15.1467 30.9897 17.088C30.9897 17.8853 31.215 18.544 31.6657 19.064C32.0817 19.5493 32.7057 19.792 33.5377 19.792C34.231 19.792 35.1497 19.584 36.2937 19.168C36.7097 18.9947 37.1257 18.8387 37.5417 18.7C37.9577 18.5267 38.3737 18.3533 38.7897 18.18C38.7897 19.844 38.7897 21.04 38.7897 21.768C38.7897 22.4613 38.807 22.6867 38.8417 22.444C38.6683 24.5933 39.6217 26.552 41.7017 28.32C43.643 29.9493 45.671 30.764 47.7857 30.764C48.8257 30.764 49.6923 30.504 50.3857 29.984C51.6683 29.048 52.6563 27.7133 53.3497 25.98C53.4883 25.668 53.6443 25.1827 53.8177 24.524C53.991 23.8307 54.2163 22.9813 54.4937 21.976ZM75.0016 33.78C74.9669 33.7453 74.8802 33.6933 74.7416 33.624C74.6376 33.5893 74.5509 33.5373 74.4816 33.468C74.5509 33.572 74.6029 33.728 74.6376 33.936C74.7069 34.144 74.7589 34.3 74.7936 34.404C74.9322 34.2653 75.0016 34.0573 75.0016 33.78ZM78.0176 22.288V18.024C78.0176 16.256 77.9656 14.1413 77.8616 11.68C77.7576 9.21866 77.6189 6.35866 77.4456 3.1C76.8562 2.54533 76.0936 2.268 75.1576 2.268C74.9149 2.268 74.0829 2.38933 72.6616 2.632C72.5922 3.152 72.3669 3.49867 71.9856 3.672C71.9509 3.91467 71.9336 4.17466 71.9336 4.452C71.9336 4.69466 71.9336 4.95466 71.9336 5.232C71.9336 5.61333 71.9509 6.18533 71.9856 6.948C72.0202 7.676 72.0722 8.59467 72.1416 9.704C72.2109 10.64 72.2456 11.4547 72.2456 12.148C72.2802 12.8067 72.2802 13.3613 72.2456 13.812C69.7149 14.02 67.4962 14.2107 65.5896 14.384C63.7176 14.5227 62.1402 14.6613 60.8576 14.8C60.2682 13.2747 59.6616 11.7667 59.0376 10.276C58.4482 8.78533 57.8589 7.29467 57.2696 5.804C56.0909 2.788 54.9816 1.15867 53.9416 0.915998C53.9416 1.02 53.8722 1.14133 53.7336 1.28C53.5256 0.967999 53.3522 0.655999 53.2136 0.343999C53.2136 0.378665 53.0056 0.395998 52.5896 0.395998C52.4856 0.638666 52.5376 1.03733 52.7456 1.592C52.6069 1.62666 52.4682 1.73066 52.3296 1.904C52.1562 2.04266 52.0349 2.112 51.9656 2.112C52.4162 3.42933 52.9362 5.26666 53.5256 7.624C54.1496 9.94666 54.8429 12.8067 55.6056 16.204C54.9816 16.4813 54.1669 16.7413 53.1616 16.984C52.9536 17.4347 52.7802 17.816 52.6416 18.128C52.4682 18.44 52.3296 18.7173 52.2256 18.96C52.6762 19.688 53.4216 20.0693 54.4616 20.104C55.7442 20.1387 56.4549 20.208 56.5936 20.312C56.7669 20.9013 56.9229 21.4733 57.0616 22.028C57.2002 22.5827 57.3389 23.1547 57.4776 23.744C57.8242 25.096 58.1536 25.928 58.4656 26.24C58.4656 26.24 58.5349 26.24 58.6736 26.24C58.8469 26.2053 59.1069 26.1707 59.4536 26.136C59.8349 26.0667 60.1122 26.1533 60.2856 26.396C62.1576 26.2573 63.0936 25.5987 63.0936 24.42C63.0936 23.9693 62.8509 23.12 62.3656 21.872C61.9149 20.728 61.7242 19.8613 61.7936 19.272C62.5216 19.0293 63.3189 18.7867 64.1856 18.544C65.0869 18.3013 66.0749 18.0587 67.1496 17.816C68.0509 17.6427 68.9696 17.452 69.9056 17.244C70.8416 17.036 71.7602 16.8453 72.6616 16.672C72.6616 16.776 72.7136 19.1333 72.8176 23.744C72.8522 25.2 72.8869 26.552 72.9216 27.8C72.9909 29.0133 73.0776 30.1573 73.1816 31.232C73.2509 31.7867 73.4242 32.3933 73.7016 33.052C74.0482 33.7453 74.2216 34.2133 74.2216 34.456C74.2216 34.6293 74.1696 34.7333 74.0656 34.768C74.3776 34.6987 74.5682 34.8027 74.6376 35.08C74.7762 35.1147 74.8976 35.1493 75.0016 35.184C75.1056 35.2187 75.1922 35.2533 75.2616 35.288C75.2616 35.3573 75.2789 35.4093 75.3136 35.444C75.3482 35.444 75.3829 35.3747 75.4176 35.236C75.4522 35.132 75.4696 35.028 75.4696 34.924C75.5736 35.028 75.6082 35.2533 75.5736 35.6C75.5736 34.6293 75.8336 34.0573 76.3536 33.884C76.3882 33.9187 76.4402 33.9533 76.5096 33.988C76.6136 34.0227 76.6829 34.0573 76.7176 34.092C76.6829 34.2653 76.6482 34.404 76.6136 34.508C76.6136 34.6467 76.6136 34.7333 76.6136 34.768C77.5496 31.96 78.0176 27.8 78.0176 22.288ZM76.5096 32.896L76.1976 33.624L75.9896 33.52L76.3016 32.896H76.5096ZM96.9045 9.652C95.5872 8.68133 93.9752 8.05733 92.0685 7.78C91.3405 7.676 89.6592 7.572 87.0245 7.468C85.5685 7.39867 84.0259 7.78 82.3965 8.612C80.7672 9.40933 79.3632 10.4493 78.1845 11.732C76.2779 13.8467 75.3245 15.788 75.3245 17.556C75.3245 18.0413 75.3939 18.44 75.5325 18.752C77.0925 22.4267 80.6112 24.264 86.0885 24.264C86.4352 24.264 86.7819 24.264 87.1285 24.264C87.5099 24.2293 87.9085 24.1947 88.3245 24.16C89.5379 23.9173 90.5779 23.7093 91.4445 23.536C92.3112 23.328 92.9872 23.1373 93.4725 22.964C95.3792 22.444 96.9392 21.4213 98.1525 19.896C99.2619 18.4747 99.8165 16.9147 99.8165 15.216C99.8165 12.928 98.8459 11.0733 96.9045 9.652ZM90.4045 10.848C93.2125 11.0213 94.6165 12.3387 94.6165 14.8C94.6165 16.36 94.0445 17.7293 92.9005 18.908C91.7219 20.1907 90.2832 20.728 88.5845 20.52C87.5792 20.5547 86.6085 20.52 85.6725 20.416C84.7365 20.2773 83.8525 20.0693 83.0205 19.792C81.0099 19.1333 80.1432 18.1973 80.4205 16.984C80.7325 15.6667 81.6512 14.3147 83.1765 12.928C84.5285 11.68 85.8805 10.8307 87.2325 10.38C87.4059 10.3107 87.8565 10.4493 88.5845 10.796C88.7579 10.8307 89.0005 10.8653 89.3125 10.9C89.6245 10.9 89.9885 10.8827 90.4045 10.848ZM24.7488 66.288C24.6795 64.7973 24.6102 63.4453 24.5408 62.232C24.4715 61.0187 24.4195 59.9267 24.3848 58.956C24.3502 58.2627 24.3328 57.7773 24.3328 57.5C24.3328 57.188 24.3328 57.1013 24.3328 57.24C24.3328 56.9627 24.2982 56.5987 24.2288 56.148C24.1942 55.6627 24.1422 55.0733 24.0728 54.38C24.0035 53.7907 23.9342 53.2707 23.8648 52.82C23.8302 52.3347 23.8302 51.9187 23.8648 51.572C23.8648 51.468 23.8995 51.312 23.9688 51.104C24.0728 50.896 24.1768 50.6707 24.2808 50.428C24.3848 50.1853 24.4715 49.96 24.5408 49.752C24.6102 49.5093 24.6275 49.3187 24.5928 49.18C24.0382 47.516 23.4662 46.4413 22.8768 45.956C21.7675 46.2333 20.9702 46.3893 20.4848 46.424C19.5835 46.5627 18.5955 46.632 17.5208 46.632C16.4808 46.632 15.3715 46.5973 14.1928 46.528C12.0088 46.3893 10.7088 46.4413 10.2928 46.684C10.0502 46.8227 9.92884 47.0133 9.92884 47.256C9.92884 47.3947 10.0502 47.6373 10.2928 47.984C9.94618 48.0533 9.68618 48.2787 9.51284 48.66C9.37418 49.0067 9.37418 49.336 9.51284 49.648C10.6568 50.0987 11.9048 50.324 13.2568 50.324C13.5688 50.324 13.9502 50.3067 14.4008 50.272C14.8515 50.2373 15.3715 50.1853 15.9608 50.116C16.5502 50.0467 17.0702 49.9947 17.5208 49.96C18.0062 49.8907 18.4048 49.856 18.7168 49.856C17.4688 51 15.9955 51.572 14.2968 51.572C14.1235 51.572 13.8808 51.572 13.5688 51.572C13.2568 51.5373 12.8928 51.5027 12.4768 51.468C7.86618 51.1213 5.64751 49.9253 5.82084 47.88C5.85551 47.048 7.17284 45.9733 9.77284 44.656C10.8822 44.1013 11.8008 43.6853 12.5288 43.408C13.2568 43.096 13.8115 42.9053 14.1928 42.836C15.8568 42.5933 17.2435 42.576 18.3528 42.784C20.1208 43.096 20.9182 43.252 20.7448 43.252C21.3688 43.252 21.8368 43.044 22.1488 42.628C22.4955 42.212 22.5995 41.8133 22.4608 41.432C21.9408 39.8373 20.1382 38.9533 17.0528 38.78C16.1862 38.7453 15.3542 38.78 14.5568 38.884C13.7595 38.9533 12.9622 39.1093 12.1648 39.352C11.6795 39.5253 10.9342 39.8027 9.92884 40.184C8.95818 40.5653 7.72751 41.0853 6.23684 41.744C4.71151 42.4373 3.39418 43.356 2.28484 44.5C1.03684 45.8173 0.412842 47.1347 0.412842 48.452C0.412842 48.868 0.464842 49.2493 0.568843 49.596C1.88618 53.7213 5.89018 55.784 12.5808 55.784C14.7302 55.784 16.9142 55.5413 19.1328 55.056L19.9128 61.452C20.2595 64.0867 20.9008 65.924 21.8368 66.964C21.8368 66.7907 21.8888 66.704 21.9928 66.704C22.0622 67.016 22.2528 67.3107 22.5648 67.588C22.7035 67.6573 22.8248 67.7267 22.9288 67.796C23.0328 67.8653 23.1542 67.9347 23.2928 68.004C23.3275 67.4493 23.5355 66.9293 23.9168 66.444C24.2982 66.4093 24.5755 66.3573 24.7488 66.288ZM43.3242 40.652C42.0069 39.6813 40.3949 39.0573 38.4882 38.78C37.7602 38.676 36.0789 38.572 33.4442 38.468C31.9882 38.3987 30.4456 38.78 28.8162 39.612C27.1869 40.4093 25.7829 41.4493 24.6042 42.732C22.6976 44.8467 21.7442 46.788 21.7442 48.556C21.7442 49.0413 21.8136 49.44 21.9522 49.752C23.5122 53.4267 27.0309 55.264 32.5082 55.264C32.8549 55.264 33.2016 55.264 33.5482 55.264C33.9296 55.2293 34.3282 55.1947 34.7442 55.16C35.9576 54.9173 36.9976 54.7093 37.8642 54.536C38.7309 54.328 39.4069 54.1373 39.8922 53.964C41.7989 53.444 43.3589 52.4213 44.5722 50.896C45.6816 49.4747 46.2362 47.9147 46.2362 46.216C46.2362 43.928 45.2656 42.0733 43.3242 40.652ZM36.8242 41.848C39.6322 42.0213 41.0362 43.3387 41.0362 45.8C41.0362 47.36 40.4642 48.7293 39.3202 49.908C38.1416 51.1907 36.7029 51.728 35.0042 51.52C33.9989 51.5547 33.0282 51.52 32.0922 51.416C31.1562 51.2773 30.2722 51.0693 29.4402 50.792C27.4296 50.1333 26.5629 49.1973 26.8402 47.984C27.1522 46.6667 28.0709 45.3147 29.5962 43.928C30.9482 42.68 32.3002 41.8307 33.6522 41.38C33.8256 41.3107 34.2762 41.4493 35.0042 41.796C35.1776 41.8307 35.4202 41.8653 35.7322 41.9C36.0442 41.9 36.4082 41.8827 36.8242 41.848ZM63.774 38.52C63.4967 38.4507 63.1674 38.3813 62.786 38.312C62.4394 38.208 62.0234 38.0867 61.538 37.948C60.5327 37.6707 60.03 37.532 60.03 37.532H55.194C54.7087 37.532 52.9407 37.688 49.89 38C48.4687 38.1387 47.2207 38.2427 46.146 38.312C45.0714 38.3467 44.1527 38.3293 43.39 38.26C43.4247 38.2253 43.442 38.1907 43.442 38.156C42.61 38.7107 42.0554 39.144 41.778 39.456C42.3327 40.6347 42.8527 41.224 43.338 41.224H50.098C49.8207 49.024 51.7794 52.924 55.974 52.924C56.39 52.924 56.8407 52.872 57.326 52.768C57.4647 52.5947 57.6207 52.404 57.794 52.196C57.9674 51.988 58.054 51.7627 58.054 51.52C58.054 51.4507 58.0194 51.2427 57.95 50.896C56.4247 50.064 55.5407 48.4867 55.298 46.164C55.2634 45.2627 55.2287 44.344 55.194 43.408C55.194 42.472 55.1767 41.5533 55.142 40.652C55.558 40.4093 57.0487 40.184 59.614 39.976C61.7287 39.8373 63.1154 39.352 63.774 38.52ZM104.01 34.672H103.802L103.75 35.556H103.958L104.01 34.672ZM106.35 33.996C105.761 33.9267 105.536 33.6667 105.674 33.216C105.466 33.5627 105.293 33.736 105.154 33.736C105.154 33.632 105.172 33.528 105.206 33.424C105.241 33.32 105.258 33.2507 105.258 33.216C104.912 33.3547 104.842 33.684 105.05 34.204C104.704 34.5507 104.461 34.7413 104.322 34.776C104.08 34.5333 103.889 34.4467 103.75 34.516C102.953 35.868 102.104 38.2253 101.202 41.588C100.925 42.8013 100.63 44.032 100.318 45.28C100.006 46.528 99.7116 47.776 99.4342 49.024C99.2609 48.8853 98.8276 48.5907 98.1342 48.14C97.4756 47.6547 96.5569 46.9787 95.3782 46.112C94.5809 45.5227 93.8529 45.02 93.1942 44.604C92.5702 44.188 91.9636 43.824 91.3742 43.512C90.8196 43.1653 90.2649 42.8533 89.7102 42.576C89.1902 42.2987 88.6702 42.004 88.1502 41.692C86.7636 40.9987 85.6196 40.652 84.7182 40.652C83.8516 40.652 83.1409 40.912 82.5862 41.432C82.5516 41.5707 82.4476 41.848 82.2742 42.264C82.0662 42.6453 81.9796 42.9053 82.0142 43.044C82.8116 44.3267 83.4356 45.1933 83.8862 45.644C84.5449 47.308 84.9609 49.0587 85.1342 50.896C85.2382 51.4853 85.3422 52.092 85.4462 52.716C85.5502 53.34 85.6716 53.9813 85.8102 54.64C86.0876 55.888 86.7289 56.4947 87.7342 56.46H88.6702C89.2942 55.9053 89.6062 55.16 89.6062 54.224C89.6062 53.7733 89.4849 52.8893 89.2422 51.572C89.0342 50.116 88.9302 48.816 88.9302 47.672C92.7782 49.6133 95.9676 51.78 98.4982 54.172C98.7409 54.4493 98.9836 54.7093 99.2262 54.952C99.4689 55.1947 99.7289 55.4547 100.006 55.732C100.665 56.3907 101.22 56.772 101.67 56.876C102.052 56.9453 102.589 56.928 103.282 56.824C103.976 56.6853 104.461 56.512 104.738 56.304C105.224 55.992 105.466 55.42 105.466 54.588C105.466 54.3453 105.449 54.068 105.414 53.756C105.38 53.444 105.328 53.08 105.258 52.664C105.154 51.7973 105.102 50.3413 105.102 48.296C105.31 44.968 105.518 42.472 105.726 40.808C106.246 39.8373 106.506 38.1907 106.506 35.868C106.506 35.14 106.454 34.516 106.35 33.996ZM118.746 61.66C120.341 61.2093 121.97 60.36 123.634 59.112C125.541 57.7253 126.494 56.3733 126.494 55.056C126.494 54.1547 125.957 53.34 124.882 52.612C124.847 52.5773 124.778 52.56 124.674 52.56C124.154 52.56 123.669 53.08 123.218 54.12C122.421 55.7493 120.965 57.0493 118.85 58.02C116.874 58.9213 114.863 59.372 112.818 59.372C109.733 59.372 108.19 58.488 108.19 56.72C108.19 55.0907 109.767 53.0107 112.922 50.48C114.274 49.44 115.695 48.7987 117.186 48.556C117.775 48.4867 118.347 48.4173 118.902 48.348C119.457 48.2787 120.011 48.2093 120.566 48.14C121.71 47.9667 122.507 47.516 122.958 46.788C122.091 45.2973 120.445 44.552 118.018 44.552H115.574C113.182 44.552 111.449 43.928 110.374 42.68C112.697 40.6693 114.742 39.664 116.51 39.664C117.862 39.664 118.885 40.3747 119.578 41.796C119.925 41.8653 120.185 41.9 120.358 41.9C120.635 41.9 121.017 41.8133 121.502 41.64C121.987 41.4667 122.351 41.3453 122.594 41.276C122.663 40.9293 122.698 40.6693 122.698 40.496C122.698 39.248 121.814 38.156 120.046 37.22C118.417 36.388 116.961 36.076 115.678 36.284C113.425 36.6653 112.229 36.8733 112.09 36.908C110.842 37.3933 109.386 38.2253 107.722 39.404C105.677 40.9293 104.654 42.1427 104.654 43.044C104.654 43.3907 105.261 44.2747 106.474 45.696C107.133 46.0427 107.705 46.372 108.19 46.684C108.675 46.9613 109.091 47.2213 109.438 47.464C108.849 47.9493 108.277 48.452 107.722 48.972C107.167 49.492 106.595 49.9947 106.006 50.48C104.758 51.6933 103.874 53.0453 103.354 54.536C103.181 55.056 103.094 55.5413 103.094 55.992C103.094 57.76 103.943 59.3893 105.642 60.88C107.341 62.336 109.074 62.9773 110.842 62.804L113.962 62.648C114.517 62.6133 115.175 62.5093 115.938 62.336C116.735 62.1627 117.671 61.9373 118.746 61.66ZM140.474 55.004C139.884 53.756 138.602 52.456 136.626 51.104C134.164 49.3707 132.518 48.036 131.686 47.1C131.824 46.9613 133.228 45.9213 135.898 43.98C137.631 42.7667 138.758 41.744 139.278 40.912C138.827 40.4613 138.203 40.236 137.406 40.236C136.296 40.236 134.788 40.7213 132.882 41.692C131.46 42.3853 130.368 42.9227 129.606 43.304C128.878 43.6853 128.462 43.9107 128.358 43.98C128.011 43.4947 127.664 42.992 127.318 42.472C126.971 41.952 126.624 41.4493 126.278 40.964C125.342 39.82 124.423 39.248 123.522 39.248C122.932 39.248 122.291 39.5427 121.598 40.132C121.286 40.5133 121.13 40.9467 121.13 41.432C121.13 42.16 121.528 43.1307 122.326 44.344C122.534 44.6907 123.279 45.644 124.562 47.204C123.556 47.8973 122.62 48.7987 121.754 49.908C120.852 51.052 120.436 51.8667 120.506 52.352C120.644 53.5307 121.442 54.12 122.898 54.12C123.903 54.12 124.631 53.9813 125.082 53.704C125.394 53.4613 125.723 52.924 126.07 52.092C126.486 51.1907 127.023 50.5667 127.682 50.22C128.86 50.9133 129.71 51.4507 130.23 51.832C134.632 54.5013 137.648 56.0093 139.278 56.356C139.902 55.7667 140.3 55.316 140.474 55.004ZM156.003 38.52C155.726 38.4507 155.396 38.3813 155.015 38.312C154.668 38.208 154.252 38.0867 153.767 37.948C152.762 37.6707 152.259 37.532 152.259 37.532H147.423C146.938 37.532 145.17 37.688 142.119 38C140.698 38.1387 139.45 38.2427 138.375 38.312C137.3 38.3467 136.382 38.3293 135.619 38.26C135.654 38.2253 135.671 38.1907 135.671 38.156C134.839 38.7107 134.284 39.144 134.007 39.456C134.562 40.6347 135.082 41.224 135.567 41.224H142.327C142.05 49.024 144.008 52.924 148.203 52.924C148.619 52.924 149.07 52.872 149.555 52.768C149.694 52.5947 149.85 52.404 150.023 52.196C150.196 51.988 150.283 51.7627 150.283 51.52C150.283 51.4507 150.248 51.2427 150.179 50.896C148.654 50.064 147.77 48.4867 147.527 46.164C147.492 45.2627 147.458 44.344 147.423 43.408C147.423 42.472 147.406 41.5533 147.371 40.652C147.787 40.4093 149.278 40.184 151.843 39.976C153.958 39.8373 155.344 39.352 156.003 38.52Z" fill="#1758FF"/>
</svg>
