<svg width="25" height="25" viewBox="0 0 25 25" fill="none" xmlns="http://www.w3.org/2000/svg">
<path d="M23.6028 1.25292C22.8794 0.529583 20.8257 0 18.2294 0C14.2511 0 8.99401 1.24 5.3386 4.89542C-0.719321 10.9662 -0.150987 21.3512 1.67026 23.1854C2.3936 23.9088 4.44735 24.4383 7.0436 24.4383C11.0219 24.4383 16.279 23.1983 19.9344 19.5429C25.9923 13.4721 25.424 3.08708 23.6028 1.25292ZM7.15985 6.7425C10.5698 3.3325 15.3619 2.7125 17.5319 2.62208C14.884 3.83625 11.7711 5.78667 8.99401 8.57667C6.52452 11.0646 4.50541 13.9622 3.02651 17.1404C3.15568 13.9371 4.16318 9.72625 7.15985 6.7425ZM18.1132 17.6958C14.7032 21.1058 9.9111 21.7258 7.7411 21.8162C10.389 20.6021 13.5019 18.6517 16.279 15.8617C19.069 13.0717 21.0194 9.94583 22.2465 7.29792C22.1173 10.5012 21.1098 14.7121 18.1132 17.6958Z" fill="#CB5EFF"/>
</svg>
