<svg width="29" height="27" viewBox="0 0 29 27" fill="none" xmlns="http://www.w3.org/2000/svg">
<path d="M6.95687 0L5.92757 0.373574C6.30296 1.40227 6.47855 2.44246 6.06683 3.48084C6.33929 3.76904 6.6057 4.05361 6.8721 4.33213C7.62894 2.85418 7.42914 1.2957 6.95687 0ZM5.39476 4.35635C4.98304 4.51377 4.61855 4.71357 4.28857 4.94365C5.93363 6.74795 7.32621 8.67334 8.14964 10.52C8.91859 12.2577 9.20316 13.9894 8.58558 15.4304L21.8938 25.0513C23.5588 24.9665 24.6366 24.5608 25.3752 23.9917C26.1502 23.3983 26.5922 22.6052 26.9131 21.6667C26.7375 21.4729 26.5438 21.2853 26.3319 21.0976C24.7758 21.37 23.4135 21.0612 22.2813 20.3468C21.1006 19.6081 20.1743 18.4638 19.3871 17.1378C17.9037 14.6372 16.9047 11.4464 15.8936 8.8126C13.1993 9.08506 11.2254 8.70967 9.67542 7.95283C7.82269 7.04463 6.6057 5.646 5.39476 4.35635ZM3.4621 5.65811C3.1854 5.95479 2.93837 6.28174 2.71496 6.63291C2.07558 7.64404 1.63722 8.87315 1.26244 10.1386L7.67132 14.7704C8.01644 13.7351 7.81058 12.4394 7.15062 10.962C6.39378 9.27275 5.0557 7.41397 3.4621 5.65811ZM17.928 8.50381C17.6131 8.56436 17.3104 8.61885 17.0077 8.66728C17.2317 9.25459 17.4557 9.86006 17.6797 10.4716L19.2539 11.2647C18.8362 10.2899 18.4244 9.35752 17.928 8.50381ZM0.654545 11.0468C0.489858 11.2224 0.383295 11.404 0.328198 11.5917C0.253725 11.8339 0.263413 12.1003 0.38935 12.4272L14.8522 21.7757C16.1721 22.6233 17.3588 23.3257 18.4366 23.9009L0.654545 11.0468ZM18.2307 11.9731C18.6485 13.0812 19.0905 14.1771 19.5809 15.1882L21.591 16.0782C20.9129 14.9823 20.3922 13.8925 19.926 12.8269L18.2307 11.9731ZM20.4225 16.7442C21.1309 17.9067 21.9362 18.8452 22.8625 19.4265C23.5285 19.8442 24.2491 20.0864 25.0907 20.1106C24.1946 19.3599 23.4498 18.5849 22.8141 17.7978L20.4225 16.7442ZM27.676 22.702C27.3188 23.5073 26.8162 24.2642 26.0412 24.8575C25.351 25.3843 24.467 25.7778 23.3348 25.9837C24.3944 26.2804 25.2239 26.3772 25.8535 26.353C26.7557 26.3167 27.2703 26.0685 27.5852 25.8202C27.9 25.572 28.0211 25.3237 28.0756 25.2026C28.2875 24.7304 28.2694 23.9978 27.9243 23.1864C27.8577 23.029 27.7729 22.8655 27.676 22.702Z" fill="#1758FF"/>
</svg>
