<svg width="12" height="12" viewBox="0 0 12 12" fill="none" xmlns="http://www.w3.org/2000/svg">
<path d="M6.2846 0C5.65672 0 5.04294 0.185207 4.52088 0.532201C3.99882 0.879195 3.59193 1.37239 3.35165 1.94942C3.11137 2.52645 3.0485 3.1614 3.17099 3.77397C3.29349 4.38654 3.59584 4.94922 4.03981 5.39086C4.48379 5.8325 5.04945 6.13326 5.66526 6.25511C6.28108 6.37696 6.91938 6.31442 7.49947 6.07541C8.07955 5.8364 8.57535 5.43164 8.92418 4.91233C9.27301 4.39301 9.4592 3.78247 9.4592 3.15789C9.4592 2.32037 9.12473 1.51715 8.52938 0.924926C7.93403 0.332706 7.12655 0 6.2846 0ZM6.2846 5.05263C5.90787 5.05263 5.53961 4.94151 5.22637 4.73331C4.91313 4.52511 4.66899 4.2292 4.52483 3.88298C4.38066 3.53676 4.34294 3.15579 4.41644 2.78825C4.48993 2.42071 4.67134 2.0831 4.93773 1.81811C5.20411 1.55313 5.54351 1.37267 5.913 1.29956C6.28249 1.22646 6.66547 1.26398 7.01352 1.40739C7.36157 1.55079 7.65905 1.79365 7.86835 2.10524C8.07765 2.41682 8.18936 2.78315 8.18936 3.15789C8.18936 3.66041 7.98868 4.14234 7.63147 4.49768C7.27426 4.85301 6.78977 5.05263 6.2846 5.05263ZM11.9989 12V11.3684C11.9989 10.1959 11.5306 9.07137 10.6971 8.24226C9.86364 7.41316 8.73318 6.94737 7.55444 6.94737H5.01476C3.83602 6.94737 2.70555 7.41316 1.87206 8.24226C1.03857 9.07137 0.570312 10.1959 0.570312 11.3684V12H1.84015V11.3684C1.84015 10.5309 2.17462 9.72767 2.76997 9.13545C3.36533 8.54323 4.1728 8.21053 5.01476 8.21053H7.55444C8.3964 8.21053 9.20387 8.54323 9.79922 9.13545C10.3946 9.72767 10.729 10.5309 10.729 11.3684V12H11.9989Z" fill="#000005"/>
</svg>
