<svg width="26" height="26" viewBox="0 0 26 26" fill="none" xmlns="http://www.w3.org/2000/svg">
<path d="M17.9184 21.8939V19.8097C17.9184 18.7042 17.4742 17.6439 16.6835 16.8622C15.8928 16.0805 14.8204 15.6414 13.7022 15.6414H5.26988C4.15169 15.6414 3.07929 16.0805 2.2886 16.8622C1.49791 17.6439 1.05371 18.7042 1.05371 19.8097V21.8939" stroke="#474D85" strokeWidth="1.5" strokeLinecap="round" strokeLinejoin="round"/>
<path d="M9.48668 11.4729C11.8152 11.4729 13.7029 9.60667 13.7029 7.30456C13.7029 5.00246 11.8152 3.13623 9.48668 3.13623C7.15815 3.13623 5.27051 5.00246 5.27051 7.30456C5.27051 9.60667 7.15815 11.4729 9.48668 11.4729Z" stroke="#474D85" strokeWidth="1.5" strokeLinecap="round" strokeLinejoin="round"/>
<path d="M24.2432 21.8936V19.8095C24.2425 18.8859 23.9316 17.9887 23.3592 17.2588C22.7869 16.5288 21.9856 16.0075 21.0811 15.7766" stroke="#474D85" strokeWidth="1.5" strokeLinecap="round" strokeLinejoin="round"/>
<path d="M16.8643 3.27173C17.7712 3.5013 18.575 4.02276 19.149 4.75389C19.7231 5.48503 20.0347 6.38425 20.0347 7.3098C20.0347 8.23535 19.7231 9.13457 19.149 9.86571C18.575 10.5968 17.7712 11.1183 16.8643 11.3479" stroke="#474D85" strokeWidth="1.5" strokeLinecap="round" strokeLinejoin="round"/>
</svg>
