<svg width="27" height="29" viewBox="0 0 27 29" fill="none" xmlns="http://www.w3.org/2000/svg">
<path d="M13.5509 26.0969C19.6973 26.0969 24.6799 20.8976 24.6799 14.484C24.6799 8.07037 19.6973 2.87109 13.5509 2.87109C7.40451 2.87109 2.42188 8.07037 2.42188 14.484C2.42188 20.8976 7.40451 26.0969 13.5509 26.0969Z" stroke="#878AAB" stroke-width="3.08" stroke-linecap="round" stroke-linejoin="round"/>
<path d="M7.25781 16.868C8.27028 18.9595 9.74817 20.7845 11.5752 22.1994C13.4022 23.6144 15.5285 24.5806 17.7868 25.0222M12.832 14.9863C13.8024 16.7272 15.2641 18.1348 17.0297 19.0288C18.7953 19.9229 20.7843 20.2625 22.7417 20.0042L12.832 14.9863Z" stroke="#878AAB" stroke-width="3.08" stroke-linecap="round" stroke-linejoin="round"/>
<path d="M14.4972 9.08096C12.2785 8.87702 10.0663 9.19945 8.03477 10.0229C6.00324 10.8463 4.20779 12.1482 2.78967 13.8263M13.4811 14.7236C11.575 14.6613 9.71926 15.1809 8.15176 16.2156C6.58425 17.2504 5.37643 18.7531 4.68311 20.5313L13.4811 14.7236Z" stroke="#878AAB" stroke-width="3.08" stroke-linecap="round" stroke-linejoin="round"/>
<path d="M17.6849 19.1907C18.9715 17.186 19.796 14.8964 20.0935 12.5018C20.3909 10.1073 20.1532 7.67314 19.3991 5.39099M13.2737 15.0979C14.2806 13.3132 14.7551 11.2546 14.6364 9.18593C14.5177 7.11726 13.8113 5.1328 12.6077 3.48696L13.2737 15.0979Z" stroke="#878AAB" stroke-width="3.08" stroke-linecap="round" stroke-linejoin="round"/>
</svg>
