<svg width="26" height="26" viewBox="0 0 26 26" fill="none" xmlns="http://www.w3.org/2000/svg">
<path d="M3.93656 21.3512C6.30531 23.72 9.44281 25.0237 12.7753 25.0237C16.1078 25.0237 19.2466 23.72 21.6141 21.3512C26.4878 16.4775 26.4878 8.5475 21.6141 3.6725C19.2466 1.305 16.1066 0 12.7753 0C9.44406 0 6.30406 1.305 3.93656 3.67375C-0.937188 8.54625 -0.937188 16.4775 3.93656 21.3512ZM13.1616 2.52C15.2492 2.59514 17.2595 3.3294 18.9041 4.6175L12.7753 10.745L10.9503 8.92C12.4016 7.07125 13.1903 4.785 13.1616 2.52ZM9.16281 7.1325L6.64781 4.6175C7.82852 3.69201 9.20391 3.04663 10.6703 2.73C10.6516 4.275 10.1141 5.82625 9.16281 7.1325ZM7.38281 8.8875C6.10949 9.75742 4.60115 10.2183 3.05906 10.2087C3.38386 8.81809 4.00557 7.51411 4.88156 6.38625L7.38281 8.8875ZM2.78906 12.695C2.88531 12.6975 2.98156 12.7125 3.07781 12.7125C5.27742 12.7195 7.41875 12.0056 9.17406 10.68L11.0078 12.5125L4.88156 18.6387C3.55952 16.936 2.82529 14.8504 2.78906 12.695ZM18.1566 16.1262C19.4591 15.1787 21.0066 14.6412 22.5416 14.6187C22.2288 16.0831 21.5892 17.4577 20.6703 18.64L18.1566 16.1262ZM18.9028 20.4075C17.7757 21.2886 16.4712 21.9154 15.0791 22.245C15.065 20.6972 15.5261 19.1824 16.4003 17.905L18.9028 20.4075ZM12.5978 22.515C10.4373 22.4806 8.34724 21.7405 6.64656 20.4075L12.7753 14.28L14.6041 16.1087C13.2253 17.9137 12.5303 20.1912 12.5978 22.515ZM22.7528 12.1275C20.4941 12.105 18.2116 12.89 16.3678 14.3375L14.5428 12.5125L20.6691 6.38625C21.9478 8.03455 22.6766 10.0428 22.7528 12.1275Z" fill="#878AAB"/>
</svg>
