<svg width="27" height="21" viewBox="0 0 27 21" fill="none" xmlns="http://www.w3.org/2000/svg">
<path d="M24.0596 7.57759L19.7578 1.43395L21.8057 0L26.1074 6.14364L24.0596 7.57759Z" fill="#CB5EFF"/>
<path d="M21.7028 10.7524L19.5519 7.68065L9.31245 14.8504L11.4633 17.9221L9.41545 19.3561L3.67969 11.1645L5.72756 9.73064L7.87851 12.8025L18.1179 5.63278L15.967 2.56089L18.0149 1.12695L23.7507 9.31852L21.7028 10.7524Z" fill="#CB5EFF"/>
<path d="M24.6684 4.09511L26.7162 2.66117L25.2823 0.613281L23.2344 2.04722L24.6684 4.09511Z" fill="#CB5EFF"/>
<path d="M7.67783 19.05L3.376 12.9062L1.32812 14.3403L5.62995 20.4839L7.67783 19.05Z" fill="#CB5EFF"/>
<path d="M4.19276 18.4346L2.14488 19.8685L0.710938 17.8206L2.75881 16.3867L4.19276 18.4346Z" fill="#CB5EFF"/>
</svg>
