<svg width="60" height="50" viewBox="0 0 60 50" fill="none" xmlns="http://www.w3.org/2000/svg">
<path d="M4.19138 49.9758C3.16584 49.9758 2.1403 49.9758 1.11475 49.9758C0.909646 49.7883 0.938947 49.5363 0.938947 49.296C0.938947 45.1935 0.938947 41.0968 0.938947 36.9943C0.938947 36.754 0.909646 36.502 1.12062 36.3145C2.56224 36.3145 3.998 36.3145 5.43962 36.3086C5.50994 36.3145 5.56854 36.3438 5.633 36.3672C5.70919 36.4141 5.76779 36.4786 5.81467 36.5547C5.83811 36.5899 5.86156 36.6251 5.885 36.6602C5.89672 36.6778 5.90844 36.6954 5.92016 36.7071C5.94946 36.7364 5.9729 36.7716 5.99634 36.8009L6.03736 36.8478C6.06666 36.8771 6.09597 36.9064 6.11941 36.9357L6.16043 36.9767C6.18973 37.0002 6.21903 37.0295 6.24247 37.0588L6.28349 37.0998C6.31279 37.1232 6.33623 37.1525 6.36553 37.1818L6.40656 37.2229C6.43586 37.2463 6.4593 37.2756 6.4886 37.3049L6.52962 37.3459C6.55893 37.3694 6.58236 37.3987 6.61167 37.428L6.65269 37.469C6.68199 37.4925 6.71129 37.5218 6.73473 37.5511L6.77575 37.5921C6.80505 37.6214 6.83435 37.6448 6.86366 37.6741L6.90468 37.7152C6.93398 37.7445 6.96328 37.7738 6.99258 37.8031C7.01016 37.8148 7.02188 37.8324 7.03946 37.85C7.07462 37.8793 7.10393 37.9086 7.13323 37.9379C7.15081 37.9555 7.16839 37.9672 7.18597 37.9848C7.22113 38.0141 7.2563 38.0492 7.29146 38.0844C7.30904 38.102 7.32662 38.1196 7.3442 38.1371C7.37936 38.1723 7.41452 38.2075 7.44968 38.2485C8.10603 38.9108 8.76824 39.5613 9.41873 40.2236C9.84066 40.6866 10.3095 41.1085 10.7373 41.5657C10.7666 41.6008 10.8017 41.6419 10.8252 41.6887C10.8369 41.7063 10.8545 41.7298 10.8662 41.7474C10.8955 41.7825 10.9189 41.8235 10.9482 41.8587C10.96 41.8763 10.9776 41.8939 10.9893 41.9115C11.0186 41.9408 11.0479 41.9759 11.0772 42.0052C11.0889 42.0228 11.1065 42.0345 11.1182 42.0521C11.1475 42.0814 11.1768 42.1107 11.2061 42.14C11.2178 42.1517 11.2354 42.1693 11.2471 42.181C11.2764 42.2104 11.3057 42.2397 11.3292 42.269L11.3702 42.31C11.3995 42.3393 11.4288 42.3627 11.4522 42.392L11.4933 42.4331C11.5226 42.4624 11.5519 42.4917 11.5812 42.521C11.5987 42.5327 11.6105 42.5503 11.628 42.562C11.6573 42.5913 11.6866 42.6206 11.7159 42.6499C11.7335 42.6616 11.7452 42.6792 11.7628 42.6968C11.798 42.7261 11.8273 42.7554 11.8624 42.7906C11.88 42.8081 11.8976 42.8199 11.9152 42.8374C11.9504 42.8667 11.9855 42.9019 12.0207 42.9371C12.0383 42.9547 12.0558 42.9722 12.0734 42.9898C12.1086 43.025 12.1437 43.066 12.1848 43.1012C13.0931 44.0155 14.0014 44.9239 14.9098 45.8264C15.0563 45.9729 15.1676 46.2015 15.4489 46.137C15.5368 45.2228 15.4841 44.3143 15.4841 43.4059C15.4958 41.3078 15.4841 39.2038 15.4899 37.1057C15.4899 36.8302 15.4313 36.5313 15.6657 36.3027C16.6854 36.3027 17.7051 36.3027 18.7189 36.3027C18.9123 36.4961 18.8772 36.7482 18.8772 36.9884C18.8772 41.0851 18.8772 45.1817 18.8772 49.2725C18.8772 49.5128 18.9123 49.7648 18.7248 49.9641C17.2949 49.9641 15.865 49.9641 14.4351 49.9641C14.1128 49.8176 13.896 49.5421 13.6557 49.3018C12.6126 48.2586 11.5636 47.2213 10.5439 46.1605C10.5087 46.1253 10.4794 46.0843 10.456 46.0374C10.4443 46.0198 10.4267 45.9964 10.415 45.9788C10.3857 45.9436 10.3564 45.9026 10.3329 45.8674C10.3212 45.8499 10.3036 45.8323 10.2919 45.8147C10.2626 45.7854 10.2333 45.7502 10.204 45.7151C10.1923 45.6975 10.1747 45.6858 10.163 45.6682C10.1337 45.6389 10.1044 45.6096 10.0751 45.5803C10.0634 45.5685 10.0458 45.551 10.0341 45.5392C10.0048 45.5099 9.97545 45.4806 9.95201 45.4513L9.91098 45.4103C9.88168 45.3869 9.85238 45.3576 9.82894 45.3283L9.78792 45.2872C9.75862 45.2638 9.73518 45.2345 9.70588 45.2052L9.66486 45.1642C9.63556 45.1407 9.61211 45.1114 9.58281 45.0821L9.54179 45.0411C9.51249 45.0176 9.48905 44.9883 9.45975 44.959L9.41873 44.918C9.38942 44.8946 9.36598 44.8653 9.33668 44.836L9.29566 44.7949C9.26636 44.7715 9.24292 44.7422 9.21362 44.7129L9.17259 44.6719C9.14329 44.6484 9.11399 44.6191 9.09055 44.5898L9.04953 44.5488C9.02023 44.5195 8.99093 44.496 8.96163 44.4667C8.94405 44.455 8.93232 44.4374 8.91474 44.4257C8.87958 44.3964 8.85028 44.3671 8.82098 44.3378C8.8034 44.3202 8.79168 44.3085 8.7741 44.2909C8.73894 44.2616 8.70377 44.2264 8.67447 44.1971C8.65689 44.1796 8.63931 44.162 8.62173 44.1444C8.58657 44.1092 8.55141 44.0741 8.51625 44.0389C8.49867 44.0213 8.48108 44.0037 8.45764 43.9861C7.36764 42.8961 6.27177 41.8177 5.21107 40.71C5.17591 40.6748 5.14661 40.628 5.12317 40.5869C5.11144 40.5693 5.09386 40.5459 5.08214 40.5283C5.05284 40.4932 5.02354 40.4521 5.0001 40.417C4.98838 40.3994 4.9708 40.3818 4.95907 40.3642C4.92977 40.3349 4.90047 40.2998 4.87117 40.2646C4.85359 40.247 4.84187 40.2353 4.83015 40.2177C4.80085 40.1884 4.77155 40.1591 4.74225 40.1298C4.73053 40.1181 4.71295 40.1005 4.70123 40.0888C4.67193 40.0595 4.64262 40.0302 4.61918 40.0067L4.57816 39.9657C4.54886 39.9422 4.52542 39.9129 4.50198 39.8895L4.46095 39.8543L4.41994 39.8368C4.41994 39.8368 4.37305 39.8368 4.37305 39.8426C4.37305 39.8485 4.33789 39.8778 4.33789 39.8895C4.31445 40.036 4.34961 40.1767 4.34375 40.3291C4.34375 43.2829 4.34375 46.2191 4.34375 49.1612C4.33203 49.4425 4.39649 49.7355 4.19138 49.9758Z" fill="#1758FF"/>
<path d="M4.19138 49.9758C3.16584 49.9758 2.1403 49.9758 1.11475 49.9758C0.909646 49.7883 0.938947 49.5363 0.938947 49.296C0.938947 45.1935 0.938947 41.0968 0.938947 36.9943C0.938947 36.754 0.909646 36.502 1.12062 36.3145C2.56224 36.3145 3.998 36.3145 5.43962 36.3086C5.50994 36.3145 5.56854 36.3438 5.633 36.3672C5.70919 36.4141 5.76779 36.4786 5.81467 36.5547C5.83811 36.5899 5.86156 36.6251 5.885 36.6602C5.89672 36.6778 5.90844 36.6954 5.92016 36.7071C5.94946 36.7364 5.9729 36.7716 5.99634 36.8009L6.03736 36.8478C6.06666 36.8771 6.09597 36.9064 6.11941 36.9357L6.16043 36.9767C6.18973 37.0002 6.21903 37.0295 6.24247 37.0588L6.28349 37.0998C6.31279 37.1232 6.33623 37.1525 6.36553 37.1818L6.40656 37.2229C6.43586 37.2463 6.4593 37.2756 6.4886 37.3049L6.52962 37.3459C6.55893 37.3694 6.58236 37.3987 6.61167 37.428L6.65269 37.469C6.68199 37.4925 6.71129 37.5218 6.73473 37.5511L6.77575 37.5921C6.80505 37.6214 6.83435 37.6448 6.86366 37.6741L6.90468 37.7152C6.93398 37.7445 6.96328 37.7738 6.99258 37.8031C7.01016 37.8148 7.02188 37.8324 7.03946 37.85C7.07462 37.8793 7.10393 37.9086 7.13323 37.9379C7.15081 37.9555 7.16839 37.9672 7.18597 37.9848C7.22113 38.0141 7.2563 38.0492 7.29146 38.0844C7.30904 38.102 7.32662 38.1196 7.3442 38.1371C7.37936 38.1723 7.41452 38.2075 7.44968 38.2485C8.10603 38.9108 8.76824 39.5613 9.41873 40.2236C9.84066 40.6866 10.3095 41.1085 10.7373 41.5657C10.7666 41.6008 10.8017 41.6419 10.8252 41.6887C10.8369 41.7063 10.8545 41.7298 10.8662 41.7474C10.8955 41.7825 10.9189 41.8235 10.9482 41.8587C10.96 41.8763 10.9776 41.8939 10.9893 41.9115C11.0186 41.9408 11.0479 41.9759 11.0772 42.0052C11.0889 42.0228 11.1065 42.0345 11.1182 42.0521C11.1475 42.0814 11.1768 42.1107 11.2061 42.14C11.2178 42.1517 11.2354 42.1693 11.2471 42.181C11.2764 42.2104 11.3057 42.2397 11.3292 42.269L11.3702 42.31C11.3995 42.3393 11.4288 42.3627 11.4522 42.392L11.4933 42.4331C11.5226 42.4624 11.5519 42.4917 11.5812 42.521C11.5987 42.5327 11.6105 42.5503 11.628 42.562C11.6573 42.5913 11.6866 42.6206 11.7159 42.6499C11.7335 42.6616 11.7452 42.6792 11.7628 42.6968C11.798 42.7261 11.8273 42.7554 11.8624 42.7906C11.88 42.8081 11.8976 42.8199 11.9152 42.8374C11.9504 42.8667 11.9855 42.9019 12.0207 42.9371C12.0383 42.9547 12.0558 42.9722 12.0734 42.9898C12.1086 43.025 12.1437 43.066 12.1848 43.1012C13.0931 44.0155 14.0014 44.9239 14.9098 45.8264C15.0563 45.9729 15.1676 46.2015 15.4489 46.137C15.5368 45.2228 15.4841 44.3143 15.4841 43.4059C15.4958 41.3078 15.4841 39.2038 15.4899 37.1057C15.4899 36.8302 15.4313 36.5313 15.6657 36.3027C16.6854 36.3027 17.7051 36.3027 18.7189 36.3027C18.9123 36.4961 18.8772 36.7482 18.8772 36.9884C18.8772 41.0851 18.8772 45.1817 18.8772 49.2725C18.8772 49.5128 18.9123 49.7648 18.7248 49.9641C17.2949 49.9641 15.865 49.9641 14.4351 49.9641C14.1128 49.8176 13.896 49.5421 13.6557 49.3018C12.6126 48.2586 11.5636 47.2213 10.5439 46.1605C10.5087 46.1253 10.4794 46.0843 10.456 46.0374C10.4443 46.0198 10.4267 45.9964 10.415 45.9788C10.3857 45.9436 10.3564 45.9026 10.3329 45.8674C10.3212 45.8499 10.3036 45.8323 10.2919 45.8147C10.2626 45.7854 10.2333 45.7502 10.204 45.7151C10.1923 45.6975 10.1747 45.6858 10.163 45.6682C10.1337 45.6389 10.1044 45.6096 10.0751 45.5803C10.0634 45.5685 10.0458 45.551 10.0341 45.5392C10.0048 45.5099 9.97545 45.4806 9.95201 45.4513L9.91098 45.4103C9.88168 45.3869 9.85238 45.3576 9.82894 45.3283L9.78792 45.2872C9.75862 45.2638 9.73518 45.2345 9.70588 45.2052L9.66486 45.1642C9.63556 45.1407 9.61211 45.1114 9.58281 45.0821L9.54179 45.0411C9.51249 45.0176 9.48905 44.9883 9.45975 44.959L9.41873 44.918C9.38942 44.8946 9.36598 44.8653 9.33668 44.836L9.29566 44.7949C9.26636 44.7715 9.24292 44.7422 9.21362 44.7129L9.17259 44.6719C9.14329 44.6484 9.11399 44.6191 9.09055 44.5898L9.04953 44.5488C9.02023 44.5195 8.99093 44.496 8.96163 44.4667C8.94405 44.455 8.93232 44.4374 8.91474 44.4257C8.87958 44.3964 8.85028 44.3671 8.82098 44.3378C8.8034 44.3202 8.79168 44.3085 8.7741 44.2909C8.73894 44.2616 8.70377 44.2264 8.67447 44.1971C8.65689 44.1796 8.63931 44.162 8.62173 44.1444C8.58657 44.1092 8.55141 44.0741 8.51625 44.0389C8.49867 44.0213 8.48108 44.0037 8.45764 43.9861C7.36764 42.8961 6.27177 41.8177 5.21107 40.71C5.17591 40.6748 5.14661 40.628 5.12317 40.5869C5.11144 40.5693 5.09386 40.5459 5.08214 40.5283C5.05284 40.4932 5.02354 40.4521 5.0001 40.417C4.98838 40.3994 4.9708 40.3818 4.95907 40.3642C4.92977 40.3349 4.90047 40.2998 4.87117 40.2646C4.85359 40.247 4.84187 40.2353 4.83015 40.2177C4.80085 40.1884 4.77155 40.1591 4.74225 40.1298C4.73053 40.1181 4.71295 40.1005 4.70123 40.0888C4.67193 40.0595 4.64262 40.0302 4.61918 40.0067L4.57816 39.9657C4.54886 39.9422 4.52542 39.9129 4.50198 39.8895L4.46095 39.8543L4.41994 39.8368C4.41994 39.8368 4.37305 39.8368 4.37305 39.8426C4.37305 39.8485 4.33789 39.8778 4.33789 39.8895C4.31445 40.036 4.34961 40.1767 4.34375 40.3291C4.34375 43.2829 4.34375 46.2191 4.34375 49.1612C4.33203 49.4425 4.39649 49.7355 4.19138 49.9758Z" fill="#1758FF"/>
<path d="M4.19138 49.9758C3.16584 49.9758 2.1403 49.9758 1.11475 49.9758C0.909646 49.7883 0.938947 49.5363 0.938947 49.296C0.938947 45.1935 0.938947 41.0968 0.938947 36.9943C0.938947 36.754 0.909646 36.502 1.12062 36.3145C2.56224 36.3145 3.998 36.3145 5.43962 36.3086C5.50994 36.3145 5.56854 36.3438 5.633 36.3672C5.70919 36.4141 5.76779 36.4786 5.81467 36.5547C5.83811 36.5899 5.86156 36.6251 5.885 36.6602C5.89672 36.6778 5.90844 36.6954 5.92016 36.7071C5.94946 36.7364 5.9729 36.7716 5.99634 36.8009L6.03736 36.8478C6.06666 36.8771 6.09597 36.9064 6.11941 36.9357L6.16043 36.9767C6.18973 37.0002 6.21903 37.0295 6.24247 37.0588L6.28349 37.0998C6.31279 37.1232 6.33623 37.1525 6.36553 37.1818L6.40656 37.2229C6.43586 37.2463 6.4593 37.2756 6.4886 37.3049L6.52962 37.3459C6.55893 37.3694 6.58236 37.3987 6.61167 37.428L6.65269 37.469C6.68199 37.4925 6.71129 37.5218 6.73473 37.5511L6.77575 37.5921C6.80505 37.6214 6.83435 37.6448 6.86366 37.6741L6.90468 37.7152C6.93398 37.7445 6.96328 37.7738 6.99258 37.8031C7.01016 37.8148 7.02188 37.8324 7.03946 37.85C7.07462 37.8793 7.10393 37.9086 7.13323 37.9379C7.15081 37.9555 7.16839 37.9672 7.18597 37.9848C7.22113 38.0141 7.2563 38.0492 7.29146 38.0844C7.30904 38.102 7.32662 38.1196 7.3442 38.1371C7.37936 38.1723 7.41452 38.2075 7.44968 38.2485C8.10603 38.9108 8.76824 39.5613 9.41873 40.2236C9.84066 40.6866 10.3095 41.1085 10.7373 41.5657C10.7666 41.6008 10.8017 41.6419 10.8252 41.6887C10.8369 41.7063 10.8545 41.7298 10.8662 41.7474C10.8955 41.7825 10.9189 41.8235 10.9482 41.8587C10.96 41.8763 10.9776 41.8939 10.9893 41.9115C11.0186 41.9408 11.0479 41.9759 11.0772 42.0052C11.0889 42.0228 11.1065 42.0345 11.1182 42.0521C11.1475 42.0814 11.1768 42.1107 11.2061 42.14C11.2178 42.1517 11.2354 42.1693 11.2471 42.181C11.2764 42.2104 11.3057 42.2397 11.3292 42.269L11.3702 42.31C11.3995 42.3393 11.4288 42.3627 11.4522 42.392L11.4933 42.4331C11.5226 42.4624 11.5519 42.4917 11.5812 42.521C11.5987 42.5327 11.6105 42.5503 11.628 42.562C11.6573 42.5913 11.6866 42.6206 11.7159 42.6499C11.7335 42.6616 11.7452 42.6792 11.7628 42.6968C11.798 42.7261 11.8273 42.7554 11.8624 42.7906C11.88 42.8081 11.8976 42.8199 11.9152 42.8374C11.9504 42.8667 11.9855 42.9019 12.0207 42.9371C12.0383 42.9547 12.0558 42.9722 12.0734 42.9898C12.1086 43.025 12.1437 43.066 12.1848 43.1012C13.0931 44.0155 14.0014 44.9239 14.9098 45.8264C15.0563 45.9729 15.1676 46.2015 15.4489 46.137C15.5368 45.2228 15.4841 44.3143 15.4841 43.4059C15.4958 41.3078 15.4841 39.2038 15.4899 37.1057C15.4899 36.8302 15.4313 36.5313 15.6657 36.3027C16.6854 36.3027 17.7051 36.3027 18.7189 36.3027C18.9123 36.4961 18.8772 36.7482 18.8772 36.9884C18.8772 41.0851 18.8772 45.1817 18.8772 49.2725C18.8772 49.5128 18.9123 49.7648 18.7248 49.9641C17.2949 49.9641 15.865 49.9641 14.4351 49.9641C14.1128 49.8176 13.896 49.5421 13.6557 49.3018C12.6126 48.2586 11.5636 47.2213 10.5439 46.1605C10.5087 46.1253 10.4794 46.0843 10.456 46.0374C10.4443 46.0198 10.4267 45.9964 10.415 45.9788C10.3857 45.9436 10.3564 45.9026 10.3329 45.8674C10.3212 45.8499 10.3036 45.8323 10.2919 45.8147C10.2626 45.7854 10.2333 45.7502 10.204 45.7151C10.1923 45.6975 10.1747 45.6858 10.163 45.6682C10.1337 45.6389 10.1044 45.6096 10.0751 45.5803C10.0634 45.5685 10.0458 45.551 10.0341 45.5392C10.0048 45.5099 9.97545 45.4806 9.95201 45.4513L9.91098 45.4103C9.88168 45.3869 9.85238 45.3576 9.82894 45.3283L9.78792 45.2872C9.75862 45.2638 9.73518 45.2345 9.70588 45.2052L9.66486 45.1642C9.63556 45.1407 9.61211 45.1114 9.58281 45.0821L9.54179 45.0411C9.51249 45.0176 9.48905 44.9883 9.45975 44.959L9.41873 44.918C9.38942 44.8946 9.36598 44.8653 9.33668 44.836L9.29566 44.7949C9.26636 44.7715 9.24292 44.7422 9.21362 44.7129L9.17259 44.6719C9.14329 44.6484 9.11399 44.6191 9.09055 44.5898L9.04953 44.5488C9.02023 44.5195 8.99093 44.496 8.96163 44.4667C8.94405 44.455 8.93232 44.4374 8.91474 44.4257C8.87958 44.3964 8.85028 44.3671 8.82098 44.3378C8.8034 44.3202 8.79168 44.3085 8.7741 44.2909C8.73894 44.2616 8.70377 44.2264 8.67447 44.1971C8.65689 44.1796 8.63931 44.162 8.62173 44.1444C8.58657 44.1092 8.55141 44.0741 8.51625 44.0389C8.49867 44.0213 8.48108 44.0037 8.45764 43.9861C7.36764 42.8961 6.27177 41.8177 5.21107 40.71C5.17591 40.6748 5.14661 40.628 5.12317 40.5869C5.11144 40.5693 5.09386 40.5459 5.08214 40.5283C5.05284 40.4932 5.02354 40.4521 5.0001 40.417C4.98838 40.3994 4.9708 40.3818 4.95907 40.3642C4.92977 40.3349 4.90047 40.2998 4.87117 40.2646C4.85359 40.247 4.84187 40.2353 4.83015 40.2177C4.80085 40.1884 4.77155 40.1591 4.74225 40.1298C4.73053 40.1181 4.71295 40.1005 4.70123 40.0888C4.67193 40.0595 4.64262 40.0302 4.61918 40.0067L4.57816 39.9657C4.54886 39.9422 4.52542 39.9129 4.50198 39.8895L4.46095 39.8543L4.41994 39.8368C4.41994 39.8368 4.37305 39.8368 4.37305 39.8426C4.37305 39.8485 4.33789 39.8778 4.33789 39.8895C4.31445 40.036 4.34961 40.1767 4.34375 40.3291C4.34375 43.2829 4.34375 46.2191 4.34375 49.1612C4.33203 49.4425 4.39649 49.7355 4.19138 49.9758Z" fill="#1758FF"/>
<path d="M7.24712 8.77542C8.50121 5.84505 9.70842 3.02604 10.9156 0.201173C12.117 0.201173 13.2832 0.201173 14.5314 0.201173C15.721 2.97916 16.9282 5.79231 18.1999 8.76956C19.3896 5.82747 20.5206 3.02018 21.6633 0.195312C22.7885 0.195312 23.8961 0.195312 25.115 0.195312C23.4624 4.21577 21.8274 8.1952 20.1748 12.1981C18.8797 12.1981 17.6198 12.1981 16.2953 12.1981C15.1233 9.49628 13.9454 6.78277 12.7265 3.96376C11.5075 6.77691 10.3413 9.47284 9.16342 12.1981C7.88589 12.1981 6.62008 12.1981 5.28394 12.1981C3.65479 8.23623 2.01392 4.25094 0.34375 0.207034C1.53924 0.207034 2.63511 0.207034 3.79544 0.207034C4.9206 3.00846 6.05749 5.83333 7.24712 8.77542Z" fill="#1758FF"/>
<path d="M11.3281 26.692C9.84546 26.692 8.439 26.692 6.98566 26.692C6.98566 25.895 6.98566 25.1389 6.98566 24.3419C9.51143 24.3419 12.0255 24.3419 14.604 24.3419C14.604 26.5045 14.604 28.6671 14.604 30.8766C13.7425 30.8766 12.9045 30.8766 12.0138 30.8766C11.9786 30.437 11.9376 30.0209 11.8965 29.5169C10.3494 30.7301 8.57965 31.1052 6.71023 31.0583C5.11624 31.0172 3.58085 30.7184 2.25058 29.7455C0.240513 28.2861 -0.204866 26.2173 0.0764255 23.9316C0.345997 21.7749 1.60009 20.2921 3.62774 19.5654C6.20624 18.6394 8.83163 18.657 11.4043 19.5771C13.4085 20.298 14.563 21.7397 14.6391 23.9961C13.6136 23.9961 12.5939 23.9961 11.5801 23.9961C10.8065 22.1558 9.51142 21.4525 7.27281 21.6577C6.42893 21.7339 5.5792 21.7632 4.79392 22.15C3.62774 22.7243 3.15892 23.6972 3.14134 24.9514C3.12376 26.2232 3.51639 27.325 4.71188 27.8642C6.63404 28.7374 8.58551 28.6964 10.4784 27.7001C10.8417 27.5067 11.1875 27.2488 11.3281 26.692Z" fill="#1758FF"/>
<path d="M26.498 0.201172C27.5353 0.201172 28.5316 0.201172 29.6216 0.201172C29.6216 1.70738 29.6216 3.20772 29.6216 4.75496C32.8037 4.75496 35.8979 4.75496 39.0683 4.75496C39.0683 3.23703 39.0683 1.73668 39.0683 0.201172C40.1407 0.201172 41.1428 0.201172 42.1977 0.201172C42.1977 4.19819 42.1977 8.17762 42.1977 12.1922C41.1604 12.1922 40.1466 12.1922 39.0624 12.1922C39.0624 10.645 39.0624 9.13878 39.0624 7.59741C35.9155 7.59741 32.833 7.59741 29.6567 7.59741C29.6567 9.1212 29.6567 10.645 29.6567 12.1864C28.5433 12.1864 27.5295 12.1864 26.4922 12.1864C26.498 8.17762 26.498 4.20405 26.498 0.201172Z" fill="#1758FF"/>
<path d="M31.9453 21.8385C31.9453 20.8598 31.9453 19.9983 31.9453 19.1016C36.7097 19.1016 41.4389 19.1016 46.215 19.1016C46.215 19.9924 46.215 20.8656 46.215 21.7975C44.3749 21.7975 42.5641 21.7975 40.6771 21.7975C40.6771 24.8451 40.6771 27.8399 40.6771 30.8699C39.5988 30.8699 38.6026 30.8699 37.5301 30.8699C37.5301 27.8633 37.5301 24.8861 37.5301 21.8327C35.6431 21.8385 33.8206 21.8385 31.9453 21.8385Z" fill="#1758FF"/>
<path d="M58.7322 6.25572C58.7263 9.6022 57.0269 11.6007 53.7041 12.1751C51.5827 12.5384 49.4789 12.5091 47.4278 11.8058C45.2185 11.0498 43.9175 9.26814 43.8003 6.93557C43.7065 5.02497 43.9175 3.21401 45.3884 1.78985C46.3553 0.852134 47.5743 0.424301 48.8635 0.207454C50.5278 -0.068 52.2039 -0.0855821 53.8623 0.25434C57.1675 0.940045 58.738 2.89167 58.7322 6.25572Z" fill="#1758FF"/>
<path d="M30.6032 25.0455C30.5973 28.3158 28.9271 30.2909 25.6923 30.8476C23.9225 31.1524 22.1644 31.1407 20.4063 30.748C16.855 29.9509 15.6361 27.3312 15.9877 24.1547C16.3276 21.0837 18.1267 19.4309 21.2033 19.0676C22.7563 18.8859 24.3034 18.8449 25.8388 19.1672C29.0854 19.8588 30.609 21.7459 30.6032 25.0455Z" fill="#1758FF"/>
<path d="M49.3776 24.6534C49.3776 23.1179 49.3717 21.5823 49.3776 20.0468C49.3835 18.9392 50.1629 18.1245 51.2763 18.1128C53.3977 18.0952 55.5191 18.0952 57.6406 18.1128C58.7774 18.1245 59.5627 18.9509 59.5627 20.0879C59.5686 23.1765 59.5686 26.2709 59.5627 29.3595C59.5627 30.5024 58.7774 31.3112 57.6288 31.3229C55.5074 31.3405 53.386 31.3346 51.2646 31.3229C50.1746 31.317 49.3835 30.4907 49.3776 29.383C49.3717 27.8006 49.3776 26.2299 49.3776 24.6534Z" fill="#1758FF"/>
<path d="M59.4974 18.0059C59.0931 18.1583 59.011 17.9473 58.9583 17.6484C58.8235 16.8513 58.343 16.4821 57.5284 16.4821C55.4949 16.4938 53.4555 16.4938 51.422 16.4821C50.6133 16.4762 50.1269 16.8455 49.9863 17.6484C49.9452 17.8828 49.8866 18.0879 49.5878 18.0703C49.2127 17.5429 49.4999 16.6521 50.1855 16.1891C50.5664 15.937 51.0001 15.8374 51.4455 15.8374C53.4614 15.8316 55.4773 15.8198 57.4932 15.8374C58.8411 15.855 59.6967 16.7868 59.4974 18.0059Z" fill="#1758FF"/>
<path d="M49.7227 31.1992C49.8047 31.2989 49.8985 31.3575 49.9278 31.4454C50.4611 32.8168 50.4552 32.8226 51.9203 32.8226C53.7604 32.8226 55.6005 32.8109 57.4348 32.8285C58.2904 32.8344 58.8237 32.4886 58.9584 31.6153C59.0053 31.334 59.1225 31.1582 59.439 31.2813C59.7379 32.1487 59.146 33.145 58.1556 33.3735C57.7864 33.4615 57.3938 33.4673 57.0128 33.4673C55.1727 33.479 53.3326 33.479 51.4983 33.4673C50.3966 33.4615 49.6231 32.9106 49.4121 31.9787C49.3652 31.7032 49.2304 31.3633 49.7227 31.1992Z" fill="#1758FF"/>
<path d="M49.7422 16.2723C49.2734 16.1843 49.3672 15.8737 49.3906 15.6334C49.4844 14.7954 50.2228 14.0979 51.0725 14.0921C53.3346 14.0745 55.5966 14.0628 57.8587 14.0921C58.937 14.1038 59.6929 15.1177 59.482 16.1726C59.1479 16.3543 59.0073 16.1843 58.9604 15.8679C58.8315 14.9888 58.3041 14.6488 57.4426 14.6606C55.5439 14.684 53.6452 14.6664 51.7464 14.6664C50.4748 14.6664 50.3458 14.7661 49.9474 15.9792C49.9122 16.0847 49.8184 16.1668 49.7422 16.2723Z" fill="#1758FF"/>
<path d="M49.7364 33.0332C49.8067 33.127 49.9063 33.209 49.9415 33.3087C50.3869 34.5804 50.4572 34.6332 51.7816 34.6332C53.6569 34.6332 55.5322 34.6156 57.4074 34.639C58.2865 34.6508 58.8373 34.3167 58.9663 33.4083C59.0073 33.1035 59.1714 32.998 59.4468 33.0742C59.7457 34.0764 59.0073 35.1841 57.9759 35.2017C55.6376 35.2427 53.2994 35.2368 50.9612 35.2017C50.1466 35.19 49.4141 34.3753 49.3789 33.5607C49.373 33.3438 49.332 33.0977 49.7364 33.0332Z" fill="#1758FF"/>
<path d="M1.12115 36.3203C1.12115 40.8741 1.12115 45.4279 1.11528 49.9817C1.01566 49.9817 0.916036 49.9817 0.78125 49.9817C0.78125 45.4396 0.78125 40.9093 0.78125 36.3203C0.898455 36.3203 1.0098 36.3203 1.12115 36.3203Z" fill="#11FEF5"/>
<path d="M18.7324 49.9759C18.7324 45.4221 18.7266 40.8683 18.7266 36.3146C18.961 36.2677 19.1075 36.3146 19.1075 36.6076C19.1016 41.0442 19.1016 45.4807 19.1016 49.9759C18.9551 49.9759 18.8438 49.9759 18.7324 49.9759Z" fill="#CB5EFF"/>
<path d="M15.6731 36.3223C15.6731 39.7684 15.6731 43.2145 15.6731 46.6665C15.4328 46.684 15.3801 46.5199 15.2863 46.4027C15.2512 46.2796 15.1926 46.1507 15.2805 46.0218C15.2805 42.8042 15.2805 39.5926 15.2805 36.3164C15.4504 36.3223 15.5617 36.3223 15.6731 36.3223Z" fill="#11FEF5"/>
<path d="M4.1875 49.9771C4.1875 46.613 4.1875 43.2548 4.19336 39.8908C4.2461 39.8673 4.29885 39.8615 4.35745 39.8673C4.46879 39.9084 4.55083 39.9846 4.586 40.1018C4.59186 40.1604 4.586 40.2131 4.56256 40.2659C4.5567 43.3193 4.55669 46.3669 4.54497 49.4203C4.53911 49.6606 4.71492 50.065 4.1875 49.9771Z" fill="#CB5EFF"/>
<path d="M15.2779 46.0212C15.2779 46.1501 15.2838 46.2732 15.2838 46.4021C14.1997 45.2944 13.1155 44.1926 12.0372 43.0849C11.9962 43.0498 11.9552 43.0088 11.92 42.9677L11.9142 42.9619C11.8731 42.9267 11.8321 42.8857 11.7969 42.8447L11.7911 42.8388C11.7501 42.8036 11.709 42.7685 11.6797 42.7216L11.6739 42.7157C11.6329 42.6806 11.5918 42.6454 11.5625 42.5985L11.5567 42.5926C11.5098 42.5633 11.4746 42.5223 11.4453 42.4813L11.4336 42.4696C11.3867 42.4403 11.3516 42.4051 11.3223 42.3582L11.3105 42.3465C11.2637 42.3172 11.2285 42.282 11.2051 42.2351L11.1933 42.2234C11.1465 42.2 11.1113 42.1648 11.0879 42.1179L11.0703 42.1003C11.0234 42.0769 10.9882 42.0417 10.9648 41.9949L10.9472 41.9773C10.9003 41.9538 10.8652 41.9187 10.8476 41.8718L10.83 41.8542C10.7831 41.8366 10.7538 41.8073 10.7421 41.7663C10.2791 41.2916 9.81619 40.811 9.35909 40.3363C9.31221 40.2015 9.37667 40.1663 9.49973 40.1839C9.53489 40.2308 9.57592 40.2718 9.6228 40.307C9.65796 40.3539 9.69898 40.3949 9.74586 40.43C9.78102 40.4711 9.82205 40.5121 9.86893 40.5531C9.90995 40.5941 9.95097 40.6352 9.98614 40.6762C10.0272 40.7172 10.0682 40.7582 10.1033 40.7993C10.1444 40.8344 10.1854 40.8755 10.2205 40.9165L10.2264 40.9223C10.2674 40.9575 10.3084 40.9985 10.3436 41.0396L10.3495 41.0454C10.3905 41.0806 10.4315 41.1157 10.4608 41.1626L10.4667 41.1685C10.5077 41.2037 10.5487 41.2388 10.578 41.2857L10.5839 41.2974C10.6308 41.3267 10.6659 41.3678 10.6952 41.4088L10.7069 41.4205C10.7538 41.4498 10.789 41.485 10.8183 41.5319L10.83 41.5436C10.8769 41.5729 10.9121 41.608 10.9355 41.6549L10.9472 41.6666C10.9941 41.6901 11.0293 41.7253 11.0527 41.7721L11.0703 41.7897C11.1172 41.8132 11.1523 41.8483 11.1758 41.8952L11.1933 41.9128C11.2402 41.9362 11.2754 41.9655 11.293 42.0183L11.3105 42.0417C11.3516 42.0593 11.3809 42.0886 11.3985 42.1296C12.6818 43.4131 13.9828 44.7201 15.2779 46.0212Z" fill="#CB5EFF"/>
<path d="M10.5333 45.991C11.8343 47.3214 13.1352 48.6517 14.4362 49.9821C14.2428 50.029 14.0905 49.9821 13.9498 49.8297C13.0297 48.8686 12.1038 47.9192 11.1838 46.9639C11.1428 46.9287 11.1017 46.8877 11.0666 46.8466L11.0607 46.8408C11.0197 46.8056 10.9787 46.7646 10.9435 46.7236L10.9376 46.7177C10.8966 46.6825 10.8556 46.6474 10.8263 46.6005L10.8204 46.5946C10.7794 46.5653 10.7384 46.5243 10.7091 46.4833L10.7032 46.4716C10.6622 46.4422 10.6212 46.4012 10.5919 46.3602L10.5802 46.3485C10.5333 46.3192 10.4981 46.284 10.4688 46.2371L10.4571 46.2254C10.4102 46.1961 10.3751 46.1609 10.3516 46.114L10.3399 46.1023C10.293 46.0789 10.2579 46.0437 10.2344 45.9968L10.2168 45.9793C10.17 45.9558 10.1348 45.9206 10.1113 45.8738L10.0938 45.8562C10.0469 45.8327 10.0117 45.7976 9.99414 45.7507L9.97656 45.7331C9.92968 45.7155 9.89452 45.6804 9.87694 45.6335L9.8535 45.61C9.81247 45.5983 9.78317 45.569 9.76559 45.5221C9.34366 45.0826 8.92172 44.6489 8.49978 44.2093C8.4529 44.0745 8.51736 44.0394 8.63457 44.0569C8.66973 44.1038 8.71661 44.139 8.75763 44.18C8.79865 44.221 8.83381 44.2621 8.87483 44.3031C8.91586 44.3441 8.95688 44.3851 8.99204 44.4262C9.03306 44.4672 9.07408 44.5023 9.10924 44.5434L9.1151 44.5492C9.15613 44.5844 9.19715 44.6254 9.23231 44.6664L9.23817 44.6723C9.27919 44.7075 9.32021 44.7485 9.35538 44.7895L9.36123 44.7954C9.40226 44.8305 9.44328 44.8657 9.47258 44.9126L9.47844 44.9185C9.51946 44.9478 9.56048 44.9888 9.58979 45.0357L9.60151 45.0474C9.64839 45.0767 9.68355 45.1177 9.71285 45.1587L9.72457 45.1705C9.77145 45.1998 9.80662 45.2349 9.83592 45.2818L9.84763 45.2935C9.89452 45.3228 9.92968 45.358 9.95312 45.4049L9.96484 45.4166C10.0117 45.4401 10.0469 45.4752 10.0703 45.5221L10.0879 45.5397C10.1348 45.5631 10.1699 45.5983 10.1934 45.6452L10.211 45.6628C10.2579 45.6862 10.293 45.7155 10.3106 45.7683L10.3282 45.7858C10.3751 45.8034 10.4102 45.8386 10.4278 45.8855L10.4512 45.9089C10.4923 45.9148 10.5216 45.9441 10.5333 45.991Z" fill="#11FEF5"/>
<path d="M8.637 44.0577C8.59011 44.1104 8.54323 44.1573 8.50221 44.21C7.61731 43.3075 6.73241 42.4108 5.84752 41.5082C5.80649 41.4672 5.76547 41.432 5.73031 41.391L5.72445 41.3852C5.68343 41.35 5.64241 41.309 5.60725 41.2679L5.60138 41.2621C5.56036 41.2269 5.51934 41.1859 5.48418 41.1449L5.47832 41.139C5.4373 41.1038 5.39628 41.0687 5.36697 41.0218L5.36112 41.0159C5.32009 40.9866 5.27907 40.9456 5.24977 40.9046L5.23805 40.8929C5.19117 40.8636 5.15601 40.8225 5.12671 40.7815L5.11498 40.7698C5.0681 40.7405 5.03294 40.7053 5.00364 40.6584L4.99192 40.6467C4.94504 40.6174 4.90988 40.5822 4.88644 40.5354L4.87472 40.5236C4.82783 40.5002 4.79267 40.465 4.76923 40.4181L4.75165 40.4006C4.70477 40.3771 4.67547 40.3478 4.65203 40.3009L4.61686 40.2658C4.56998 40.254 4.54068 40.2247 4.52896 40.1778C4.44106 40.0958 4.35902 40.0079 4.27111 39.9258C4.15977 39.7793 4.17735 39.6855 4.38245 39.6855L4.3766 39.7031C4.41762 39.7324 4.45864 39.7676 4.48794 39.8145L4.49966 39.8262C4.54654 39.8555 4.5817 39.8907 4.60514 39.9376L4.61686 39.9493C4.66375 39.9786 4.69891 40.0137 4.72235 40.0548L4.73407 40.0724C4.78095 40.0958 4.81611 40.131 4.83955 40.1778L4.85714 40.1954C4.90402 40.2189 4.93918 40.254 4.96262 40.3009L4.9802 40.3185C5.02708 40.3419 5.06224 40.3713 5.07982 40.4181L5.0974 40.4416C5.13843 40.4592 5.16773 40.4885 5.18531 40.5295C6.34564 41.7075 7.49425 42.8796 8.637 44.0577Z" fill="#11FEF5"/>
<path d="M48.6372 38.9518C46.5041 38.9401 44.3651 38.9283 42.232 38.9225C41.8862 38.0551 41.9273 37.1877 42.2027 36.3145C47.7875 36.3145 53.3782 36.3145 58.963 36.3145C59.2677 37.1877 59.297 38.0551 58.9396 38.9225C56.8006 38.9342 54.6616 38.9518 52.5226 38.9635C52.2882 39.1686 52.3468 39.4441 52.3468 39.702C52.3468 42.8492 52.3468 45.9964 52.3409 49.1436C52.3409 49.4366 52.4171 49.759 52.1241 49.9817C51.0927 49.9817 50.0554 49.9817 49.024 49.9817C48.7662 49.7414 48.8306 49.4249 48.8306 49.126C48.8248 45.9964 48.8306 42.8667 48.8248 39.743C48.8248 39.4617 48.901 39.1628 48.6372 38.9518Z" fill="#1758FF"/>
<path d="M48.6406 38.9512C48.752 38.9512 48.8692 38.9512 49.0274 38.9512C49.0274 42.6493 49.0274 46.3181 49.0274 49.9811C48.9161 49.9811 48.8047 49.9811 48.6406 49.9811C48.6406 46.2654 48.6406 42.6083 48.6406 38.9512Z" fill="#11FEF5"/>
<path d="M52.125 49.9827C52.125 46.3373 52.125 42.6978 52.125 39.0876C52.2422 38.8884 52.3887 38.9528 52.5235 38.9645C52.5235 42.6041 52.5235 46.2494 52.5235 49.8538C52.4063 50.053 52.2598 49.9886 52.125 49.9827Z" fill="#CB5EFF"/>
<path d="M58.9375 38.9225C58.9434 38.0551 58.9551 37.1818 58.9609 36.3145C59.0899 36.3145 59.2247 36.3145 59.3829 36.3145C59.3829 37.1818 59.3829 37.9906 59.3829 38.7818C59.2657 38.9811 59.0957 38.9166 58.9375 38.9225Z" fill="#CB5EFF"/>
<path d="M42.1973 36.3147C42.209 37.1821 42.2208 38.0553 42.2266 38.9227C42.0918 38.9227 41.9453 38.9754 41.8047 38.8055C41.8047 38.026 41.8047 37.2114 41.8047 36.4084C41.9219 36.2443 42.0625 36.3029 42.1973 36.3147Z" fill="#11FEF5"/>
<path d="M9.49082 40.1723C9.44394 40.2251 9.39706 40.2778 9.35018 40.3247C8.66453 39.6273 7.98474 38.9299 7.29909 38.2324C7.25807 38.1914 7.22291 38.1504 7.18189 38.1094C7.14086 38.0683 7.09984 38.0273 7.06468 37.9863C7.02366 37.9453 6.98264 37.9101 6.94748 37.8691L6.94162 37.8632C6.90059 37.8281 6.85957 37.787 6.82441 37.746L6.81855 37.7401C6.77753 37.705 6.73651 37.6639 6.70134 37.6229L6.69549 37.6171C6.65446 37.5819 6.61344 37.5467 6.58414 37.4998L6.57828 37.494C6.5314 37.4647 6.49624 37.4237 6.46693 37.3768L6.46108 37.3651C6.41419 37.3357 6.37903 37.2947 6.34973 37.2537L6.33801 37.242C6.29113 37.2127 6.25597 37.1775 6.22667 37.1306L6.21494 37.1189C6.16806 37.0955 6.1329 37.0544 6.10946 37.0075L6.09774 36.9958C6.05086 36.9724 6.0157 36.9372 5.99226 36.8903L5.97468 36.8728C5.92779 36.8493 5.89263 36.8141 5.86919 36.7673L5.85161 36.7497C5.80473 36.7321 5.77543 36.7028 5.75785 36.6559C5.68752 36.5797 5.6172 36.5035 5.54688 36.4273C5.64064 36.3336 5.7344 36.3336 5.83403 36.4156L5.84575 36.4273C5.89263 36.4566 5.92779 36.4918 5.95709 36.5387L5.96881 36.5504C6.0157 36.5797 6.05086 36.6149 6.0743 36.6618L6.08602 36.6735C6.1329 36.6969 6.16806 36.7321 6.1915 36.779L6.20909 36.7966C6.25597 36.82 6.29113 36.8552 6.31457 36.9021L6.33215 36.9196C6.37903 36.9431 6.41419 36.9724 6.43177 37.0251L6.44935 37.0486C6.49038 37.0662 6.51968 37.0955 6.53726 37.1365C7.52764 38.1504 8.5063 39.1584 9.49082 40.1723Z" fill="#CB5EFF"/>
<path d="M20.9121 36.3086C22.3596 36.3086 23.8071 36.3086 25.2487 36.3086C25.2956 36.332 25.3366 36.3555 25.3894 36.3731C25.4128 36.3848 25.4362 36.3965 25.4597 36.4082C25.5066 36.4317 25.5476 36.461 25.5886 36.4961C25.8054 36.6427 26.0164 36.795 26.1922 36.9943C26.4676 37.3049 26.8486 37.4925 27.124 37.8031C27.3467 38.0375 27.6397 38.1899 27.8624 38.4243C28.0968 38.6763 28.3839 38.8639 28.6476 39.0807C28.6828 39.1159 28.7238 39.1452 28.759 39.1862C28.7766 39.2038 28.7942 39.2214 28.8117 39.239C28.8469 39.2741 28.8762 39.3093 28.9114 39.3444C28.9289 39.362 28.9465 39.3796 28.9582 39.3972C28.9934 39.4324 29.0227 39.4617 29.0579 39.4968C29.0754 39.5144 29.093 39.5261 29.1106 39.5437C29.1458 39.573 29.1868 39.6023 29.2219 39.6258C29.304 39.6785 29.386 39.7254 29.4564 39.7899C29.5501 39.8719 29.6322 39.9657 29.7259 40.0536C29.9076 40.2822 30.1889 40.3877 30.3881 40.5928C30.5229 40.7217 30.646 40.8565 30.7925 40.9737C31.1969 40.9386 31.443 40.6455 31.7184 40.4052C31.8825 40.2704 32.0173 40.1005 32.2048 39.995C32.2693 39.954 32.3337 39.9071 32.3923 39.8543C32.6209 39.6727 32.785 39.4265 33.037 39.2741C33.078 39.2448 33.119 39.2155 33.16 39.1803C33.1776 39.1628 33.2011 39.1452 33.2186 39.1276C33.2597 39.0924 33.2948 39.0631 33.3358 39.028C33.453 38.9283 33.5585 38.8228 33.664 38.7115C33.7343 38.6412 33.8222 38.5884 33.9043 38.5357C33.9453 38.5064 33.9863 38.4771 34.0215 38.4478C34.0391 38.4302 34.0567 38.4126 34.0742 38.395C34.1094 38.3598 34.1446 38.3247 34.1797 38.2895C34.1973 38.2719 34.2149 38.2544 34.2325 38.2368C34.2676 38.2016 34.3028 38.1664 34.3438 38.1313C34.6251 37.85 34.9767 37.6507 35.2521 37.3518C35.4748 37.1232 35.762 36.965 35.9905 36.7364C36.1605 36.5606 36.3304 36.3848 36.5766 36.332C38.0299 36.332 39.4774 36.332 40.9307 36.332C40.9542 36.5958 40.7198 36.6954 40.5908 36.8536C40.3681 37.0763 40.0634 37.2111 39.8642 37.4632C39.5946 37.721 39.2723 37.9086 39.0203 38.184C38.7976 38.4126 38.5104 38.565 38.2878 38.7935C38.0475 39.0807 37.6841 39.2272 37.4439 39.5144C37.2036 39.8016 36.8403 39.9481 36.6 40.2353C36.3773 40.4638 36.0902 40.6162 35.8733 40.8507C35.8323 40.8858 35.7972 40.921 35.7561 40.962C35.7385 40.9796 35.7151 40.9972 35.6975 41.0206C35.4748 41.214 35.2053 41.3547 35.0119 41.5832C34.7892 41.8587 34.4434 41.9935 34.2149 42.2572C34.1621 42.31 34.1035 42.3686 34.0449 42.4213C33.9336 42.5268 33.8164 42.6206 33.6875 42.7026C33.6464 42.7319 33.6054 42.7613 33.5703 42.7964C33.5527 42.814 33.5351 42.8316 33.5117 42.8492C33.4765 42.8843 33.4413 42.9195 33.4003 42.9547C33.3417 43.0133 33.2831 43.066 33.2831 43.1774C33.289 43.2653 33.3769 43.3239 33.4413 43.4001C33.6757 43.6931 34.0449 43.8338 34.2852 44.1209C34.5079 44.3495 34.795 44.5019 35.0177 44.7305C35.2697 45.0118 35.5979 45.1993 35.8675 45.4572C36.1077 45.7502 36.4711 45.8967 36.7172 46.1839C36.9575 46.477 37.3208 46.6176 37.5611 46.9106C37.7838 47.1392 38.0709 47.2975 38.2936 47.5202C38.5456 47.8015 38.8738 47.989 39.1433 48.2469C39.3895 48.5399 39.7587 48.6864 39.9989 48.9853C40.2627 49.3663 40.837 49.4483 40.9307 49.9817C39.4774 49.9817 38.024 49.9817 36.5648 49.9817C36.4125 49.9348 36.2836 49.841 36.1663 49.7355C36.1312 49.7004 36.0902 49.671 36.055 49.6359C36.0374 49.6183 36.0198 49.6066 36.0023 49.589C35.9671 49.5597 35.9319 49.5245 35.9026 49.4894C35.8851 49.4718 35.8675 49.4601 35.8499 49.4425C35.8147 49.4132 35.7796 49.3839 35.7444 49.3604C35.6741 49.3077 35.592 49.2725 35.5217 49.2139C35.4866 49.1846 35.4573 49.1553 35.4279 49.126C35.4104 49.1084 35.3987 49.0967 35.3811 49.0791C35.3518 49.0498 35.3225 49.0205 35.2932 48.9853C35.2756 48.9678 35.2639 48.956 35.2463 48.9385C35.217 48.9092 35.1877 48.8799 35.1584 48.8505C35.1408 48.8388 35.1291 48.8212 35.1115 48.8037C35.0822 48.7744 35.047 48.7451 35.0177 48.7158C35.0002 48.704 34.9826 48.6864 34.9709 48.6747C34.9357 48.6513 34.9005 48.622 34.8595 48.5985C34.7775 48.5517 34.6954 48.5106 34.6251 48.4462C34.5899 48.411 34.5548 48.3817 34.5196 48.3465C34.502 48.3289 34.4845 48.3114 34.4669 48.2938C34.4259 48.2586 34.3907 48.2234 34.3555 48.1824C34.1563 47.9246 33.8281 47.8132 33.623 47.5612C33.5878 47.526 33.5527 47.4909 33.5117 47.4557C33.4941 47.4381 33.4765 47.4205 33.453 47.4029C33.4179 47.3678 33.3827 47.3326 33.3476 47.3033C33.33 47.2857 33.3124 47.2682 33.2948 47.2564C33.2597 47.2271 33.2186 47.192 33.1835 47.1685C33.0604 47.0923 32.9491 46.9986 32.8436 46.9048C32.8084 46.8755 32.7733 46.8403 32.7322 46.811C32.7147 46.7934 32.6971 46.7759 32.6795 46.7583C32.6443 46.7231 32.6092 46.6879 32.574 46.6528C32.5388 46.6176 32.5037 46.5766 32.4685 46.5414C32.4509 46.5238 32.4275 46.5063 32.4099 46.4887C32.363 46.4594 32.322 46.4301 32.2751 46.4008C31.8591 46.0433 31.4664 45.6682 31.0269 45.3458C30.9859 45.3165 30.939 45.3048 30.8863 45.2989C30.8394 45.3107 30.7925 45.3282 30.7515 45.3576C30.605 45.463 30.4936 45.5978 30.3647 45.7209C30.1303 45.9905 29.7845 46.1312 29.556 46.4066C29.3099 46.6997 28.9465 46.852 28.6945 47.1392C28.466 47.4088 28.1378 47.5495 27.9034 47.8073C27.8507 47.8601 27.792 47.9128 27.7393 47.9656C27.628 48.0652 27.5166 48.1648 27.3877 48.241C27.3467 48.2703 27.3056 48.2996 27.2705 48.3289C27.2529 48.3465 27.2353 48.3641 27.2177 48.3817C27.1826 48.4169 27.1474 48.452 27.1064 48.4872C27.0888 48.5048 27.0654 48.5223 27.0478 48.5399C27.0068 48.5751 26.9716 48.6103 26.9306 48.6454C26.3563 49.0615 25.9226 49.6535 25.2604 49.9641C23.8071 49.9641 22.3537 49.9641 20.9004 49.9641C20.877 49.5831 21.3048 49.5773 21.4278 49.3194C21.674 49.0322 22.0373 48.8799 22.2776 48.5927C22.5061 48.3641 22.7874 48.2059 23.016 47.9773C23.2328 47.7018 23.5844 47.5788 23.8012 47.3033C23.8364 47.2623 23.8715 47.2271 23.9126 47.192C23.9301 47.1744 23.9477 47.1568 23.9653 47.1392C24.0005 47.1041 24.0356 47.0689 24.0767 47.0337C24.1528 46.9693 24.2407 46.9282 24.3228 46.8755C24.3638 46.8462 24.399 46.8169 24.44 46.7876C24.4576 46.77 24.4751 46.7524 24.4927 46.7348C24.5279 46.6997 24.5631 46.6645 24.5982 46.6293C24.6158 46.6117 24.6334 46.5942 24.6568 46.5766C24.692 46.5414 24.733 46.5063 24.7682 46.4711C24.9557 46.2425 25.2428 46.137 25.4421 45.9202C25.7351 45.6037 26.1219 45.3869 26.4149 45.0645C26.8193 44.7773 27.1767 44.4374 27.5459 44.1151C27.5928 44.0858 27.6338 44.0506 27.6748 44.0213C27.6924 44.0037 27.7159 43.9861 27.7334 43.9686C27.7745 43.9334 27.8155 43.8982 27.8565 43.8631C27.8741 43.8455 27.8917 43.8279 27.9151 43.8045C27.9561 43.7634 27.9913 43.7283 28.0323 43.6872C28.173 43.4821 28.466 43.4235 28.5597 43.1715C28.5246 42.9136 28.2902 42.8433 28.1495 42.6909C28.0733 42.6147 27.9972 42.5385 27.921 42.4624C27.88 42.4272 27.8448 42.392 27.8038 42.3569C27.7569 42.3276 27.7159 42.2983 27.669 42.269C27.3115 41.9759 27.0009 41.6184 26.5966 41.384C26.5555 41.3488 26.5204 41.3137 26.4852 41.2785C26.4676 41.2609 26.4501 41.2433 26.4325 41.2257C26.3973 41.1906 26.3621 41.1554 26.3328 41.1202C26.3153 41.1027 26.2977 41.0851 26.2801 41.0675C26.2449 41.0323 26.2156 41.003 26.1805 40.9679C26.1629 40.9503 26.1453 40.9386 26.1277 40.921C26.0926 40.8917 26.0516 40.8624 26.0164 40.8389C25.9344 40.7862 25.8523 40.7393 25.782 40.6748C25.6882 40.5928 25.6003 40.499 25.5124 40.4111C25.2956 40.2118 25.0377 40.0653 24.8326 39.8543C24.5455 39.532 24.1411 39.3503 23.8715 39.0104C23.7133 38.8287 23.4906 38.7349 23.3148 38.5826C23.2797 38.5533 23.2386 38.5181 23.2035 38.4829C23.1859 38.4653 23.1683 38.4478 23.1507 38.4302C23.1156 38.395 23.0863 38.3598 23.0511 38.3247C23.0335 38.3071 23.0159 38.2895 23.0042 38.2778C22.9691 38.2485 22.9398 38.2133 22.9046 38.184C22.887 38.1664 22.8694 38.1547 22.8519 38.1371C22.8167 38.1078 22.7815 38.0785 22.7405 38.0551C22.6585 38.0023 22.5764 37.9555 22.5061 37.891C22.4123 37.8089 22.3244 37.7152 22.2307 37.6273C21.9845 37.4104 21.7033 37.2346 21.4747 37.0002C21.4337 36.965 21.3985 36.9298 21.3575 36.8888C21.3399 36.8712 21.3165 36.8536 21.2989 36.8361C21.2637 36.8009 21.2227 36.7657 21.1758 36.7364C21.0469 36.6485 20.918 36.5606 20.8359 36.4199C20.8418 36.3731 20.8594 36.332 20.9121 36.3086Z" fill="#CB5EFF"/>
<path d="M20.1699 36.3086C21.6174 36.3086 23.0649 36.3086 24.5065 36.3086C24.5534 36.332 24.5944 36.3555 24.6472 36.3731C24.6706 36.3848 24.694 36.3965 24.7175 36.4082C24.7644 36.4317 24.8054 36.461 24.8464 36.4961C25.0632 36.6427 25.2742 36.795 25.45 36.9943C25.7254 37.3049 26.1064 37.4925 26.3818 37.8031C26.6045 38.0375 26.8975 38.1899 27.1202 38.4243C27.3546 38.6763 27.6417 38.8639 27.9055 39.0807C27.9406 39.1159 27.9816 39.1452 28.0168 39.1862C28.0344 39.2038 28.052 39.2214 28.0695 39.239C28.1047 39.2741 28.134 39.3093 28.1692 39.3444C28.1868 39.362 28.2043 39.3796 28.2161 39.3972C28.2512 39.4324 28.2805 39.4617 28.3157 39.4968C28.3333 39.5144 28.3508 39.5261 28.3684 39.5437C28.4036 39.573 28.4446 39.6023 28.4798 39.6258C28.5618 39.6785 28.6438 39.7254 28.7142 39.7899C28.8079 39.8719 28.89 39.9657 28.9837 40.0536C29.1654 40.2822 29.4467 40.3877 29.646 40.5928C29.7807 40.7217 29.9038 40.8565 30.0503 40.9737C30.4547 40.9386 30.7008 40.6455 30.9762 40.4052C31.1403 40.2704 31.2751 40.1005 31.4626 39.995C31.5271 39.954 31.5916 39.9071 31.6502 39.8543C31.8787 39.6727 32.0428 39.4265 32.2948 39.2741C32.3358 39.2448 32.3768 39.2155 32.4178 39.1803C32.4354 39.1628 32.4589 39.1452 32.4765 39.1276C32.5175 39.0924 32.5526 39.0631 32.5937 39.028C32.7109 38.9283 32.8163 38.8228 32.9218 38.7115C32.9922 38.6412 33.0801 38.5884 33.1621 38.5357C33.2031 38.5064 33.2441 38.4771 33.2793 38.4478C33.2969 38.4302 33.3145 38.4126 33.332 38.395C33.3672 38.3598 33.4024 38.3247 33.4375 38.2895C33.4551 38.2719 33.4727 38.2544 33.4903 38.2368C33.5254 38.2016 33.5606 38.1664 33.6016 38.1313C33.8829 37.85 34.2345 37.6507 34.51 37.3518C34.7326 37.1232 35.0198 36.965 35.2484 36.7364C35.4183 36.5606 35.5882 36.3848 35.8344 36.332C37.2877 36.332 38.7352 36.332 40.1885 36.332C40.212 36.5958 39.9776 36.6954 39.8486 36.8536C39.626 37.0763 39.3212 37.2111 39.122 37.4632C38.8524 37.721 38.5301 37.9086 38.2781 38.184C38.0554 38.4126 37.7683 38.565 37.5456 38.7935C37.3053 39.0807 36.942 39.2272 36.7017 39.5144C36.4614 39.8016 36.0981 39.9481 35.8578 40.2353C35.6351 40.4638 35.348 40.6162 35.1311 40.8507C35.0901 40.8858 35.055 40.921 35.0139 40.962C34.9964 40.9796 34.9729 40.9972 34.9553 41.0206C34.7326 41.214 34.4631 41.3547 34.2697 41.5832C34.047 41.8587 33.7012 41.9935 33.4727 42.2572C33.42 42.31 33.3613 42.3686 33.3027 42.4213C33.1914 42.5268 33.0742 42.6206 32.9453 42.7026C32.9042 42.7319 32.8632 42.7613 32.8281 42.7964C32.8105 42.814 32.7929 42.8316 32.7695 42.8492C32.7343 42.8843 32.6991 42.9195 32.6581 42.9547C32.5995 43.0133 32.5409 43.066 32.5409 43.1774C32.5468 43.2653 32.6347 43.3239 32.6991 43.4001C32.9335 43.6931 33.3027 43.8338 33.543 44.1209C33.7657 44.3495 34.0529 44.5019 34.2755 44.7305C34.5275 45.0118 34.8557 45.1993 35.1253 45.4572C35.3656 45.7502 35.7289 45.8967 35.975 46.1839C36.2153 46.477 36.5786 46.6176 36.8189 46.9106C37.0416 47.1392 37.3287 47.2975 37.5514 47.5202C37.8034 47.8015 38.1316 47.989 38.4012 48.2469C38.6473 48.5399 39.0165 48.6864 39.2568 48.9853C39.5205 49.3663 40.0948 49.4483 40.1885 49.9817C38.7352 49.9817 37.2819 49.9817 35.8227 49.9817C35.6703 49.9348 35.5414 49.841 35.4242 49.7355C35.389 49.7004 35.348 49.671 35.3128 49.6359C35.2952 49.6183 35.2776 49.6066 35.2601 49.589C35.2249 49.5597 35.1897 49.5245 35.1604 49.4894C35.1429 49.4718 35.1253 49.4601 35.1077 49.4425C35.0725 49.4132 35.0374 49.3839 35.0022 49.3604C34.9319 49.3077 34.8499 49.2725 34.7795 49.2139C34.7444 49.1846 34.7151 49.1553 34.6858 49.126C34.6682 49.1084 34.6565 49.0967 34.6389 49.0791C34.6096 49.0498 34.5803 49.0205 34.551 48.9853C34.5334 48.9678 34.5217 48.956 34.5041 48.9385C34.4748 48.9092 34.4455 48.8799 34.4162 48.8505C34.3986 48.8388 34.3869 48.8212 34.3693 48.8037C34.34 48.7744 34.3048 48.7451 34.2755 48.7158C34.258 48.704 34.2404 48.6864 34.2287 48.6747C34.1935 48.6513 34.1583 48.622 34.1173 48.5985C34.0353 48.5517 33.9532 48.5106 33.8829 48.4462C33.8477 48.411 33.8126 48.3817 33.7774 48.3465C33.7598 48.3289 33.7423 48.3114 33.7247 48.2938C33.6837 48.2586 33.6485 48.2234 33.6133 48.1824C33.4141 47.9246 33.0859 47.8132 32.8808 47.5612C32.8456 47.526 32.8105 47.4909 32.7695 47.4557C32.7519 47.4381 32.7343 47.4205 32.7109 47.4029C32.6757 47.3678 32.6405 47.3326 32.6054 47.3033C32.5878 47.2857 32.5702 47.2682 32.5526 47.2564C32.5175 47.2271 32.4765 47.192 32.4413 47.1685C32.3182 47.0923 32.2069 46.9986 32.1014 46.9048C32.0662 46.8755 32.0311 46.8403 31.9901 46.811C31.9725 46.7934 31.9549 46.7759 31.9373 46.7583C31.9021 46.7231 31.867 46.6879 31.8318 46.6528C31.7967 46.6176 31.7615 46.5766 31.7263 46.5414C31.7088 46.5238 31.6853 46.5063 31.6677 46.4887C31.6209 46.4594 31.5798 46.4301 31.533 46.4008C31.1169 46.0433 30.7242 45.6682 30.2847 45.3458C30.2437 45.3165 30.1968 45.3048 30.1441 45.2989C30.0972 45.3107 30.0503 45.3282 30.0093 45.3576C29.8628 45.463 29.7514 45.5978 29.6225 45.7209C29.3881 45.9905 29.0423 46.1312 28.8138 46.4066C28.5677 46.6997 28.2043 46.852 27.9523 47.1392C27.7238 47.4088 27.3956 47.5495 27.1612 47.8073C27.1085 47.8601 27.0499 47.9128 26.9971 47.9656C26.8858 48.0652 26.7744 48.1648 26.6455 48.241C26.6045 48.2703 26.5635 48.2996 26.5283 48.3289C26.5107 48.3465 26.4931 48.3641 26.4756 48.3817C26.4404 48.4169 26.4052 48.452 26.3642 48.4872C26.3466 48.5048 26.3232 48.5223 26.3056 48.5399C26.2646 48.5751 26.2294 48.6103 26.1884 48.6454C25.6141 49.0615 25.1804 49.6535 24.5182 49.9641C23.0649 49.9641 21.6116 49.9641 20.1582 49.9641C20.1348 49.5831 20.5626 49.5773 20.6856 49.3194C20.9318 49.0322 21.2951 48.8799 21.5354 48.5927C21.7639 48.3641 22.0452 48.2059 22.2738 47.9773C22.4906 47.7018 22.8422 47.5788 23.059 47.3033C23.0942 47.2623 23.1294 47.2271 23.1704 47.192C23.188 47.1744 23.2055 47.1568 23.2231 47.1392C23.2583 47.1041 23.2934 47.0689 23.3345 47.0337C23.4106 46.9693 23.4986 46.9282 23.5806 46.8755C23.6216 46.8462 23.6568 46.8169 23.6978 46.7876C23.7154 46.77 23.733 46.7524 23.7505 46.7348C23.7857 46.6997 23.8209 46.6645 23.856 46.6293C23.8736 46.6117 23.8912 46.5942 23.9146 46.5766C23.9498 46.5414 23.9908 46.5063 24.026 46.4711C24.2135 46.2425 24.5007 46.137 24.6999 45.9202C24.9929 45.6037 25.3797 45.3869 25.6727 45.0645C26.0771 44.7773 26.4345 44.4374 26.8037 44.1151C26.8506 44.0858 26.8916 44.0506 26.9327 44.0213C26.9502 44.0037 26.9737 43.9861 26.9913 43.9686C27.0323 43.9334 27.0733 43.8982 27.1143 43.8631C27.1319 43.8455 27.1495 43.8279 27.1729 43.8045C27.2139 43.7634 27.2491 43.7283 27.2901 43.6872C27.4308 43.4821 27.7238 43.4235 27.8176 43.1715C27.7824 42.9136 27.548 42.8433 27.4073 42.6909C27.3312 42.6147 27.255 42.5385 27.1788 42.4624C27.1378 42.4272 27.1026 42.392 27.0616 42.3569C27.0147 42.3276 26.9737 42.2983 26.9268 42.269C26.5693 41.9759 26.2587 41.6184 25.8544 41.384C25.8134 41.3488 25.7782 41.3137 25.743 41.2785C25.7254 41.2609 25.7079 41.2433 25.6903 41.2257C25.6551 41.1906 25.62 41.1554 25.5907 41.1202C25.5731 41.1027 25.5555 41.0851 25.5379 41.0675C25.5028 41.0323 25.4735 41.003 25.4383 40.9679C25.4207 40.9503 25.4031 40.9386 25.3856 40.921C25.3504 40.8917 25.3094 40.8624 25.2742 40.8389C25.1922 40.7862 25.1101 40.7393 25.0398 40.6748C24.946 40.5928 24.8581 40.499 24.7702 40.4111C24.5534 40.2118 24.2955 40.0653 24.0904 39.8543C23.8033 39.532 23.3989 39.3503 23.1294 39.0104C22.9711 38.8287 22.7484 38.7349 22.5726 38.5826C22.5375 38.5533 22.4964 38.5181 22.4613 38.4829C22.4437 38.4653 22.4261 38.4478 22.4085 38.4302C22.3734 38.395 22.3441 38.3598 22.3089 38.3247C22.2913 38.3071 22.2738 38.2895 22.262 38.2778C22.2269 38.2485 22.1976 38.2133 22.1624 38.184C22.1448 38.1664 22.1273 38.1547 22.1097 38.1371C22.0745 38.1078 22.0394 38.0785 21.9983 38.0551C21.9163 38.0023 21.8342 37.9555 21.7639 37.891C21.6702 37.8089 21.5823 37.7152 21.4885 37.6273C21.2424 37.4104 20.9611 37.2346 20.7325 37.0002C20.6915 36.965 20.6563 36.9298 20.6153 36.8888C20.5977 36.8712 20.5743 36.8536 20.5567 36.8361C20.5215 36.8009 20.4805 36.7657 20.4336 36.7364C20.3047 36.6485 20.1758 36.5606 20.0938 36.4199C20.0996 36.3731 20.1172 36.332 20.1699 36.3086Z" fill="#11FEF5"/>
<path d="M20.5449 36.3086C21.9924 36.3086 23.4399 36.3086 24.8815 36.3086C24.9284 36.332 24.9694 36.3555 25.0222 36.3731C25.0456 36.3848 25.069 36.3965 25.0925 36.4082C25.1394 36.4317 25.1804 36.461 25.2214 36.4961C25.4382 36.6427 25.6492 36.795 25.825 36.9943C26.1004 37.3049 26.4814 37.4925 26.7568 37.8031C26.9795 38.0375 27.2725 38.1899 27.4952 38.4243C27.7296 38.6763 28.0167 38.8639 28.2805 39.0807C28.3156 39.1159 28.3566 39.1452 28.3918 39.1862C28.4094 39.2038 28.427 39.2214 28.4445 39.239C28.4797 39.2741 28.509 39.3093 28.5442 39.3444C28.5618 39.362 28.5793 39.3796 28.5911 39.3972C28.6262 39.4324 28.6555 39.4617 28.6907 39.4968C28.7083 39.5144 28.7258 39.5261 28.7434 39.5437C28.7786 39.573 28.8196 39.6023 28.8548 39.6258C28.9368 39.6785 29.0188 39.7254 29.0892 39.7899C29.1829 39.8719 29.265 39.9657 29.3587 40.0536C29.5404 40.2822 29.8217 40.3877 30.021 40.5928C30.1557 40.7217 30.2788 40.8565 30.4253 40.9737C30.8297 40.9386 31.0758 40.6455 31.3512 40.4052C31.5153 40.2704 31.6501 40.1005 31.8376 39.995C31.9021 39.954 31.9666 39.9071 32.0252 39.8543C32.2537 39.6727 32.4178 39.4265 32.6698 39.2741C32.7108 39.2448 32.7518 39.2155 32.7928 39.1803C32.8104 39.1628 32.8339 39.1452 32.8515 39.1276C32.8925 39.0924 32.9276 39.0631 32.9687 39.028C33.0859 38.9283 33.1913 38.8228 33.2968 38.7115C33.3672 38.6412 33.4551 38.5884 33.5371 38.5357C33.5781 38.5064 33.6191 38.4771 33.6543 38.4478C33.6719 38.4302 33.6895 38.4126 33.707 38.395C33.7422 38.3598 33.7774 38.3247 33.8125 38.2895C33.8301 38.2719 33.8477 38.2544 33.8653 38.2368C33.9004 38.2016 33.9356 38.1664 33.9766 38.1313C34.2579 37.85 34.6095 37.6507 34.885 37.3518C35.1076 37.1232 35.3948 36.965 35.6234 36.7364C35.7933 36.5606 35.9632 36.3848 36.2094 36.332C37.6627 36.332 39.1102 36.332 40.5635 36.332C40.587 36.5958 40.3526 36.6954 40.2236 36.8536C40.001 37.0763 39.6962 37.2111 39.497 37.4632C39.2274 37.721 38.9051 37.9086 38.6531 38.184C38.4304 38.4126 38.1433 38.565 37.9206 38.7935C37.6803 39.0807 37.317 39.2272 37.0767 39.5144C36.8364 39.8016 36.4731 39.9481 36.2328 40.2353C36.0101 40.4638 35.723 40.6162 35.5061 40.8507C35.4651 40.8858 35.43 40.921 35.3889 40.962C35.3714 40.9796 35.3479 40.9972 35.3303 41.0206C35.1076 41.214 34.8381 41.3547 34.6447 41.5832C34.422 41.8587 34.0762 41.9935 33.8477 42.2572C33.795 42.31 33.7363 42.3686 33.6777 42.4213C33.5664 42.5268 33.4492 42.6206 33.3203 42.7026C33.2792 42.7319 33.2382 42.7613 33.2031 42.7964C33.1855 42.814 33.1679 42.8316 33.1445 42.8492C33.1093 42.8843 33.0741 42.9195 33.0331 42.9547C32.9745 43.0133 32.9159 43.066 32.9159 43.1774C32.9218 43.2653 33.0097 43.3239 33.0741 43.4001C33.3085 43.6931 33.6777 43.8338 33.918 44.1209C34.1407 44.3495 34.4279 44.5019 34.6505 44.7305C34.9025 45.0118 35.2307 45.1993 35.5003 45.4572C35.7406 45.7502 36.1039 45.8967 36.35 46.1839C36.5903 46.477 36.9536 46.6176 37.1939 46.9106C37.4166 47.1392 37.7037 47.2975 37.9264 47.5202C38.1784 47.8015 38.5066 47.989 38.7762 48.2469C39.0223 48.5399 39.3915 48.6864 39.6318 48.9853C39.8955 49.3663 40.4698 49.4483 40.5635 49.9817C39.1102 49.9817 37.6569 49.9817 36.1977 49.9817C36.0453 49.9348 35.9164 49.841 35.7992 49.7355C35.764 49.7004 35.723 49.671 35.6878 49.6359C35.6702 49.6183 35.6526 49.6066 35.6351 49.589C35.5999 49.5597 35.5647 49.5245 35.5354 49.4894C35.5179 49.4718 35.5003 49.4601 35.4827 49.4425C35.4475 49.4132 35.4124 49.3839 35.3772 49.3604C35.3069 49.3077 35.2249 49.2725 35.1545 49.2139C35.1194 49.1846 35.0901 49.1553 35.0608 49.126C35.0432 49.1084 35.0315 49.0967 35.0139 49.0791C34.9846 49.0498 34.9553 49.0205 34.926 48.9853C34.9084 48.9678 34.8967 48.956 34.8791 48.9385C34.8498 48.9092 34.8205 48.8799 34.7912 48.8505C34.7736 48.8388 34.7619 48.8212 34.7443 48.8037C34.715 48.7744 34.6798 48.7451 34.6505 48.7158C34.633 48.704 34.6154 48.6864 34.6037 48.6747C34.5685 48.6513 34.5333 48.622 34.4923 48.5985C34.4103 48.5517 34.3282 48.5106 34.2579 48.4462C34.2227 48.411 34.1876 48.3817 34.1524 48.3465C34.1348 48.3289 34.1173 48.3114 34.0997 48.2938C34.0587 48.2586 34.0235 48.2234 33.9883 48.1824C33.7891 47.9246 33.4609 47.8132 33.2558 47.5612C33.2206 47.526 33.1855 47.4909 33.1445 47.4557C33.1269 47.4381 33.1093 47.4205 33.0859 47.4029C33.0507 47.3678 33.0155 47.3326 32.9804 47.3033C32.9628 47.2857 32.9452 47.2682 32.9276 47.2564C32.8925 47.2271 32.8515 47.192 32.8163 47.1685C32.6932 47.0923 32.5819 46.9986 32.4764 46.9048C32.4412 46.8755 32.4061 46.8403 32.3651 46.811C32.3475 46.7934 32.3299 46.7759 32.3123 46.7583C32.2771 46.7231 32.242 46.6879 32.2068 46.6528C32.1717 46.6176 32.1365 46.5766 32.1013 46.5414C32.0838 46.5238 32.0603 46.5063 32.0427 46.4887C31.9959 46.4594 31.9548 46.4301 31.908 46.4008C31.4919 46.0433 31.0992 45.6682 30.6597 45.3458C30.6187 45.3165 30.5718 45.3048 30.5191 45.2989C30.4722 45.3107 30.4253 45.3282 30.3843 45.3576C30.2378 45.463 30.1264 45.5978 29.9975 45.7209C29.7631 45.9905 29.4173 46.1312 29.1888 46.4066C28.9427 46.6997 28.5793 46.852 28.3273 47.1392C28.0988 47.4088 27.7706 47.5495 27.5362 47.8073C27.4835 47.8601 27.4249 47.9128 27.3721 47.9656C27.2608 48.0652 27.1494 48.1648 27.0205 48.241C26.9795 48.2703 26.9385 48.2996 26.9033 48.3289C26.8857 48.3465 26.8681 48.3641 26.8506 48.3817C26.8154 48.4169 26.7802 48.452 26.7392 48.4872C26.7216 48.5048 26.6982 48.5223 26.6806 48.5399C26.6396 48.5751 26.6044 48.6103 26.5634 48.6454C25.9891 49.0615 25.5554 49.6535 24.8932 49.9641C23.4399 49.9641 21.9866 49.9641 20.5332 49.9641C20.5098 49.5831 20.9376 49.5773 21.0606 49.3194C21.3068 49.0322 21.6701 48.8799 21.9104 48.5927C22.1389 48.3641 22.4202 48.2059 22.6488 47.9773C22.8656 47.7018 23.2172 47.5788 23.434 47.3033C23.4692 47.2623 23.5044 47.2271 23.5454 47.192C23.563 47.1744 23.5805 47.1568 23.5981 47.1392C23.6333 47.1041 23.6684 47.0689 23.7095 47.0337C23.7856 46.9693 23.8736 46.9282 23.9556 46.8755C23.9966 46.8462 24.0318 46.8169 24.0728 46.7876C24.0904 46.77 24.108 46.7524 24.1255 46.7348C24.1607 46.6997 24.1959 46.6645 24.231 46.6293C24.2486 46.6117 24.2662 46.5942 24.2896 46.5766C24.3248 46.5414 24.3658 46.5063 24.401 46.4711C24.5885 46.2425 24.8757 46.137 25.0749 45.9202C25.3679 45.6037 25.7547 45.3869 26.0477 45.0645C26.4521 44.7773 26.8095 44.4374 27.1787 44.1151C27.2256 44.0858 27.2666 44.0506 27.3077 44.0213C27.3252 44.0037 27.3487 43.9861 27.3663 43.9686C27.4073 43.9334 27.4483 43.8982 27.4893 43.8631C27.5069 43.8455 27.5245 43.8279 27.5479 43.8045C27.5889 43.7634 27.6241 43.7283 27.6651 43.6872C27.8058 43.4821 28.0988 43.4235 28.1926 43.1715C28.1574 42.9136 27.923 42.8433 27.7823 42.6909C27.7062 42.6147 27.63 42.5385 27.5538 42.4624C27.5128 42.4272 27.4776 42.392 27.4366 42.3569C27.3897 42.3276 27.3487 42.2983 27.3018 42.269C26.9443 41.9759 26.6337 41.6184 26.2294 41.384C26.1884 41.3488 26.1532 41.3137 26.118 41.2785C26.1004 41.2609 26.0829 41.2433 26.0653 41.2257C26.0301 41.1906 25.995 41.1554 25.9657 41.1202C25.9481 41.1027 25.9305 41.0851 25.9129 41.0675C25.8778 41.0323 25.8485 41.003 25.8133 40.9679C25.7957 40.9503 25.7781 40.9386 25.7606 40.921C25.7254 40.8917 25.6844 40.8624 25.6492 40.8389C25.5672 40.7862 25.4851 40.7393 25.4148 40.6748C25.321 40.5928 25.2331 40.499 25.1452 40.4111C24.9284 40.2118 24.6705 40.0653 24.4654 39.8543C24.1783 39.532 23.7739 39.3503 23.5044 39.0104C23.3461 38.8287 23.1234 38.7349 22.9476 38.5826C22.9125 38.5533 22.8714 38.5181 22.8363 38.4829C22.8187 38.4653 22.8011 38.4478 22.7835 38.4302C22.7484 38.395 22.7191 38.3598 22.6839 38.3247C22.6663 38.3071 22.6488 38.2895 22.637 38.2778C22.6019 38.2485 22.5726 38.2133 22.5374 38.184C22.5198 38.1664 22.5023 38.1547 22.4847 38.1371C22.4495 38.1078 22.4144 38.0785 22.3733 38.0551C22.2913 38.0023 22.2092 37.9555 22.1389 37.891C22.0452 37.8089 21.9573 37.7152 21.8635 37.6273C21.6174 37.4104 21.3361 37.2346 21.1075 37.0002C21.0665 36.965 21.0313 36.9298 20.9903 36.8888C20.9727 36.8712 20.9493 36.8536 20.9317 36.8361C20.8965 36.8009 20.8555 36.7657 20.8086 36.7364C20.6797 36.6485 20.5508 36.5606 20.4688 36.4199C20.4746 36.3731 20.4922 36.332 20.5449 36.3086Z" fill="#1758FF"/>
<path d="M4.54118 40.1777C4.57048 40.207 4.59978 40.2363 4.62908 40.2656C4.60564 40.2715 4.58806 40.2774 4.56462 40.2774C4.54118 40.2422 4.53532 40.2129 4.54118 40.1777Z" fill="#11FEF5"/>
<path d="M5.836 36.4213C5.74223 36.4271 5.64847 36.4271 5.54885 36.433C5.51368 36.392 5.47266 36.3568 5.4375 36.3158C5.58401 36.304 5.73637 36.2513 5.836 36.4213Z" fill="#CB5EFF"/>
<path d="M9.60744 40.295C9.56642 40.2539 9.5254 40.2129 9.48438 40.1719C9.5254 40.2129 9.56642 40.2539 9.60744 40.295Z" fill="#CB5EFF"/>
<path d="M33.1289 38.7188C33.0879 38.7598 33.041 38.8008 33 38.836C33.041 38.7949 33.0879 38.7539 33.1289 38.7188Z" fill="#11FEF5"/>
<path d="M4.66406 40.3008C4.69922 40.3359 4.72853 40.3652 4.76369 40.4004C4.72853 40.3652 4.69922 40.3301 4.66406 40.3008Z" fill="#11FEF5"/>
<path d="M9.72463 40.418C9.6836 40.377 9.64258 40.3359 9.60156 40.2949C9.64844 40.3359 9.68946 40.377 9.72463 40.418Z" fill="#CB5EFF"/>
<path d="M4.77344 40.4121C4.8086 40.4473 4.84376 40.4824 4.87892 40.5176C4.84376 40.4824 4.8086 40.4473 4.77344 40.4121Z" fill="#11FEF5"/>
<path d="M9.84963 40.541C9.8086 40.5 9.76758 40.459 9.72656 40.418C9.76758 40.459 9.8086 40.5 9.84963 40.541Z" fill="#CB5EFF"/>
<path d="M33.3652 38.5078C33.3301 38.5371 33.2949 38.5723 33.2656 38.6016C33.2949 38.5723 33.3301 38.5371 33.3652 38.5078Z" fill="#11FEF5"/>
<path d="M4.89844 40.5352C4.9336 40.5703 4.96876 40.6055 5.00392 40.6465C4.96876 40.6055 4.9336 40.5703 4.89844 40.5352Z" fill="#11FEF5"/>
<path d="M9.96877 40.6582C9.92775 40.6172 9.88672 40.5762 9.85156 40.5352C9.89258 40.5762 9.92775 40.6172 9.96877 40.6582Z" fill="#CB5EFF"/>
<path d="M5.01562 40.6582C5.05079 40.6934 5.08595 40.7344 5.12697 40.7696C5.08595 40.7285 5.05079 40.6934 5.01562 40.6582Z" fill="#11FEF5"/>
<path d="M10.0938 40.7813C10.0527 40.7403 10.0176 40.6992 9.97656 40.6582C10.0117 40.6992 10.0527 40.7403 10.0938 40.7813Z" fill="#CB5EFF"/>
<path d="M5.13281 40.7754C5.16797 40.8106 5.209 40.8516 5.24416 40.8867C5.209 40.8516 5.17383 40.8164 5.13281 40.7754Z" fill="#11FEF5"/>
<path d="M10.211 40.9043C10.1699 40.8633 10.1348 40.8223 10.0938 40.7871C10.1348 40.8223 10.1699 40.8633 10.211 40.9043Z" fill="#CB5EFF"/>
<path d="M25.3828 40.7812C25.418 40.8106 25.4531 40.8457 25.4883 40.875C25.4531 40.8399 25.418 40.8106 25.3828 40.7812Z" fill="#11FEF5"/>
<path d="M5.25781 40.8984C5.29297 40.9336 5.33399 40.9746 5.36916 41.0098C5.32813 40.9746 5.29297 40.9395 5.25781 40.8984Z" fill="#11FEF5"/>
<path d="M10.3281 41.0274C10.2871 40.9863 10.252 40.9512 10.2109 40.9102C10.252 40.9453 10.293 40.9863 10.3281 41.0274Z" fill="#CB5EFF"/>
<path d="M5.375 41.0215C5.41016 41.0625 5.45118 41.0977 5.48634 41.1387C5.45118 41.0977 5.41602 41.0566 5.375 41.0215Z" fill="#11FEF5"/>
<path d="M10.4473 41.1504C10.4121 41.1094 10.3711 41.0742 10.3359 41.0332C10.3711 41.0684 10.4063 41.1094 10.4473 41.1504Z" fill="#CB5EFF"/>
<path d="M5.49219 41.1445C5.53321 41.1856 5.56837 41.2207 5.60939 41.2617C5.56837 41.2207 5.53321 41.1797 5.49219 41.1445Z" fill="#11FEF5"/>
<path d="M10.5645 41.2676C10.5293 41.2266 10.4883 41.1914 10.4531 41.1504C10.4883 41.1914 10.5293 41.2324 10.5645 41.2676Z" fill="#CB5EFF"/>
<path d="M5.61719 41.2617C5.65821 41.3027 5.69337 41.3379 5.73439 41.3789C5.69337 41.3438 5.65235 41.3027 5.61719 41.2617Z" fill="#11FEF5"/>
<path d="M10.6817 41.3907C10.6465 41.3555 10.6055 41.3145 10.5703 41.2793C10.6113 41.3145 10.6465 41.3555 10.6817 41.3907Z" fill="#CB5EFF"/>
<path d="M5.73438 41.3848C5.7754 41.4258 5.81056 41.4668 5.85158 41.502C5.81056 41.4668 5.7754 41.4258 5.73438 41.3848Z" fill="#11FEF5"/>
<path d="M10.8067 41.5137C10.7715 41.4785 10.7363 41.4375 10.6953 41.4023C10.7305 41.4375 10.7656 41.4785 10.8067 41.5137Z" fill="#CB5EFF"/>
<path d="M10.9258 41.6367C10.8906 41.6016 10.8555 41.5664 10.8203 41.5254C10.8555 41.5606 10.8906 41.5957 10.9258 41.6367Z" fill="#CB5EFF"/>
<path d="M11.043 41.7539C11.0078 41.7188 10.9727 41.6836 10.9375 41.6484C10.9727 41.6836 11.0078 41.7188 11.043 41.7539Z" fill="#CB5EFF"/>
<path d="M11.1602 41.877C11.125 41.8418 11.0898 41.8066 11.0547 41.7715C11.0957 41.8066 11.1309 41.8418 11.1602 41.877Z" fill="#CB5EFF"/>
<path d="M11.2793 42C11.2442 41.9649 11.2148 41.9297 11.1797 41.8945C11.209 41.9297 11.2442 41.9649 11.2793 42Z" fill="#CB5EFF"/>
<path d="M26.6797 41.8828C26.7266 41.9238 26.7735 41.9649 26.8203 42.0059C26.7735 41.9649 26.7266 41.9238 26.6797 41.8828Z" fill="#11FEF5"/>
<path d="M11.3848 42.1055C11.3555 42.0762 11.3262 42.0469 11.2969 42.0176C11.3262 42.0469 11.3555 42.0762 11.3848 42.1055Z" fill="#CB5EFF"/>
<path d="M26.8203 42C26.8613 42.041 26.9082 42.0762 26.9492 42.1172C26.9082 42.0762 26.8613 42.0352 26.8203 42Z" fill="#11FEF5"/>
<path d="M26.9531 42.1172C26.9941 42.1524 27.0352 42.1875 27.0762 42.2227C27.0293 42.1875 26.9941 42.1524 26.9531 42.1172Z" fill="#11FEF5"/>
<path d="M27.0859 42.2344C27.1152 42.2637 27.1504 42.293 27.1797 42.3223C27.1504 42.2871 27.1152 42.2637 27.0859 42.2344Z" fill="#11FEF5"/>
<path d="M33.6172 42.586C33.6582 42.5508 33.6992 42.5156 33.7403 42.4805C33.6992 42.5156 33.6582 42.5508 33.6172 42.586Z" fill="#CB5EFF"/>
<path d="M33.5 42.6856C33.5352 42.6563 33.5645 42.627 33.5996 42.5977C33.5645 42.627 33.5293 42.6563 33.5 42.6856Z" fill="#CB5EFF"/>
<path d="M22.1016 37.9922C22.1367 38.0215 22.1719 38.0567 22.207 38.086C22.1719 38.0567 22.1367 38.0215 22.1016 37.9922Z" fill="#11FEF5"/>
<path d="M27.0606 44.0859C27.0254 44.1152 26.9902 44.1445 26.9609 44.1797C26.9902 44.1504 27.0254 44.1152 27.0606 44.0859Z" fill="#11FEF5"/>
<path d="M26.9512 44.1855C26.9102 44.2207 26.8691 44.2559 26.8281 44.2969C26.8633 44.2617 26.9043 44.2266 26.9512 44.1855Z" fill="#11FEF5"/>
<path d="M26.8223 44.2969C26.7754 44.3379 26.7344 44.3731 26.6875 44.4141C26.7344 44.3731 26.7754 44.3379 26.8223 44.2969Z" fill="#11FEF5"/>
<path d="M9.76562 45.5176C9.79493 45.5469 9.82423 45.5762 9.85353 45.6055C9.82423 45.5762 9.79493 45.5469 9.76562 45.5176Z" fill="#11FEF5"/>
<path d="M9.875 45.6289C9.91016 45.6641 9.93946 45.6934 9.97462 45.7285C9.94532 45.6934 9.91016 45.6641 9.875 45.6289Z" fill="#11FEF5"/>
<path d="M6.54103 37.1367C6.51173 37.1074 6.48243 37.0781 6.45312 37.0488C6.48243 37.0781 6.51173 37.1074 6.54103 37.1367Z" fill="#CB5EFF"/>
<path d="M10 45.752C10.0352 45.7871 10.0703 45.8223 10.0996 45.8574C10.0645 45.8164 10.0352 45.7813 10 45.752Z" fill="#11FEF5"/>
<path d="M25.1192 45.7461C25.0723 45.7871 25.0313 45.8281 24.9844 45.8692C25.0313 45.8281 25.0781 45.7871 25.1192 45.7461Z" fill="#11FEF5"/>
<path d="M10.1172 45.8691C10.1523 45.9043 10.1875 45.9395 10.2227 45.9746C10.1875 45.9395 10.1523 45.9043 10.1172 45.8691Z" fill="#11FEF5"/>
<path d="M10.2344 45.9922C10.2695 46.0274 10.3047 46.0625 10.3399 46.0977C10.3047 46.0625 10.2695 46.0274 10.2344 45.9922Z" fill="#11FEF5"/>
<path d="M10.3594 46.1152C10.3945 46.1504 10.4297 46.1856 10.4649 46.2266C10.4297 46.1856 10.3945 46.1504 10.3594 46.1152Z" fill="#11FEF5"/>
<path d="M31.4219 46.1211C31.4629 46.1621 31.5098 46.1973 31.5508 46.2383C31.5098 46.1973 31.4688 46.1621 31.4219 46.1211Z" fill="#11FEF5"/>
<path d="M10.4688 46.2383C10.5039 46.2734 10.5391 46.3145 10.5801 46.3496C10.5391 46.3086 10.5039 46.2734 10.4688 46.2383Z" fill="#11FEF5"/>
<path d="M31.5547 46.2383C31.5957 46.2734 31.6367 46.3086 31.6778 46.3438C31.6367 46.3086 31.5957 46.2734 31.5547 46.2383Z" fill="#11FEF5"/>
<path d="M10.5938 46.3555C10.6289 46.3906 10.6699 46.4317 10.7051 46.4668C10.6699 46.4317 10.6348 46.3965 10.5938 46.3555Z" fill="#11FEF5"/>
<path d="M6.42775 37.0254C6.39259 36.9903 6.36329 36.9551 6.32812 36.9199C6.36329 36.9609 6.39259 36.9961 6.42775 37.0254Z" fill="#CB5EFF"/>
<path d="M31.6953 46.3555C31.7246 46.3848 31.7598 46.4141 31.7891 46.4434C31.7598 46.4141 31.7305 46.3848 31.6953 46.3555Z" fill="#11FEF5"/>
<path d="M10.7109 46.4785C10.7461 46.5137 10.7871 46.5547 10.8223 46.5899C10.7813 46.5547 10.7461 46.5195 10.7109 46.4785Z" fill="#11FEF5"/>
<path d="M10.8281 46.6016C10.8633 46.6426 10.9043 46.6778 10.9395 46.7188C10.9043 46.6778 10.8633 46.6367 10.8281 46.6016Z" fill="#11FEF5"/>
<path d="M10.9453 46.7246C10.9863 46.7656 11.0215 46.8008 11.0625 46.8418C11.0215 46.8008 10.9863 46.7598 10.9453 46.7246Z" fill="#11FEF5"/>
<path d="M11.0703 46.8418C11.1113 46.8828 11.1465 46.918 11.1875 46.959C11.1465 46.9238 11.1055 46.8828 11.0703 46.8418Z" fill="#11FEF5"/>
<path d="M6.30861 36.9082C6.27345 36.8731 6.23829 36.8379 6.20312 36.8027C6.23829 36.8379 6.27345 36.8731 6.30861 36.9082Z" fill="#CB5EFF"/>
<path d="M32.4062 46.9648C32.4473 47 32.4883 47.0352 32.5293 47.0703C32.4824 47.041 32.4473 47.0059 32.4062 46.9648Z" fill="#11FEF5"/>
<path d="M32.5391 47.0879C32.5684 47.1172 32.6035 47.1465 32.6328 47.1758C32.6035 47.1465 32.5684 47.1172 32.5391 47.0879Z" fill="#11FEF5"/>
<path d="M28.2812 47.334C28.3223 47.293 28.3692 47.252 28.4102 47.2168C28.3692 47.252 28.3281 47.293 28.2812 47.334Z" fill="#CB5EFF"/>
<path d="M20.5391 36.6562C20.5684 36.6856 20.6035 36.7149 20.6328 36.7442C20.5977 36.7149 20.5684 36.6856 20.5391 36.6562Z" fill="#11FEF5"/>
<path d="M6.19142 36.7852C6.15626 36.75 6.1211 36.7149 6.08594 36.6797C6.1211 36.7149 6.15626 36.75 6.19142 36.7852Z" fill="#CB5EFF"/>
<path d="M27.3125 48.1719C27.3535 48.1367 27.3945 48.0957 27.4414 48.0605C27.3945 48.0957 27.3535 48.1367 27.3125 48.1719Z" fill="#CB5EFF"/>
<path d="M27.1953 48.2715C27.2305 48.2422 27.2656 48.207 27.3008 48.1777C27.2656 48.207 27.2305 48.2422 27.1953 48.2715Z" fill="#CB5EFF"/>
<path d="M20.3984 36.5391C20.4395 36.5742 20.4805 36.6094 20.5215 36.6446C20.4805 36.6094 20.4395 36.5742 20.3984 36.5391Z" fill="#11FEF5"/>
<path d="M6.07423 36.6621C6.03907 36.627 6.00391 36.5918 5.96875 36.5508C6.00391 36.5918 6.03907 36.627 6.07423 36.6621Z" fill="#CB5EFF"/>
<path d="M26.5859 48.793C26.627 48.752 26.6738 48.7109 26.7149 48.6699C26.668 48.7109 26.627 48.752 26.5859 48.793Z" fill="#CB5EFF"/>
<path d="M26.4609 48.8985C26.502 48.8633 26.543 48.8223 26.5899 48.7871C26.5488 48.8281 26.502 48.8633 26.4609 48.8985Z" fill="#CB5EFF"/>
<path d="M26.3516 49.0039C26.3867 48.9688 26.4219 48.9395 26.457 48.9043C26.4219 48.9395 26.3867 48.9688 26.3516 49.0039Z" fill="#CB5EFF"/>
<path d="M5.95509 36.5371C5.91993 36.502 5.88477 36.4609 5.84375 36.4258C5.88477 36.4668 5.91993 36.502 5.95509 36.5371Z" fill="#CB5EFF"/>
<path d="M39.9629 49.1387C39.9102 49.0977 39.8574 49.0567 39.8047 49.0156C39.8574 49.0508 39.9102 49.0918 39.9629 49.1387Z" fill="#CB5EFF"/>
<path d="M25.9844 49.291C26.0371 49.25 26.0899 49.2031 26.1426 49.1621C26.0899 49.209 26.0371 49.25 25.9844 49.291Z" fill="#CB5EFF"/>
<path d="M25.8594 49.4082C25.9063 49.3672 25.9473 49.3262 25.9942 49.2852C25.9473 49.3203 25.9063 49.3613 25.8594 49.4082Z" fill="#CB5EFF"/>
<path d="M40.2695 49.3965C40.2344 49.3672 40.1992 49.332 40.1641 49.3027C40.2051 49.332 40.2344 49.3613 40.2695 49.3965Z" fill="#CB5EFF"/>
<path d="M25.7344 49.5196C25.7813 49.4785 25.8223 49.4375 25.8692 49.3965C25.8223 49.4375 25.7754 49.4785 25.7344 49.5196Z" fill="#CB5EFF"/>
<path d="M40.4102 49.5078C40.3692 49.4727 40.3281 49.4316 40.2812 49.3965C40.3223 49.4375 40.3633 49.4727 40.4102 49.5078Z" fill="#CB5EFF"/>
<path d="M40.5469 49.625C40.5 49.584 40.4531 49.5488 40.4062 49.5078C40.4531 49.5488 40.5 49.5899 40.5469 49.625Z" fill="#CB5EFF"/>
<path d="M35.6562 49.7598C35.7031 49.8008 35.75 49.8418 35.791 49.877C35.7442 49.8418 35.7031 49.8008 35.6562 49.7598Z" fill="#11FEF5"/>
<path d="M35.7969 49.877C35.8379 49.9063 35.8789 49.9356 35.9199 49.9707C35.8789 49.9414 35.8379 49.9121 35.7969 49.877Z" fill="#11FEF5"/>
<path d="M4.39847 39.6858C4.36331 39.7679 4.32229 39.8441 4.28713 39.9261L4.23439 39.932L4.19336 39.8968C4.18164 39.8089 4.16992 39.721 4.16406 39.6507C4.28713 39.5452 4.34573 39.6038 4.39847 39.6858Z" fill="#11FEF5"/>
<path d="M4.50197 39.8145C4.46681 39.7793 4.43165 39.7383 4.39062 39.7031C4.42579 39.7383 4.46681 39.7793 4.50197 39.8145Z" fill="#11FEF5"/>
<path d="M4.62111 39.9375C4.58595 39.9024 4.55079 39.8613 4.51562 39.8262C4.55079 39.8613 4.58595 39.9024 4.62111 39.9375Z" fill="#11FEF5"/>
<path d="M4.7383 40.0606C4.70314 40.0254 4.66797 39.9902 4.63281 39.9551C4.66211 39.9844 4.70314 40.0195 4.7383 40.0606Z" fill="#11FEF5"/>
<path d="M4.85549 40.1778C4.82033 40.1426 4.78516 40.1074 4.75 40.0723C4.78516 40.1074 4.82033 40.1426 4.85549 40.1778Z" fill="#11FEF5"/>
<path d="M4.97267 40.3008C4.93751 40.2656 4.90235 40.2305 4.86719 40.1953C4.90821 40.2305 4.93751 40.2656 4.97267 40.3008Z" fill="#11FEF5"/>
<path d="M5.09962 40.4239C5.06446 40.3887 5.03516 40.3535 5 40.3184C5.0293 40.3535 5.06446 40.3887 5.09962 40.4239Z" fill="#11FEF5"/>
<path d="M5.20509 40.5293C5.17579 40.5 5.14649 40.4707 5.11719 40.4414C5.14649 40.4707 5.17579 40.5 5.20509 40.5293Z" fill="#11FEF5"/>
<path d="M10.7344 41.7598C10.7637 41.7891 10.793 41.8184 10.8223 41.8477C10.793 41.8184 10.7637 41.7891 10.7344 41.7598Z" fill="#CB5EFF"/>
<path d="M10.8438 41.8652C10.8789 41.9004 10.9141 41.9356 10.9434 41.9707C10.9082 41.9356 10.8731 41.9004 10.8438 41.8652Z" fill="#CB5EFF"/>
<path d="M10.9688 41.9883C11.0039 42.0234 11.0391 42.0586 11.0742 42.0938C11.0391 42.0586 11.0039 42.0234 10.9688 41.9883Z" fill="#CB5EFF"/>
<path d="M11.0781 42.1113C11.1133 42.1465 11.1485 42.1817 11.1836 42.2168C11.1485 42.1817 11.1133 42.1465 11.0781 42.1113Z" fill="#CB5EFF"/>
<path d="M11.2031 42.2285C11.2383 42.2637 11.2735 42.3047 11.3086 42.3399C11.2793 42.3047 11.2441 42.2695 11.2031 42.2285Z" fill="#CB5EFF"/>
<path d="M11.3203 42.3516C11.3555 42.3867 11.3906 42.4278 11.4317 42.4629C11.3906 42.4278 11.3555 42.3926 11.3203 42.3516Z" fill="#CB5EFF"/>
<path d="M7.1875 38.1152C7.22852 38.1563 7.26954 38.1973 7.3047 38.2383C7.26368 38.1973 7.22852 38.1563 7.1875 38.1152Z" fill="#CB5EFF"/>
<path d="M11.4375 42.4746C11.4727 42.5098 11.5137 42.5508 11.5488 42.586C11.5137 42.5508 11.4727 42.5098 11.4375 42.4746Z" fill="#CB5EFF"/>
<path d="M11.5547 42.5977C11.5898 42.6387 11.6309 42.6738 11.666 42.7149C11.6309 42.6738 11.5957 42.6328 11.5547 42.5977Z" fill="#CB5EFF"/>
<path d="M11.6797 42.7207C11.7148 42.7617 11.7559 42.7969 11.791 42.8379C11.7559 42.7969 11.7148 42.7559 11.6797 42.7207Z" fill="#CB5EFF"/>
<path d="M11.7969 42.8379C11.8379 42.8789 11.8731 42.9141 11.9141 42.9551C11.8731 42.9199 11.8379 42.8789 11.7969 42.8379Z" fill="#CB5EFF"/>
<path d="M11.9141 42.9609C11.9551 43.002 11.9902 43.043 12.0313 43.0782C11.9961 43.043 11.9551 43.002 11.9141 42.9609Z" fill="#CB5EFF"/>
<path d="M7.0625 37.9922C7.10352 38.0332 7.13868 38.0742 7.1797 38.1153C7.14454 38.0742 7.10352 38.0332 7.0625 37.9922Z" fill="#CB5EFF"/>
<path d="M6.94531 37.8691C6.98633 37.9102 7.0215 37.9512 7.06252 37.9864C7.0215 37.9512 6.98633 37.9102 6.94531 37.8691Z" fill="#CB5EFF"/>
<path d="M8.76369 44.1739C8.72267 44.1328 8.68165 44.0918 8.64062 44.0508C8.68165 44.0918 8.72267 44.1328 8.76369 44.1739Z" fill="#11FEF5"/>
<path d="M6.82812 37.7461C6.86915 37.7871 6.90431 37.8281 6.94533 37.8633C6.90431 37.8281 6.86329 37.7871 6.82812 37.7461Z" fill="#CB5EFF"/>
<path d="M8.87502 44.2969C8.834 44.2559 8.79297 44.2149 8.75781 44.1738C8.79883 44.2149 8.834 44.2559 8.87502 44.2969Z" fill="#11FEF5"/>
<path d="M9.00002 44.4199C8.959 44.3789 8.92383 44.3379 8.88281 44.2969C8.91797 44.3379 8.959 44.3789 9.00002 44.4199Z" fill="#11FEF5"/>
<path d="M9.1172 44.543C9.07618 44.502 9.04102 44.4609 9 44.4258C9.04102 44.4609 9.07618 44.502 9.1172 44.543Z" fill="#11FEF5"/>
<path d="M9.23439 44.666C9.19337 44.625 9.15821 44.5899 9.11719 44.5488C9.15821 44.584 9.19923 44.625 9.23439 44.666Z" fill="#11FEF5"/>
<path d="M9.35939 44.7832C9.31837 44.7422 9.28321 44.707 9.24219 44.666C9.28321 44.707 9.31837 44.7481 9.35939 44.7832Z" fill="#11FEF5"/>
<path d="M6.70312 37.623C6.74415 37.6641 6.77931 37.6992 6.82033 37.7403C6.77931 37.7051 6.74415 37.6641 6.70312 37.623Z" fill="#CB5EFF"/>
<path d="M9.47853 44.9063C9.44337 44.8653 9.40235 44.8301 9.36719 44.7891C9.40235 44.8301 9.44337 44.8711 9.47853 44.9063Z" fill="#11FEF5"/>
<path d="M9.59572 45.0313C9.56056 44.9903 9.51954 44.9551 9.48438 44.9141C9.5254 44.9551 9.56056 44.9903 9.59572 45.0313Z" fill="#11FEF5"/>
<path d="M9.71291 45.1543C9.67774 45.1192 9.63672 45.0781 9.60156 45.043C9.63672 45.0781 9.67188 45.1133 9.71291 45.1543Z" fill="#11FEF5"/>
<path d="M6.58594 37.5059C6.6211 37.5469 6.66212 37.582 6.69728 37.6231C6.66212 37.582 6.6211 37.541 6.58594 37.5059Z" fill="#CB5EFF"/>
<path d="M9.83009 45.2715C9.79493 45.2363 9.75977 45.1953 9.71875 45.1602C9.75977 45.2012 9.79493 45.2363 9.83009 45.2715Z" fill="#11FEF5"/>
<path d="M9.94923 45.3926C9.91407 45.3574 9.87891 45.3223 9.84375 45.2812C9.87891 45.3223 9.91407 45.3574 9.94923 45.3926Z" fill="#11FEF5"/>
<path d="M6.46875 37.3828C6.50391 37.4238 6.54493 37.459 6.58009 37.5C6.53907 37.459 6.50391 37.418 6.46875 37.3828Z" fill="#CB5EFF"/>
<path d="M10.0742 45.5176C10.0391 45.4824 10.0039 45.4473 9.96875 45.4121C10.0039 45.4473 10.0391 45.4824 10.0742 45.5176Z" fill="#11FEF5"/>
<path d="M6.34375 37.2598C6.37891 37.2949 6.41993 37.336 6.4551 37.3711C6.41993 37.336 6.38477 37.3008 6.34375 37.2598Z" fill="#CB5EFF"/>
<path d="M6.22656 37.1367C6.26172 37.1719 6.29689 37.2129 6.33791 37.2481C6.29689 37.2129 6.26172 37.1777 6.22656 37.1367Z" fill="#CB5EFF"/>
<path d="M10.1914 45.6407C10.1563 45.6055 10.1211 45.5703 10.0859 45.5352C10.1211 45.5703 10.1563 45.6055 10.1914 45.6407Z" fill="#11FEF5"/>
<path d="M10.3106 45.7578C10.2754 45.7227 10.2402 45.6875 10.2109 45.6523C10.2461 45.6934 10.2813 45.7285 10.3106 45.7578Z" fill="#11FEF5"/>
<path d="M10.4277 45.8809C10.3926 45.8457 10.3633 45.8106 10.3281 45.7812C10.3574 45.8164 10.3926 45.8457 10.4277 45.8809Z" fill="#11FEF5"/>
<path d="M10.541 45.9922C10.5117 45.9629 10.4824 45.9336 10.4531 45.9043C10.4824 45.9336 10.5117 45.9629 10.541 45.9922Z" fill="#11FEF5"/>
<path d="M6.10938 37.0195C6.14454 37.0547 6.1797 37.0899 6.21486 37.1309C6.1797 37.0899 6.14454 37.0547 6.10938 37.0195Z" fill="#CB5EFF"/>
<path d="M5.99219 36.8965C6.02735 36.9316 6.06251 36.9668 6.09767 37.002C6.06251 36.9668 6.02735 36.9316 5.99219 36.8965Z" fill="#CB5EFF"/>
<path d="M5.875 36.7734C5.91016 36.8086 5.94532 36.8438 5.98048 36.8789C5.94532 36.8438 5.91016 36.8086 5.875 36.7734Z" fill="#CB5EFF"/>
<path d="M5.76562 36.6602C5.79493 36.6895 5.82423 36.7246 5.85939 36.7539C5.82423 36.7246 5.79493 36.6895 5.76562 36.6602Z" fill="#CB5EFF"/>
<path d="M28.5312 39.4453C28.5723 39.4805 28.6133 39.5156 28.6543 39.5508C28.6133 39.5156 28.5723 39.4805 28.5312 39.4453Z" fill="#CB5EFF"/>
<path d="M28.6641 39.5625C28.6992 39.5918 28.7285 39.6211 28.7637 39.6504C28.7285 39.6211 28.6992 39.5918 28.6641 39.5625Z" fill="#CB5EFF"/>
<path d="M28.3906 39.3281C28.4316 39.3633 28.4785 39.4043 28.5196 39.4395C28.4785 39.4043 28.4375 39.3692 28.3906 39.3281Z" fill="#CB5EFF"/>
<path d="M28.2578 39.2109C28.3047 39.252 28.3516 39.293 28.3985 39.334C28.3516 39.293 28.3047 39.252 28.2578 39.2109Z" fill="#CB5EFF"/>
<path d="M31.9297 40.0196C31.9648 39.9902 31.9942 39.9609 32.0293 39.9316C31.9942 39.9609 31.959 39.9902 31.9297 40.0196Z" fill="#11FEF5"/>
<path d="M33.6172 38.5606C33.6465 38.5313 33.6816 38.502 33.711 38.4727C33.6816 38.502 33.6523 38.5313 33.6172 38.5606Z" fill="#11FEF5"/>
<path d="M33.7344 38.461C33.7754 38.4258 33.8164 38.3906 33.8574 38.3555C33.8164 38.3906 33.7754 38.4258 33.7344 38.461Z" fill="#11FEF5"/>
<path d="M25.836 40.9043C25.8067 40.875 25.7715 40.8457 25.7422 40.8164C25.7715 40.8457 25.8067 40.875 25.836 40.9043Z" fill="#11FEF5"/>
<path d="M35.4317 40.7754C35.3848 40.8164 35.3438 40.8574 35.2969 40.8926C35.3438 40.8574 35.3848 40.8164 35.4317 40.7754Z" fill="#CB5EFF"/>
<path d="M25.9746 41.0215C25.9336 40.9863 25.8926 40.9512 25.8516 40.916C25.8926 40.9512 25.9336 40.9863 25.9746 41.0215Z" fill="#11FEF5"/>
<path d="M33.8516 38.3496C33.8926 38.3086 33.9395 38.2734 33.9805 38.2324C33.9395 38.2734 33.8984 38.3145 33.8516 38.3496Z" fill="#11FEF5"/>
<path d="M26.2422 41.2559C26.1953 41.2149 26.1484 41.1738 26.1016 41.1328C26.1484 41.1738 26.1953 41.2149 26.2422 41.2559Z" fill="#11FEF5"/>
<path d="M22.832 38.3496C22.791 38.3145 22.7441 38.2734 22.7031 38.2383C22.7441 38.2734 22.791 38.3145 22.832 38.3496Z" fill="#11FEF5"/>
<path d="M27.543 42.3574C27.5078 42.3281 27.4727 42.293 27.4375 42.2637C27.4727 42.2988 27.5078 42.3281 27.543 42.3574Z" fill="#11FEF5"/>
<path d="M30.5781 45.1641C30.5371 45.1934 30.502 45.2227 30.4609 45.252C30.502 45.2227 30.543 45.1934 30.5781 45.1641Z" fill="#11FEF5"/>
<path d="M32.1465 46.4844C32.1113 46.4551 32.0762 46.4199 32.0469 46.3906C32.0762 46.4199 32.1113 46.4551 32.1465 46.4844Z" fill="#11FEF5"/>
<path d="M32.4102 46.7188C32.3692 46.6778 32.3223 46.6426 32.2812 46.6016C32.3223 46.6426 32.3692 46.6778 32.4102 46.7188Z" fill="#11FEF5"/>
<path d="M32.5528 46.836C32.5059 46.7949 32.459 46.7539 32.4062 46.7129C32.4531 46.7539 32.5059 46.7949 32.5528 46.836Z" fill="#11FEF5"/>
<path d="M26.8262 48.3184C26.7852 48.3535 26.7441 48.3887 26.7031 48.4239C26.7441 48.3887 26.7852 48.3535 26.8262 48.3184Z" fill="#CB5EFF"/>
<path d="M25.0078 36.4141C25.0488 36.4551 25.0899 36.4903 25.1309 36.5313C25.0899 36.4903 25.0488 36.4551 25.0078 36.4141Z" fill="#CB5EFF"/>
<path d="M34.8262 48.7871C34.7852 48.752 34.7441 48.7168 34.7031 48.6816C34.7441 48.7168 34.7852 48.752 34.8262 48.7871Z" fill="#11FEF5"/>
<path d="M34.957 48.9043C34.916 48.8633 34.8691 48.8281 34.8281 48.7871C34.8691 48.8281 34.916 48.8633 34.957 48.9043Z" fill="#11FEF5"/>
<path d="M1.25 0.804688C2.00011 0.804688 2.65646 0.804688 3.37141 0.804688C4.64308 3.9519 5.91476 7.10497 7.22745 10.3635C8.61633 7.11669 9.96419 3.97534 11.3238 0.810548C12.2438 0.810548 13.1463 0.810548 14.125 0.810548C15.4611 3.92259 16.809 7.06394 18.2213 10.3635C19.5457 7.08153 20.8115 3.9519 22.0773 0.810548C22.7747 0.810548 23.431 0.810548 24.1929 0.810548C22.7044 4.42662 21.2393 7.9958 19.7684 11.5708C18.737 11.5708 17.7525 11.5708 16.6859 11.5708C15.3849 8.57601 14.0722 5.55188 12.7244 2.43983C11.3824 5.54602 10.0814 8.54085 8.77456 11.5591C7.74902 11.5591 6.74691 11.5591 5.68035 11.5591C4.21529 8.00166 2.74436 4.43248 1.25 0.804688Z" fill="#F7F7FC"/>
<path d="M13.9855 24.9392C13.9855 26.6975 13.9855 28.4264 13.9855 30.1846C13.5284 30.3311 13.0771 30.2725 12.5439 30.2198C12.5439 29.5516 12.5439 28.8894 12.5439 28.2388C12.204 28.1685 12.1219 28.4029 12.0106 28.5377C9.91262 31.0461 4.58565 30.882 2.33531 29.0886C0.0263762 27.2425 -0.319378 21.8799 3.42532 20.3034C6.09173 19.184 8.82261 19.2192 11.5066 20.2682C12.8662 20.8016 13.7218 21.8389 13.9738 23.3862C13.3174 23.3862 12.6845 23.3862 12.0516 23.3862C11.3542 21.5635 9.72509 20.9364 6.76566 21.0829C5.47055 21.1474 4.21059 21.4463 3.355 22.5246C1.57934 24.7576 2.61661 28.0513 5.37678 28.7663C7.40443 29.2938 9.42621 29.2586 11.2077 27.9048C11.7645 27.4828 12.1043 26.926 12.0223 26.1114C10.5572 26.1114 9.09804 26.1114 7.59196 26.1114C7.59196 25.6894 7.59196 25.3378 7.59196 24.9334C9.70751 24.9392 11.8289 24.9392 13.9855 24.9392Z" fill="#F7F7FC"/>
<path d="M29.0296 7.00533C29.0296 8.53498 29.0296 10.0236 29.0296 11.5474C28.3674 11.5474 27.7755 11.5474 27.125 11.5474C27.125 7.98993 27.125 4.42661 27.125 0.822266C27.7227 0.822266 28.3322 0.822266 29.0179 0.822266C29.0179 2.34019 29.0179 3.8464 29.0179 5.39363C32.5868 5.39363 36.0912 5.39363 39.6542 5.39363C39.6542 3.88743 39.6542 2.38122 39.6542 0.828127C40.3223 0.828127 40.9317 0.828127 41.594 0.828127C41.594 4.38559 41.594 7.94305 41.594 11.5474C40.9845 11.5474 40.3867 11.5474 39.7187 11.5474C39.7187 10.0529 39.7187 8.55256 39.7187 7.00533C36.1381 7.00533 32.6395 7.00533 29.0296 7.00533Z" fill="#F7F7FC"/>
<path d="M45.6309 19.7227C45.6309 20.215 45.6309 20.6721 45.6309 21.2054C43.7966 21.2054 41.9741 21.2054 40.0636 21.2054C40.0636 24.253 40.0636 27.2302 40.0636 30.2368C39.3897 30.2368 38.7919 30.2368 38.1356 30.2368C38.1356 27.2537 38.1356 24.294 38.1356 21.2582C36.2486 21.2582 34.4261 21.2582 32.5625 21.2582C32.5625 20.7131 32.5625 20.2384 32.5625 19.7227C36.9108 19.7227 41.2532 19.7227 45.6309 19.7227Z" fill="#F7F7FC"/>
<path d="M51.0765 0.628964C52.5591 0.634825 53.8249 0.746178 55.0204 1.2209C57.4055 2.16447 58.5248 4.4443 58.0619 7.28089C57.7103 9.46108 56.4562 10.809 54.3699 11.3775C52.3071 11.9402 50.2092 11.9402 48.1463 11.3834C45.3451 10.6215 43.9328 8.1893 44.4485 5.11828C44.8822 2.52784 46.4645 1.09196 49.2832 0.7579C49.9454 0.687571 50.6076 0.576217 51.0765 0.628964Z" fill="#F7F7FC"/>
<path d="M23.2558 19.5591C24.088 19.5239 24.9084 19.5767 25.723 19.7583C28.9696 20.4792 30.4874 22.7649 29.9541 26.0586C29.6025 28.2212 28.3484 29.5399 26.2797 30.0849C24.3751 30.5831 22.453 30.5772 20.5249 30.1494C17.378 29.4461 16.2704 27.1018 16.5927 24.277C16.9385 21.2001 18.802 19.7114 22.2303 19.5649C22.5702 19.5473 22.9101 19.5591 23.2558 19.5591Z" fill="#F7F7FC"/>
<path d="M49.9714 24.6703C49.9714 23.1758 49.9655 21.6814 49.9714 20.1869C49.9772 19.2374 50.4812 18.7158 51.4247 18.7158C53.4465 18.7041 55.4624 18.7041 57.4842 18.7158C58.4511 18.7217 58.9727 19.2433 58.9727 20.2279C58.9786 23.2169 58.9786 26.2058 58.9727 29.1948C58.9727 30.2263 58.4746 30.7186 57.449 30.7186C55.4507 30.7245 53.4523 30.7245 51.454 30.7186C50.4695 30.7127 49.9772 30.2087 49.9714 29.2182C49.9655 27.7003 49.9714 26.1824 49.9714 24.6703Z" fill="#F7F7FC"/>
<path d="M21.1016 49.3672C21.0605 49.3613 21.0371 49.3379 21.0312 49.2969C21.0723 49.3027 21.0957 49.3262 21.1016 49.3672Z" fill="#11FEF5"/>
<path d="M51.2394 2.22885C51.9485 2.18783 52.6518 2.23471 53.3374 2.39881C55.1541 2.82664 56.0683 3.94604 56.1562 5.82734C56.2558 7.93134 55.4764 9.26758 53.689 9.8478C51.8899 10.4339 50.0615 10.387 48.2917 9.70128C46.7681 9.10934 46.0355 7.23977 46.4223 5.21196C46.7856 3.32481 47.9987 2.38123 50.2608 2.22885C50.5889 2.21127 50.9171 2.22885 51.2394 2.22885Z" fill="#1758FF"/>
<path d="M23.1999 28.9139C21.8814 28.8787 20.5218 28.8377 19.5197 27.8414C18.2598 26.593 18.2656 25.0224 18.7051 23.4341C19.0919 22.0334 20.1819 21.4532 21.5239 21.2187C23.0827 20.9491 24.6181 20.9667 26.1125 21.5176C27.39 21.9924 28.105 23.2466 28.0874 24.952C28.0698 26.4875 27.56 27.7593 26.0422 28.4216C25.1338 28.826 24.1727 28.9256 23.1999 28.9139Z" fill="#1758FF"/>
<path d="M51.2402 2.77539C51.7383 2.82814 52.2423 2.85158 52.7404 2.92777C55.2838 3.33216 56.4558 6.01051 55.0611 8.21415C54.7329 8.72989 54.2699 9.07567 53.6898 9.24563C52.0665 9.73207 50.4315 9.73793 48.8082 9.23977C47.9291 8.97018 47.39 8.36066 47.138 7.48155C46.4875 5.21345 47.3314 3.45523 49.318 2.99224C49.9392 2.84572 50.5838 2.78125 51.2402 2.77539Z" fill="#F7F7FC"/>
<path d="M23.2503 28.338C22.7698 28.2911 22.2834 28.2677 21.8087 28.1856C19.3298 27.7637 18.187 25.1088 19.5525 22.9579C19.8572 22.4714 20.3143 22.1725 20.8476 22.0084C22.3888 21.5337 23.9477 21.5454 25.5006 21.944C26.5613 22.2136 27.1708 22.9344 27.3935 24.0011C27.8389 26.1285 27.0126 27.6875 25.1783 28.1212C24.5513 28.2736 23.9008 28.338 23.2503 28.338Z" fill="#F7F7FC"/>
</svg>
