<svg width="28" height="28" viewBox="0 0 28 28" fill="none" xmlns="http://www.w3.org/2000/svg">
<path d="M20.5378 0.000105634C20.1382 0.000105634 19.7386 0.0364338 19.345 0.0963752C17.2562 0.42575 15.3187 1.49743 13.9988 2.81856C12.255 4.56534 10.9956 7.10831 10.4628 9.57862C10.3659 9.98428 10.3054 10.4021 10.2509 10.8138L8.22258 18.3458L9.17922 19.3024L16.7052 17.2741C17.1169 17.2196 17.5347 17.153 17.9464 17.0622C20.4167 16.5294 22.9597 15.27 24.7034 13.5263C26.0294 12.2003 27.1011 10.2628 27.428 8.17393C27.7429 6.08507 27.2827 3.79639 25.4966 2.01571C24.0556 0.566824 22.2816 -0.0089764 20.5378 0.000105634ZM20.5439 1.16805C22.0152 1.1511 23.4441 1.62155 24.6732 2.84581C26.1868 4.35343 26.5501 6.188 26.2656 7.99229C25.987 9.80264 25.0122 11.5524 23.8739 12.6907C22.3361 14.2286 19.9566 15.4274 17.6982 15.9118C15.4458 16.4083 13.3872 16.1419 12.3821 15.1308C11.3831 14.1317 11.1167 12.0792 11.6072 9.82081C12.0976 7.56846 13.2904 5.18292 14.8343 3.64866C15.9665 2.51159 17.7224 1.53921 19.5327 1.25403C19.8657 1.20075 20.2109 1.17169 20.5439 1.16805ZM10.4931 14.1741C10.7171 14.8583 11.0562 15.4759 11.5527 15.9603C12.0431 16.4567 12.6546 16.8079 13.3388 17.0259L9.52434 17.9946L10.4931 14.1741ZM7.44758 19.2358L1.42922 25.2603L1.11135 24.9515L0.28125 25.781L1.75678 27.2462L2.58627 26.4228L2.25871 26.0958L8.28313 20.0653L7.44758 19.2358ZM20.223 21.9665C19.0423 21.9665 18.0675 22.9353 18.0675 24.1159C18.0675 25.2966 19.0423 26.2653 20.223 26.2653C21.3976 26.2653 22.3724 25.2966 22.3724 24.1159C22.3724 22.9353 21.3976 21.9665 20.223 21.9665Z" fill="#878AAB"/>
</svg>
