<svg width="31" height="31" viewBox="0 0 31 31" fill="none" xmlns="http://www.w3.org/2000/svg">
<path d="M17.4698 16.3858C16.3667 15.2736 15.3905 14.2965 14.4144 13.3114C12.1764 11.0632 9.94639 8.80701 7.70048 6.55879C7.48621 6.3443 7.43065 6.15364 7.51001 5.8597C8.02586 3.77832 10.3194 2.03059 12.4621 2.11003C12.605 2.11797 12.7954 2.25303 12.8748 2.38013C14.9144 5.62932 16.9381 8.88645 18.9618 12.1356C19.2395 12.5805 19.5411 13.0174 19.803 13.4782C19.8586 13.5815 19.8744 13.796 19.803 13.8754C19.0491 14.7096 18.2793 15.5199 17.4698 16.3858Z" fill="#000005"/>
<path d="M16.496 17.1279C15.6706 17.9621 14.877 18.7565 14.0914 19.5589C13.9168 19.7416 13.7977 19.6542 13.6469 19.5589C12.2105 18.6691 10.7662 17.7794 9.32972 16.8896C7.79012 15.9442 6.25052 14.9989 4.71092 14.0535C4.00461 13.6166 3.30623 13.1638 2.59198 12.7348C2.37771 12.6077 2.31422 12.4806 2.3539 12.2264C2.62373 10.6455 3.44908 9.39821 4.6633 8.40518C5.21089 7.95236 5.82197 7.58693 6.40924 7.17383C9.81382 10.5263 13.1549 13.8311 16.496 17.1279Z" fill="#000005"/>
<path d="M30.1621 25.7532C30.0827 27.3977 29.2891 28.6529 27.8209 29.4552C26.3686 30.2576 24.9005 30.1623 23.4799 29.352C22.7498 28.9309 22.2974 28.2636 22.0276 27.4771C21.9879 27.358 22.0435 27.1355 22.1387 27.0402C23.845 25.3481 25.575 23.6639 27.2892 21.9718C27.4638 21.797 27.5987 21.8367 27.7733 21.9241C29.3447 22.6947 30.0907 23.9817 30.1621 25.7532Z" fill="#000005"/>
<path d="M20.8728 12.8758C18.5396 9.06259 16.246 5.32881 13.9287 1.5553C14.6985 0.864154 15.5556 0.379557 16.5476 0.149175C17.6904 -0.120929 17.6984 -0.112985 18.1507 0.935652C19.5713 4.24045 20.976 7.54524 22.4044 10.85C22.5156 11.1043 22.4838 11.2393 22.2854 11.422C21.8172 11.8748 21.3728 12.3594 20.8728 12.8758Z" fill="#000005"/>
<path d="M1.76641 13.6738C5.52018 15.9856 9.25014 18.2815 12.996 20.5932C12.4643 21.1414 11.9563 21.6816 11.4167 22.198C11.3611 22.2536 11.1469 22.19 11.0278 22.1344C7.98037 20.8236 4.94085 19.5128 1.90133 18.202C1.41723 17.9955 0.925191 17.7969 0.449026 17.5665C0.345857 17.5188 0.218879 17.3599 0.234751 17.2646C0.401409 15.9379 0.917253 14.7542 1.76641 13.6738Z" fill="#000005"/>
<path d="M18.2433 22.3834C17.2195 21.7478 16.1323 21.0726 15.1006 20.437C15.8783 19.6426 16.6402 18.8641 17.3862 18.1094C18.2512 18.9594 19.1321 19.8253 19.9892 20.6674C19.4178 21.2235 18.8464 21.7875 18.2433 22.3834Z" fill="#000005"/>
<path d="M20.5974 14.7832C21.2957 15.9272 21.9624 17.0155 22.6131 18.0721C22.0259 18.66 21.4545 19.224 20.9227 19.7563C20.0656 18.9063 19.1689 18.0324 18.2959 17.1744C19.0578 16.3879 19.8117 15.6015 20.5974 14.7832Z" fill="#000005"/>
<path d="M17.4809 23.3702C17.1079 23.7197 16.7825 24.0296 16.4492 24.3235C16.3937 24.3712 16.2746 24.395 16.2111 24.3632C15.0128 23.8548 13.8144 23.3384 12.624 22.822C13.1399 22.3136 13.6319 21.8211 14.1557 21.3047C15.2112 21.9641 16.3064 22.6393 17.4809 23.3702Z" fill="#000005"/>
<path d="M23.0539 12.4141C23.5618 13.5978 24.0618 14.7497 24.5379 15.9095C24.5776 16.0128 24.5459 16.1955 24.4744 16.2829C24.1967 16.6086 23.8792 16.9184 23.5539 17.26C22.8396 16.1002 22.173 15.0118 21.5381 13.987C22.0539 13.4548 22.538 12.9543 23.0539 12.4141Z" fill="#000005"/>
<path d="M23.261 24.0305C22.9832 24.3324 22.6975 24.6422 22.4039 24.9679C21.4119 24.3562 20.4357 23.7525 19.4834 23.1646C19.9834 22.6721 20.4833 22.1954 20.9674 21.7188C21.6896 22.4496 22.4832 23.252 23.261 24.0305Z" fill="#000005"/>
<path d="M21.8193 20.716C22.3193 20.2235 22.8034 19.7389 23.3113 19.2305C23.9145 20.2156 24.5255 21.2006 25.1366 22.2016C24.8112 22.5035 24.4938 22.7974 24.2002 23.0675C23.4462 22.3208 22.6368 21.5264 21.8193 20.716Z" fill="#000005"/>
<path d="M24.2178 18.3221C24.5511 18.0122 24.8606 17.7103 25.2018 17.3926C25.3447 17.7342 25.5034 18.0917 25.6542 18.4492C25.924 19.0688 26.1621 19.6964 26.4637 20.3002C26.6383 20.6577 26.6303 20.9119 26.297 21.1343C26.2256 21.182 26.1621 21.2535 26.0669 21.3329C25.4479 20.324 24.8368 19.323 24.2178 18.3221Z" fill="#000005"/>
<path d="M17.585 24.9584C17.9183 24.6486 18.2278 24.3626 18.577 24.0369C19.5055 24.6088 20.4896 25.2126 21.4657 25.8164C21.4578 25.864 21.4578 25.8958 21.4419 25.9117C20.9737 26.4201 20.9737 26.4201 20.3388 26.15C19.4341 25.7608 18.5214 25.3715 17.585 24.9584Z" fill="#000005"/>
</svg>
