<svg width="30" height="31" viewBox="0 0 30 31" fill="none" xmlns="http://www.w3.org/2000/svg">
<path d="M17.2364 16.3858C16.1333 15.2736 15.1571 14.2965 14.181 13.3114C11.943 11.0632 9.713 8.80701 7.46708 6.55879C7.25281 6.3443 7.19726 6.15364 7.27662 5.8597C7.79246 3.77832 10.086 2.03059 12.2287 2.11003C12.3716 2.11797 12.562 2.25303 12.6414 2.38013C14.681 5.62932 16.7047 8.88645 18.7284 12.1356C19.0061 12.5805 19.3077 13.0174 19.5696 13.4782C19.6252 13.5815 19.641 13.796 19.5696 13.8754C18.8157 14.7096 18.0459 15.5199 17.2364 16.3858Z" fill="#878AAB"/>
<path d="M16.2626 17.1279C15.4373 17.9621 14.6436 18.7565 13.858 19.5589C13.6834 19.7416 13.5643 19.6542 13.4135 19.5589C11.9771 18.6691 10.5328 17.7794 9.09632 16.8896C7.55672 15.9442 6.01712 14.9989 4.47752 14.0535C3.77121 13.6166 3.07283 13.1638 2.35859 12.7348C2.14431 12.6077 2.08082 12.4806 2.1205 12.2264C2.39033 10.6455 3.21568 9.39821 4.4299 8.40518C4.97749 7.95236 5.58857 7.58693 6.17584 7.17383C9.58042 10.5263 12.9215 13.8311 16.2626 17.1279Z" fill="#878AAB"/>
<path d="M29.9287 25.7532C29.8493 27.3977 29.0557 28.6529 27.5875 29.4552C26.1352 30.2576 24.6671 30.1623 23.2465 29.352C22.5164 28.9309 22.064 28.2636 21.7942 27.4771C21.7545 27.358 21.8101 27.1355 21.9053 27.0402C23.6116 25.3481 25.3416 23.6639 27.0558 21.9718C27.2304 21.797 27.3653 21.8367 27.5399 21.9241C29.1113 22.6947 29.8573 23.9817 29.9287 25.7532Z" fill="#878AAB"/>
<path d="M20.6394 12.8758C18.3062 9.06259 16.0126 5.32881 13.6953 1.5553C14.4651 0.864154 15.3222 0.379557 16.3142 0.149175C17.457 -0.120929 17.465 -0.112985 17.9173 0.935652C19.3379 4.24045 20.7426 7.54524 22.171 10.85C22.2822 11.1043 22.2504 11.2393 22.052 11.422C21.5838 11.8748 21.1394 12.3594 20.6394 12.8758Z" fill="#878AAB"/>
<path d="M1.53302 13.6738C5.28678 15.9856 9.01674 18.2815 12.7626 20.5932C12.2309 21.1414 11.723 21.6816 11.1833 22.198C11.1277 22.2536 10.9135 22.19 10.7944 22.1344C7.74697 20.8236 4.70745 19.5128 1.66793 18.202C1.18383 17.9955 0.691793 17.7969 0.215628 17.5665C0.112459 17.5188 -0.0145194 17.3599 0.00135273 17.2646C0.16801 15.9379 0.683855 14.7542 1.53302 13.6738Z" fill="#878AAB"/>
<path d="M18.0099 22.3834C16.9861 21.7478 15.8989 21.0726 14.8672 20.437C15.6449 19.6426 16.4068 18.8641 17.1528 18.1094C18.0178 18.9594 18.8987 19.8253 19.7558 20.6674C19.1844 21.2235 18.613 21.7875 18.0099 22.3834Z" fill="#878AAB"/>
<path d="M20.364 14.7832C21.0623 15.9272 21.729 17.0155 22.3797 18.0721C21.7925 18.66 21.2211 19.224 20.6893 19.7563C19.8322 18.9063 18.9355 18.0324 18.0625 17.1744C18.8244 16.3879 19.5783 15.6015 20.364 14.7832Z" fill="#878AAB"/>
<path d="M17.2475 23.3702C16.8745 23.7197 16.5491 24.0296 16.2158 24.3235C16.1603 24.3712 16.0412 24.395 15.9777 24.3632C14.7794 23.8548 13.581 23.3384 12.3906 22.822C12.9065 22.3136 13.3985 21.8211 13.9223 21.3047C14.9778 21.9641 16.073 22.6393 17.2475 23.3702Z" fill="#878AAB"/>
<path d="M22.8205 12.4141C23.3284 13.5978 23.8284 14.7497 24.3045 15.9095C24.3442 16.0128 24.3125 16.1955 24.241 16.2829C23.9633 16.6086 23.6458 16.9184 23.3205 17.26C22.6062 16.1002 21.9396 15.0118 21.3047 13.987C21.8205 13.4548 22.3046 12.9543 22.8205 12.4141Z" fill="#878AAB"/>
<path d="M23.0276 24.0305C22.7498 24.3324 22.4641 24.6422 22.1705 24.9679C21.1785 24.3562 20.2023 23.7525 19.25 23.1646C19.75 22.6721 20.2499 22.1954 20.734 21.7188C21.4562 22.4496 22.2498 23.252 23.0276 24.0305Z" fill="#878AAB"/>
<path d="M21.5859 20.716C22.0859 20.2235 22.57 19.7389 23.0779 19.2305C23.6811 20.2156 24.2921 21.2006 24.9032 22.2016C24.5778 22.5035 24.2604 22.7974 23.9668 23.0675C23.2128 22.3208 22.4034 21.5264 21.5859 20.716Z" fill="#878AAB"/>
<path d="M23.9844 18.3221C24.3177 18.0122 24.6272 17.7103 24.9685 17.3926C25.1113 17.7342 25.27 18.0917 25.4208 18.4492C25.6906 19.0688 25.9287 19.6964 26.2303 20.3002C26.4049 20.6577 26.3969 20.9119 26.0636 21.1343C25.9922 21.182 25.9287 21.2535 25.8335 21.3329C25.2145 20.324 24.6034 19.323 23.9844 18.3221Z" fill="#878AAB"/>
<path d="M17.3516 24.9586C17.6849 24.6488 17.9944 24.3628 18.3436 24.0371C19.2721 24.6091 20.2562 25.2129 21.2323 25.8166C21.2244 25.8643 21.2244 25.8961 21.2085 25.9119C20.7403 26.4204 20.7403 26.4204 20.1054 26.1503C19.2007 25.761 18.288 25.3717 17.3516 24.9586Z" fill="#878AAB"/>
</svg>
