<svg width="26" height="26" viewBox="0 0 26 26" fill="none" xmlns="http://www.w3.org/2000/svg">
<path d="M3.88285 21.3512C6.2516 23.72 9.3891 25.0237 12.7216 25.0237C16.0541 25.0237 19.1929 23.72 21.5604 21.3512C26.4341 16.4775 26.4341 8.5475 21.5604 3.6725C19.1929 1.305 16.0529 0 12.7216 0C9.39035 0 6.25035 1.305 3.88285 3.67375C-0.990898 8.54625 -0.990898 16.4775 3.88285 21.3512V21.3512ZM13.1079 2.52C15.1955 2.59514 17.2057 3.3294 18.8504 4.6175L12.7216 10.745L10.8966 8.92C12.3479 7.07125 13.1366 4.785 13.1079 2.52V2.52ZM9.1091 7.1325L6.5941 4.6175C7.77481 3.69201 9.1502 3.04663 10.6166 2.73C10.5979 4.275 10.0604 5.82625 9.1091 7.1325ZM7.3291 8.8875C6.05577 9.75742 4.54744 10.2183 3.00535 10.2087C3.33015 8.81809 3.95186 7.51411 4.82785 6.38625L7.3291 8.8875ZM2.73535 12.695C2.8316 12.6975 2.92785 12.7125 3.0241 12.7125C5.22371 12.7195 7.36504 12.0056 9.12035 10.68L10.9541 12.5125L4.82785 18.6387C3.5058 16.936 2.77158 14.8504 2.73535 12.695V12.695ZM18.1029 16.1262C19.4054 15.1787 20.9529 14.6412 22.4879 14.6187C22.1751 16.0831 21.5354 17.4577 20.6166 18.64L18.1029 16.1262ZM18.8491 20.4075C17.722 21.2886 16.4175 21.9154 15.0254 22.245C15.0112 20.6972 15.4724 19.1824 16.3466 17.905L18.8491 20.4075V20.4075ZM12.5441 22.515C10.3835 22.4806 8.29353 21.7405 6.59285 20.4075L12.7216 14.28L14.5504 16.1087C13.1716 17.9137 12.4766 20.1912 12.5441 22.515ZM22.6991 12.1275C20.4404 12.105 18.1579 12.89 16.3141 14.3375L14.4891 12.5125L20.6154 6.38625C21.8941 8.03455 22.6229 10.0428 22.6991 12.1275V12.1275Z" fill="#1758FF"/>
</svg>
