<svg width="44" height="43" viewBox="0 0 44 43" fill="none" xmlns="http://www.w3.org/2000/svg">
<path d="M29.5602 4.66826C29.5602 2.33726 31.4292 0.468262 33.7602 0.468262C36.0912 0.468262 37.9602 2.33726 37.9602 4.66826C37.9602 6.99926 36.0912 8.86826 33.7602 8.86826C31.4292 8.86826 29.5602 6.99926 29.5602 4.66826ZM37.9602 42.4683V29.8683H43.2102L37.8762 13.8453C37.5952 13.0089 37.0592 12.2815 36.3436 11.7655C35.6279 11.2494 34.7685 10.9706 33.8862 10.9683H33.6342C32.7511 10.9675 31.8902 11.245 31.1739 11.7615C30.4576 12.278 29.9223 13.0071 29.6442 13.8453L27.8382 19.2633C30.1062 20.5233 31.6602 22.8963 31.6602 25.6683V42.4683H37.9602ZM22.2102 20.4183C23.9532 20.4183 25.3602 19.0113 25.3602 17.2683C25.3602 15.5253 23.9532 14.1183 22.2102 14.1183C20.4672 14.1183 19.0602 15.5253 19.0602 17.2683C19.0602 19.0113 20.4672 20.4183 22.2102 20.4183ZM7.51016 8.86826C9.84116 8.86826 11.7102 6.99926 11.7102 4.66826C11.7102 2.33726 9.84116 0.468262 7.51016 0.468262C5.17916 0.468262 3.31016 2.33726 3.31016 4.66826C3.31016 6.99926 5.17916 8.86826 7.51016 8.86826ZM11.7102 42.4683V27.7683H14.8602V15.1683C14.8602 12.8583 12.9702 10.9683 10.6602 10.9683H4.36016C2.05016 10.9683 0.160156 12.8583 0.160156 15.1683V27.7683H3.31016V42.4683H11.7102ZM25.3602 42.4683V34.0683H27.4602V25.6683C27.4602 23.9463 26.0322 22.5183 24.3102 22.5183H20.1102C18.3882 22.5183 16.9602 23.9463 16.9602 25.6683V34.0683H19.0602V42.4683H25.3602Z" fill="#878AAB"/>
</svg>
