<svg width="28" height="23" viewBox="0 0 28 23" fill="none" xmlns="http://www.w3.org/2000/svg">
<path d="M17.7949 0C17.5957 0 17.3906 0.0445311 17.168 0.140625C16.7344 0.331055 16.2891 0.719531 15.9785 1.26562C15.6738 1.8123 15.5742 2.3959 15.6387 2.87051C15.7031 3.33926 15.9141 3.6791 16.2422 3.8666C16.5645 4.04824 16.9687 4.0541 17.4023 3.86074C17.8418 3.67324 18.2871 3.28066 18.5918 2.73574C18.9023 2.19023 19.002 1.60605 18.9375 1.13438C18.873 0.660938 18.6562 0.325195 18.334 0.141211C18.1699 0.0498047 17.9883 0.00175771 17.7949 0.000585839V0ZM14.5664 2.4252C12.75 3.43301 10.6348 4.33535 7.69922 4.97988C6.89062 5.15566 6.39258 7.03066 7.00195 7.69863H6.12891V8.75332H7.85156C8.10352 9.08145 8.35547 9.40957 8.58984 9.74941L7.06055 12.808C6.48633 12.5912 5.86523 12.4682 5.21484 12.4682C2.34082 12.4682 0 14.8119 0 17.683C0 20.5541 2.34082 22.8979 5.21484 22.8979C7.91016 22.8979 10.1367 20.8354 10.4004 18.2104H11.3262C11.2266 17.8529 11.2383 17.4896 11.3262 17.1557H10.4004C10.2363 15.5326 9.32227 14.1205 8.00977 13.2826L9.27539 10.7514C9.63281 11.308 9.9668 11.8764 10.2656 12.4506C10.0195 12.7084 9.74414 12.9662 9.42773 13.2299C9.76758 13.7338 10.1074 14.226 10.6465 14.5482C10.7754 14.4311 10.9043 14.3021 11.0391 14.1674C11.3262 14.9174 11.5488 15.6732 11.6953 16.4525C12.0527 16.0248 12.5859 15.7494 13.1836 15.7494C13.7285 15.7494 14.2266 15.9838 14.5781 16.3529L19.2656 10.9916C19.3711 11.7064 19.5234 12.3861 19.7051 13.0482C18.0293 13.9154 16.875 15.6732 16.875 17.683C16.875 20.5541 19.2188 22.8979 22.0898 22.8979C24.9609 22.8979 27.3047 20.5541 27.3047 17.683C27.3047 14.8119 24.9609 12.4682 22.0898 12.4682C21.6094 12.4682 21.1406 12.5326 20.6953 12.6615C20.4609 11.7885 20.291 10.892 20.209 9.91934C20.4844 9.58535 20.7012 9.16348 20.8301 8.72402L20.8359 8.71231C21.3223 8.78262 21.9492 9.0873 22.0723 9.50918L23.0918 9.25137C22.4824 7.72793 20.8242 7.43496 19.4531 7.72207C17.5547 7.33535 16.1602 6.87832 15.9902 4.90957C15.9023 4.87441 15.8086 4.8334 15.7207 4.78066C15.0762 4.41738 14.6953 3.74355 14.5957 3.01113C14.5664 2.81777 14.5605 2.62441 14.5664 2.4252V2.4252ZM14.4902 6.04629C15.9727 8.75918 17.7012 8.87051 19.4531 9.08145C19.3125 9.26895 19.1426 9.45645 18.9668 9.65566H14.5195C14.6719 9.39199 14.7715 9.18691 14.8008 9.06973C14.8652 8.76504 14.1797 8.28457 13.3828 7.8041C12.6973 8.12051 11.8359 8.38418 10.8984 8.48965C11.4199 8.82363 11.9004 9.21035 12.3398 9.65566H11.4668C11.2852 9.2748 11.0918 8.88809 10.8984 8.48965C10.752 8.19082 10.6055 7.88613 10.459 7.56973C11.6191 7.41152 13.2129 7.08926 14.4902 6.04629V6.04629ZM13.8457 10.7104H18.1172L13.6582 15.8021C13.4766 14.5131 13.1309 13.3881 12.6797 12.2865C13.1074 11.7475 13.5059 11.1967 13.8457 10.7104ZM5.21484 13.5229C5.69531 13.5229 6.1582 13.6049 6.58594 13.7572L4.36172 18.2104H9.33984C9.08203 20.2611 7.33594 21.8432 5.21484 21.8432C2.91094 21.8432 1.05469 19.9857 1.05469 17.683C1.05469 15.3803 2.91094 13.5229 5.21484 13.5229ZM22.0898 13.5229C24.3926 13.5229 26.25 15.3803 26.25 17.683C26.25 19.9857 24.3926 21.8432 22.0898 21.8432C19.7871 21.8432 17.9297 19.9857 17.9297 17.683C17.9297 16.1361 18.7676 14.7885 20.0156 14.0736C20.4434 15.3393 20.9883 16.5756 21.6094 17.9057L22.5703 17.4604C21.9434 16.1127 21.4043 14.8998 21 13.6693C21.3457 13.5756 21.709 13.5229 22.0898 13.5229V13.5229ZM7.53516 14.226C8.50781 14.8822 9.1875 15.9369 9.33984 17.1557H6.07031L7.53516 14.226ZM13.1836 16.8041C12.6914 16.8041 12.3047 17.1908 12.3047 17.683C12.3047 18.1752 12.6914 18.5619 13.1836 18.5619C13.6758 18.5619 14.0625 18.1752 14.0625 17.683C14.0625 17.1908 13.6758 16.8041 13.1836 16.8041Z" fill="#878AAB"/>
</svg>
