<svg width="31" height="30" viewBox="0 0 31 30" fill="none" xmlns="http://www.w3.org/2000/svg">
<path d="M20.562 5C20.562 3.6125 21.6745 2.5 23.062 2.5C24.4495 2.5 25.562 3.6125 25.562 5C25.562 6.3875 24.4495 7.5 23.062 7.5C21.6745 7.5 20.562 6.3875 20.562 5ZM25.562 27.5V20H28.687L25.512 10.4625C25.3448 9.96464 25.0258 9.5317 24.5998 9.22453C24.1738 8.91736 23.6622 8.75141 23.137 8.75H22.987C22.4614 8.74952 21.9489 8.91474 21.5226 9.22217C21.0962 9.52961 20.7776 9.96361 20.612 10.4625L19.537 13.6875C20.887 14.4375 21.812 15.85 21.812 17.5V27.5H25.562ZM16.187 14.375C17.2245 14.375 18.062 13.5375 18.062 12.5C18.062 11.4625 17.2245 10.625 16.187 10.625C15.1495 10.625 14.312 11.4625 14.312 12.5C14.312 13.5375 15.1495 14.375 16.187 14.375ZM7.43701 7.5C8.82451 7.5 9.93701 6.3875 9.93701 5C9.93701 3.6125 8.82451 2.5 7.43701 2.5C6.04951 2.5 4.93701 3.6125 4.93701 5C4.93701 6.3875 6.04951 7.5 7.43701 7.5ZM9.93701 27.5V18.75H11.812V11.25C11.812 9.875 10.687 8.75 9.31201 8.75H5.56201C4.18701 8.75 3.06201 9.875 3.06201 11.25V18.75H4.93701V27.5H9.93701ZM18.062 27.5V22.5H19.312V17.5C19.312 16.475 18.462 15.625 17.437 15.625H14.937C13.912 15.625 13.062 16.475 13.062 17.5V22.5H14.312V27.5H18.062Z" fill="#878AAB"/>
</svg>
