<svg width="25" height="26" viewBox="0 0 25 26" fill="none" xmlns="http://www.w3.org/2000/svg">
<path d="M21.3328 3.67252C20.1758 2.50634 18.799 1.58127 17.282 0.950878C15.765 0.320486 14.1381 -0.00270599 12.4953 1.7065e-05C10.8522 -0.00255367 9.22493 0.320698 7.70757 0.951072C6.19021 1.58145 4.8129 2.50643 3.65531 3.67252C-1.21844 8.54502 -1.21844 16.4763 3.65531 21.35C4.81292 22.5164 6.19041 23.4416 7.70802 24.072C9.22564 24.7024 10.8532 25.0255 12.4966 25.0225C14.1392 25.0254 15.7661 24.7024 17.2831 24.0722C18.8001 23.4421 20.177 22.5172 21.3341 21.3513C26.2078 16.4788 26.2078 8.54752 21.3328 3.67252V3.67252ZM12.7203 2.51127H12.2716C12.3478 2.51002 12.4203 2.50002 12.4966 2.50002C12.5728 2.50002 12.6441 2.51002 12.7203 2.51127ZM20.2978 18.7613H17.4941L15.9216 21.9063C14.8246 22.3115 13.6647 22.5201 12.4953 22.5225C11.3237 22.5204 10.1617 22.3113 9.06281 21.905L7.49406 18.7738H4.70031C3.66961 17.4924 2.97258 15.9755 2.67156 14.3588L4.99406 11.2613L3.47406 8.22002C3.95907 7.18825 4.61831 6.24782 5.42281 5.44002C6.54879 4.31009 7.92893 3.46615 9.44781 2.97877L12.4941 5.01127L15.5416 2.98002C17.06 3.46775 18.44 4.31116 19.5666 5.44002C20.3702 6.24685 21.029 7.18598 21.5141 8.21627L19.9941 11.2613L22.3166 14.3588C22.0169 15.9703 21.3234 17.4827 20.2978 18.7613Z" fill="#1758FF"/>
<path d="M8.11914 11.2612L9.99414 16.2612H14.9941L16.8691 11.2612L12.4941 8.13623L8.11914 11.2612Z" fill="#1758FF"/>
</svg>
