<svg width="27" height="21" viewBox="0 0 27 21" fill="none" xmlns="http://www.w3.org/2000/svg">
<path d="M23.3467 7.57759L19.0449 1.43395L21.0928 0L25.3945 6.14364L23.3467 7.57759Z" fill="#1758FF"/>
<path d="M20.9919 10.7521L18.841 7.68041L8.60151 14.8501L10.7524 17.9219L8.70451 19.3559L2.96875 11.1643L5.01663 9.7304L7.16758 12.8023L17.407 5.63253L15.2561 2.56065L17.304 1.12671L23.0397 9.31827L20.9919 10.7521Z" fill="#1758FF"/>
<path d="M23.9609 4.0956L26.0087 2.66166L24.5747 0.61377L22.5269 2.04771L23.9609 4.0956Z" fill="#1758FF"/>
<path d="M6.96396 19.049L2.66213 12.9053L0.614258 14.3393L4.91608 20.4829L6.96396 19.049Z" fill="#1758FF"/>
<path d="M3.48183 18.4351L1.43394 19.869L0 17.8211L2.04788 16.3872L3.48183 18.4351Z" fill="#1758FF"/>
</svg>
