<svg width="27" height="21" viewBox="0 0 27 21" fill="none" xmlns="http://www.w3.org/2000/svg">
<path d="M23.6514 7.57759L19.3496 1.43395L21.3975 0L25.6992 6.14364L23.6514 7.57759Z" fill="#000005"/>
<path d="M21.2965 10.7521L19.1457 7.68041L8.9062 14.8501L11.057 17.9219L9.0092 19.3559L3.27344 11.1643L5.32131 9.7304L7.47226 12.8023L17.7117 5.63253L15.5608 2.56065L17.6087 1.12671L23.3444 9.31827L21.2965 10.7521Z" fill="#000005"/>
<path d="M24.2655 4.0956L26.3134 2.66166L24.8794 0.61377L22.8315 2.04771L24.2655 4.0956Z" fill="#000005"/>
<path d="M7.26865 19.049L2.96682 12.9053L0.918945 14.3393L5.22077 20.4829L7.26865 19.049Z" fill="#000005"/>
<path d="M3.78651 18.4351L1.73863 19.869L0.304688 17.8211L2.35256 16.3872L3.78651 18.4351Z" fill="#000005"/>
</svg>
