<svg width="27" height="31" viewBox="0 0 27 31" fill="none" xmlns="http://www.w3.org/2000/svg">
<path d="M12.3529 12.8L17.5294 7.4M7.17647 7.4L11.0588 3.35L20.1176 7.4V10.1L16.2353 14.15L7.17647 7.4ZM9.76471 29C14.053 29 17.5294 25.3735 17.5294 20.9C17.5294 16.4265 14.053 12.8 9.76471 12.8C5.47638 12.8 2 16.4265 2 20.9C2 25.3735 5.47638 29 9.76471 29ZM9.76471 22.25C10.4794 22.25 11.0588 21.6456 11.0588 20.9C11.0588 20.1544 10.4794 19.55 9.76471 19.55C9.04998 19.55 8.47059 20.1544 8.47059 20.9C8.47059 21.6456 9.04998 22.25 9.76471 22.25ZM16.2353 15.5L22.7059 19.55L20.1176 27.65L16.2353 15.5ZM22.7059 4.7C23.4206 4.7 24 4.09558 24 3.35C24 2.60442 23.4206 2 22.7059 2C21.9912 2 21.4118 2.60442 21.4118 3.35C21.4118 4.09558 21.9912 4.7 22.7059 4.7ZM14.9412 12.8L20.1176 7.4L14.9412 12.8Z" stroke="#000005" stroke-width="3.08" stroke-linecap="round" stroke-linejoin="round"/>
</svg>
