<svg width="26" height="31" viewBox="0 0 26 31" fill="none" xmlns="http://www.w3.org/2000/svg">
<path d="M12.1908 12.8L17.3673 7.4M7.01436 7.4L10.8967 3.35L19.9555 7.4V10.1L16.0732 14.15L7.01436 7.4ZM9.6026 29C13.8909 29 17.3673 25.3735 17.3673 20.9C17.3673 16.4265 13.8909 12.8 9.6026 12.8C5.31427 12.8 1.83789 16.4265 1.83789 20.9C1.83789 25.3735 5.31427 29 9.6026 29ZM9.6026 22.25C10.3173 22.25 10.8967 21.6456 10.8967 20.9C10.8967 20.1544 10.3173 19.55 9.6026 19.55C8.88788 19.55 8.30848 20.1544 8.30848 20.9C8.30848 21.6456 8.88788 22.25 9.6026 22.25ZM16.0732 15.5L22.5438 19.55L19.9555 27.65L16.0732 15.5ZM22.5438 4.7C23.2585 4.7 23.8379 4.09558 23.8379 3.35C23.8379 2.60442 23.2585 2 22.5438 2C21.8291 2 21.2497 2.60442 21.2497 3.35C21.2497 4.09558 21.8291 4.7 22.5438 4.7ZM14.7791 12.8L19.9555 7.4L14.7791 12.8Z" stroke="#1758FF" stroke-width="3.08" stroke-linecap="round" stroke-linejoin="round"/>
</svg>
