<svg width="17" height="29" viewBox="0 0 17 29" fill="none" xmlns="http://www.w3.org/2000/svg">
<path d="M11.037 6.23739C10.3495 7.42489 10.762 8.96238 11.9495 9.64988C13.137 10.3374 14.6745 9.92489 15.362 8.73739C16.0495 7.54989 15.637 6.01239 14.4495 5.32489C13.262 4.63739 11.7245 5.04989 11.037 6.23739Z" fill="#000005"/>
<path d="M12.9999 11.7498L9.7499 9.87477C6.7749 8.14977 5.7499 4.32477 7.4749 1.34977L5.3124 0.0997723C3.3249 3.52477 3.9499 7.74977 6.5249 10.4873L0.0874023 21.6373L2.2499 22.8873L4.1249 19.6373L6.2874 20.8873L2.5374 27.3873L4.6999 28.6373L12.5624 15.0248C13.2825 16.002 13.7027 17.1677 13.7715 18.3796C13.8403 19.5916 13.5548 20.7973 12.9499 21.8498L15.1124 23.0998C17.1124 19.6623 16.7124 14.8748 12.9999 11.7498ZM9.1374 3.48727C10.0374 3.99977 11.1749 3.69977 11.6999 2.79977C12.2124 1.89977 11.9124 0.762272 11.0124 0.237272C10.582 -0.00258183 10.0744 -0.0634681 9.59945 0.0677669C9.12448 0.199002 8.7202 0.511822 8.47396 0.93865C8.22771 1.36548 8.15926 1.87204 8.2834 2.34892C8.40754 2.82579 8.71429 3.23469 9.1374 3.48727Z" fill="#000005"/>
</svg>
