<svg width="17" height="29" viewBox="0 0 17 29" fill="none" xmlns="http://www.w3.org/2000/svg">
<path d="M10.9496 6.23763C10.2621 7.42513 10.6746 8.96263 11.8621 9.65013C13.0496 10.3376 14.5871 9.92513 15.2746 8.73763C15.9621 7.55013 15.5496 6.01263 14.3621 5.32513C13.1746 4.63763 11.6371 5.05013 10.9496 6.23763Z" fill="#878AAB"/>
<path d="M12.9125 11.7498L9.6625 9.87477C6.6875 8.14977 5.6625 4.32477 7.3875 1.34977L5.225 0.0997723C3.2375 3.52477 3.8625 7.74977 6.4375 10.4873L0 21.6373L2.1625 22.8873L4.0375 19.6373L6.2 20.8873L2.45 27.3873L4.6125 28.6373L12.475 15.0248C13.1951 16.002 13.6152 17.1677 13.6841 18.3796C13.7529 19.5916 13.4674 20.7973 12.8625 21.8498L15.025 23.0998C17.025 19.6623 16.625 14.8748 12.9125 11.7498V11.7498ZM9.05 3.48727C9.95 3.99977 11.0875 3.69977 11.6125 2.79977C12.125 1.89977 11.825 0.762272 10.925 0.237272C10.4945 -0.00258183 9.98702 -0.0634681 9.51205 0.0677669C9.03708 0.199002 8.6328 0.511822 8.38655 0.93865C8.14031 1.36548 8.07186 1.87204 8.196 2.34892C8.32014 2.82579 8.62689 3.23469 9.05 3.48727V3.48727Z" fill="#878AAB"/>
</svg>
