<svg width="15" height="15" viewBox="0 0 15 15" fill="none" xmlns="http://www.w3.org/2000/svg">
<path d="M7.66719 4.35784C5.68035 4.35784 4.07776 5.96043 4.07776 7.94727C4.07776 9.9341 5.68035 11.5367 7.66719 11.5367C9.65402 11.5367 11.2566 9.9341 11.2566 7.94727C11.2566 5.96043 9.65402 4.35784 7.66719 4.35784ZM7.66719 10.2809C6.38324 10.2809 5.33359 9.23433 5.33359 7.94727C5.33359 6.6602 6.38012 5.61367 7.66719 5.61367C8.95426 5.61367 10.0008 6.6602 10.0008 7.94727C10.0008 9.23433 8.95113 10.2809 7.66719 10.2809ZM12.2407 4.21102C12.2407 4.67649 11.8658 5.04824 11.4034 5.04824C10.938 5.04824 10.5662 4.67336 10.5662 4.21102C10.5662 3.74867 10.9411 3.3738 11.4034 3.3738C11.8658 3.3738 12.2407 3.74867 12.2407 4.21102ZM14.618 5.06073C14.5649 3.93923 14.3087 2.94582 13.4871 2.12734C12.6686 1.30886 11.6752 1.0527 10.5537 0.996468C9.39786 0.930865 5.93339 0.930865 4.77753 0.996468C3.65915 1.04958 2.66574 1.30574 1.84414 2.12422C1.02254 2.94269 0.769496 3.93611 0.713265 5.05761C0.647662 6.21347 0.647662 9.67794 0.713265 10.8338C0.766372 11.9553 1.02254 12.9487 1.84414 13.7672C2.66574 14.5857 3.65603 14.8418 4.77753 14.8981C5.93339 14.9637 9.39786 14.9637 10.5537 14.8981C11.6752 14.845 12.6686 14.5888 13.4871 13.7672C14.3056 12.9487 14.5618 11.9553 14.618 10.8338C14.6836 9.67794 14.6836 6.2166 14.618 5.06073ZM13.1247 12.074C12.8811 12.6863 12.4093 13.158 11.7939 13.4048C10.8724 13.7703 8.6856 13.686 7.66719 13.686C6.64878 13.686 4.45889 13.7672 3.54044 13.4048C2.92815 13.1611 2.45643 12.6894 2.20964 12.074C1.84414 11.1524 1.92848 8.96567 1.92848 7.94727C1.92848 6.92886 1.84726 4.73896 2.20964 3.82052C2.45331 3.20823 2.92502 2.73651 3.54044 2.48972C4.46201 2.12422 6.64878 2.20856 7.66719 2.20856C8.6856 2.20856 10.8755 2.12734 11.7939 2.48972C12.4062 2.73339 12.8779 3.2051 13.1247 3.82052C13.4902 4.74209 13.4059 6.92886 13.4059 7.94727C13.4059 8.96567 13.4902 11.1556 13.1247 12.074Z" fill="#1758FF"/>
</svg>
