<svg width="45" height="31" viewBox="0 0 45 31" fill="none" xmlns="http://www.w3.org/2000/svg">
<path d="M0 26.1421C0.336199 25.5987 0.637918 25.0381 1.01722 24.5206C3.2413 21.4415 5.48263 18.3797 7.70672 15.3006C7.93085 14.9901 8.06877 14.6278 8.25842 14.2914C8.51704 13.8343 8.7929 13.3858 9.09461 12.877C9.28426 13.0581 9.39633 13.1529 9.49978 13.2564C11.448 15.2057 13.4221 17.1204 15.3186 19.1128C15.9393 19.7683 16.3962 20.5963 16.8186 21.3984C17.2151 22.1574 16.9306 23.0371 16.2324 23.6926C15.129 24.719 14.0169 25.7367 12.9135 26.7545C11.9221 27.6687 10.9308 28.583 9.93942 29.4886C9.32736 30.0406 8.62911 30.2476 7.83602 29.963C7.08604 29.6956 6.62916 29.1436 6.49985 28.3673C6.37054 27.5911 6.68088 26.9701 7.24983 26.4526C8.44808 25.3572 9.63771 24.2619 10.8273 23.1579C11.3187 22.7008 11.8187 22.2436 12.3532 21.752C11.5773 20.8464 11.198 19.6475 10.086 18.9575C9.94804 19.1473 9.84459 19.2767 9.74115 19.4147C7.75844 22.1401 5.78435 24.8656 3.80164 27.5825C2.95683 28.7468 1.48273 28.9193 0.594816 27.9447C0.336201 27.6601 0.206893 27.2547 0.017242 26.9097C1.05205e-06 26.6596 0 26.4009 0 26.1421Z" fill="#878AAB"/>
<path d="M19.1013 0C19.4719 0.258748 19.6357 0.586498 19.3944 1.10399C19.7219 1.05224 19.9719 1.00049 20.2392 0.974617C20.4633 0.957367 20.7305 0.896993 20.9116 0.983243C21.0926 1.07812 21.2995 1.34549 21.2909 1.52661C21.2822 1.73361 21.084 1.97511 20.9029 2.11311C20.765 2.22523 20.5236 2.21661 20.1702 2.29423C20.3598 2.41498 20.4805 2.47536 20.584 2.56161C21.6184 3.51897 21.8857 5.04559 21.2564 6.26171C20.5754 7.55545 19.2047 8.21957 17.8082 7.92632C16.4289 7.63307 15.4289 6.46008 15.3341 5.04559C15.2479 3.6656 16.1013 2.39773 17.4116 1.90611C17.5927 1.83711 17.7651 1.64736 17.8685 1.47487C18.1616 1.00049 18.4116 0.491622 18.6789 0C18.8168 0 18.9547 0 19.1013 0Z" fill="#878AAB"/>
<path d="M33.9564 18.8533C33.6805 19.1034 33.4047 19.2931 33.2064 19.5519C32.6978 20.2246 32.2323 20.9319 31.6719 21.7426C31.8099 21.8375 31.965 21.9065 32.0857 22.0272C33.6719 23.4762 35.2581 24.9339 36.827 26.3915C37.827 27.323 37.8356 28.6771 36.8529 29.5137C36.1374 30.1261 35.1115 30.1778 34.3529 29.5913C33.9305 29.2722 33.5512 28.8927 33.1633 28.5391C31.4133 26.9262 29.6634 25.3134 27.9134 23.7005C26.9479 22.8121 26.81 21.8547 27.5083 20.7508C27.5686 20.6559 27.6462 20.561 27.6893 20.4575C28.0169 19.6899 28.4651 19.3966 29.4134 19.5346C31.1633 19.7934 32.2581 18.1547 31.5857 16.4987C31.5426 16.3865 31.5254 16.1968 31.5857 16.1192C32.6719 14.7823 33.7667 13.4627 34.8788 12.1172C35.3874 12.6951 35.5512 13.3937 35.7925 14.0664C35.9391 14.4632 36.1029 14.8685 36.3443 15.2049C38.7235 18.5083 41.1286 21.7858 43.5165 25.0805C44.2837 26.1327 44.2061 27.2453 43.3268 28.0043C42.5424 28.6857 41.3269 28.6426 40.5942 27.8922C40.4045 27.7025 40.2407 27.4782 40.0769 27.2626C38.1459 24.6147 36.2149 21.9582 34.284 19.3018C34.215 19.1896 34.1288 19.0775 33.9564 18.8533Z" fill="#878AAB"/>
<path d="M24.528 10.314C23.8298 11.0644 23.0798 11.7889 22.4332 12.5824C21.2264 14.0572 19.623 14.799 17.8299 15.2216C17.1316 15.3855 16.4334 15.5235 15.7265 15.627C15.0196 15.7305 14.3386 15.6184 13.8645 15.0146C13.4421 14.4712 13.4162 13.8589 13.6748 13.2293C13.899 12.7031 14.2696 12.3754 14.8472 12.2719C15.761 12.1166 16.6834 11.9786 17.5799 11.7458C18.4419 11.5215 19.2005 11.0903 19.6833 10.2968C19.804 10.0898 19.9161 9.8569 19.9333 9.62403C20.0712 7.75242 21.4936 6.56218 23.1574 6.10506C24.3297 5.78593 25.4332 5.93255 26.5021 6.55355C28.5021 7.70067 30.5365 8.77878 32.5537 9.8914C32.8468 10.0553 33.1313 10.2537 33.4502 10.4607C32.6313 11.3921 31.8382 12.2978 31.0451 13.1948C30.6399 13.6605 30.2348 14.1262 29.821 14.5747C29.7434 14.661 29.6055 14.7731 29.5193 14.7559C28.4072 14.5834 27.2693 14.4799 26.3038 13.7899C25.7952 13.4276 25.5107 12.9446 25.3814 12.3064C25.2435 11.6164 24.9418 10.9695 24.709 10.2968C24.6487 10.3054 24.5884 10.3054 24.528 10.314Z" fill="#878AAB"/>
<path d="M24.4104 11.332C24.5224 11.7719 24.6862 12.2032 24.7293 12.643C24.8328 13.6004 25.4276 14.1351 26.2207 14.5405C27.3499 15.1098 28.5741 15.3685 29.8068 15.5324C30.8499 15.6704 31.3068 16.6795 31.2378 17.4644C31.1516 18.3182 30.4792 18.9996 29.5223 18.9134C28.6689 18.8444 27.7982 18.6374 26.9879 18.3441C24.9104 17.5851 24.0224 17.0331 21.5656 15.2305C20.1087 16.2741 18.6433 17.3177 17.1433 18.3959C16.7554 17.9129 16.4106 17.4816 16.0312 17.0072C19.6001 16.231 22.3328 14.3594 24.2724 11.3493C24.3242 11.332 24.3673 11.332 24.4104 11.332Z" fill="#878AAB"/>
<path d="M28.3302 6.85683C26.6406 5.78733 24.8993 4.85584 22.8304 5.55446C22.408 4.34697 22.9166 3.5276 23.8217 2.81173C23.5717 2.75998 23.3821 2.72548 23.2011 2.67373C22.8735 2.57023 22.7011 2.32011 22.7614 1.98373C22.8131 1.64736 23.0459 1.44036 23.3993 1.46624C23.7959 1.49211 24.1924 1.56112 24.5976 1.60424C24.6062 1.55249 24.6234 1.50937 24.6148 1.47487C24.5027 0.974619 24.6234 0.689996 25.0027 0.569247C25.3475 0.457123 25.632 0.620996 25.8217 1.06949C25.8562 1.14712 25.8906 1.22474 25.9165 1.31099C26.1062 1.94061 26.4423 2.37186 27.0975 2.67373C28.632 3.3896 29.2182 5.45096 28.3302 6.85683Z" fill="#878AAB"/>
<path d="M18.7423 9.67798C18.7681 10.2645 18.4578 10.644 18.0354 10.8078C17.3026 11.1011 16.5268 11.2908 15.7596 11.5065C15.5096 11.5755 15.251 11.5927 14.9924 11.6186C13.932 11.7135 13.1131 12.1792 12.5872 13.197C11.9407 12.4638 11.32 11.7566 10.6562 11.0062C11.0097 10.782 11.3286 10.5577 11.6735 10.368C12.7941 9.73835 13.9234 9.11735 15.0613 8.51361C15.182 8.44461 15.4406 8.44461 15.5354 8.52224C16.4406 9.34161 17.4923 9.7211 18.7423 9.67798Z" fill="#878AAB"/>
</svg>
