<svg width="45" height="31" viewBox="0 0 45 31" fill="none" xmlns="http://www.w3.org/2000/svg">
<path d="M0.313477 26.1424C0.649676 25.599 0.951394 25.0384 1.3307 24.5209C3.55478 21.4418 5.79611 18.3799 8.02019 15.3008C8.24433 14.9903 8.38225 14.6281 8.5719 14.2917C8.83051 13.8346 9.10637 13.3861 9.40809 12.8772C9.59774 13.0583 9.70981 13.1532 9.81325 13.2567C11.7615 15.2059 13.7356 17.1207 15.6321 19.113C16.2528 19.7685 16.7096 20.5965 17.132 21.3986C17.5286 22.1576 17.2441 23.0374 16.5459 23.6929C15.4424 24.7192 14.3304 25.737 13.227 26.7547C12.2356 27.669 11.2443 28.5832 10.2529 29.4888C9.64084 30.0408 8.94258 30.2478 8.1495 29.9632C7.39952 29.6958 6.94263 29.1438 6.81332 28.3676C6.68402 27.5913 6.99436 26.9703 7.56331 26.4529C8.76156 25.3575 9.95118 24.2621 11.1408 23.1581C11.6322 22.701 12.1322 22.2439 12.6666 21.7523C11.8908 20.8466 11.5115 19.6478 10.3994 18.9578C10.2615 19.1475 10.1581 19.2769 10.0546 19.4149C8.07191 22.1404 6.09783 24.8659 4.11511 27.5827C3.27031 28.7471 1.7962 28.9196 0.908292 27.945C0.649678 27.6603 0.520369 27.255 0.330719 26.91C0.313478 26.6598 0.313477 26.4011 0.313477 26.1424Z" fill="#000005"/>
<path d="M19.4147 0C19.7854 0.258748 19.9492 0.586498 19.7078 1.10399C20.0354 1.05224 20.2854 1.00049 20.5526 0.974617C20.7768 0.957367 21.044 0.896993 21.225 0.983243C21.4061 1.07812 21.613 1.34549 21.6043 1.52661C21.5957 1.73361 21.3974 1.97511 21.2164 2.11311C21.0785 2.22523 20.8371 2.21661 20.4837 2.29423C20.6733 2.41498 20.794 2.47536 20.8975 2.56161C21.9319 3.51897 22.1992 5.04559 21.5699 6.26171C20.8888 7.55545 19.5182 8.21957 18.1217 7.92632C16.7424 7.63307 15.7424 6.46008 15.6476 5.04559C15.5614 3.6656 16.4148 2.39773 17.7251 1.90611C17.9061 1.83711 18.0786 1.64736 18.182 1.47487C18.4751 1.00049 18.7251 0.491622 18.9923 0C19.1303 0 19.2682 0 19.4147 0Z" fill="#000005"/>
<path d="M34.2699 18.8533C33.994 19.1034 33.7181 19.2931 33.5199 19.5519C33.0113 20.2246 32.5458 20.9319 31.9854 21.7426C32.1234 21.8375 32.2785 21.9065 32.3992 22.0272C33.9854 23.4762 35.5715 24.9339 37.1405 26.3915C38.1405 27.323 38.1491 28.6771 37.1663 29.5137C36.4508 30.1261 35.425 30.1778 34.6664 29.5913C34.244 29.2722 33.8647 28.8927 33.4768 28.5391C31.7268 26.9262 29.9768 25.3134 28.2269 23.7005C27.2614 22.8121 27.1235 21.8547 27.8217 20.7508C27.8821 20.6559 27.9597 20.561 28.0028 20.4575C28.3303 19.6899 28.7786 19.3966 29.7269 19.5346C31.4768 19.7934 32.5716 18.1547 31.8992 16.4987C31.8561 16.3865 31.8389 16.1968 31.8992 16.1192C32.9854 14.7823 34.0802 13.4627 35.1922 12.1172C35.7009 12.6951 35.8646 13.3937 36.106 14.0664C36.2526 14.4632 36.4164 14.8685 36.6577 15.2049C39.037 18.5083 41.4421 21.7858 43.83 25.0805C44.5972 26.1327 44.5196 27.2453 43.6403 28.0043C42.8559 28.6857 41.6404 28.6426 40.9076 27.8922C40.718 27.7025 40.5542 27.4782 40.3904 27.2626C38.4594 24.6147 36.5284 21.9582 34.5974 19.3018C34.5285 19.1896 34.4423 19.0775 34.2699 18.8533Z" fill="#000005"/>
<path d="M24.8415 10.314C24.1432 11.0644 23.3932 11.7889 22.7467 12.5824C21.5398 14.0572 19.9364 14.799 18.1434 15.2216C17.4451 15.3855 16.7469 15.5235 16.04 15.627C15.3331 15.7305 14.6521 15.6184 14.1779 15.0146C13.7555 14.4712 13.7297 13.8589 13.9883 13.2293C14.2124 12.7031 14.5831 12.3754 15.1607 12.2719C16.0745 12.1166 16.9968 11.9786 17.8934 11.7458C18.7554 11.5215 19.514 11.0903 19.9968 10.2968C20.1175 10.0898 20.2295 9.8569 20.2468 9.62403C20.3847 7.75242 21.8071 6.56218 23.4708 6.10506C24.6432 5.78593 25.7466 5.93255 26.8156 6.55355C28.8155 7.70067 30.85 8.77878 32.8672 9.8914C33.1603 10.0553 33.4447 10.2537 33.7637 10.4607C32.9447 11.3921 32.1517 12.2978 31.3586 13.1948C30.9534 13.6605 30.5483 14.1262 30.1345 14.5747C30.0569 14.661 29.919 14.7731 29.8328 14.7559C28.7207 14.5834 27.5828 14.4799 26.6173 13.7899C26.1087 13.4276 25.8242 12.9446 25.6949 12.3064C25.557 11.6164 25.2553 10.9695 25.0225 10.2968C24.9622 10.3054 24.9018 10.3054 24.8415 10.314Z" fill="#000005"/>
<path d="M24.7238 11.332C24.8359 11.7719 24.9997 12.2032 25.0428 12.643C25.1462 13.6004 25.7411 14.1351 26.5341 14.5405C27.6634 15.1098 28.8875 15.3685 30.1203 15.5324C31.1633 15.6704 31.6202 16.6795 31.5513 17.4644C31.4651 18.3182 30.7927 18.9996 29.8358 18.9134C28.9824 18.8444 28.1117 18.6374 27.3014 18.3441C25.2238 17.5851 24.3359 17.0331 21.8791 15.2305C20.4222 16.2741 18.9567 17.3177 17.4568 18.3959C17.0688 17.9129 16.724 17.4816 16.3447 17.0072C19.9136 16.231 22.6463 14.3594 24.5859 11.3493C24.6376 11.332 24.6807 11.332 24.7238 11.332Z" fill="#000005"/>
<path d="M28.6437 6.85683C26.9541 5.78733 25.2128 4.85584 23.1438 5.55446C22.7214 4.34697 23.23 3.5276 24.1352 2.81173C23.8852 2.75998 23.6956 2.72548 23.5145 2.67373C23.1869 2.57023 23.0145 2.32011 23.0749 1.98373C23.1266 1.64736 23.3594 1.44036 23.7128 1.46624C24.1093 1.49211 24.5059 1.56112 24.911 1.60424C24.9197 1.55249 24.9369 1.50937 24.9283 1.47487C24.8162 0.974619 24.9369 0.689996 25.3162 0.569247C25.661 0.457123 25.9455 0.620996 26.1352 1.06949C26.1696 1.14712 26.2041 1.22474 26.23 1.31099C26.4196 1.94061 26.7558 2.37186 27.411 2.67373C28.9454 3.3896 29.5316 5.45096 28.6437 6.85683Z" fill="#000005"/>
<path d="M19.0557 9.67798C19.0816 10.2645 18.7713 10.644 18.3489 10.8078C17.6161 11.1011 16.8403 11.2908 16.0731 11.5065C15.8231 11.5755 15.5644 11.5927 15.3058 11.6186C14.2455 11.7135 13.4266 12.1792 12.9007 13.197C12.2542 12.4638 11.6335 11.7566 10.9697 11.0062C11.3232 10.782 11.6421 10.5577 11.9869 10.368C13.1076 9.73835 14.2369 9.11735 15.3748 8.51361C15.4955 8.44461 15.7541 8.44461 15.8489 8.52224C16.7541 9.34161 17.8058 9.7211 19.0557 9.67798Z" fill="#000005"/>
</svg>
