<svg width="141" height="79" viewBox="0 0 141 79" fill="none" xmlns="http://www.w3.org/2000/svg">
<path d="M5.93112 1.09459L6.26385 1.10083L6.39044 1.40701L14.2633 20.4489L14.5457 21.1321L13.8033 21.1321L8.83139 21.132L8.48235 21.132L8.35785 20.8076L1.01732 1.6825L0.754389 0.997457L1.4915 1.01129L5.93112 1.09459Z" fill="white" stroke="#1758FF"/>
<path d="M60.4824 28.8326C62.6358 28.8326 65.1336 28.7725 67.287 28.7725C67.5023 28.97 67.5641 28.968 67.6773 29.1628C67.7311 29.1987 67.786 29.2993 67.8398 29.3173C67.8936 29.3532 67.9475 29.3891 68.0192 29.4429C68.1269 29.5327 68.2346 29.6224 68.3422 29.7122C68.3961 29.7481 68.4499 29.784 68.5217 29.8199C68.6294 29.8917 68.737 29.9815 68.8447 30.0712C69.1318 30.3405 69.383 30.6636 69.6881 30.9329C69.8317 31.0585 69.9752 31.2021 70.1367 31.2919C70.1906 31.3278 70.2444 31.3637 70.2982 31.3996C70.3521 31.4355 70.4059 31.4893 70.4418 31.5252C70.5315 31.615 70.6392 31.7047 70.7289 31.8124C70.7828 31.8663 70.8186 31.9022 70.8725 31.9561C70.9801 32.0458 71.0699 32.1535 71.1775 32.2612C71.4288 32.5125 71.7159 32.71 71.9851 32.9434C72.1466 33.069 72.2901 33.1947 72.4516 33.3203C72.5055 33.3562 72.5593 33.3921 72.6131 33.428C72.667 33.4639 72.7208 33.4998 72.7746 33.5357C72.8644 33.6255 72.9541 33.7152 73.0438 33.805C73.0797 33.8409 73.1335 33.8948 73.1694 33.9307C73.2591 34.0204 73.3489 34.1102 73.4207 34.1999C73.5463 34.3435 73.6719 34.4692 73.8334 34.5589C74.0308 34.6846 74.1923 34.882 74.3897 35.0257C74.5153 35.1334 74.6409 35.2411 74.7845 35.3308L74.928 35.4206C74.928 35.4206 75.0716 35.5103 75.0536 35.5103C75.1254 35.5821 75.1972 35.6539 75.269 35.7257C75.269 35.7257 75.3766 35.8334 75.3587 35.8334L75.4125 35.9591H75.5561C75.6279 35.8873 75.6996 35.8155 75.7714 35.7616C75.8432 35.6898 75.915 35.618 75.9868 35.5462C75.9868 35.5462 76.0944 35.4385 76.1124 35.4385C76.1842 35.3667 76.2739 35.277 76.3457 35.2052L76.4892 35.1154C76.5969 35.0616 76.6866 35.0077 76.7943 34.9359C76.9378 34.8282 77.0635 34.7025 77.207 34.6128C77.3506 34.523 77.4941 34.4153 77.6198 34.2717C77.6915 34.182 77.7813 34.0922 77.853 34.0204C77.8889 33.9845 77.9428 33.9307 77.9786 33.8947C78.0684 33.8229 78.1402 33.7332 78.2299 33.6434C78.2658 33.6075 78.3196 33.5537 78.3555 33.5178C78.4452 33.446 78.517 33.3562 78.6067 33.2844C78.6426 33.2485 78.6964 33.2126 78.7323 33.1588C78.84 33.087 78.9297 33.0331 79.0374 32.9793C79.1989 32.8716 79.3245 32.7459 79.486 32.6382C79.6475 32.5305 79.809 32.4228 79.9346 32.2792C80.0244 32.1894 80.1141 32.0997 80.2038 32.0099C80.2397 31.974 80.2935 31.9201 80.3294 31.8842C80.4192 31.7945 80.5089 31.7227 80.5807 31.6329C80.6165 31.597 80.6704 31.5432 80.7063 31.5073C80.796 31.4175 80.8678 31.3457 80.9575 31.256C80.9934 31.2201 81.0472 31.1842 81.0831 31.1303C81.1908 31.0585 81.2805 31.0047 81.3882 30.9329C81.5497 30.8251 81.6932 30.6995 81.8368 30.5918C81.9983 30.4841 82.1598 30.3764 82.2854 30.2328C82.3751 30.143 82.4649 30.0533 82.5546 29.9635C82.5905 29.9276 82.6443 29.8738 82.6802 29.8379C82.7699 29.7481 82.8597 29.6583 82.9494 29.5865C82.9853 29.5506 83.0391 29.4968 83.075 29.4609C83.1647 29.3711 83.2544 29.2993 83.3442 29.2096C83.4339 29.1378 83.5416 29.0839 83.6672 29.066C83.8466 29.066 84.0261 29.0301 84.1517 28.8864C86.1795 28.8864 88.2252 28.8864 90.253 28.8864C90.3606 28.9762 90.4324 29.0839 90.4683 29.2096C90.4683 29.2814 90.4683 29.3352 90.4683 29.407C90.4503 29.4609 90.4145 29.5327 90.3965 29.5865C90.3068 29.6763 90.235 29.784 90.1453 29.8737C90.1094 29.9096 90.0556 29.9635 90.0197 29.9994C89.912 30.0712 89.8223 30.143 89.7146 30.1969C89.571 30.2866 89.4275 30.4123 89.2839 30.52C89.1045 30.6815 88.943 30.861 88.7815 31.0226C88.6917 31.1124 88.602 31.1842 88.5123 31.2739C88.4585 31.3098 88.4046 31.3457 88.3687 31.3637C88.2611 31.4355 88.1713 31.5073 88.0816 31.5791C88.0457 31.615 87.9919 31.6509 87.956 31.7047C87.8483 31.7765 87.7586 31.8304 87.6509 31.9022C87.4894 32.0099 87.3459 32.1356 87.2203 32.2612C87.0767 32.4048 86.9511 32.5305 86.8075 32.6741C86.6819 32.8177 86.5384 32.9434 86.3948 33.069C86.3051 33.1588 86.2154 33.2306 86.1256 33.3203C86.0718 33.3562 86.018 33.3921 85.9821 33.428C85.8744 33.4998 85.7847 33.5716 85.6949 33.6614C85.6411 33.6973 85.6052 33.7511 85.5514 33.787C85.4437 33.8589 85.336 33.9127 85.2463 33.9845C85.1028 34.0922 84.9592 34.2179 84.8157 34.3435C84.5824 34.5589 84.3132 34.7384 84.0799 34.9718C83.9902 35.0616 83.9005 35.1513 83.8107 35.2411C83.7748 35.2949 83.721 35.3308 83.6672 35.3847C83.5775 35.4744 83.4877 35.5642 83.398 35.6539C83.3621 35.6898 83.3083 35.7437 83.2724 35.7796C83.1647 35.8514 83.075 35.9232 82.9673 35.9771C82.8238 36.0668 82.6802 36.1925 82.5367 36.3002C82.3393 36.4438 82.1957 36.6233 81.9983 36.7669C81.9086 36.8387 81.8189 36.9105 81.7291 36.9823C81.6932 37.0182 81.6394 37.0721 81.6035 37.108C81.5138 37.1798 81.442 37.2695 81.3523 37.3413C81.3164 37.3772 81.2626 37.4131 81.2267 37.467C81.137 37.5388 81.0293 37.5926 80.9396 37.6465C80.796 37.7183 80.6524 37.826 80.5268 37.9337C80.4012 38.0594 80.2756 38.203 80.132 38.3286C79.9885 38.4902 79.827 38.6517 79.6834 38.7953C79.5937 38.8851 79.504 38.9749 79.4142 39.0646C79.3425 39.1364 79.3066 39.2262 79.3066 39.3339C79.3425 39.4236 79.3963 39.4954 79.486 39.5672C79.5757 39.6211 79.6655 39.6929 79.7372 39.7647C79.827 39.8365 79.9167 39.9083 79.9885 39.9801C80.0244 40.016 80.0782 40.0519 80.1141 40.1058C80.2038 40.1776 80.2935 40.2673 80.3653 40.3571C80.5268 40.5186 80.7063 40.6981 80.8678 40.8597C81.0113 40.9674 81.1369 41.0931 81.2985 41.1828C81.3523 41.2187 81.4061 41.2546 81.46 41.2905C81.5138 41.3264 81.5497 41.3623 81.6035 41.3982C81.6932 41.488 81.783 41.5777 81.8727 41.6495C81.9086 41.6854 81.9624 41.7393 81.9983 41.7752C82.088 41.865 82.1777 41.9547 82.2495 42.0445C82.3751 42.1881 82.5187 42.3137 82.6802 42.4035C82.8776 42.5471 83.0571 42.7266 83.2544 42.8881C83.398 42.9959 83.5416 43.1215 83.7031 43.2292C83.7569 43.2651 83.8107 43.301 83.8646 43.3369C83.9184 43.3728 83.9543 43.4267 84.0081 43.4626C84.0979 43.5523 84.2055 43.6421 84.2952 43.7318C84.3491 43.7857 84.385 43.8216 84.4388 43.8754C84.5465 43.9652 84.6362 44.0729 84.7439 44.1627C84.9951 44.414 85.2822 44.6114 85.5514 44.8448C85.7129 44.9705 85.8565 45.1141 86.0359 45.2218C86.0897 45.2577 86.1436 45.2936 86.1974 45.3295C86.2512 45.3654 86.3051 45.4192 86.3589 45.4551C86.4486 45.5449 86.5563 45.6346 86.664 45.7064C86.7178 45.7423 86.7716 45.7783 86.8255 45.8142C86.9331 45.886 87.0229 45.9757 87.1305 46.0655C87.31 46.245 87.4894 46.4245 87.6509 46.604C87.7766 46.7296 87.9022 46.8733 88.0457 46.9989C88.1893 47.1066 88.3328 47.2323 88.4764 47.322C88.5302 47.3579 88.5841 47.3938 88.6379 47.4118C88.6917 47.4477 88.7276 47.5015 88.7815 47.5374C88.8712 47.6272 88.9609 47.699 89.0686 47.7708C89.1224 47.8067 89.1763 47.8426 89.2301 47.8785C89.3378 47.9503 89.4275 48.0401 89.5172 48.1298C89.6967 48.3093 89.8582 48.4888 90.0556 48.6504C90.1991 48.7761 90.3427 48.9017 90.5042 49.0094C90.558 49.0453 90.6118 49.0812 90.6657 49.1171C90.7016 49.171 90.7554 49.2248 90.7913 49.2607C90.8451 49.4043 90.8092 49.512 90.6836 49.5838C88.4226 49.5838 86.1615 49.5838 83.9005 49.5838C83.7928 49.4941 83.6851 49.4223 83.5595 49.3684C83.5057 49.3325 83.4518 49.2787 83.398 49.2428C83.2903 49.153 83.2006 49.0633 83.1109 48.9735C82.8238 48.7042 82.5187 48.4529 82.1778 48.2196C82.1239 48.1837 82.0701 48.1478 81.9983 48.1298C81.9445 48.0939 81.8906 48.058 81.8368 48.0221C81.7471 47.9324 81.6574 47.8426 81.5497 47.7528C81.4958 47.7169 81.46 47.6631 81.4061 47.6272C81.3164 47.5374 81.2267 47.4477 81.137 47.3579C81.1011 47.322 81.0472 47.2682 81.0113 47.2323C80.9216 47.1425 80.8319 47.0528 80.7601 46.963C80.6345 46.8194 80.5089 46.6937 80.3474 46.604C80.132 46.4604 79.9705 46.2809 79.7552 46.1732C79.7014 46.1373 79.6475 46.1014 79.5937 46.0834C79.5399 46.0475 79.486 46.0116 79.4322 45.9757C79.3425 45.886 79.2527 45.8142 79.163 45.7244C79.1271 45.6885 79.0733 45.6346 79.0374 45.5987C78.9477 45.509 78.858 45.4192 78.7682 45.3295C78.7323 45.2936 78.6785 45.2397 78.6426 45.2038C78.5529 45.1141 78.4632 45.0243 78.3914 44.9346C78.2837 44.7909 78.1402 44.6653 77.9786 44.5755C77.7813 44.4499 77.6018 44.2524 77.3865 44.1447C77.3326 44.1088 77.2788 44.0909 77.225 44.055C77.1711 44.0191 77.1173 43.9832 77.0814 43.9473C76.9917 43.8575 76.902 43.7857 76.8122 43.6959C76.7763 43.66 76.7225 43.6062 76.6866 43.5703C76.5969 43.4805 76.5251 43.4087 76.4354 43.319C76.3995 43.2831 76.3457 43.2292 76.3098 43.1933C76.238 43.1215 76.1483 43.0318 76.0765 42.942C75.9688 42.8164 75.8791 42.6907 75.7355 42.6009L75.592 42.5291L75.4484 42.583C75.3228 42.6727 75.2151 42.7984 75.1075 42.9241C75.0357 43.0138 74.9639 43.0856 74.8742 43.1574L74.7486 43.2831C74.6588 43.3549 74.5871 43.4446 74.4973 43.5164C74.4615 43.5523 74.4076 43.5882 74.3717 43.6241C74.2641 43.6959 74.1743 43.7498 74.0667 43.8216C73.9231 43.9293 73.7795 44.055 73.636 44.1806C73.4027 44.396 73.1335 44.5755 72.9002 44.8089C72.8105 44.8987 72.7208 44.9884 72.6311 45.0782C72.5772 45.132 72.5414 45.1679 72.4875 45.2218C72.3978 45.3115 72.3081 45.4013 72.2183 45.491C72.1645 45.5269 72.1286 45.5808 72.0748 45.6167C71.9671 45.6885 71.8594 45.7603 71.7518 45.8321C71.5903 45.9398 71.4467 46.0834 71.3031 46.2091C71.0699 46.4424 70.8545 46.6937 70.6212 46.9271C70.5315 47.0169 70.4239 47.1066 70.3341 47.1964C70.2803 47.2323 70.2265 47.2682 70.1726 47.3041C70.065 47.3759 69.9573 47.4477 69.8676 47.5374C69.8137 47.5733 69.7778 47.6272 69.724 47.6631C69.6163 47.7349 69.5266 47.8067 69.4189 47.8606C69.2574 47.9503 69.1318 48.076 68.9883 48.2016C68.8088 48.3632 68.6473 48.5427 68.4679 48.7222C68.3422 48.8658 68.1987 48.9915 68.0731 49.1171C67.9833 49.2069 67.8757 49.2787 67.768 49.3325C67.7142 49.3505 67.6603 49.3864 67.5886 49.4043C67.463 49.4402 67.3553 49.512 67.2656 49.6018C65.0045 49.6018 62.7434 49.6018 60.4824 49.6018C60.4286 49.5479 60.3747 49.512 60.3388 49.4582C60.3568 49.3864 60.3568 49.3325 60.3747 49.2607C60.4465 49.153 60.5362 49.0453 60.6259 48.9556C60.7157 48.8658 60.8233 48.7761 60.931 48.7042C61.0925 48.5965 61.2361 48.4888 61.3976 48.3632C61.5411 48.2555 61.7206 48.1837 61.8821 48.076C61.9718 47.9862 62.0615 47.8965 62.1333 47.8067C62.223 47.7169 62.3128 47.6272 62.3846 47.5374C62.4204 47.5015 62.4743 47.4477 62.5102 47.4118C62.5999 47.322 62.6896 47.2323 62.7793 47.1425C62.8332 47.1066 62.887 47.0707 62.9408 47.0348C63.0485 46.963 63.1741 46.8912 63.2818 46.8373C63.4433 46.7117 63.5869 46.5681 63.7484 46.4604C63.9278 46.3706 64.0714 46.227 64.2149 46.0834C64.3046 45.9937 64.3944 45.9039 64.4662 45.7962C64.5559 45.7064 64.6277 45.6167 64.7174 45.5269C64.7533 45.491 64.8071 45.4372 64.843 45.4013C64.9327 45.3295 65.0045 45.2397 65.0942 45.15C65.1301 45.1141 65.184 45.0782 65.2198 45.0243C65.3275 44.9525 65.4172 44.8987 65.5249 44.8448C65.6864 44.7371 65.812 44.6114 65.9735 44.5037C66.135 44.396 66.2965 44.2883 66.4221 44.1447C66.5119 44.055 66.6016 43.9652 66.6913 43.8754C66.7272 43.8395 66.781 43.7857 66.8169 43.7498C66.9067 43.66 66.9964 43.5703 67.0861 43.4805C67.122 43.4446 67.1758 43.3908 67.2117 43.3549C67.3014 43.2651 67.3912 43.1754 67.4809 43.0856C67.5347 43.0497 67.5886 43.0138 67.6244 42.96C67.7321 42.8882 67.8398 42.8343 67.9475 42.7625C68.109 42.6548 68.2346 42.5291 68.3961 42.4214C68.5576 42.3137 68.7011 42.224 68.8268 42.0804C68.8985 41.9906 68.9883 41.9008 69.078 41.8111C69.1139 41.7752 69.1677 41.7213 69.2036 41.6854C69.2933 41.5957 69.383 41.5239 69.4548 41.4341C69.4907 41.3982 69.5446 41.3444 69.5804 41.3085C69.6702 41.2187 69.7599 41.1469 69.8317 41.0572C69.9214 40.9674 70.0111 40.9136 70.1188 40.8418C70.2803 40.752 70.4059 40.6263 70.5315 40.5186C70.6571 40.393 70.7828 40.2853 70.9263 40.1596C70.9981 40.0699 71.0878 39.9981 71.1775 39.9262C71.2673 39.8365 71.339 39.7647 71.4288 39.6929C71.4647 39.657 71.5185 39.6211 71.5544 39.5672C71.6441 39.4775 71.7159 39.4057 71.8236 39.3518C71.8774 39.3159 71.9312 39.298 71.9671 39.28C72.1645 39.1364 71.8953 39.2441 71.9133 39.1903C71.6979 39.1185 72.003 39.2082 71.8056 39.1364C71.6621 39.0287 71.5185 38.921 71.3929 38.7953C71.2134 38.6517 71.016 38.4902 70.8366 38.3466C70.7469 38.2748 70.6392 38.203 70.5495 38.1312C70.4597 38.0414 70.37 37.9517 70.2803 37.8799C70.2444 37.844 70.1906 37.7901 70.1547 37.7542C70.065 37.6644 69.9752 37.5747 69.9035 37.5029C69.8676 37.467 69.8137 37.4131 69.7778 37.3772C69.6881 37.2875 69.5984 37.1977 69.5087 37.1259C69.4728 37.09 69.4189 37.0362 69.3831 37.0003C69.2933 36.9285 69.1857 36.8387 69.0959 36.7669C68.8985 36.6233 68.737 36.4438 68.5217 36.3181C68.414 36.2463 68.3064 36.1925 68.2166 36.1207C68.1269 36.0489 68.0372 35.9591 67.9475 35.8693C67.9116 35.8334 67.8577 35.7796 67.8218 35.7437C67.7321 35.6539 67.6424 35.5642 67.5706 35.4924C67.5347 35.4565 67.4809 35.4026 67.445 35.3667C67.3553 35.277 67.2835 35.1872 67.1938 35.0975C67.0861 34.9539 66.9426 34.8462 66.781 34.7384C66.5837 34.5948 66.4042 34.4153 66.1709 34.3076C66.1171 34.2717 66.0632 34.2358 66.0094 34.2179C65.9556 34.182 65.9017 34.1461 65.8479 34.1102C65.7582 34.0204 65.6685 33.9307 65.5608 33.8409C65.507 33.787 65.4711 33.7511 65.4172 33.6973C65.3275 33.6075 65.2198 33.4998 65.1301 33.4101C65.0763 33.3562 65.0404 33.3203 64.9866 33.2665C64.8789 33.1767 64.7892 33.069 64.6994 32.9793C64.4482 32.7459 64.1611 32.5305 63.874 32.333C63.8201 32.2971 63.7484 32.2612 63.6945 32.2253C63.6407 32.1894 63.5869 32.1535 63.5151 32.1176C63.4074 32.0279 63.3177 31.9381 63.228 31.8304C63.1741 31.7765 63.1382 31.7406 63.0844 31.6868C62.9947 31.597 62.9049 31.5073 62.7973 31.3996C62.7434 31.3457 62.7076 31.3098 62.6537 31.256C62.564 31.1662 62.4563 31.0944 62.3487 31.0226C62.1513 30.879 61.9718 30.6815 61.7565 30.5559C61.6488 30.4841 61.5411 30.4302 61.4335 30.3584C61.3437 30.2687 61.254 30.1969 61.1463 30.1071C61.0925 30.0712 61.0566 30.0174 61.0028 29.9815C60.9131 29.8917 60.8233 29.8019 60.7336 29.7122C60.6798 29.6583 60.6439 29.6224 60.5901 29.5686C60.5003 29.4788 60.4106 29.3711 60.3388 29.2634C60.3209 29.0301 60.3568 28.9223 60.4824 28.8326Z" fill="#1758FF"/>
<path d="M59.889 28.9059C63.9985 32.3926 68.1081 35.8794 72.2177 39.3662C72.0347 39.5168 71.9309 39.8994 71.616 39.7499C71.4965 39.6956 71.4127 39.5774 71.3163 39.4957C67.5171 36.2723 63.7072 33.0397 59.908 29.8163C59.6083 29.562 59.2952 29.367 59.889 28.9059Z" fill="#27FEFE"/>
<path d="M75.563 42.4493C78.2248 44.7077 80.8866 46.9661 83.5484 49.2245C83.3767 49.3847 83.2276 49.729 83.0032 49.6562C82.9176 49.6307 82.8715 49.5445 82.8091 49.4916C80.3484 47.4037 77.8807 45.31 75.4199 43.2222C75.2258 43.0575 75.0108 42.9456 75.563 42.4493Z" fill="#27FEFE"/>
<path d="M59.7068 49.1584C63.6531 45.7906 67.5994 42.4228 71.5457 39.055C71.6663 39.2587 72.0226 39.4265 71.8342 39.7052C71.765 39.8115 71.639 39.8719 71.5465 39.9508C67.8982 43.0643 64.2397 46.1865 60.5914 49.3C60.3036 49.5455 60.0714 49.8145 59.7068 49.1584Z" fill="#27FEFE"/>
<path d="M75.112 35.6333C77.874 33.2762 80.6359 30.9191 83.3979 28.5621C83.5277 28.7579 83.847 28.9573 83.7326 29.1728C83.6912 29.2554 83.596 29.2895 83.5312 29.3447C80.9779 31.5238 78.4173 33.709 75.8639 35.888C75.6626 36.0599 75.5105 36.2605 75.112 35.6333Z" fill="#27FEFE"/>
<path d="M75.5362 36.1692C72.7909 33.6872 70.0359 31.1963 67.2906 28.7143C67.3143 28.5905 67.3985 28.4974 67.5192 28.4613C67.6594 28.4429 67.8018 28.4023 67.9322 28.3751C68.0506 28.3611 68.1449 28.3738 68.2345 28.4307C68.3242 28.4875 68.3463 28.5801 68.3008 28.7084C70.7551 30.9273 73.2071 33.1683 75.6855 35.3607C75.9862 35.6326 75.8879 35.8582 75.5362 36.1692Z" fill="#CB5EFF"/>
<path d="M90.5802 49.6564C86.827 46.263 83.0605 42.8577 79.3072 39.4644C79.3131 39.3245 79.3974 39.2314 79.5359 39.2115C79.7009 39.2155 79.8648 39.1943 80.0165 39.1864C80.1563 39.1918 80.272 39.2238 80.3901 39.3064C80.5082 39.389 80.5517 39.5009 80.5205 39.642C83.8759 42.6756 87.2325 45.7346 90.6119 48.7416C91.023 49.1133 90.9462 49.3582 90.5802 49.6564Z" fill="#CB5EFF"/>
<path d="M91.2452 29.8245C87.3654 33.0723 83.4718 36.3316 79.592 39.5795C79.4543 39.5543 79.3737 39.458 79.3731 39.318C79.4 39.1551 79.4016 38.9899 79.4148 38.8385C79.4394 38.7009 79.4871 38.5907 79.5853 38.4852C79.6835 38.3796 79.8003 38.352 79.9357 38.4024C83.4043 35.4989 86.898 32.5976 90.3435 29.6665C90.7685 29.3108 91.0005 29.4208 91.2452 29.8245Z" fill="#CB5EFF"/>
<path d="M76.0485 42.8266C73.2 45.268 70.3414 47.7181 67.4929 50.1595C67.3726 50.1209 67.2908 50.0255 67.2711 49.9006C67.2715 49.7585 67.2501 49.6113 67.2404 49.4778C67.2424 49.3579 67.2678 49.2653 67.3366 49.1827C67.4055 49.1 67.5009 49.0891 67.6229 49.15C70.1694 46.9674 72.7377 44.7898 75.2609 42.5799C75.5729 42.3125 75.7851 42.4379 76.0485 42.8266Z" fill="#CB5EFF"/>
<path d="M38.1039 21.7118C35.8429 21.7118 33.5818 21.7118 31.3208 21.7118C31.231 21.64 31.1413 21.5682 31.0336 21.5323C30.9798 21.4964 30.9439 21.4605 30.8901 21.4426C30.8004 21.3708 30.7286 21.299 30.6389 21.2092L30.5132 21.0835C30.4415 21.0117 30.3517 20.922 30.28 20.8502L30.1543 20.7425C30.0826 20.6707 30.0108 20.5809 29.9211 20.5091C29.9211 20.5091 29.8134 20.3835 29.7954 20.4014C29.7237 20.3117 29.6339 20.2399 29.5622 20.168L29.4365 20.0424C29.3648 19.9526 29.275 19.8808 29.2033 19.7911C29.1674 19.7552 29.1315 19.7013 29.0956 19.6654C29.0238 19.5757 28.97 19.468 28.9161 19.3782C28.8444 19.2885 28.7726 19.1987 28.7008 19.1089C28.629 19.0192 28.5393 18.9474 28.4675 18.8576C28.3419 18.732 28.2342 18.6063 28.1086 18.4807C27.983 18.373 27.8753 18.2473 27.7497 18.1216C27.6241 18.0139 27.5164 17.8883 27.4088 17.7806C27.2832 17.6729 27.1755 17.5472 27.0678 17.4395C26.9422 17.3318 26.8345 17.2062 26.7089 17.0805C26.5833 16.9548 26.4577 16.8471 26.3321 16.7215C26.1885 16.5958 26.0629 16.4702 25.9193 16.3445C25.7578 16.2009 25.6143 16.0573 25.4707 15.9137C24.9324 15.3752 24.394 14.8366 23.8557 14.2981C23.7121 14.1545 23.5686 14.0109 23.425 13.8673C23.2994 13.7416 23.1738 13.598 23.0482 13.4544C22.9225 13.3288 22.7969 13.2031 22.6893 13.0774C22.5637 12.9518 22.456 12.8441 22.3304 12.7184C22.2048 12.6107 22.0971 12.4851 22.0074 12.3415C21.9356 12.1978 21.81 12.0901 21.6844 11.9645C21.5767 11.8388 21.4511 11.7311 21.3434 11.6234C21.2357 11.4978 21.1101 11.3901 21.0025 11.2824C20.8948 11.1567 20.7692 11.049 20.6436 10.9413C20.5718 10.8695 20.4821 10.7977 20.4103 10.7079L20.3026 10.6002C20.2308 10.5284 20.159 10.4387 20.0693 10.3669L19.9617 10.2592C19.8899 10.1873 19.8181 10.0976 19.7284 10.0258L19.6207 9.91808C19.5489 9.84628 19.4771 9.75652 19.3874 9.68472L19.2797 9.57701C19.208 9.50521 19.1362 9.41546 19.0465 9.34365L18.9388 9.23595C18.867 9.16414 18.7952 9.07439 18.7055 9.00259L18.5978 8.89488C18.5261 8.82308 18.4543 8.73332 18.3646 8.66152L18.2569 8.55382C18.1851 8.48201 18.1133 8.39225 18.0236 8.32045L17.9159 8.21274C17.8442 8.14094 17.7724 8.05119 17.6826 7.97938L17.575 7.87168C17.5032 7.79987 17.4314 7.71012 17.3417 7.63832L17.234 7.51266C17.1622 7.42291 17.0725 7.35111 16.9828 7.29725C16.9828 7.29725 16.8392 7.18955 16.8392 7.2075C16.7495 7.13569 16.6598 7.06389 16.588 6.99208L16.4624 6.88438C16.3906 6.81257 16.3009 6.77668 16.1932 6.75873C16.1932 6.77668 16.1753 6.90233 16.1932 6.92028C16.3906 7.08184 16.3727 7.2793 16.3727 7.49471C16.3547 11.6055 16.3727 15.7162 16.3547 19.809C16.3547 20.4732 16.4983 21.1733 16.0317 21.7477C14.5602 21.7477 13.0888 21.7477 11.6173 21.7477C11.2225 21.2631 11.2763 20.6886 11.2763 20.1322C11.2763 14.3161 11.2763 8.49996 11.2763 2.68387C11.2763 2.12739 11.2045 1.55296 11.6173 1.06829C13.7707 1.06829 15.9061 1.06829 18.0595 1.06829C18.1672 1.19394 18.3646 1.22984 18.4902 1.33755C18.5799 1.40935 18.6517 1.48115 18.7414 1.57091L18.867 1.69657C18.9388 1.76837 19.0285 1.85812 19.1003 1.92993C19.1003 1.92993 19.208 2.03763 19.2259 2.03763C19.2977 2.10944 19.3695 2.19919 19.4592 2.271L19.5669 2.3787C19.6386 2.4505 19.7104 2.54026 19.8001 2.61206L19.9078 2.71977C19.9796 2.79157 20.0693 2.88133 20.1411 2.95313L20.2667 3.07879C20.3385 3.16854 20.4282 3.24035 20.5 3.3301C20.5359 3.366 20.5718 3.41985 20.6077 3.45575C20.6794 3.54551 20.7333 3.65321 20.7871 3.74297C20.8589 3.83272 20.9307 3.92248 21.0025 4.01223C21.0742 4.10199 21.164 4.17379 21.2357 4.26354C21.3613 4.3892 21.469 4.51486 21.5946 4.64051C21.7202 4.74822 21.8279 4.87388 21.9356 4.99953C22.0612 5.10724 22.1689 5.23289 22.2765 5.3406C22.4021 5.4483 22.5098 5.57397 22.6175 5.68167C22.7252 5.78938 22.8508 5.91503 22.9584 6.02274C23.0661 6.13044 23.1917 6.2561 23.2994 6.3638C23.425 6.47151 23.5327 6.59716 23.6404 6.70487C23.766 6.81257 23.8736 6.93823 23.9813 7.04594C24.1069 7.15364 24.2146 7.2793 24.3402 7.40495C24.4658 7.53061 24.5914 7.63832 24.717 7.76397C24.8606 7.88963 25.0042 8.01529 25.1298 8.14094C25.2913 8.28455 25.4348 8.42816 25.5784 8.57176C26.2244 9.218 26.8704 9.84628 27.4985 10.4925C27.6421 10.6361 27.8036 10.7797 27.9292 10.9413C28.0548 11.0669 28.1804 11.2105 28.306 11.3542C28.4316 11.4798 28.5572 11.6055 28.6649 11.7311C28.7905 11.8568 28.8982 11.9645 29.0238 12.0901C29.1494 12.1978 29.2571 12.3235 29.3648 12.4492C29.4904 12.5569 29.5981 12.6825 29.7057 12.7902C29.8313 12.8979 29.939 13.0236 30.0467 13.1313C30.1723 13.239 30.28 13.3647 30.3517 13.5083C30.4235 13.6519 30.5491 13.7596 30.6747 13.8673C30.7824 13.9929 30.908 14.1006 31.0157 14.2084C31.1234 14.334 31.249 14.4417 31.3746 14.5494C31.4643 14.6212 31.5361 14.711 31.6258 14.7828C31.6617 14.8187 31.6976 14.8725 31.7514 14.9084C31.8412 14.9982 31.9129 15.07 32.0027 15.1597C32.0386 15.1956 32.0924 15.2495 32.1283 15.2854C32.218 15.3572 32.3077 15.429 32.3975 15.4829L32.541 15.5726C32.6307 15.6265 32.7025 15.6803 32.7922 15.7162C33.0255 15.6624 32.9537 15.4829 32.9717 15.3213C32.9896 11.1926 32.9717 7.08184 32.9896 2.97108C32.9896 2.3069 32.8281 1.60681 33.3126 1.01443C34.8918 1.01443 36.4709 1.01443 38.0501 1.01443C38.4449 1.49911 38.391 2.07354 38.391 2.63002C38.391 8.44611 38.391 14.2622 38.391 20.0783C38.4449 20.6527 38.5167 21.2272 38.1039 21.7118Z" fill="#1758FF"/>
<path d="M11.6715 1.03234C11.6715 7.92549 11.6715 14.8186 11.6715 21.7118C11.4382 21.6579 11.0793 21.8733 10.9896 21.4425C10.9537 21.281 10.9896 21.1015 10.9896 20.9399C10.9896 14.5673 10.9896 8.1768 10.9896 1.80423C10.9896 1.30161 10.9357 0.834879 11.6715 1.03234Z" fill="#27FEFE"/>
<path d="M16.0677 21.7118C16.0677 16.6317 16.0677 11.5337 16.0677 6.45355C16.1754 6.36379 16.301 6.36379 16.4087 6.45355C16.5164 6.5792 16.642 6.68691 16.7497 6.79461C16.8394 6.90232 16.8932 7.01002 16.9112 7.15363C16.9291 7.29724 16.8753 7.40495 16.7497 7.47675C16.7497 12.0183 16.7317 16.5779 16.7676 21.1194C16.7676 21.6759 16.5343 21.7836 16.0677 21.7118Z" fill="#CB5EFF"/>
<path d="M38.4454 1.0322C38.4454 7.92534 38.4454 14.8185 38.4454 21.7116C38.3377 21.7116 38.2121 21.7116 38.1044 21.7116C38.1044 14.8185 38.1044 7.92534 38.1044 1.0322C38.23 1.0322 38.3377 1.0322 38.4454 1.0322Z" fill="#CB5EFF"/>
<path d="M33.3672 1.03238C33.3672 5.82527 33.3672 10.6182 33.3672 15.4111C33.3672 15.788 33.4569 16.1829 33.2775 16.5599C33.1877 16.7574 33.0262 16.7574 33.1339 16.5779C33.1698 16.524 33.0621 16.3984 33.0262 16.2907C32.8468 16.0034 32.7571 15.6983 32.793 15.3572C32.9365 11.1926 32.8109 7.02799 32.8647 2.84542C32.8647 2.23509 32.7032 1.60681 33.0262 1.01443C33.1339 1.03239 33.2416 1.03238 33.3672 1.03238Z" fill="#27FEFE"/>
<path d="M129.148 74.4006C127.569 74.4006 125.989 74.4006 124.41 74.4006C123.926 73.8082 124.087 73.1261 124.069 72.4619C124.033 67.7588 124.123 63.0377 124.015 58.3345C123.962 58.1371 123.854 57.9576 123.728 57.796C120.57 57.796 117.394 57.796 114.235 57.796C113.715 56.4318 113.715 55.0854 114.235 53.7212C122.598 53.7212 130.96 53.7212 139.322 53.7212C139.843 55.0854 139.843 56.4318 139.322 57.796C136.164 57.796 132.988 57.796 129.83 57.796C129.345 58.3884 129.507 59.0885 129.489 59.7527C129.471 63.9891 129.489 68.2255 129.471 72.4619C129.471 73.1081 129.632 73.8082 129.148 74.4006Z" fill="#1758FF"/>
<path d="M129.147 74.4005C129.147 69.1229 129.147 63.8274 129.147 58.5498C129.147 58.0472 129.111 57.5984 129.829 57.7779C129.829 63.0555 129.829 68.351 129.829 73.6286C129.829 74.1312 129.865 74.58 129.147 74.4005Z" fill="#CB5EFF"/>
<path d="M124.069 57.7779C124.733 57.9036 124.392 58.4062 124.392 58.7114C124.41 63.1452 124.41 67.5971 124.41 72.0309C124.41 72.8208 124.41 73.6106 124.41 74.3825C124.303 74.3825 124.177 74.3825 124.069 74.3825C123.71 72.1566 123.908 69.9127 123.926 67.6689C123.944 64.3839 123.693 61.0809 124.069 57.7779Z" fill="#27FEFE"/>
<path d="M114.235 53.7034C114.235 55.0676 114.235 56.4139 114.235 57.7782C114.002 57.7244 113.589 57.9398 113.571 57.5089C113.536 56.3242 113.536 55.1394 113.571 53.9726C113.589 53.5418 113.984 53.7572 114.235 53.7034Z" fill="#27FEFE"/>
<path d="M139.322 57.7781C139.322 56.4138 139.322 55.0675 139.322 53.7033C139.556 53.7571 139.968 53.5417 139.986 53.9725C140.022 55.1573 140.022 56.342 139.986 57.5089C139.968 57.9397 139.556 57.7243 139.322 57.7781Z" fill="#CB5EFF"/>
<path d="M73.9797 78.8335C70.0711 78.9399 66.7208 78.2218 63.6099 76.3599C61.4562 75.0832 59.914 72.849 59.3024 70.6147C58.6643 68.2475 58.7441 65.8536 58.9568 63.5396C59.1163 61.6511 59.6481 59.6829 61.1637 58.1934C62.5463 56.8369 64.0619 55.8527 65.9232 55.1612C69.167 53.9111 72.4907 53.4057 75.8409 53.7781C78.3669 54.0441 80.9727 54.4962 83.2593 55.7729C86.2905 57.4752 88.1252 60.1084 88.4442 63.5928C88.524 64.3641 89.109 64.8695 89.0026 65.6409C88.6304 69.1252 88.1784 72.5564 85.3865 75.1896C83.6582 76.8121 81.531 77.743 79.3773 78.2218C77.5426 78.6474 75.6016 79.3123 73.9797 78.8335Z" fill="#1758FF"/>
<path d="M35.1336 64.7632C35.1336 69.2051 35.1336 73.6204 35.1336 78.1953C34.2827 78.4879 33.3787 78.2751 32.5013 78.3283C31.5972 78.3815 30.6932 78.3283 29.8423 78.3283C29.3106 77.5038 29.9221 76.626 29.4169 75.8281C27.21 77.3708 24.7106 78.3283 22.158 78.7273C20.3234 79.0199 18.3026 79.1262 16.3084 78.4879C14.9258 78.0357 13.3836 77.9825 12.001 77.3442C8.22528 75.5621 5.77907 72.8757 5.40682 68.487C5.30046 67.3167 4.60914 66.0399 5.14093 65.0026C5.6993 63.8855 5.32706 62.662 5.91202 61.5448C6.36404 60.7203 6.65652 59.816 7.37443 59.151C8.96979 57.5817 10.4056 55.7465 12.772 55.2411C13.3836 54.2304 14.7662 55.2677 15.3778 54.2304C17.824 53.991 20.2436 53.3526 22.6898 53.7782C24.8436 54.1506 27.1036 54.3101 29.0712 55.2943C30.5337 56.0124 32.1024 56.8104 33.0862 58.1403C34.3891 59.9224 35.4261 61.9172 35.1336 64.3111C33.2458 64.8164 31.3313 64.4441 29.4169 64.5505C28.5129 64.5771 28.0874 63.9387 27.7418 63.2737C26.7846 61.4385 25.1095 60.7469 23.2216 60.5873C21.387 60.4277 19.5523 60.3745 17.7176 60.6139C14.5269 61.0129 12.6657 62.928 12.3466 65.9602C12.0541 68.8594 13.6495 71.3596 16.6807 72.1575C20.0575 73.0619 23.4343 73.0087 26.5187 70.8276C24.9499 70.4286 23.328 70.5882 21.7592 70.5084C19.4459 70.3754 18.9142 69.7637 18.8876 67.3699C18.8876 64.976 19.4459 64.2313 21.6794 64.1515C24.2586 64.0717 26.8643 63.8855 29.4169 64.5505C31.3313 64.6568 33.2458 64.2579 35.1336 64.7632Z" fill="#1758FF"/>
<path d="M33.4316 63.2471C33.1391 63.2471 32.82 63.2471 32.501 63.2471C30.3738 63.2471 30.4004 63.2471 29.0444 61.4118C28.2733 60.3745 27.3692 59.6298 26.0132 59.151C22.397 57.8743 20.9081 58.1935 17.0792 58.6456C14.4469 58.9648 12.9579 60.6405 11.2562 62.2364C10.7776 62.6886 10.9903 63.3003 10.8041 63.8057C9.50126 67.5028 11.3093 72.1043 14.5798 73.514C15.4838 73.913 16.4411 74.2587 17.5312 74.3119C18.6214 74.3651 19.6584 74.8705 20.8283 74.7907C22.6895 74.6843 26.1195 73.7534 27.7681 72.7692C29.0444 72.0245 29.5496 70.7744 30.0813 69.4977C30.2675 69.0721 29.7091 68.3008 29.2039 68.2476C28.6987 68.1944 28.1935 68.2476 27.6883 68.2476C25.3485 68.2476 23.0352 68.2476 20.6422 68.2476C20.6422 67.5826 20.6422 67.024 20.6422 66.3325C25.0826 66.3325 29.5496 66.3325 34.0697 66.3325C34.0697 69.9232 34.0697 73.514 34.0697 77.1846C33.1923 77.1846 32.2882 77.1846 31.1981 77.1846C30.9854 75.8546 31.1981 74.3917 31.0917 72.716C29.2837 74.0194 27.8478 75.6153 25.8271 76.3334C25.4814 76.4664 25.1889 76.7058 24.7635 76.7856C20.4294 77.5037 18.7277 77.5303 14.633 76.759C10.8573 76.0674 8.33134 73.7002 7.08164 70.2158C6.01807 67.2368 6.12444 63.6727 7.77297 60.6671C8.99608 58.4062 10.9371 57.0497 13.1706 56.1986C15.0052 55.507 16.9728 55.0815 19.0202 55.1347C20.2699 55.1613 21.5462 55.2677 22.7693 55.1081C24.0456 54.9485 25.1357 55.5336 26.3057 55.7198C29.7091 56.2518 32.2617 58.1403 33.5911 61.4118C33.7772 61.9704 33.8038 62.6354 33.4316 63.2471Z" fill="white"/>
<path d="M29.1244 64.258C29.1244 64.4176 29.1244 64.6038 29.1244 64.7634C26.04 64.7634 22.9557 64.7634 19.7384 64.7634C19.4193 65.5081 19.632 66.3326 19.5788 67.1306C19.5522 67.9551 19.5788 68.7797 19.5788 69.7638C22.61 69.7638 25.5614 69.7638 28.6192 69.7638C28.4862 70.0564 28.433 70.1894 28.3533 70.2958C26.5718 72.6098 24.099 73.3014 21.3337 73.3014C20.669 73.3014 20.0043 73.2482 19.3395 73.3014C17.7708 73.461 16.3615 72.9024 15.0055 72.264C12.0541 70.8809 11.0437 67.8487 11.8945 64.524C12.2934 62.9813 12.9581 61.7578 14.128 60.9598C15.3511 60.1619 16.787 59.6299 18.3557 59.6831C20.0308 59.7629 21.6794 59.6831 23.3545 59.7097C24.6574 59.7097 25.8273 60.2417 26.8909 60.8268C27.8215 61.3588 28.6192 62.2897 28.6192 63.5664C28.6192 63.9654 28.6192 64.3112 29.1244 64.258Z" fill="white"/>
<path d="M73.635 77.3174C72.9702 77.3174 72.2789 77.2642 71.6408 77.3174C69.6732 77.5036 67.7587 77.0249 66.057 76.2269C63.2652 74.897 61.0583 72.9287 60.3403 69.604C60.0479 68.2475 59.8351 66.8909 59.9149 65.5344C60.234 60.268 62.8397 57.0762 68.2374 55.6665C71.1622 54.8952 74.1402 55.108 77.065 55.241C79.6441 55.374 82.1435 56.2517 84.2707 57.7678C85.7597 58.8317 86.5307 60.5074 87.0891 62.3427C87.6741 64.2843 87.7273 66.2526 87.488 68.1677C87.0359 71.7584 85.5469 74.8172 81.0534 76.3067C80.0164 76.6525 78.9528 76.8919 77.9158 77.1578C76.5332 77.5834 75.0442 77.3174 73.635 77.3174Z" fill="white"/>
<path d="M73.6611 74.3121C71.6935 74.2855 69.9652 74.1791 68.1305 73.4343C66.5618 72.7694 65.6577 71.865 64.86 70.5351C63.4242 68.0881 63.6369 64.6569 64.6207 62.2365C65.4184 60.2682 67.1467 59.3905 68.9282 58.8319C69.6993 58.5925 70.5501 58.1936 71.4542 58.2202C73.0495 58.2734 74.6715 57.9808 76.1871 58.3C78.3142 58.7521 80.5477 59.0713 82.0633 61.0396C82.8876 62.1035 83.313 63.2206 83.4459 64.4973C83.5257 65.2421 83.3928 66.0134 83.4725 66.7582C83.7916 69.8968 81.8506 72.6098 78.3142 73.8599C76.7454 74.3919 75.1501 74.2589 73.6611 74.3121Z" fill="#1758FF"/>
<path d="M73.9263 59.7361C75.3089 59.9223 76.9043 59.7361 78.5528 60.1351C81.2383 60.8266 81.8499 62.8215 82.4614 64.9228C82.7805 66.0399 82.3817 68.3805 81.9828 69.4711C81.3447 71.2265 79.1378 72.716 77.1702 72.7958C76.2927 72.8224 75.3621 72.5032 74.6176 73.3012C72.7298 73.0618 70.7356 73.0618 68.9275 72.4766C66.3749 71.6787 65.3911 69.9764 65.3911 67.3166C65.3911 66.5718 65.4177 65.8005 65.3911 65.0558C65.3114 61.8108 67.5715 60.0553 70.709 59.7361C71.6928 59.6563 72.7298 59.7361 73.9263 59.7361Z" fill="white"/>
<path d="M93.5243 9.68668C93.5243 6.90165 93.5243 4.21519 93.5243 1.4548C95.5199 1.4548 97.4417 1.4548 99.462 1.4548C99.462 8.82405 99.462 16.218 99.462 23.6858C97.5156 23.6858 95.6185 23.6858 93.5982 23.6858C93.5982 20.9993 93.5982 18.3129 93.5982 15.6264C91.6764 15.2567 81.9444 15.1582 75.8834 15.4539C75.8834 18.1404 75.8834 20.8268 75.8834 23.6365C73.8385 23.6365 71.8674 23.6365 69.8224 23.6365C69.8224 16.2919 69.8224 8.94729 69.8224 1.5041C71.7689 1.5041 73.7399 1.5041 75.8095 1.5041C75.8095 4.23984 75.8095 6.92629 75.8095 9.71132C81.698 9.68667 87.4879 9.68668 93.5243 9.68668Z" fill="#1758FF"/>
<path d="M74.8736 13.9505C74.8736 16.9574 74.8736 19.8163 74.8736 22.7246C73.6664 22.7246 72.5084 22.7246 71.2765 22.7246C71.2765 15.9962 71.2765 9.21844 71.2765 2.36676C72.4345 2.36676 73.5678 2.36676 74.8736 2.36676C74.8736 5.25038 74.8736 8.15865 74.8736 11.1162C81.5998 11.1162 88.1782 11.1162 94.8305 11.1162C94.8305 8.25723 94.8305 5.39825 94.8305 2.4407C95.9392 2.4407 96.9986 2.4407 98.1073 2.4407C98.1073 9.1445 98.1073 15.8729 98.1073 22.7C97.1218 22.7 96.087 22.7 94.929 22.7C94.929 20.3093 94.9537 17.9186 94.929 15.5279C94.929 14.2463 94.6334 13.9752 93.3029 13.9752C87.2173 13.9505 81.181 13.9505 74.8736 13.9505Z" fill="white"/>
<path d="M127.006 24.3238C124.283 24.5715 121.731 23.8038 119.301 22.8875C117.356 22.1445 115.776 20.8319 114.658 18.8012C113.078 15.8789 113.151 12.808 113.418 9.78659C113.564 7.95396 114.707 6.24516 115.873 4.784C117.064 3.24855 118.887 2.57989 120.662 1.91122C121.707 1.51498 122.922 1.68834 123.87 1.34162C125.45 0.77202 127.006 0.920607 128.513 1.01967C130.798 1.14349 133.131 1.56451 135.222 2.53035C136.461 3.09996 137.458 4.26393 138.503 5.22977C139.621 6.26992 139.986 7.60725 140.399 8.89505C141.42 12.1393 141.104 15.3588 139.597 18.4297C138.357 20.9805 136.534 22.516 133.447 23.4075C131.357 24.0019 129.218 24.5715 127.006 24.3238Z" fill="#1758FF"/>
<path d="M127.337 23.2869C126.333 23.2869 125.329 23.2357 124.325 23.3125C123.321 23.3892 122.537 22.4682 121.509 22.8008C119.451 21.9565 117.468 21.0355 116.194 18.9633C115.288 17.505 114.48 15.97 114.896 14.2559C115.092 13.3861 113.794 13.0023 114.602 12.1069C115.141 11.4929 114.749 10.5719 114.823 9.8044C114.994 8.14148 115.802 6.81114 116.758 5.55755C118.153 3.71554 120.162 3.07595 122.219 2.46195C124.839 1.66886 127.484 2.15495 130.129 2.00145C130.961 1.95028 131.574 2.64103 132.48 2.56428C133.19 2.48753 133.949 3.10153 134.733 3.20387C135.614 3.33178 136.129 4.07371 136.741 4.50862C138.651 5.86455 139.484 8.03914 139.778 10.3672C139.949 11.8767 139.998 13.4628 139.778 14.9467C139.41 17.2748 138.676 19.4494 136.569 20.882C134.219 22.4938 131.721 23.2613 128.953 23.2613C128.415 23.2869 127.876 23.2869 127.337 23.2869Z" fill="white"/>
<path d="M126.428 20.0728C124.619 20.2693 122.607 19.8272 120.645 18.7464C119.117 17.8867 118.429 16.806 117.92 15.1848C117.283 13.1952 117.512 11.353 118.047 9.53538C118.404 8.38093 119.142 7.2756 120.34 6.6124C121.486 5.97377 124.212 5.23689 125.511 5.21232C126.555 5.21232 127.6 5.1632 128.644 5.21232C130.657 5.31058 132.516 5.75271 134.121 7.02997C135.318 7.98792 136.261 9.1915 136.235 10.5425C136.235 11.2057 136.796 11.7215 136.719 12.1882C136.388 14.0304 136.465 15.9463 134.885 17.4937C133.077 19.2623 130.911 19.8763 128.491 20.0237C127.956 20.0974 127.396 20.0728 126.428 20.0728Z" fill="#1758FF"/>
<path d="M127.072 6.2702C127.883 6.2702 128.72 6.32018 129.531 6.2702C131.754 6.12023 134.396 7.21996 135.311 10.2192C135.965 12.3936 135.756 14.743 134.213 16.7175C133.585 17.5173 132.539 17.7423 131.676 18.2422C130.656 18.842 129.583 18.3171 128.616 18.5921C127.726 18.842 126.942 19.4169 126 18.717C125.451 18.3171 124.745 18.5921 124.091 18.5671C121.763 18.4671 120.141 17.4424 119.043 15.4429C118.808 14.993 118.677 14.6181 118.677 14.1682C118.677 13.2934 118.781 12.4186 118.651 11.5938C118.311 9.4194 119.749 8.11973 121.24 6.99502C121.815 6.57013 122.731 6.2452 123.62 6.2702C124.771 6.29519 125.922 6.2702 127.072 6.2702Z" fill="white"/>
</svg>