<svg width="39" height="51" viewBox="0 0 39 51" fill="none" xmlns="http://www.w3.org/2000/svg">
<path d="M19.5 51C19.5 51 38.625 32.8759 38.625 19.125C38.625 14.0527 36.6101 9.18822 33.0234 5.60158C29.4368 2.01495 24.5723 0 19.5 0C14.4277 0 9.56322 2.01495 5.97658 5.60158C2.38995 9.18822 0.375 14.0527 0.375 19.125C0.375 32.8759 19.5 51 19.5 51ZM19.5 28.6875C16.9639 28.6875 14.5316 27.68 12.7383 25.8867C10.945 24.0934 9.9375 21.6611 9.9375 19.125C9.9375 16.5889 10.945 14.1566 12.7383 12.3633C14.5316 10.57 16.9639 9.5625 19.5 9.5625C22.0361 9.5625 24.4684 10.57 26.2617 12.3633C28.055 14.1566 29.0625 16.5889 29.0625 19.125C29.0625 21.6611 28.055 24.0934 26.2617 25.8867C24.4684 27.68 22.0361 28.6875 19.5 28.6875Z" fill="#1758FF"/>
</svg>
