<svg width="26" height="23" viewBox="0 0 26 23" fill="none" xmlns="http://www.w3.org/2000/svg">
<path d="M21.816 6.2489C23.1981 6.2489 24.3185 5.12849 24.3185 3.7464C24.3185 2.3643 23.1981 1.2439 21.816 1.2439C20.4339 1.2439 19.3135 2.3643 19.3135 3.7464C19.3135 5.12849 20.4339 6.2489 21.816 6.2489Z" fill="#000005"/>
<path d="M21.6558 12.7678C20.947 13.334 20.4333 13.744 19.3083 13.744C18.1845 13.744 17.6983 13.3553 16.9633 12.7678C16.1133 12.089 15.057 11.244 13.0545 11.244C11.0533 11.244 9.99826 12.089 9.14951 12.7678C8.41451 13.3553 7.93076 13.744 6.80576 13.744C5.68326 13.744 5.19826 13.3553 4.46451 12.769C3.61576 12.089 2.56201 11.244 0.562012 11.244V13.744C1.68326 13.744 2.16826 14.1328 2.90201 14.719C3.75076 15.399 4.80576 16.244 6.80576 16.244C8.80576 16.244 9.86326 15.399 10.712 14.719C11.4458 14.1315 11.932 13.744 13.0545 13.744C14.1795 13.744 14.6933 14.154 15.402 14.7203C16.2508 15.399 17.307 16.244 19.3083 16.244C21.3108 16.244 22.367 15.399 23.217 14.7203C23.952 14.1328 24.4383 13.744 25.562 13.744V11.244C23.5608 11.244 22.5045 12.089 21.6558 12.7678ZM19.3083 19.994C18.1845 19.994 17.6983 19.6053 16.9633 19.0178C16.1133 18.339 15.057 17.494 13.0545 17.494C11.0533 17.494 9.99826 18.339 9.14951 19.0178C8.41451 19.6053 7.93076 19.994 6.80576 19.994C5.68326 19.994 5.19826 19.6053 4.46451 19.019C3.61576 18.339 2.56201 17.494 0.562012 17.494V19.994C1.68326 19.994 2.16826 20.3828 2.90201 20.969C3.75076 21.649 4.80576 22.494 6.80576 22.494C8.80576 22.494 9.86326 21.649 10.712 20.969C11.4458 20.3815 11.932 19.994 13.0545 19.994C14.1795 19.994 14.6933 20.404 15.402 20.9703C16.2508 21.649 17.307 22.494 19.3083 22.494C21.3108 22.494 22.367 21.649 23.217 20.9703C23.952 20.3828 24.4383 19.994 25.562 19.994V17.494C23.5608 17.494 22.5045 18.339 21.6558 19.0178C20.947 19.584 20.4333 19.994 19.3083 19.994ZM11.812 3.01775L14.442 5.64775L11.8708 8.86025C12.2283 8.79025 12.6158 8.744 13.0545 8.744C15.057 8.744 16.1133 9.589 16.9633 10.2678C17.6983 10.8553 18.1845 11.244 19.3083 11.244C20.4333 11.244 20.947 10.834 21.6558 10.2678C21.8208 10.1365 21.9983 9.9965 22.1845 9.86025L19.5645 7.24775L19.5708 7.2415L12.6958 0.366502C12.5798 0.250319 12.442 0.158147 12.2904 0.0952587C12.1387 0.0323703 11.9762 0 11.812 0C11.6478 0 11.4853 0.0323703 11.3336 0.0952587C11.182 0.158147 11.0442 0.250319 10.9283 0.366502L5.92826 5.3665L7.69576 7.134L11.812 3.01775Z" fill="#000005"/>
</svg>
