<svg width="32" height="31" viewBox="0 0 32 31" fill="none" xmlns="http://www.w3.org/2000/svg">
<path d="M27.2143 17.985C30.1123 19.3635 31.627 22.2771 31.1451 25.2221C30.6944 27.9665 28.4724 30.2222 25.6746 30.711C22.9143 31.1934 19.7284 29.9277 18.3514 26.7823C14.7837 27.8913 11.3037 27.6407 7.96132 25.9552C5.66422 24.8023 3.85534 23.0917 2.46582 20.9237C2.76 20.5665 3.04166 20.2282 3.29202 19.9274C3.90542 20.4538 4.44996 21.0302 5.08839 21.4563C6.80338 22.6092 8.6373 22.7283 10.5088 21.8448C10.7153 21.7508 10.803 21.8197 10.9344 21.9325C12.9185 23.6744 15.2031 24.8524 17.7568 25.5103C17.7944 25.5228 17.8382 25.5166 17.9008 25.5228C17.8444 25.0717 17.7819 24.6394 17.7193 24.1569C15.5411 23.5679 13.5945 22.4588 11.8169 21.0365C14.1704 18.2294 14.0952 15.2531 12.4867 12.1139C14.8463 10.5036 17.3625 9.11882 19.9475 8.00977C20.7111 8.80553 21.4121 9.58876 22.182 10.3093C22.9832 11.0612 23.897 11.669 24.9548 12.0137C25.9062 12.3207 26.8638 12.4899 27.8152 11.8695C28.0468 13.9749 27.9028 15.9987 27.2143 17.985ZM24.5167 18.7933C21.5498 18.8184 19.1526 21.2119 19.1651 24.1506C19.1776 27.1144 21.6062 29.5518 24.5354 29.533C27.4897 29.5142 29.9308 27.058 29.8995 24.1318C29.8682 21.1869 27.4397 18.7682 24.5167 18.7933Z" fill="#000005"/>
<path d="M19.2057 0.991112C18.0415 1.96859 18.0102 3.22176 18.3232 4.50626C18.5047 5.24563 18.8615 5.94114 19.1431 6.65545C19.1619 6.71184 19.1932 6.76197 19.2308 6.84343C16.627 8.06527 14.1045 9.41869 11.7386 11.0353C9.77324 9.04274 7.5137 8.3911 4.82854 9.55655C4.79725 9.38737 4.75344 9.21192 4.72214 9.03648C4.42796 7.15672 4.53437 5.31456 5.20409 3.52252C5.26042 3.36587 5.38561 3.21549 5.51079 3.10897C7.73277 1.28561 10.2865 0.25174 13.1532 0.0387009C15.1623 -0.11168 17.1214 0.176551 19.0117 0.897125C19.068 0.928454 19.1243 0.953517 19.2057 0.991112Z" fill="#000005"/>
<path d="M3.25478 5.35181C3.06074 7.00599 3.22974 8.62259 3.58025 10.2266C3.59903 10.3081 3.56773 10.4334 3.5114 10.5023C1.36452 13.0275 1.31445 15.7719 2.61635 18.673C2.62886 18.7044 2.64138 18.7294 2.67268 18.8046C2.37224 19.0615 2.05929 19.3247 1.70878 19.6192C0.663504 17.4574 0.244145 15.1767 0.381846 12.7894C0.544582 10.0073 1.57108 7.55112 3.25478 5.35181Z" fill="#000005"/>
<path d="M11.3575 12.9414C12.8096 15.1282 12.6719 18.5556 10.8442 20.1095C9.56111 18.894 8.45951 17.5217 7.42676 16.0117C8.74117 14.9841 10.0493 13.9627 11.3575 12.9414Z" fill="#000005"/>
<path d="M21.1221 7.58366C22.5304 7.06359 23.9011 6.58739 25.3407 6.34302C25.5285 6.31169 25.5973 6.38688 25.685 6.51846C26.3985 7.65258 26.9368 8.86816 27.3123 10.1527C27.3874 10.4096 27.256 10.5725 27.087 10.7166C26.7302 11.0236 26.3109 11.0361 25.8727 10.961C25.1905 10.8482 24.5959 10.5286 24.0263 10.1589C22.9372 9.46968 22.0046 8.59873 21.1221 7.58366Z" fill="#000005"/>
<path d="M24.7257 5.02666C23.2987 5.45274 21.8841 5.87255 20.4132 6.3049C19.7748 5.25223 19.3054 4.10558 19.5745 2.78975C19.7435 1.97519 20.6511 1.63056 21.3646 2.05664C22.6289 2.81481 23.693 3.79855 24.6506 4.91388C24.6945 4.95774 24.7195 5.01413 24.7257 5.02666Z" fill="#000005"/>
<path d="M10.5712 11.7281C9.25678 12.7871 8.00495 13.8021 6.72184 14.836C6.52155 14.4475 6.27744 14.034 6.10218 13.5954C5.78923 12.8247 5.52009 12.0414 5.21965 11.2645C5.13828 11.0577 5.20087 10.9386 5.38239 10.8384C6.70932 10.099 8.04251 10.1993 9.3444 10.8697C9.7888 11.089 10.1643 11.4336 10.5712 11.7281Z" fill="#000005"/>
<path d="M4.35645 18.9929C5.03869 18.2848 5.71467 17.583 6.39692 16.875C6.91642 17.5454 7.41089 18.2347 7.95543 18.8863C8.49998 19.538 9.08833 20.1583 9.65791 20.7912C8.04306 21.6684 5.50812 20.8162 4.35645 18.9929Z" fill="#000005"/>
<path d="M4.05271 12.1074C4.60352 13.2979 5.15432 14.4947 5.69886 15.6852C5.0354 16.3306 4.34689 17.0073 3.67717 17.6652C2.9073 16.2304 2.83219 13.63 4.05271 12.1074Z" fill="#000005"/>
</svg>
