<svg width="31" height="31" viewBox="0 0 31 31" fill="none" xmlns="http://www.w3.org/2000/svg">
<path d="M26.8579 17.985C29.7559 19.3635 31.2706 22.2771 30.7886 25.2221C30.338 27.9665 28.116 30.2222 25.3181 30.711C22.5579 31.1934 19.372 29.9277 17.995 26.7823C14.4273 27.8913 10.9472 27.6407 7.60487 25.9552C5.30778 24.8023 3.4989 23.0917 2.10938 20.9237C2.40355 20.5665 2.68521 20.2282 2.93558 19.9274C3.54897 20.4538 4.09351 21.0302 4.73194 21.4563C6.44694 22.6092 8.28086 22.7283 10.1523 21.8448C10.3589 21.7508 10.4465 21.8197 10.5779 21.9325C12.5621 23.6744 14.8467 24.8524 17.4004 25.5103C17.4379 25.5228 17.4817 25.5166 17.5443 25.5228C17.488 25.0717 17.4254 24.6394 17.3628 24.1569C15.1847 23.5679 13.2381 22.4588 11.4605 21.0365C13.8139 18.2294 13.7388 15.2531 12.1302 12.1139C14.4899 10.5036 17.0061 9.11882 19.5911 8.00977C20.3547 8.80553 21.0557 9.58876 21.8256 10.3093C22.6267 11.0612 23.5406 11.669 24.5983 12.0137C25.5497 12.3207 26.5074 12.4899 27.4588 11.8695C27.6903 13.9749 27.5464 15.9987 26.8579 17.985ZM24.1602 18.7933C21.1934 18.8184 18.7962 21.2119 18.8087 24.1506C18.8212 27.1144 21.2497 29.5518 24.179 29.533C27.1333 29.5142 29.5743 27.058 29.543 24.1318C29.5117 21.1869 27.0832 18.7682 24.1602 18.7933Z" fill="#878AAB"/>
<path d="M18.8493 0.991112C17.6851 1.96859 17.6538 3.22176 17.9667 4.50626C18.1483 5.24563 18.505 5.94114 18.7867 6.65545C18.8055 6.71184 18.8368 6.76197 18.8743 6.84343C16.2705 8.06527 13.7481 9.41869 11.3822 11.0353C9.41679 9.04274 7.15726 8.39109 4.4721 9.55654C4.4408 9.38737 4.39699 9.21192 4.3657 9.03648C4.07152 7.15672 4.17792 5.31456 4.84764 3.52252C4.90398 3.36587 5.02916 3.21549 5.15434 3.10897C7.37633 1.28561 9.93004 0.25174 12.7967 0.0387009C14.8059 -0.11168 16.765 0.176551 18.6552 0.897125C18.7116 0.928454 18.7679 0.953517 18.8493 0.991112Z" fill="#878AAB"/>
<path d="M2.89833 5.35156C2.7043 7.00575 2.87329 8.62234 3.2238 10.2264C3.24258 10.3079 3.21128 10.4332 3.15495 10.5021C1.00808 13.0272 0.958006 15.7717 2.2599 18.6728C2.27242 18.7041 2.28494 18.7292 2.31623 18.8044C2.0158 19.0613 1.70284 19.3244 1.35233 19.6189C0.307059 17.4572 -0.1123 15.1764 0.0254002 12.7891C0.188137 10.0071 1.21463 7.55088 2.89833 5.35156Z" fill="#878AAB"/>
<path d="M11.001 12.9414C12.4531 15.1282 12.3154 18.5556 10.4878 20.1095C9.20467 18.894 8.10307 17.5217 7.07031 16.0117C8.38473 14.9841 9.69288 13.9627 11.001 12.9414Z" fill="#878AAB"/>
<path d="M20.7656 7.58366C22.1739 7.06359 23.5447 6.58739 24.9843 6.34302C25.172 6.31169 25.2409 6.38688 25.3285 6.51846C26.0421 7.65258 26.5803 8.86816 26.9559 10.1527C27.031 10.4096 26.8996 10.5725 26.7306 10.7166C26.3738 11.0236 25.9544 11.0361 25.5163 10.961C24.834 10.8482 24.2394 10.5286 23.6698 10.1589C22.5808 9.46968 21.6482 8.59873 20.7656 7.58366Z" fill="#878AAB"/>
<path d="M24.3693 5.02666C22.9422 5.45274 21.5277 5.87255 20.0568 6.3049C19.4183 5.25223 18.9489 4.10558 19.2181 2.78975C19.387 1.97519 20.2946 1.63056 21.0082 2.05664C22.2725 2.81481 23.3365 3.79855 24.2942 4.91388C24.338 4.95774 24.363 5.01413 24.3693 5.02666Z" fill="#878AAB"/>
<path d="M10.2147 11.7281C8.90033 12.7871 7.64851 13.8021 6.36539 14.836C6.1651 14.4475 5.92099 14.034 5.74574 13.5954C5.43278 12.8247 5.16364 12.0414 4.86321 11.2645C4.78184 11.0577 4.84443 10.9386 5.02594 10.8384C6.35287 10.099 7.68606 10.1993 8.98796 10.8697C9.43235 11.089 9.8079 11.4336 10.2147 11.7281Z" fill="#878AAB"/>
<path d="M4 18.9929C4.68224 18.2848 5.35823 17.583 6.04047 16.875C6.55998 17.5454 7.05444 18.2347 7.59899 18.8863C8.14353 19.538 8.73189 20.1583 9.30147 20.7912C7.68662 21.6684 5.15168 20.8162 4 18.9929Z" fill="#878AAB"/>
<path d="M3.69627 12.1074C4.24707 13.2979 4.79787 14.4947 5.34242 15.6852C4.67895 16.3306 3.99045 17.0073 3.32072 17.6652C2.55085 16.2304 2.47574 13.63 3.69627 12.1074Z" fill="#878AAB"/>
</svg>
