<svg width="25" height="25" viewBox="0 0 25 25" fill="none" xmlns="http://www.w3.org/2000/svg">
<path d="M23.3215 1.25292C22.5982 0.529583 20.5444 0 17.9482 0C13.9698 0 8.71276 1.24 5.05735 4.89542C-1.00057 10.9662 -0.432237 21.3512 1.38901 23.1854C2.11235 23.9088 4.1661 24.4383 6.76235 24.4383C10.7407 24.4383 15.9978 23.1983 19.6532 19.5429C25.7111 13.4721 25.1428 3.08708 23.3215 1.25292ZM6.8786 6.7425C10.2886 3.3325 15.0807 2.7125 17.2507 2.62208C14.6028 3.83625 11.4898 5.78667 8.71276 8.57667C6.24327 11.0646 4.22416 13.9622 2.74526 17.1404C2.87443 13.9371 3.88193 9.72625 6.8786 6.7425ZM17.8319 17.6958C14.4219 21.1058 9.62985 21.7258 7.45985 21.8162C10.1078 20.6021 13.2207 18.6517 15.9978 15.8617C18.7878 13.0717 20.7382 9.94583 21.9653 7.29792C21.8361 10.5012 20.8286 14.7121 17.8319 17.6958Z" fill="#000005"/>
</svg>
