<svg width="29" height="27" viewBox="0 0 29 27" fill="none" xmlns="http://www.w3.org/2000/svg">
<path d="M6.89144 0L5.86214 0.373574C6.23753 1.40227 6.41312 2.44246 6.0014 3.48084C6.27386 3.76904 6.54027 4.05361 6.80667 4.33213C7.56351 2.85418 7.36371 1.2957 6.89144 0ZM5.32933 4.35635C4.91761 4.51377 4.55312 4.71357 4.22314 4.94365C5.8682 6.74795 7.26078 8.67334 8.08421 10.52C8.85316 12.2577 9.13773 13.9894 8.52015 15.4304L21.8284 25.0513C23.4934 24.9665 24.5711 24.5608 25.3098 23.9917C26.0848 23.3983 26.5268 22.6052 26.8477 21.6667C26.6721 21.473 26.4784 21.2853 26.2664 21.0976C24.7104 21.37 23.3481 21.0612 22.2159 20.3468C21.0352 19.6081 20.1088 18.4638 19.3217 17.1378C17.8383 14.6372 16.8393 11.4464 15.8282 8.8126C13.1338 9.08506 11.16 8.70967 9.60999 7.95283C7.75726 7.04463 6.54027 5.646 5.32933 4.35635ZM3.39667 5.65811C3.11997 5.95479 2.87294 6.28174 2.64953 6.63291C2.01015 7.64404 1.57179 8.87314 1.19701 10.1386L7.60589 14.7704C7.95101 13.7351 7.74515 12.4394 7.08519 10.962C6.32835 9.27275 4.99027 7.41397 3.39667 5.65811ZM17.8625 8.50381C17.5477 8.56436 17.245 8.61885 16.9422 8.66728C17.1662 9.25459 17.3903 9.86006 17.6143 10.4716L19.1885 11.2647C18.7707 10.2899 18.359 9.35752 17.8625 8.50381ZM0.589116 11.0468C0.424428 11.2224 0.317866 11.404 0.262768 11.5917C0.188295 11.8339 0.197983 12.1003 0.32392 12.4272L14.7868 21.7757C16.1067 22.6233 17.2934 23.3257 18.3711 23.9009L0.589116 11.0468ZM18.1653 11.9731C18.583 13.0812 19.025 14.1771 19.5155 15.1882L21.5256 16.0782C20.8475 14.9823 20.3268 13.8925 19.8606 12.8269L18.1653 11.9731ZM20.3571 16.7442C21.0655 17.9067 21.8707 18.8452 22.7971 19.4265C23.4631 19.8442 24.1836 20.0864 25.0252 20.1106C24.1291 19.3599 23.3844 18.5849 22.7487 17.7978L20.3571 16.7442ZM27.6106 22.702C27.2534 23.5073 26.7508 24.2642 25.9758 24.8575C25.2856 25.3843 24.4016 25.7778 23.2694 25.9837C24.3289 26.2804 25.1584 26.3772 25.7881 26.353C26.6903 26.3167 27.2049 26.0685 27.5198 25.8202C27.8346 25.572 27.9557 25.3237 28.0102 25.2026C28.2221 24.7304 28.2039 23.9978 27.8588 23.1864C27.7922 23.029 27.7075 22.8655 27.6106 22.702Z" fill="#878AAB"/>
</svg>
