<svg width="29" height="28" viewBox="0 0 29 28" fill="none" xmlns="http://www.w3.org/2000/svg">
<path d="M21.2458 0.000105634C20.8462 0.000105634 20.4466 0.0364338 20.053 0.0963752C17.9642 0.42575 16.0267 1.49743 14.7068 2.81856C12.963 4.56534 11.7036 7.10831 11.1708 9.57862C11.0739 9.98428 11.0134 10.4021 10.9589 10.8138L8.93059 18.3458L9.88723 19.3024L17.4132 17.2741C17.8249 17.2196 18.2427 17.153 18.6544 17.0622C21.1247 16.5294 23.6677 15.27 25.4114 13.5263C26.7374 12.2003 27.8091 10.2628 28.1361 8.17393C28.4509 6.08507 27.9907 3.79639 26.2046 2.01571C24.7636 0.566824 22.9896 -0.0089764 21.2458 0.000105634V0.000105634ZM21.2519 1.16805C22.7232 1.1511 24.1521 1.62155 25.3812 2.84581C26.8948 4.35343 27.2581 6.188 26.9736 7.99229C26.695 9.80264 25.7202 11.5524 24.582 12.6907C23.0441 14.2286 20.6646 15.4274 18.4062 15.9118C16.1538 16.4083 14.0952 16.1419 13.0902 15.1308C12.0911 14.1317 11.8247 12.0792 12.3152 9.82081C12.8056 7.56846 13.9984 5.18292 15.5423 3.64866C16.6745 2.51159 18.4304 1.53921 20.2407 1.25403C20.5738 1.20075 20.9189 1.17169 21.2519 1.16805V1.16805ZM11.2011 14.1741C11.4251 14.8583 11.7642 15.4759 12.2607 15.9603C12.7511 16.4567 13.3626 16.8079 14.0468 17.0259L10.2323 17.9946L11.2011 14.1741ZM8.15559 19.2358L2.13723 25.2603L1.81936 24.9515L0.989258 25.781L2.46479 27.2462L3.29428 26.4228L2.96672 26.0958L8.99113 20.0653L8.15559 19.2358ZM20.931 21.9665C19.7503 21.9665 18.7755 22.9353 18.7755 24.1159C18.7755 25.2966 19.7503 26.2653 20.931 26.2653C22.1056 26.2653 23.0804 25.2966 23.0804 24.1159C23.0804 22.9353 22.1056 21.9665 20.931 21.9665Z" fill="#1758FF"/>
</svg>
