<svg width="18" height="15" viewBox="0 0 18 15" fill="none" xmlns="http://www.w3.org/2000/svg">
<path d="M17.891 2.60455C17.2459 2.89033 16.5617 3.07791 15.8611 3.16106C16.5909 2.72366 17.1512 2.03102 17.4151 1.20574C16.7213 1.61742 15.9623 1.90749 15.1708 2.06338C14.526 1.37653 13.6076 0.947266 12.591 0.947266C10.6391 0.947266 9.05655 2.52972 9.05655 4.48148C9.05655 4.75853 9.08784 5.02824 9.14807 5.28698C6.21074 5.13954 3.60651 3.73252 1.86329 1.59422C1.55912 2.11621 1.38484 2.72339 1.38484 3.37102C1.38484 4.59723 2.00884 5.67896 2.95713 6.31279C2.39588 6.29521 1.84697 6.14362 1.35624 5.87068C1.35603 5.88548 1.35603 5.90029 1.35603 5.91516C1.35603 7.62756 2.5743 9.05605 4.19108 9.38074C3.67063 9.52228 3.12471 9.543 2.59503 9.4413C3.04475 10.8454 4.35003 11.8672 5.89655 11.8958C4.68696 12.8437 3.16298 13.4088 1.50717 13.4088C1.22185 13.4088 0.940569 13.392 0.664062 13.3594C2.22815 14.3622 4.0859 14.9473 6.08181 14.9473C12.5828 14.9473 16.1376 9.56176 16.1376 4.89136C16.1376 4.73807 16.1343 4.58565 16.1274 4.43411C16.8193 3.93391 17.4166 3.31437 17.891 2.60455Z" fill="#1758FF"/>
</svg>
