<svg width="28" height="28" viewBox="0 0 28 28" fill="none" xmlns="http://www.w3.org/2000/svg">
<path d="M13.5 26C19.8513 26 25 20.6274 25 14C25 7.37258 19.8513 2 13.5 2C7.14873 2 2 7.37258 2 14C2 20.6274 7.14873 26 13.5 26Z" stroke="#878AAB" strokeWidth="3.08" strokeLinecap="round" strokeLinejoin="round"/>
<path d="M7 16.463C8.04621 18.6242 9.57337 20.51 11.4613 21.9721C13.3492 23.4342 15.5464 24.4327 17.88 24.8889M12.76 14.5186C13.7628 16.3174 15.2732 17.772 17.0976 18.6958C18.922 19.6196 20.9773 19.9706 23 19.7037L12.76 14.5186Z" stroke="#878AAB" strokeWidth="3.08" strokeLinecap="round" strokeLinejoin="round"/>
<path d="M14.476 8.41598C12.1833 8.20525 9.89741 8.53843 7.79817 9.38929C5.69892 10.2402 3.84362 11.5855 2.37823 13.3195M13.426 14.2467C11.4564 14.1824 9.53881 14.7192 7.91906 15.7885C6.2993 16.8577 5.05122 18.4106 4.33479 20.248L13.426 14.2467Z" stroke="#878AAB" strokeWidth="3.08" strokeLinecap="round" strokeLinejoin="round"/>
<path d="M17.77 18.8642C19.0995 16.7928 19.9515 14.4268 20.2588 11.9524C20.5662 9.47801 20.3206 6.96276 19.5413 4.60455M13.2118 14.635C14.2522 12.7909 14.7425 10.6636 14.6199 8.52599C14.4972 6.38836 13.7672 4.33775 12.5235 2.63705L13.2118 14.635Z" stroke="#878AAB" strokeWidth="3.08" strokeLinecap="round" strokeLinejoin="round"/>
</svg>
