<svg width="60" height="51" viewBox="0 0 60 51" fill="none" xmlns="http://www.w3.org/2000/svg">
<path d="M4.1915 50.9177C3.16592 50.9177 2.14034 50.9177 1.11476 50.9177C0.909645 50.7301 0.938947 50.4781 0.938947 50.2378C0.938947 46.1352 0.938947 42.0384 0.938947 37.9357C0.938947 37.6954 0.909645 37.4434 1.12062 37.2559C2.56229 37.2559 3.9981 37.2559 5.43977 37.25C5.5101 37.2559 5.5687 37.2852 5.63317 37.3086C5.70935 37.3555 5.76796 37.42 5.81484 37.4962C5.83828 37.5313 5.86173 37.5665 5.88517 37.6017C5.89689 37.6192 5.90861 37.6368 5.92033 37.6485C5.94963 37.6779 5.97307 37.713 5.99652 37.7423L6.03754 37.7892C6.06684 37.8185 6.09615 37.8478 6.11959 37.8771L6.16061 37.9181C6.18991 37.9416 6.21921 37.9709 6.24265 38.0002L6.28368 38.0412C6.31298 38.0647 6.33642 38.094 6.36572 38.1233L6.40675 38.1643C6.43605 38.1878 6.45949 38.2171 6.48879 38.2464L6.52982 38.2874C6.55912 38.3108 6.58256 38.3401 6.61186 38.3694L6.65289 38.4105C6.68219 38.4339 6.71149 38.4632 6.73493 38.4925L6.77595 38.5335C6.80526 38.5628 6.83456 38.5863 6.86386 38.6156L6.90489 38.6566C6.93419 38.6859 6.96349 38.7152 6.99279 38.7445C7.01037 38.7563 7.02209 38.7738 7.03967 38.7914C7.07484 38.8207 7.10414 38.85 7.13344 38.8793C7.15103 38.8969 7.1686 38.9086 7.18619 38.9262C7.22135 38.9555 7.25651 38.9907 7.29168 39.0259C7.30926 39.0434 7.32684 39.061 7.34442 39.0786C7.37958 39.1138 7.41474 39.1489 7.44991 39.19C8.10628 39.8523 8.76851 40.5028 9.41902 41.1651C9.84097 41.6281 10.3098 42.0501 10.7376 42.5073C10.7669 42.5424 10.8021 42.5834 10.8255 42.6303C10.8372 42.6479 10.8548 42.6714 10.8666 42.6889C10.8959 42.7241 10.9193 42.7651 10.9486 42.8003C10.9603 42.8179 10.9779 42.8355 10.9896 42.8531C11.0189 42.8824 11.0482 42.9175 11.0775 42.9468C11.0892 42.9644 11.1068 42.9761 11.1186 42.9937C11.1479 43.023 11.1772 43.0523 11.2065 43.0816C11.2182 43.0934 11.2358 43.1109 11.2475 43.1227C11.2768 43.152 11.3061 43.1813 11.3295 43.2106L11.3705 43.2516C11.3999 43.2809 11.4292 43.3043 11.4526 43.3336L11.4936 43.3747C11.5229 43.404 11.5522 43.4333 11.5815 43.4626C11.5991 43.4743 11.6108 43.4919 11.6284 43.5036C11.6577 43.5329 11.687 43.5622 11.7163 43.5915C11.7339 43.6033 11.7456 43.6208 11.7632 43.6384C11.7984 43.6677 11.8277 43.697 11.8628 43.7322C11.8804 43.7498 11.898 43.7615 11.9156 43.7791C11.9507 43.8084 11.9859 43.8435 12.0211 43.8787C12.0386 43.8963 12.0562 43.9139 12.0738 43.9315C12.109 43.9666 12.1441 44.0077 12.1852 44.0428C13.0935 44.9571 14.0019 45.8656 14.9103 46.7682C15.0568 46.9147 15.1681 47.1433 15.4494 47.0788C15.5373 46.1645 15.4846 45.256 15.4846 44.3476C15.4963 42.2494 15.4846 40.1453 15.4904 38.0471C15.4904 37.7716 15.4318 37.4727 15.6663 37.2441C16.686 37.2441 17.7057 37.2441 18.7196 37.2441C18.913 37.4376 18.8778 37.6896 18.8778 37.9299C18.8778 42.0267 18.8778 46.1235 18.8778 50.2144C18.8778 50.4547 18.913 50.7067 18.7254 50.906C17.2955 50.906 15.8655 50.906 14.4356 50.906C14.1132 50.7594 13.8964 50.484 13.6561 50.2437C12.613 49.2004 11.5639 48.1631 10.5442 47.1022C10.5091 47.0671 10.4798 47.026 10.4563 46.9791C10.4446 46.9616 10.427 46.9381 10.4153 46.9205C10.386 46.8854 10.3567 46.8443 10.3332 46.8092C10.3215 46.7916 10.3039 46.774 10.2922 46.7564C10.2629 46.7271 10.2336 46.692 10.2043 46.6568C10.1926 46.6392 10.175 46.6275 10.1633 46.6099C10.134 46.5806 10.1047 46.5513 10.0754 46.522C10.0637 46.5103 10.0461 46.4927 10.0344 46.481C10.0051 46.4517 9.97576 46.4224 9.95232 46.3931L9.9113 46.352C9.88199 46.3286 9.85269 46.2993 9.82925 46.27L9.78823 46.2289C9.75893 46.2055 9.73548 46.1762 9.70618 46.1469L9.66516 46.1059C9.63586 46.0824 9.61241 46.0531 9.58311 46.0238L9.54209 45.9828C9.51279 45.9593 9.48935 45.93 9.46004 45.9007L9.41902 45.8597C9.38972 45.8363 9.36627 45.807 9.33697 45.7777L9.29595 45.7366C9.26665 45.7132 9.24321 45.6839 9.2139 45.6546L9.17288 45.6136C9.14358 45.5901 9.11427 45.5608 9.09083 45.5315L9.04981 45.4905C9.02051 45.4612 8.99121 45.4377 8.96191 45.4084C8.94432 45.3967 8.9326 45.3791 8.91502 45.3674C8.87986 45.3381 8.85056 45.3088 8.82125 45.2795C8.80367 45.2619 8.79195 45.2502 8.77437 45.2326C8.73921 45.2033 8.70404 45.1681 8.67474 45.1388C8.65716 45.1212 8.63958 45.1037 8.622 45.0861C8.58683 45.0509 8.55167 45.0157 8.51651 44.9806C8.49893 44.963 8.48135 44.9454 8.4579 44.9278C7.36786 43.8377 6.27196 42.7593 5.21122 41.6516C5.17605 41.6164 5.14675 41.5695 5.12331 41.5285C5.11159 41.5109 5.09401 41.4875 5.08229 41.4699C5.05298 41.4347 5.02368 41.3937 5.00024 41.3585C4.98852 41.3409 4.97094 41.3234 4.95921 41.3058C4.92991 41.2765 4.90061 41.2413 4.87131 41.2061C4.85373 41.1885 4.84201 41.1768 4.83029 41.1592C4.80099 41.1299 4.77168 41.1006 4.74238 41.0713C4.73066 41.0596 4.71308 41.042 4.70136 41.0303C4.67205 41.001 4.64275 40.9717 4.61931 40.9482L4.57829 40.9072C4.54898 40.8838 4.52554 40.8545 4.5021 40.831L4.46108 40.7959L4.42006 40.7783C4.42006 40.7783 4.37317 40.7783 4.37317 40.7841C4.37317 40.79 4.33801 40.8193 4.33801 40.831C4.31457 40.9776 4.34973 41.1182 4.34387 41.2706C4.34387 44.2245 4.34387 47.1608 4.34387 50.103C4.33215 50.3843 4.39661 50.6774 4.1915 50.9177Z" fill="#1758FF"/>
<path d="M4.1915 50.9177C3.16592 50.9177 2.14034 50.9177 1.11476 50.9177C0.909645 50.7301 0.938947 50.4781 0.938947 50.2378C0.938947 46.1352 0.938947 42.0384 0.938947 37.9357C0.938947 37.6954 0.909645 37.4434 1.12062 37.2559C2.56229 37.2559 3.9981 37.2559 5.43977 37.25C5.5101 37.2559 5.5687 37.2852 5.63317 37.3086C5.70935 37.3555 5.76796 37.42 5.81484 37.4962C5.83828 37.5313 5.86173 37.5665 5.88517 37.6017C5.89689 37.6192 5.90861 37.6368 5.92033 37.6485C5.94963 37.6779 5.97307 37.713 5.99652 37.7423L6.03754 37.7892C6.06684 37.8185 6.09615 37.8478 6.11959 37.8771L6.16061 37.9181C6.18991 37.9416 6.21921 37.9709 6.24265 38.0002L6.28368 38.0412C6.31298 38.0647 6.33642 38.094 6.36572 38.1233L6.40675 38.1643C6.43605 38.1878 6.45949 38.2171 6.48879 38.2464L6.52982 38.2874C6.55912 38.3108 6.58256 38.3401 6.61186 38.3694L6.65289 38.4105C6.68219 38.4339 6.71149 38.4632 6.73493 38.4925L6.77595 38.5335C6.80526 38.5628 6.83456 38.5863 6.86386 38.6156L6.90489 38.6566C6.93419 38.6859 6.96349 38.7152 6.99279 38.7445C7.01037 38.7563 7.02209 38.7738 7.03967 38.7914C7.07484 38.8207 7.10414 38.85 7.13344 38.8793C7.15103 38.8969 7.1686 38.9086 7.18619 38.9262C7.22135 38.9555 7.25651 38.9907 7.29168 39.0259C7.30926 39.0434 7.32684 39.061 7.34442 39.0786C7.37958 39.1138 7.41474 39.1489 7.44991 39.19C8.10628 39.8523 8.76851 40.5028 9.41902 41.1651C9.84097 41.6281 10.3098 42.0501 10.7376 42.5073C10.7669 42.5424 10.8021 42.5834 10.8255 42.6303C10.8372 42.6479 10.8548 42.6714 10.8666 42.6889C10.8959 42.7241 10.9193 42.7651 10.9486 42.8003C10.9603 42.8179 10.9779 42.8355 10.9896 42.8531C11.0189 42.8824 11.0482 42.9175 11.0775 42.9468C11.0892 42.9644 11.1068 42.9761 11.1186 42.9937C11.1479 43.023 11.1772 43.0523 11.2065 43.0816C11.2182 43.0934 11.2358 43.1109 11.2475 43.1227C11.2768 43.152 11.3061 43.1813 11.3295 43.2106L11.3705 43.2516C11.3999 43.2809 11.4292 43.3043 11.4526 43.3336L11.4936 43.3747C11.5229 43.404 11.5522 43.4333 11.5815 43.4626C11.5991 43.4743 11.6108 43.4919 11.6284 43.5036C11.6577 43.5329 11.687 43.5622 11.7163 43.5915C11.7339 43.6033 11.7456 43.6208 11.7632 43.6384C11.7984 43.6677 11.8277 43.697 11.8628 43.7322C11.8804 43.7498 11.898 43.7615 11.9156 43.7791C11.9507 43.8084 11.9859 43.8435 12.0211 43.8787C12.0386 43.8963 12.0562 43.9139 12.0738 43.9315C12.109 43.9666 12.1441 44.0077 12.1852 44.0428C13.0935 44.9571 14.0019 45.8656 14.9103 46.7682C15.0568 46.9147 15.1681 47.1433 15.4494 47.0788C15.5373 46.1645 15.4846 45.256 15.4846 44.3476C15.4963 42.2494 15.4846 40.1453 15.4904 38.0471C15.4904 37.7716 15.4318 37.4727 15.6663 37.2441C16.686 37.2441 17.7057 37.2441 18.7196 37.2441C18.913 37.4376 18.8778 37.6896 18.8778 37.9299C18.8778 42.0267 18.8778 46.1235 18.8778 50.2144C18.8778 50.4547 18.913 50.7067 18.7254 50.906C17.2955 50.906 15.8655 50.906 14.4356 50.906C14.1132 50.7594 13.8964 50.484 13.6561 50.2437C12.613 49.2004 11.5639 48.1631 10.5442 47.1022C10.5091 47.0671 10.4798 47.026 10.4563 46.9791C10.4446 46.9616 10.427 46.9381 10.4153 46.9205C10.386 46.8854 10.3567 46.8443 10.3332 46.8092C10.3215 46.7916 10.3039 46.774 10.2922 46.7564C10.2629 46.7271 10.2336 46.692 10.2043 46.6568C10.1926 46.6392 10.175 46.6275 10.1633 46.6099C10.134 46.5806 10.1047 46.5513 10.0754 46.522C10.0637 46.5103 10.0461 46.4927 10.0344 46.481C10.0051 46.4517 9.97576 46.4224 9.95232 46.3931L9.9113 46.352C9.88199 46.3286 9.85269 46.2993 9.82925 46.27L9.78823 46.2289C9.75893 46.2055 9.73548 46.1762 9.70618 46.1469L9.66516 46.1059C9.63586 46.0824 9.61241 46.0531 9.58311 46.0238L9.54209 45.9828C9.51279 45.9593 9.48935 45.93 9.46004 45.9007L9.41902 45.8597C9.38972 45.8363 9.36627 45.807 9.33697 45.7777L9.29595 45.7366C9.26665 45.7132 9.24321 45.6839 9.2139 45.6546L9.17288 45.6136C9.14358 45.5901 9.11427 45.5608 9.09083 45.5315L9.04981 45.4905C9.02051 45.4612 8.99121 45.4377 8.96191 45.4084C8.94432 45.3967 8.9326 45.3791 8.91502 45.3674C8.87986 45.3381 8.85056 45.3088 8.82125 45.2795C8.80367 45.2619 8.79195 45.2502 8.77437 45.2326C8.73921 45.2033 8.70404 45.1681 8.67474 45.1388C8.65716 45.1212 8.63958 45.1037 8.622 45.0861C8.58683 45.0509 8.55167 45.0157 8.51651 44.9806C8.49893 44.963 8.48135 44.9454 8.4579 44.9278C7.36786 43.8377 6.27196 42.7593 5.21122 41.6516C5.17605 41.6164 5.14675 41.5695 5.12331 41.5285C5.11159 41.5109 5.09401 41.4875 5.08229 41.4699C5.05298 41.4347 5.02368 41.3937 5.00024 41.3585C4.98852 41.3409 4.97094 41.3234 4.95921 41.3058C4.92991 41.2765 4.90061 41.2413 4.87131 41.2061C4.85373 41.1885 4.84201 41.1768 4.83029 41.1592C4.80099 41.1299 4.77168 41.1006 4.74238 41.0713C4.73066 41.0596 4.71308 41.042 4.70136 41.0303C4.67205 41.001 4.64275 40.9717 4.61931 40.9482L4.57829 40.9072C4.54898 40.8838 4.52554 40.8545 4.5021 40.831L4.46108 40.7959L4.42006 40.7783C4.42006 40.7783 4.37317 40.7783 4.37317 40.7841C4.37317 40.79 4.33801 40.8193 4.33801 40.831C4.31457 40.9776 4.34973 41.1182 4.34387 41.2706C4.34387 44.2245 4.34387 47.1608 4.34387 50.103C4.33215 50.3843 4.39661 50.6774 4.1915 50.9177Z" fill="#1758FF"/>
<path d="M4.1915 50.9177C3.16592 50.9177 2.14034 50.9177 1.11476 50.9177C0.909645 50.7301 0.938947 50.4781 0.938947 50.2378C0.938947 46.1352 0.938947 42.0384 0.938947 37.9357C0.938947 37.6954 0.909645 37.4434 1.12062 37.2559C2.56229 37.2559 3.9981 37.2559 5.43977 37.25C5.5101 37.2559 5.5687 37.2852 5.63317 37.3086C5.70935 37.3555 5.76796 37.42 5.81484 37.4962C5.83828 37.5313 5.86173 37.5665 5.88517 37.6017C5.89689 37.6192 5.90861 37.6368 5.92033 37.6485C5.94963 37.6779 5.97307 37.713 5.99652 37.7423L6.03754 37.7892C6.06684 37.8185 6.09615 37.8478 6.11959 37.8771L6.16061 37.9181C6.18991 37.9416 6.21921 37.9709 6.24265 38.0002L6.28368 38.0412C6.31298 38.0647 6.33642 38.094 6.36572 38.1233L6.40675 38.1643C6.43605 38.1878 6.45949 38.2171 6.48879 38.2464L6.52982 38.2874C6.55912 38.3108 6.58256 38.3401 6.61186 38.3694L6.65289 38.4105C6.68219 38.4339 6.71149 38.4632 6.73493 38.4925L6.77595 38.5335C6.80526 38.5628 6.83456 38.5863 6.86386 38.6156L6.90489 38.6566C6.93419 38.6859 6.96349 38.7152 6.99279 38.7445C7.01037 38.7563 7.02209 38.7738 7.03967 38.7914C7.07484 38.8207 7.10414 38.85 7.13344 38.8793C7.15103 38.8969 7.1686 38.9086 7.18619 38.9262C7.22135 38.9555 7.25651 38.9907 7.29168 39.0259C7.30926 39.0434 7.32684 39.061 7.34442 39.0786C7.37958 39.1138 7.41474 39.1489 7.44991 39.19C8.10628 39.8523 8.76851 40.5028 9.41902 41.1651C9.84097 41.6281 10.3098 42.0501 10.7376 42.5073C10.7669 42.5424 10.8021 42.5834 10.8255 42.6303C10.8372 42.6479 10.8548 42.6714 10.8666 42.6889C10.8959 42.7241 10.9193 42.7651 10.9486 42.8003C10.9603 42.8179 10.9779 42.8355 10.9896 42.8531C11.0189 42.8824 11.0482 42.9175 11.0775 42.9468C11.0892 42.9644 11.1068 42.9761 11.1186 42.9937C11.1479 43.023 11.1772 43.0523 11.2065 43.0816C11.2182 43.0934 11.2358 43.1109 11.2475 43.1227C11.2768 43.152 11.3061 43.1813 11.3295 43.2106L11.3705 43.2516C11.3999 43.2809 11.4292 43.3043 11.4526 43.3336L11.4936 43.3747C11.5229 43.404 11.5522 43.4333 11.5815 43.4626C11.5991 43.4743 11.6108 43.4919 11.6284 43.5036C11.6577 43.5329 11.687 43.5622 11.7163 43.5915C11.7339 43.6033 11.7456 43.6208 11.7632 43.6384C11.7984 43.6677 11.8277 43.697 11.8628 43.7322C11.8804 43.7498 11.898 43.7615 11.9156 43.7791C11.9507 43.8084 11.9859 43.8435 12.0211 43.8787C12.0386 43.8963 12.0562 43.9139 12.0738 43.9315C12.109 43.9666 12.1441 44.0077 12.1852 44.0428C13.0935 44.9571 14.0019 45.8656 14.9103 46.7682C15.0568 46.9147 15.1681 47.1433 15.4494 47.0788C15.5373 46.1645 15.4846 45.256 15.4846 44.3476C15.4963 42.2494 15.4846 40.1453 15.4904 38.0471C15.4904 37.7716 15.4318 37.4727 15.6663 37.2441C16.686 37.2441 17.7057 37.2441 18.7196 37.2441C18.913 37.4376 18.8778 37.6896 18.8778 37.9299C18.8778 42.0267 18.8778 46.1235 18.8778 50.2144C18.8778 50.4547 18.913 50.7067 18.7254 50.906C17.2955 50.906 15.8655 50.906 14.4356 50.906C14.1132 50.7594 13.8964 50.484 13.6561 50.2437C12.613 49.2004 11.5639 48.1631 10.5442 47.1022C10.5091 47.0671 10.4798 47.026 10.4563 46.9791C10.4446 46.9616 10.427 46.9381 10.4153 46.9205C10.386 46.8854 10.3567 46.8443 10.3332 46.8092C10.3215 46.7916 10.3039 46.774 10.2922 46.7564C10.2629 46.7271 10.2336 46.692 10.2043 46.6568C10.1926 46.6392 10.175 46.6275 10.1633 46.6099C10.134 46.5806 10.1047 46.5513 10.0754 46.522C10.0637 46.5103 10.0461 46.4927 10.0344 46.481C10.0051 46.4517 9.97576 46.4224 9.95232 46.3931L9.9113 46.352C9.88199 46.3286 9.85269 46.2993 9.82925 46.27L9.78823 46.2289C9.75893 46.2055 9.73548 46.1762 9.70618 46.1469L9.66516 46.1059C9.63586 46.0824 9.61241 46.0531 9.58311 46.0238L9.54209 45.9828C9.51279 45.9593 9.48935 45.93 9.46004 45.9007L9.41902 45.8597C9.38972 45.8363 9.36627 45.807 9.33697 45.7777L9.29595 45.7366C9.26665 45.7132 9.24321 45.6839 9.2139 45.6546L9.17288 45.6136C9.14358 45.5901 9.11427 45.5608 9.09083 45.5315L9.04981 45.4905C9.02051 45.4612 8.99121 45.4377 8.96191 45.4084C8.94432 45.3967 8.9326 45.3791 8.91502 45.3674C8.87986 45.3381 8.85056 45.3088 8.82125 45.2795C8.80367 45.2619 8.79195 45.2502 8.77437 45.2326C8.73921 45.2033 8.70404 45.1681 8.67474 45.1388C8.65716 45.1212 8.63958 45.1037 8.622 45.0861C8.58683 45.0509 8.55167 45.0157 8.51651 44.9806C8.49893 44.963 8.48135 44.9454 8.4579 44.9278C7.36786 43.8377 6.27196 42.7593 5.21122 41.6516C5.17605 41.6164 5.14675 41.5695 5.12331 41.5285C5.11159 41.5109 5.09401 41.4875 5.08229 41.4699C5.05298 41.4347 5.02368 41.3937 5.00024 41.3585C4.98852 41.3409 4.97094 41.3234 4.95921 41.3058C4.92991 41.2765 4.90061 41.2413 4.87131 41.2061C4.85373 41.1885 4.84201 41.1768 4.83029 41.1592C4.80099 41.1299 4.77168 41.1006 4.74238 41.0713C4.73066 41.0596 4.71308 41.042 4.70136 41.0303C4.67205 41.001 4.64275 40.9717 4.61931 40.9482L4.57829 40.9072C4.54898 40.8838 4.52554 40.8545 4.5021 40.831L4.46108 40.7959L4.42006 40.7783C4.42006 40.7783 4.37317 40.7783 4.37317 40.7841C4.37317 40.79 4.33801 40.8193 4.33801 40.831C4.31457 40.9776 4.34973 41.1182 4.34387 41.2706C4.34387 44.2245 4.34387 47.1608 4.34387 50.103C4.33215 50.3843 4.39661 50.6774 4.1915 50.9177Z" fill="#1758FF"/>
<path d="M7.24736 9.71321C8.5015 6.78275 9.70875 3.96364 10.916 1.13867C12.1174 1.13867 13.2836 1.13867 14.5319 1.13867C15.7216 3.91675 16.9288 6.73 18.2005 9.70735C19.3902 6.76517 20.5213 3.95778 21.6641 1.13281C22.7893 1.13281 23.8969 1.13281 25.1159 1.13281C23.4632 5.15341 21.8282 9.13298 20.1755 13.136C18.8804 13.136 17.6204 13.136 16.2959 13.136C15.1238 10.4341 13.9459 7.7205 12.7269 4.90139C11.5079 7.71464 10.3417 10.4107 9.16373 13.136C7.88615 13.136 6.62029 13.136 5.28411 13.136C3.65491 9.17401 2.01398 5.18858 0.34375 1.14453C1.53928 1.14453 2.63519 1.14453 3.79556 1.14453C4.92076 3.94606 6.05769 6.77103 7.24736 9.71321Z" fill="#1758FF"/>
<path d="M11.3285 27.6298C9.8458 27.6298 8.43929 27.6298 6.9859 27.6298C6.9859 26.8327 6.9859 26.0767 6.9859 25.2796C9.51176 25.2796 12.0259 25.2796 14.6045 25.2796C14.6045 27.4423 14.6045 29.6049 14.6045 31.8145C13.743 31.8145 12.905 31.8145 12.0142 31.8145C11.979 31.3749 11.938 30.9588 11.897 30.4548C10.3498 31.668 8.57994 32.0431 6.71046 31.9962C5.11642 31.9552 3.58098 31.6563 2.25066 30.6833C0.240521 29.224 -0.204873 27.1551 0.0764282 24.8693C0.346009 22.7125 1.60015 21.2297 3.62786 20.5029C6.20646 19.5769 8.83194 19.5945 11.4047 20.5146C13.409 21.2355 14.5635 22.6773 14.6396 24.9338C13.6141 24.9338 12.5944 24.9338 11.5805 24.9338C10.8069 23.0934 9.51175 22.3901 7.27306 22.5953C6.42916 22.6715 5.57939 22.7008 4.79409 23.0876C3.62786 23.662 3.15903 24.6349 3.14145 25.8891C3.12386 27.1609 3.51652 28.2628 4.71205 28.802C6.63428 29.6753 8.5858 29.6342 10.4787 28.6379C10.8421 28.4445 11.1878 28.1866 11.3285 27.6298Z" fill="#1758FF"/>
<path d="M26.4981 1.14062C27.5354 1.14062 28.5316 1.14062 29.6217 1.14062C29.6217 2.64688 29.6217 4.14728 29.6217 5.69457C32.8039 5.69457 35.8982 5.69457 39.0687 5.69457C39.0687 4.17659 39.0687 2.67619 39.0687 1.14062C40.1412 1.14062 41.1433 1.14062 42.1982 1.14062C42.1982 5.13778 42.1982 9.11735 42.1982 13.1321C41.1609 13.1321 40.147 13.1321 39.0629 13.1321C39.0629 11.5848 39.0629 10.0785 39.0629 8.53712C35.9158 8.53712 32.8332 8.53712 29.6568 8.53712C29.6568 10.061 29.6568 11.5848 29.6568 13.1262C28.5433 13.1262 27.5295 13.1262 26.4922 13.1262C26.498 9.11735 26.4981 5.14364 26.4981 1.14062Z" fill="#1758FF"/>
<path d="M31.9453 22.7761C31.9453 21.7973 31.9453 20.9358 31.9453 20.0391C36.7099 20.0391 41.4392 20.0391 46.2155 20.0391C46.2155 20.9299 46.2155 21.8032 46.2155 22.7351C44.3753 22.7351 42.5644 22.7351 40.6774 22.7351C40.6774 25.7828 40.6774 28.7777 40.6774 31.8078C39.5991 31.8078 38.6028 31.8078 37.5303 31.8078C37.5303 28.8012 37.5303 25.8238 37.5303 22.7703C35.6433 22.7761 33.8207 22.7761 31.9453 22.7761Z" fill="#1758FF"/>
<path d="M58.7327 7.19344C58.7268 10.54 57.0273 12.5386 53.7044 13.113C51.583 13.4764 49.4791 13.4471 47.4279 12.7437C45.2185 11.9877 43.9175 10.206 43.8003 7.87331C43.7065 5.96265 43.9175 4.15162 45.3885 2.72741C46.3554 1.78966 47.5744 1.36182 48.8637 1.14496C50.5281 0.869498 52.2042 0.851915 53.8627 1.19185C57.168 1.87758 58.7386 3.82927 58.7327 7.19344Z" fill="#1758FF"/>
<path d="M30.6037 25.9832C30.5978 29.2536 28.9276 31.2288 25.6926 31.7855C23.9228 32.0903 22.1646 32.0786 20.4065 31.6859C16.855 30.8888 15.6361 28.269 15.9877 25.0924C16.3276 22.0212 18.1268 20.3685 21.2035 20.0051C22.7565 19.8234 24.3037 19.7824 25.8391 20.1047C29.0858 20.7963 30.6095 22.6835 30.6037 25.9832Z" fill="#1758FF"/>
<path d="M49.3776 25.5891C49.3776 24.0536 49.3717 22.518 49.3776 20.9825C49.3835 19.8747 50.1629 19.0601 51.2764 19.0483C53.3979 19.0308 55.5194 19.0308 57.6408 19.0483C58.7778 19.0601 59.5631 19.8865 59.5631 21.0235C59.5689 24.1122 59.5689 27.2068 59.5631 30.2955C59.5631 31.4383 58.7778 32.2472 57.6291 32.2589C55.5076 32.2765 53.3862 32.2706 51.2647 32.2589C50.1746 32.253 49.3835 31.4266 49.3776 30.3189C49.3717 28.7365 49.3776 27.1657 49.3776 25.5891Z" fill="#1758FF"/>
<path d="M59.49 18.9454C59.0856 19.0978 59.0036 18.8868 58.9508 18.5879C58.816 17.7908 58.3355 17.4216 57.5209 17.4216C55.4873 17.4333 53.4478 17.4333 51.4143 17.4216C50.6055 17.4157 50.1191 17.7849 49.9785 18.5879C49.9374 18.8223 49.8788 19.0275 49.5799 19.0099C49.2049 18.4824 49.492 17.5915 50.1777 17.1285C50.5586 16.8765 50.9923 16.7769 51.4377 16.7769C53.4537 16.771 55.4697 16.7593 57.4857 16.7769C58.8336 16.7944 59.6892 17.7263 59.49 18.9454Z" fill="#1758FF"/>
<path d="M49.7305 32.1387C49.8126 32.2383 49.9063 32.2969 49.9356 32.3848C50.4689 33.7563 50.4631 33.7621 51.9282 33.7621C53.7684 33.7621 55.6085 33.7504 57.4429 33.768C58.2985 33.7739 58.8318 33.4281 58.9666 32.5548C59.0135 32.2735 59.1307 32.0976 59.4471 32.2207C59.746 33.0881 59.1541 34.0845 58.1637 34.3131C57.7945 34.401 57.4018 34.4069 57.0209 34.4069C55.1807 34.4186 53.3406 34.4186 51.5062 34.4069C50.4045 34.401 49.6309 33.8501 49.4199 32.9182C49.373 32.6427 49.2382 32.3028 49.7305 32.1387Z" fill="#1758FF"/>
<path d="M49.7423 17.2098C49.2734 17.1219 49.3672 16.8113 49.3906 16.571C49.4844 15.7329 50.2228 15.0354 51.0726 15.0296C53.3347 15.012 55.5968 15.0003 57.859 15.0296C58.9373 15.0413 59.6933 16.0552 59.4823 17.1102C59.1483 17.2919 59.0076 17.1219 58.9607 16.8054C58.8318 15.9263 58.3044 15.5864 57.4429 15.5981C55.5441 15.6215 53.6453 15.6039 51.7465 15.6039C50.4748 15.6039 50.3459 15.7036 49.9474 16.9168C49.9122 17.0223 49.8184 17.1043 49.7423 17.2098Z" fill="#1758FF"/>
<path d="M49.7364 33.9727C49.8067 34.0664 49.9063 34.1485 49.9415 34.2481C50.3869 35.5199 50.4572 35.5727 51.7817 35.5727C53.657 35.5727 55.5324 35.5551 57.4077 35.5786C58.2868 35.5903 58.8377 35.2562 58.9666 34.3478C59.0076 34.043 59.1717 33.9375 59.4472 34.0137C59.746 35.0159 59.0076 36.1236 57.9762 36.1412C55.6379 36.1822 53.2995 36.1764 50.9612 36.1412C50.1466 36.1295 49.4141 35.3148 49.3789 34.5001C49.373 34.2833 49.332 34.0371 49.7364 33.9727Z" fill="#1758FF"/>
<path d="M1.12116 37.2637C1.12116 41.8176 1.12116 46.3716 1.1153 50.9255C1.01567 50.9255 0.91604 50.9255 0.78125 50.9255C0.78125 46.3833 0.78125 41.8528 0.78125 37.2637C0.898459 37.2637 1.00981 37.2637 1.12116 37.2637Z" fill="#11FEF5"/>
<path d="M18.7246 50.9139C18.7246 46.3599 18.7188 41.806 18.7188 37.2521C18.9532 37.2052 19.0997 37.2521 19.0997 37.5451C19.0938 41.9818 19.0938 46.4185 19.0938 50.9139C18.9473 50.9139 18.836 50.9139 18.7246 50.9139Z" fill="#CB5EFF"/>
<path d="M15.6731 37.2598C15.6731 40.706 15.6731 44.1522 15.6731 47.6043C15.4328 47.6219 15.3801 47.4578 15.2863 47.3406C15.2512 47.2175 15.1926 47.0885 15.2805 46.9596C15.2805 43.742 15.2805 40.5302 15.2805 37.2539C15.4504 37.2598 15.5618 37.2598 15.6731 37.2598Z" fill="#11FEF5"/>
<path d="M4.1875 50.915C4.1875 47.5508 4.1875 44.1925 4.19336 40.8283C4.2461 40.8048 4.29885 40.799 4.35745 40.8048C4.4688 40.8459 4.55085 40.9221 4.58601 41.0393C4.59187 41.0979 4.58601 41.1506 4.56257 41.2034C4.55671 44.2569 4.55671 47.3046 4.54499 50.3582C4.53913 50.5985 4.71494 51.0029 4.1875 50.915Z" fill="#CB5EFF"/>
<path d="M15.2781 46.9628C15.2781 47.0917 15.284 47.2148 15.284 47.3437C14.1998 46.236 13.1156 45.1342 12.0373 44.0265C11.9963 43.9913 11.9553 43.9503 11.9201 43.9092L11.9142 43.9034C11.8732 43.8682 11.8322 43.8272 11.797 43.7862L11.7912 43.7803C11.7502 43.7451 11.7091 43.71 11.6798 43.6631L11.674 43.6572C11.6329 43.622 11.5919 43.5869 11.5626 43.54L11.5568 43.5341C11.5099 43.5048 11.4747 43.4638 11.4454 43.4228L11.4337 43.4111C11.3868 43.3818 11.3516 43.3466 11.3223 43.2997L11.3106 43.288C11.2637 43.2587 11.2286 43.2235 11.2051 43.1766L11.1934 43.1649C11.1465 43.1415 11.1114 43.1063 11.0879 43.0594L11.0703 43.0418C11.0235 43.0184 10.9883 42.9832 10.9649 42.9363L10.9473 42.9187C10.9004 42.8953 10.8652 42.8601 10.8476 42.8132L10.8301 42.7957C10.7832 42.7781 10.7539 42.7488 10.7422 42.7077C10.2792 42.233 9.8162 41.7524 9.35909 41.2777C9.31221 41.1429 9.37667 41.1077 9.49974 41.1253C9.5349 41.1722 9.57593 41.2132 9.62281 41.2484C9.65797 41.2953 9.69899 41.3363 9.74588 41.3715C9.78104 41.4125 9.82207 41.4535 9.86895 41.4945C9.90997 41.5356 9.95099 41.5766 9.98616 41.6176C10.0272 41.6586 10.0682 41.6997 10.1034 41.7407C10.1444 41.7759 10.1854 41.8169 10.2206 41.8579L10.2264 41.8638C10.2675 41.8989 10.3085 41.94 10.3436 41.981L10.3495 41.9869C10.3905 42.022 10.4316 42.0572 10.4609 42.1041L10.4667 42.1099C10.5077 42.1451 10.5488 42.1803 10.5781 42.2271L10.5839 42.2389C10.6308 42.2682 10.666 42.3092 10.6953 42.3502L10.707 42.362C10.7539 42.3913 10.789 42.4264 10.8183 42.4733L10.8301 42.485C10.8769 42.5143 10.9121 42.5495 10.9355 42.5964L10.9473 42.6081C10.9942 42.6316 11.0293 42.6667 11.0528 42.7136L11.0703 42.7312C11.1172 42.7546 11.1524 42.7898 11.1758 42.8367L11.1934 42.8543C11.2403 42.8777 11.2755 42.907 11.293 42.9598L11.3106 42.9832C11.3516 43.0008 11.3809 43.0301 11.3985 43.0711C12.682 44.3547 13.983 45.6617 15.2781 46.9628Z" fill="#CB5EFF"/>
<path d="M10.5334 46.9285C11.8344 48.259 13.1354 49.5894 14.4364 50.9198C14.243 50.9667 14.0906 50.9198 13.95 50.7674C13.0299 49.8063 12.104 48.8568 11.1839 47.9015C11.1428 47.8663 11.1018 47.8253 11.0667 47.7842L11.0608 47.7784C11.0198 47.7432 10.9787 47.7022 10.9436 47.6612L10.9377 47.6553C10.8967 47.6201 10.8557 47.585 10.8264 47.5381L10.8205 47.5322C10.7795 47.5029 10.7385 47.4619 10.7092 47.4209L10.7033 47.4091C10.6623 47.3798 10.6213 47.3388 10.592 47.2978L10.5802 47.2861C10.5334 47.2568 10.4982 47.2216 10.4689 47.1747L10.4572 47.163C10.4103 47.1337 10.3751 47.0985 10.3517 47.0516L10.34 47.0399C10.2931 47.0165 10.2579 46.9813 10.2345 46.9344L10.2169 46.9168C10.17 46.8934 10.1348 46.8582 10.1114 46.8113L10.0938 46.7937C10.0469 46.7703 10.0118 46.7351 9.99419 46.6882L9.97661 46.6707C9.92973 46.6531 9.89457 46.6179 9.87698 46.571L9.85354 46.5476C9.81252 46.5359 9.78322 46.5066 9.76564 46.4597C9.34369 46.0201 8.92173 45.5864 8.49978 45.1468C8.45289 45.012 8.51736 44.9769 8.63457 44.9944C8.66973 45.0413 8.71662 45.0765 8.75764 45.1175C8.79866 45.1585 8.83383 45.1996 8.87485 45.2406C8.91587 45.2816 8.95689 45.3226 8.99206 45.3637C9.03308 45.4047 9.0741 45.4399 9.10927 45.4809L9.11513 45.4868C9.15615 45.5219 9.19717 45.5629 9.23233 45.604L9.2382 45.6098C9.27922 45.645 9.32024 45.686 9.35541 45.7271L9.36127 45.7329C9.40229 45.7681 9.44331 45.8032 9.47262 45.8501L9.47847 45.856C9.5195 45.8853 9.56052 45.9263 9.58982 45.9732L9.60155 45.9849C9.64843 46.0142 9.68359 46.0553 9.71289 46.0963L9.72461 46.108C9.7715 46.1373 9.80666 46.1725 9.83596 46.2194L9.84768 46.2311C9.89457 46.2604 9.92973 46.2956 9.95317 46.3424L9.96489 46.3542C10.0118 46.3776 10.0469 46.4128 10.0704 46.4597L10.088 46.4772C10.1348 46.5007 10.17 46.5359 10.1934 46.5827L10.211 46.6003C10.2579 46.6238 10.2931 46.6531 10.3107 46.7058L10.3282 46.7234C10.3751 46.741 10.4103 46.7762 10.4279 46.823L10.4513 46.8465C10.4923 46.8523 10.5216 46.8817 10.5334 46.9285Z" fill="#11FEF5"/>
<path d="M8.64496 44.9973C8.59808 45.05 8.55119 45.0969 8.51017 45.1496C7.62524 44.2471 6.74031 43.3503 5.85539 42.4478C5.81436 42.4067 5.77334 42.3716 5.73818 42.3305L5.73232 42.3247C5.69129 42.2895 5.65027 42.2485 5.61511 42.2075L5.60925 42.2016C5.56822 42.1664 5.5272 42.1254 5.49204 42.0844L5.48618 42.0785C5.44515 42.0433 5.40413 42.0082 5.37483 41.9613L5.36897 41.9554C5.32795 41.9261 5.28692 41.8851 5.25762 41.8441L5.2459 41.8324C5.19902 41.803 5.16385 41.762 5.13455 41.721L5.12283 41.7093C5.07595 41.68 5.04078 41.6448 5.01148 41.5979L4.99976 41.5862C4.95288 41.5569 4.91772 41.5217 4.89427 41.4748L4.88255 41.4631C4.83567 41.4397 4.80051 41.4045 4.77706 41.3576L4.75948 41.34C4.7126 41.3166 4.6833 41.2873 4.65986 41.2404L4.62469 41.2052C4.57781 41.1935 4.5485 41.1642 4.53678 41.1173C4.44888 41.0353 4.36683 40.9474 4.27893 40.8653C4.16758 40.7188 4.18516 40.625 4.39027 40.625L4.38441 40.6426C4.42544 40.6719 4.46646 40.7071 4.49576 40.7539L4.50748 40.7657C4.55437 40.795 4.58953 40.8301 4.61297 40.877L4.62469 40.8887C4.67157 40.918 4.70674 40.9532 4.73018 40.9942L4.7419 41.0118C4.78878 41.0353 4.82395 41.0704 4.84739 41.1173L4.86497 41.1349C4.91185 41.1583 4.94702 41.1935 4.97046 41.2404L4.98804 41.258C5.03492 41.2814 5.07009 41.3107 5.08767 41.3576L5.10525 41.3811C5.14627 41.3986 5.17557 41.4279 5.19316 41.469C6.35352 42.647 7.50217 43.8192 8.64496 44.9973Z" fill="#11FEF5"/>
<path d="M48.6453 39.8933C46.5121 39.8816 44.373 39.8698 42.2398 39.864C41.894 38.9966 41.9351 38.1291 42.2105 37.2559C47.7955 37.2559 53.3864 37.2559 58.9714 37.2559C59.2761 38.1291 59.3054 38.9966 58.948 39.864C56.8089 39.8757 54.6698 39.8933 52.5308 39.905C52.2964 40.1101 52.355 40.3856 52.355 40.6435C52.355 43.7908 52.3549 46.9381 52.3491 50.0854C52.3491 50.3785 52.4253 50.7008 52.1323 50.9235C51.1008 50.9235 50.0635 50.9235 49.0321 50.9235C48.7742 50.6832 48.8387 50.3668 48.8387 50.0679C48.8328 46.9381 48.8387 43.8084 48.8328 40.6845C48.8328 40.4032 48.909 40.1043 48.6453 39.8933Z" fill="#1758FF"/>
<path d="M48.6406 39.8926C48.752 39.8926 48.8692 39.8926 49.0274 39.8926C49.0274 43.5908 49.0274 47.2598 49.0274 50.9228C48.9161 50.9228 48.8047 50.9228 48.6406 50.9228C48.6406 47.207 48.6406 43.5498 48.6406 39.8926Z" fill="#11FEF5"/>
<path d="M52.125 50.9206C52.125 47.2751 52.125 43.6355 52.125 40.0251C52.2422 39.8259 52.3887 39.8903 52.5235 39.902C52.5235 43.5417 52.5235 47.1872 52.5235 50.7917C52.4063 50.9909 52.2598 50.9265 52.125 50.9206Z" fill="#CB5EFF"/>
<path d="M58.9453 39.864C58.9512 38.9966 58.9629 38.1233 58.9688 37.2559C59.0977 37.2559 59.2325 37.2559 59.3907 37.2559C59.3907 38.1233 59.3907 38.9321 59.3907 39.7233C59.2735 39.9226 59.1035 39.8581 58.9453 39.864Z" fill="#CB5EFF"/>
<path d="M42.1973 37.2561C42.2091 38.1235 42.2208 38.9968 42.2266 39.8642C42.0918 39.8642 41.9453 39.9169 41.8047 39.747C41.8047 38.9675 41.8047 38.1528 41.8047 37.3498C41.9219 37.1857 42.0625 37.2444 42.1973 37.2561Z" fill="#11FEF5"/>
<path d="M9.49096 41.11C9.44408 41.1627 9.39719 41.2155 9.35031 41.2624C8.66464 40.5649 7.98482 39.8675 7.29915 39.17C7.25813 39.129 7.22297 39.088 7.18194 39.0469C7.14092 39.0059 7.0999 38.9649 7.06473 38.9238C7.02371 38.8828 6.98269 38.8477 6.94752 38.8066L6.94167 38.8008C6.90064 38.7656 6.85962 38.7246 6.82446 38.6835L6.81859 38.6777C6.77757 38.6425 6.73655 38.6015 6.70138 38.5605L6.69553 38.5546C6.6545 38.5194 6.61348 38.4843 6.58418 38.4374L6.57832 38.4315C6.53143 38.4022 6.49627 38.3612 6.46697 38.3143L6.46111 38.3026C6.41422 38.2733 6.37906 38.2323 6.34976 38.1912L6.33804 38.1795C6.29115 38.1502 6.25599 38.115 6.22669 38.0682L6.21497 38.0564C6.16808 38.033 6.13292 37.992 6.10948 37.9451L6.09776 37.9333C6.05088 37.9099 6.01571 37.8747 5.99227 37.8279L5.97469 37.8103C5.92781 37.7868 5.89264 37.7517 5.8692 37.7048L5.85162 37.6872C5.80474 37.6696 5.77543 37.6403 5.75785 37.5934C5.68753 37.5172 5.6172 37.441 5.54688 37.3648C5.64064 37.2711 5.73441 37.2711 5.83404 37.3531L5.84576 37.3648C5.89264 37.3941 5.9278 37.4293 5.95711 37.4762L5.96883 37.4879C6.01571 37.5172 6.05087 37.5524 6.07432 37.5993L6.08604 37.611C6.13292 37.6344 6.16808 37.6696 6.19152 37.7165L6.20911 37.7341C6.25599 37.7575 6.29115 37.7927 6.3146 37.8396L6.33218 37.8572C6.37906 37.8806 6.41422 37.9099 6.43181 37.9627L6.44939 37.9861C6.49041 38.0037 6.51971 38.033 6.53729 38.074C7.52771 39.088 8.50641 40.096 9.49096 41.11Z" fill="#CB5EFF"/>
<path d="M20.9043 37.25C22.3518 37.25 23.7994 37.25 25.241 37.25C25.2879 37.2734 25.329 37.2969 25.3817 37.3145C25.4051 37.3262 25.4286 37.3379 25.452 37.3496C25.4989 37.3731 25.5399 37.4024 25.5809 37.4376C25.7978 37.5841 26.0088 37.7365 26.1846 37.9357C26.46 38.2464 26.8409 38.4339 27.1164 38.7445C27.3391 38.979 27.6321 39.1314 27.8548 39.3658C28.0892 39.6178 28.3764 39.8054 28.6401 40.0222C28.6753 40.0574 28.7163 40.0867 28.7515 40.1277C28.769 40.1453 28.7866 40.1629 28.8042 40.1805C28.8394 40.2156 28.8687 40.2508 28.9038 40.286C28.9214 40.3035 28.939 40.3211 28.9507 40.3387C28.9859 40.3739 29.0152 40.4032 29.0503 40.4383C29.0679 40.4559 29.0855 40.4677 29.1031 40.4852C29.1382 40.5145 29.1793 40.5438 29.2144 40.5673C29.2965 40.62 29.3785 40.6669 29.4488 40.7314C29.5426 40.8134 29.6247 40.9072 29.7184 40.9951C29.9001 41.2237 30.1814 41.3292 30.3807 41.5343C30.5154 41.6633 30.6385 41.7981 30.785 41.9153C31.1894 41.8801 31.4355 41.5871 31.711 41.3468C31.8751 41.212 32.0099 41.042 32.1974 40.9365C32.2619 40.8955 32.3263 40.8486 32.3849 40.7959C32.6135 40.6142 32.7776 40.368 33.0296 40.2156C33.0706 40.1863 33.1116 40.157 33.1527 40.1219C33.1702 40.1043 33.1937 40.0867 33.2113 40.0691C33.2523 40.0339 33.2874 40.0046 33.3285 39.9695C33.4457 39.8698 33.5512 39.7643 33.6566 39.653C33.727 39.5827 33.8149 39.5299 33.8969 39.4772C33.938 39.4478 33.979 39.4185 34.0141 39.3892C34.0317 39.3717 34.0493 39.3541 34.0669 39.3365C34.102 39.3013 34.1372 39.2662 34.1724 39.231C34.19 39.2134 34.2075 39.1958 34.2251 39.1782C34.2603 39.1431 34.2954 39.1079 34.3365 39.0727C34.6178 38.7914 34.9694 38.5922 35.2448 38.2932C35.4675 38.0647 35.7547 37.9064 35.9833 37.6778C36.1532 37.502 36.3232 37.3262 36.5693 37.2734C38.0227 37.2734 39.4702 37.2734 40.9236 37.2734C40.947 37.5372 40.7126 37.6368 40.5837 37.7951C40.361 38.0178 40.0563 38.1526 39.857 38.4046C39.5874 38.6625 39.2651 38.85 39.0131 39.1255C38.7904 39.3541 38.5032 39.5065 38.2805 39.735C38.0403 40.0222 37.6769 40.1687 37.4366 40.4559C37.1964 40.7431 36.833 40.8896 36.5927 41.1768C36.37 41.4054 36.0829 41.5578 35.866 41.7922C35.825 41.8274 35.7899 41.8625 35.7488 41.9036C35.7313 41.9212 35.7078 41.9387 35.6902 41.9622C35.4675 42.1556 35.1979 42.2963 35.0046 42.5248C34.7819 42.8003 34.4361 42.9351 34.2075 43.1988C34.1548 43.2516 34.0962 43.3102 34.0376 43.3629C33.9262 43.4684 33.809 43.5622 33.6801 43.6443C33.6391 43.6736 33.598 43.7029 33.5629 43.738C33.5453 43.7556 33.5277 43.7732 33.5043 43.7908C33.4691 43.826 33.434 43.8611 33.3929 43.8963C33.3343 43.9549 33.2757 44.0077 33.2757 44.119C33.2816 44.2069 33.3695 44.2655 33.434 44.3417C33.6684 44.6348 34.0376 44.7754 34.2779 45.0626C34.5006 45.2912 34.7877 45.4436 35.0104 45.6722C35.2624 45.9535 35.5906 46.141 35.8602 46.3989C36.1005 46.692 36.4638 46.8385 36.7099 47.1257C36.9502 47.4187 37.3136 47.5594 37.5538 47.8524C37.7765 48.081 38.0637 48.2392 38.2864 48.462C38.5384 48.7433 38.8666 48.9308 39.1362 49.1887C39.3823 49.4818 39.7515 49.6283 39.9918 49.9272C40.2555 50.3082 40.8298 50.3902 40.9236 50.9235C39.4702 50.9235 38.0168 50.9235 36.5576 50.9235C36.4052 50.8767 36.2763 50.7829 36.1591 50.6774C36.1239 50.6422 36.0829 50.6129 36.0477 50.5778C36.0301 50.5602 36.0126 50.5484 35.995 50.5309C35.9598 50.5016 35.9246 50.4664 35.8953 50.4312C35.8778 50.4136 35.8602 50.4019 35.8426 50.3843C35.8074 50.355 35.7723 50.3257 35.7371 50.3023C35.6668 50.2495 35.5847 50.2144 35.5144 50.1558C35.4793 50.1265 35.4499 50.0972 35.4206 50.0679C35.4031 50.0503 35.3913 50.0385 35.3738 50.021C35.3445 49.9917 35.3152 49.9624 35.2859 49.9272C35.2683 49.9096 35.2566 49.8979 35.239 49.8803C35.2097 49.851 35.1804 49.8217 35.1511 49.7924C35.1335 49.7807 35.1218 49.7631 35.1042 49.7455C35.0749 49.7162 35.0397 49.6869 35.0104 49.6576C34.9928 49.6459 34.9753 49.6283 34.9635 49.6166C34.9284 49.5931 34.8932 49.5638 34.8522 49.5404C34.7701 49.4935 34.6881 49.4525 34.6178 49.388C34.5826 49.3528 34.5474 49.3235 34.5123 49.2883C34.4947 49.2708 34.4771 49.2532 34.4595 49.2356C34.4185 49.2004 34.3833 49.1653 34.3482 49.1242C34.1489 48.8664 33.8207 48.755 33.6156 48.503C33.5805 48.4678 33.5453 48.4327 33.5043 48.3975C33.4867 48.3799 33.4691 48.3623 33.4457 48.3447C33.4105 48.3096 33.3753 48.2744 33.3402 48.2451C33.3226 48.2275 33.305 48.2099 33.2874 48.1982C33.2523 48.1689 33.2113 48.1337 33.1761 48.1103C33.053 48.0341 32.9417 47.9403 32.8362 47.8466C32.801 47.8173 32.7659 47.7821 32.7248 47.7528C32.7073 47.7352 32.6897 47.7176 32.6721 47.7C32.6369 47.6649 32.6018 47.6297 32.5666 47.5945C32.5314 47.5594 32.4963 47.5183 32.4611 47.4832C32.4435 47.4656 32.4201 47.448 32.4025 47.4304C32.3556 47.4011 32.3146 47.3718 32.2677 47.3425C31.8516 46.985 31.459 46.6099 31.0194 46.2876C30.9784 46.2583 30.9315 46.2465 30.8788 46.2407C30.8319 46.2524 30.785 46.27 30.744 46.2993C30.5975 46.4048 30.4861 46.5396 30.3572 46.6627C30.1228 46.9323 29.777 47.0729 29.5485 47.3484C29.3023 47.6414 28.939 47.7938 28.687 48.081C28.4584 48.3506 28.1302 48.4913 27.8958 48.7491C27.8431 48.8019 27.7845 48.8546 27.7317 48.9074C27.6204 49.007 27.509 49.1067 27.3801 49.1829C27.3391 49.2122 27.2981 49.2415 27.2629 49.2708C27.2453 49.2883 27.2277 49.3059 27.2102 49.3235C27.175 49.3587 27.1398 49.3938 27.0988 49.429C27.0812 49.4466 27.0578 49.4642 27.0402 49.4818C26.9992 49.5169 26.964 49.5521 26.923 49.5873C26.3487 50.0034 25.915 50.5953 25.2528 50.906C23.7994 50.906 22.346 50.906 20.8926 50.906C20.8691 50.525 21.297 50.5191 21.42 50.2613C21.6662 49.9741 22.0295 49.8217 22.2698 49.5345C22.4984 49.3059 22.7797 49.1477 23.0082 48.9191C23.225 48.6436 23.5767 48.5206 23.7935 48.2451C23.8287 48.2041 23.8638 48.1689 23.9049 48.1337C23.9224 48.1162 23.94 48.0986 23.9576 48.081C23.9928 48.0458 24.0279 48.0107 24.069 47.9755C24.1451 47.911 24.233 47.87 24.3151 47.8173C24.3561 47.788 24.3913 47.7586 24.4323 47.7293C24.4499 47.7118 24.4675 47.6942 24.485 47.6766C24.5202 47.6414 24.5554 47.6063 24.5905 47.5711C24.6081 47.5535 24.6257 47.5359 24.6491 47.5183C24.6843 47.4832 24.7253 47.448 24.7605 47.4129C24.948 47.1843 25.2352 47.0788 25.4344 46.8619C25.7275 46.5454 26.1143 46.3286 26.4073 46.0062C26.8116 45.719 27.1691 45.3791 27.5383 45.0568C27.5852 45.0275 27.6262 44.9923 27.6673 44.963C27.6849 44.9454 27.7083 44.9278 27.7259 44.9102C27.7669 44.8751 27.8079 44.8399 27.8489 44.8047C27.8665 44.7872 27.8841 44.7696 27.9075 44.7461C27.9486 44.7051 27.9837 44.6699 28.0248 44.6289C28.1654 44.4238 28.4584 44.3652 28.5522 44.1131C28.517 43.8553 28.2826 43.7849 28.142 43.6326C28.0658 43.5564 27.9896 43.4802 27.9134 43.404C27.8724 43.3688 27.8372 43.3336 27.7962 43.2985C27.7493 43.2692 27.7083 43.2399 27.6614 43.2106C27.3039 42.9175 26.9933 42.56 26.5889 42.3256C26.5479 42.2904 26.5128 42.2552 26.4776 42.2201C26.46 42.2025 26.4424 42.1849 26.4249 42.1673C26.3897 42.1322 26.3545 42.097 26.3252 42.0618C26.3076 42.0442 26.2901 42.0267 26.2725 42.0091C26.2373 41.9739 26.208 41.9446 26.1729 41.9094C26.1553 41.8919 26.1377 41.8801 26.1201 41.8626C26.0849 41.8332 26.0439 41.8039 26.0088 41.7805C25.9267 41.7277 25.8447 41.6809 25.7743 41.6164C25.6806 41.5343 25.5927 41.4406 25.5048 41.3527C25.2879 41.1534 25.0301 41.0069 24.825 40.7959C24.5378 40.4735 24.1334 40.2918 23.8638 39.9519C23.7056 39.7702 23.4829 39.6764 23.3071 39.524C23.2719 39.4947 23.2309 39.4596 23.1957 39.4244C23.1782 39.4068 23.1606 39.3892 23.143 39.3717C23.1078 39.3365 23.0785 39.3013 23.0434 39.2662C23.0258 39.2486 23.0082 39.231 22.9965 39.2193C22.9613 39.19 22.932 39.1548 22.8969 39.1255C22.8793 39.1079 22.8617 39.0962 22.8441 39.0786C22.809 39.0493 22.7738 39.02 22.7328 38.9966C22.6507 38.9438 22.5687 38.8969 22.4984 38.8325C22.4046 38.7504 22.3167 38.6566 22.2229 38.5687C21.9768 38.3519 21.6955 38.176 21.4669 37.9416C21.4259 37.9064 21.3907 37.8713 21.3497 37.8302C21.3321 37.8126 21.3087 37.7951 21.2911 37.7775C21.2559 37.7423 21.2149 37.7072 21.168 37.6778C21.0391 37.5899 20.9102 37.502 20.8281 37.3614C20.834 37.3145 20.8516 37.2734 20.9043 37.25Z" fill="#CB5EFF"/>
<path d="M20.1621 37.25C21.6097 37.25 23.0572 37.25 24.4989 37.25C24.5457 37.2734 24.5868 37.2969 24.6395 37.3145C24.6629 37.3262 24.6864 37.3379 24.7098 37.3496C24.7567 37.3731 24.7977 37.4024 24.8388 37.4376C25.0556 37.5841 25.2666 37.7365 25.4424 37.9357C25.7178 38.2464 26.0988 38.4339 26.3742 38.7445C26.5969 38.979 26.8899 39.1314 27.1126 39.3658C27.347 39.6178 27.6342 39.8054 27.8979 40.0222C27.9331 40.0574 27.9741 40.0867 28.0093 40.1277C28.0268 40.1453 28.0444 40.1629 28.062 40.1805C28.0972 40.2156 28.1265 40.2508 28.1616 40.286C28.1792 40.3035 28.1968 40.3211 28.2085 40.3387C28.2437 40.3739 28.273 40.4032 28.3081 40.4383C28.3257 40.4559 28.3433 40.4677 28.3609 40.4852C28.3961 40.5145 28.4371 40.5438 28.4722 40.5673C28.5543 40.62 28.6363 40.6669 28.7067 40.7314C28.8004 40.8134 28.8825 40.9072 28.9762 40.9951C29.1579 41.2237 29.4392 41.3292 29.6385 41.5343C29.7733 41.6633 29.8963 41.7981 30.0428 41.9153C30.4472 41.8801 30.6934 41.5871 30.9688 41.3468C31.1329 41.212 31.2677 41.042 31.4552 40.9365C31.5197 40.8955 31.5841 40.8486 31.6427 40.7959C31.8713 40.6142 32.0354 40.368 32.2874 40.2156C32.3284 40.1863 32.3694 40.157 32.4105 40.1219C32.428 40.1043 32.4515 40.0867 32.4691 40.0691C32.5101 40.0339 32.5453 40.0046 32.5863 39.9695C32.7035 39.8698 32.809 39.7643 32.9145 39.653C32.9848 39.5827 33.0727 39.5299 33.1547 39.4772C33.1958 39.4478 33.2368 39.4185 33.272 39.3892C33.2895 39.3717 33.3071 39.3541 33.3247 39.3365C33.3599 39.3013 33.395 39.2662 33.4302 39.231C33.4478 39.2134 33.4653 39.1958 33.4829 39.1782C33.5181 39.1431 33.5532 39.1079 33.5943 39.0727C33.8756 38.7914 34.2272 38.5922 34.5026 38.2932C34.7253 38.0647 35.0125 37.9064 35.2411 37.6778C35.411 37.502 35.581 37.3262 35.8271 37.2734C37.2805 37.2734 38.728 37.2734 40.1814 37.2734C40.2049 37.5372 39.9704 37.6368 39.8415 37.7951C39.6188 38.0178 39.3141 38.1526 39.1148 38.4046C38.8452 38.6625 38.5229 38.85 38.2709 39.1255C38.0482 39.3541 37.7611 39.5065 37.5384 39.735C37.2981 40.0222 36.9347 40.1687 36.6945 40.4559C36.4542 40.7431 36.0908 40.8896 35.8505 41.1768C35.6278 41.4054 35.3407 41.5578 35.1239 41.7922C35.0828 41.8274 35.0477 41.8625 35.0066 41.9036C34.9891 41.9212 34.9656 41.9387 34.948 41.9622C34.7253 42.1556 34.4558 42.2963 34.2624 42.5248C34.0397 42.8003 33.6939 42.9351 33.4653 43.1988C33.4126 43.2516 33.354 43.3102 33.2954 43.3629C33.184 43.4684 33.0668 43.5622 32.9379 43.6443C32.8969 43.6736 32.8559 43.7029 32.8207 43.738C32.8031 43.7556 32.7855 43.7732 32.7621 43.7908C32.7269 43.826 32.6918 43.8611 32.6507 43.8963C32.5921 43.9549 32.5335 44.0077 32.5335 44.119C32.5394 44.2069 32.6273 44.2655 32.6918 44.3417C32.9262 44.6348 33.2954 44.7754 33.5357 45.0626C33.7584 45.2912 34.0455 45.4436 34.2682 45.6722C34.5202 45.9535 34.8484 46.141 35.118 46.3989C35.3583 46.692 35.7216 46.8385 35.9678 47.1257C36.208 47.4187 36.5714 47.5594 36.8117 47.8524C37.0344 48.081 37.3215 48.2392 37.5442 48.462C37.7962 48.7433 38.1244 48.9308 38.394 49.1887C38.6401 49.4818 39.0093 49.6283 39.2496 49.9272C39.5133 50.3082 40.0877 50.3902 40.1814 50.9235C38.728 50.9235 37.2746 50.9235 35.8154 50.9235C35.663 50.8767 35.5341 50.7829 35.4169 50.6774C35.3817 50.6422 35.3407 50.6129 35.3055 50.5778C35.2879 50.5602 35.2704 50.5484 35.2528 50.5309C35.2176 50.5016 35.1825 50.4664 35.1532 50.4312C35.1356 50.4136 35.118 50.4019 35.1004 50.3843C35.0652 50.355 35.0301 50.3257 34.9949 50.3023C34.9246 50.2495 34.8426 50.2144 34.7722 50.1558C34.7371 50.1265 34.7078 50.0972 34.6785 50.0679C34.6609 50.0503 34.6492 50.0385 34.6316 50.021C34.6023 49.9917 34.573 49.9624 34.5437 49.9272C34.5261 49.9096 34.5144 49.8979 34.4968 49.8803C34.4675 49.851 34.4382 49.8217 34.4089 49.7924C34.3913 49.7807 34.3796 49.7631 34.362 49.7455C34.3327 49.7162 34.2975 49.6869 34.2682 49.6576C34.2506 49.6459 34.2331 49.6283 34.2213 49.6166C34.1862 49.5931 34.151 49.5638 34.11 49.5404C34.0279 49.4935 33.9459 49.4525 33.8756 49.388C33.8404 49.3528 33.8052 49.3235 33.7701 49.2883C33.7525 49.2708 33.7349 49.2532 33.7173 49.2356C33.6763 49.2004 33.6412 49.1653 33.606 49.1242C33.4067 48.8664 33.0786 48.755 32.8734 48.503C32.8383 48.4678 32.8031 48.4327 32.7621 48.3975C32.7445 48.3799 32.7269 48.3623 32.7035 48.3447C32.6683 48.3096 32.6332 48.2744 32.598 48.2451C32.5804 48.2275 32.5628 48.2099 32.5453 48.1982C32.5101 48.1689 32.4691 48.1337 32.4339 48.1103C32.3108 48.0341 32.1995 47.9403 32.094 47.8466C32.0588 47.8173 32.0237 47.7821 31.9827 47.7528C31.9651 47.7352 31.9475 47.7176 31.9299 47.7C31.8947 47.6649 31.8596 47.6297 31.8244 47.5945C31.7893 47.5594 31.7541 47.5183 31.7189 47.4832C31.7013 47.4656 31.6779 47.448 31.6603 47.4304C31.6134 47.4011 31.5724 47.3718 31.5255 47.3425C31.1094 46.985 30.7168 46.6099 30.2773 46.2876C30.2362 46.2583 30.1894 46.2465 30.1366 46.2407C30.0897 46.2524 30.0428 46.27 30.0018 46.2993C29.8553 46.4048 29.744 46.5396 29.615 46.6627C29.3806 46.9323 29.0348 47.0729 28.8063 47.3484C28.5601 47.6414 28.1968 47.7938 27.9448 48.081C27.7162 48.3506 27.3881 48.4913 27.1536 48.7491C27.1009 48.8019 27.0423 48.8546 26.9895 48.9074C26.8782 49.007 26.7668 49.1067 26.6379 49.1829C26.5969 49.2122 26.5559 49.2415 26.5207 49.2708C26.5031 49.2883 26.4855 49.3059 26.468 49.3235C26.4328 49.3587 26.3976 49.3938 26.3566 49.429C26.339 49.4466 26.3156 49.4642 26.298 49.4818C26.257 49.5169 26.2218 49.5521 26.1808 49.5873C25.6065 50.0034 25.1728 50.5953 24.5106 50.906C23.0572 50.906 21.6038 50.906 20.1504 50.906C20.127 50.525 20.5548 50.5191 20.6778 50.2613C20.924 49.9741 21.2873 49.8217 21.5276 49.5345C21.7562 49.3059 22.0375 49.1477 22.266 48.9191C22.4829 48.6436 22.8345 48.5206 23.0513 48.2451C23.0865 48.2041 23.1217 48.1689 23.1627 48.1337C23.1803 48.1162 23.1978 48.0986 23.2154 48.081C23.2506 48.0458 23.2857 48.0107 23.3268 47.9755C23.403 47.911 23.4909 47.87 23.5729 47.8173C23.6139 47.788 23.6491 47.7586 23.6901 47.7293C23.7077 47.7118 23.7253 47.6942 23.7429 47.6766C23.778 47.6414 23.8132 47.6063 23.8483 47.5711C23.8659 47.5535 23.8835 47.5359 23.907 47.5183C23.9421 47.4832 23.9831 47.448 24.0183 47.4129C24.2058 47.1843 24.493 47.0788 24.6922 46.8619C24.9853 46.5454 25.3721 46.3286 25.6651 46.0062C26.0695 45.719 26.4269 45.3791 26.7962 45.0568C26.843 45.0275 26.8841 44.9923 26.9251 44.963C26.9427 44.9454 26.9661 44.9278 26.9837 44.9102C27.0247 44.8751 27.0657 44.8399 27.1068 44.8047C27.1243 44.7872 27.1419 44.7696 27.1654 44.7461C27.2064 44.7051 27.2415 44.6699 27.2826 44.6289C27.4232 44.4238 27.7162 44.3652 27.81 44.1131C27.7748 43.8553 27.5404 43.7849 27.3998 43.6326C27.3236 43.5564 27.2474 43.4802 27.1712 43.404C27.1302 43.3688 27.095 43.3336 27.054 43.2985C27.0071 43.2692 26.9661 43.2399 26.9192 43.2106C26.5617 42.9175 26.2511 42.56 25.8468 42.3256C25.8057 42.2904 25.7706 42.2552 25.7354 42.2201C25.7178 42.2025 25.7002 42.1849 25.6827 42.1673C25.6475 42.1322 25.6123 42.097 25.583 42.0618C25.5655 42.0442 25.5479 42.0267 25.5303 42.0091C25.4951 41.9739 25.4658 41.9446 25.4307 41.9094C25.4131 41.8919 25.3955 41.8801 25.3779 41.8626C25.3428 41.8332 25.3017 41.8039 25.2666 41.7805C25.1845 41.7277 25.1025 41.6809 25.0322 41.6164C24.9384 41.5343 24.8505 41.4406 24.7626 41.3527C24.5457 41.1534 24.2879 41.0069 24.0828 40.7959C23.7956 40.4735 23.3912 40.2918 23.1216 39.9519C22.9634 39.7702 22.7407 39.6764 22.5649 39.524C22.5297 39.4947 22.4887 39.4596 22.4536 39.4244C22.436 39.4068 22.4184 39.3892 22.4008 39.3717C22.3657 39.3365 22.3363 39.3013 22.3012 39.2662C22.2836 39.2486 22.266 39.231 22.2543 39.2193C22.2191 39.19 22.1898 39.1548 22.1547 39.1255C22.1371 39.1079 22.1195 39.0962 22.1019 39.0786C22.0668 39.0493 22.0316 39.02 21.9906 38.9966C21.9085 38.9438 21.8265 38.8969 21.7562 38.8325C21.6624 38.7504 21.5745 38.6566 21.4807 38.5687C21.2346 38.3519 20.9533 38.176 20.7247 37.9416C20.6837 37.9064 20.6485 37.8713 20.6075 37.8302C20.5899 37.8126 20.5665 37.7951 20.5489 37.7775C20.5137 37.7423 20.4727 37.7072 20.4258 37.6778C20.2969 37.5899 20.168 37.502 20.0859 37.3614C20.0918 37.3145 20.1094 37.2734 20.1621 37.25Z" fill="#11FEF5"/>
<path d="M20.5449 37.25C21.9925 37.25 23.44 37.25 24.8817 37.25C24.9286 37.2734 24.9696 37.2969 25.0223 37.3145C25.0458 37.3262 25.0692 37.3379 25.0926 37.3496C25.1395 37.3731 25.1806 37.4024 25.2216 37.4376C25.4384 37.5841 25.6494 37.7365 25.8252 37.9357C26.1006 38.2464 26.4816 38.4339 26.757 38.7445C26.9797 38.979 27.2727 39.1314 27.4954 39.3658C27.7298 39.6178 28.017 39.8054 28.2807 40.0222C28.3159 40.0574 28.3569 40.0867 28.3921 40.1277C28.4097 40.1453 28.4272 40.1629 28.4448 40.1805C28.48 40.2156 28.5093 40.2508 28.5444 40.286C28.562 40.3035 28.5796 40.3211 28.5913 40.3387C28.6265 40.3739 28.6558 40.4032 28.691 40.4383C28.7085 40.4559 28.7261 40.4677 28.7437 40.4852C28.7789 40.5145 28.8199 40.5438 28.8551 40.5673C28.9371 40.62 29.0191 40.6669 29.0895 40.7314C29.1832 40.8134 29.2653 40.9072 29.3591 40.9951C29.5407 41.2237 29.822 41.3292 30.0213 41.5343C30.1561 41.6633 30.2791 41.7981 30.4257 41.9153C30.83 41.8801 31.0762 41.5871 31.3516 41.3468C31.5157 41.212 31.6505 41.042 31.838 40.9365C31.9025 40.8955 31.967 40.8486 32.0256 40.7959C32.2541 40.6142 32.4182 40.368 32.6702 40.2156C32.7112 40.1863 32.7523 40.157 32.7933 40.1219C32.8109 40.1043 32.8343 40.0867 32.8519 40.0691C32.8929 40.0339 32.9281 40.0046 32.9691 39.9695C33.0863 39.8698 33.1918 39.7643 33.2973 39.653C33.3676 39.5827 33.4555 39.5299 33.5376 39.4772C33.5786 39.4478 33.6196 39.4185 33.6548 39.3892C33.6723 39.3717 33.6899 39.3541 33.7075 39.3365C33.7427 39.3013 33.7778 39.2662 33.813 39.231C33.8306 39.2134 33.8482 39.1958 33.8657 39.1782C33.9009 39.1431 33.9361 39.1079 33.9771 39.0727C34.2584 38.7914 34.61 38.5922 34.8855 38.2932C35.1082 38.0647 35.3953 37.9064 35.6239 37.6778C35.7938 37.502 35.9638 37.3262 36.2099 37.2734C37.6633 37.2734 39.1108 37.2734 40.5642 37.2734C40.5877 37.5372 40.3533 37.6368 40.2243 37.7951C40.0016 38.0178 39.6969 38.1526 39.4976 38.4046C39.2281 38.6625 38.9057 38.85 38.6537 39.1255C38.431 39.3541 38.1439 39.5065 37.9212 39.735C37.6809 40.0222 37.3175 40.1687 37.0773 40.4559C36.837 40.7431 36.4736 40.8896 36.2334 41.1768C36.0107 41.4054 35.7235 41.5578 35.5067 41.7922C35.4656 41.8274 35.4305 41.8625 35.3895 41.9036C35.3719 41.9212 35.3484 41.9387 35.3309 41.9622C35.1082 42.1556 34.8386 42.2963 34.6452 42.5248C34.4225 42.8003 34.0767 42.9351 33.8482 43.1988C33.7954 43.2516 33.7368 43.3102 33.6782 43.3629C33.5669 43.4684 33.4496 43.5622 33.3207 43.6443C33.2797 43.6736 33.2387 43.7029 33.2035 43.738C33.1859 43.7556 33.1683 43.7732 33.1449 43.7908C33.1097 43.826 33.0746 43.8611 33.0336 43.8963C32.9749 43.9549 32.9163 44.0077 32.9163 44.119C32.9222 44.2069 33.0101 44.2655 33.0746 44.3417C33.309 44.6348 33.6782 44.7754 33.9185 45.0626C34.1412 45.2912 34.4283 45.4436 34.651 45.6722C34.903 45.9535 35.2312 46.141 35.5008 46.3989C35.7411 46.692 36.1044 46.8385 36.3506 47.1257C36.5908 47.4187 36.9542 47.5594 37.1945 47.8524C37.4172 48.081 37.7043 48.2392 37.927 48.462C38.179 48.7433 38.5072 48.9308 38.7768 49.1887C39.0229 49.4818 39.3921 49.6283 39.6324 49.9272C39.8961 50.3082 40.4705 50.3902 40.5642 50.9235C39.1108 50.9235 37.6574 50.9235 36.1982 50.9235C36.0458 50.8767 35.9169 50.7829 35.7997 50.6774C35.7645 50.6422 35.7235 50.6129 35.6883 50.5778C35.6708 50.5602 35.6532 50.5484 35.6356 50.5309C35.6004 50.5016 35.5653 50.4664 35.536 50.4312C35.5184 50.4136 35.5008 50.4019 35.4832 50.3843C35.4481 50.355 35.4129 50.3257 35.3777 50.3023C35.3074 50.2495 35.2254 50.2144 35.155 50.1558C35.1199 50.1265 35.0906 50.0972 35.0613 50.0679C35.0437 50.0503 35.032 50.0385 35.0144 50.021C34.9851 49.9917 34.9558 49.9624 34.9265 49.9272C34.9089 49.9096 34.8972 49.8979 34.8796 49.8803C34.8503 49.851 34.821 49.8217 34.7917 49.7924C34.7741 49.7807 34.7624 49.7631 34.7448 49.7455C34.7155 49.7162 34.6803 49.6869 34.651 49.6576C34.6335 49.6459 34.6159 49.6283 34.6042 49.6166C34.569 49.5931 34.5338 49.5638 34.4928 49.5404C34.4108 49.4935 34.3287 49.4525 34.2584 49.388C34.2232 49.3528 34.1881 49.3235 34.1529 49.2883C34.1353 49.2708 34.1177 49.2532 34.1002 49.2356C34.0591 49.2004 34.024 49.1653 33.9888 49.1242C33.7896 48.8664 33.4614 48.755 33.2563 48.503C33.2211 48.4678 33.1859 48.4327 33.1449 48.3975C33.1273 48.3799 33.1097 48.3623 33.0863 48.3447C33.0511 48.3096 33.016 48.2744 32.9808 48.2451C32.9632 48.2275 32.9456 48.2099 32.9281 48.1982C32.8929 48.1689 32.8519 48.1337 32.8167 48.1103C32.6936 48.0341 32.5823 47.9403 32.4768 47.8466C32.4416 47.8173 32.4065 47.7821 32.3655 47.7528C32.3479 47.7352 32.3303 47.7176 32.3127 47.7C32.2776 47.6649 32.2424 47.6297 32.2072 47.5945C32.1721 47.5594 32.1369 47.5183 32.1017 47.4832C32.0842 47.4656 32.0607 47.448 32.0431 47.4304C31.9963 47.4011 31.9552 47.3718 31.9083 47.3425C31.4923 46.985 31.0996 46.6099 30.6601 46.2876C30.619 46.2583 30.5722 46.2465 30.5194 46.2407C30.4725 46.2524 30.4257 46.27 30.3846 46.2993C30.2381 46.4048 30.1268 46.5396 29.9978 46.6627C29.7634 46.9323 29.4177 47.0729 29.1891 47.3484C28.943 47.6414 28.5796 47.7938 28.3276 48.081C28.0991 48.3506 27.7709 48.4913 27.5365 48.7491C27.4837 48.8019 27.4251 48.8546 27.3724 48.9074C27.261 49.007 27.1497 49.1067 27.0207 49.1829C26.9797 49.2122 26.9387 49.2415 26.9035 49.2708C26.8859 49.2883 26.8684 49.3059 26.8508 49.3235C26.8156 49.3587 26.7805 49.3938 26.7394 49.429C26.7219 49.4466 26.6984 49.4642 26.6808 49.4818C26.6398 49.5169 26.6046 49.5521 26.5636 49.5873C25.9893 50.0034 25.5556 50.5953 24.8934 50.906C23.44 50.906 21.9866 50.906 20.5332 50.906C20.5098 50.525 20.9376 50.5191 21.0607 50.2613C21.3068 49.9741 21.6701 49.8217 21.9104 49.5345C22.139 49.3059 22.4203 49.1477 22.6488 48.9191C22.8657 48.6436 23.2173 48.5206 23.4341 48.2451C23.4693 48.2041 23.5045 48.1689 23.5455 48.1337C23.5631 48.1162 23.5806 48.0986 23.5982 48.081C23.6334 48.0458 23.6686 48.0107 23.7096 47.9755C23.7858 47.911 23.8737 47.87 23.9557 47.8173C23.9967 47.788 24.0319 47.7586 24.0729 47.7293C24.0905 47.7118 24.1081 47.6942 24.1257 47.6766C24.1608 47.6414 24.196 47.6063 24.2312 47.5711C24.2487 47.5535 24.2663 47.5359 24.2898 47.5183C24.3249 47.4832 24.3659 47.448 24.4011 47.4129C24.5886 47.1843 24.8758 47.0788 25.0751 46.8619C25.3681 46.5454 25.7549 46.3286 26.0479 46.0062C26.4523 45.719 26.8098 45.3791 27.179 45.0568C27.2258 45.0275 27.2669 44.9923 27.3079 44.963C27.3255 44.9454 27.3489 44.9278 27.3665 44.9102C27.4075 44.8751 27.4485 44.8399 27.4896 44.8047C27.5071 44.7872 27.5247 44.7696 27.5482 44.7461C27.5892 44.7051 27.6244 44.6699 27.6654 44.6289C27.806 44.4238 28.0991 44.3652 28.1928 44.1131C28.1577 43.8553 27.9232 43.7849 27.7826 43.6326C27.7064 43.5564 27.6302 43.4802 27.554 43.404C27.513 43.3688 27.4778 43.3336 27.4368 43.2985C27.3899 43.2692 27.3489 43.2399 27.302 43.2106C26.9445 42.9175 26.6339 42.56 26.2296 42.3256C26.1885 42.2904 26.1534 42.2552 26.1182 42.2201C26.1006 42.2025 26.0831 42.1849 26.0655 42.1673C26.0303 42.1322 25.9952 42.097 25.9659 42.0618C25.9483 42.0442 25.9307 42.0267 25.9131 42.0091C25.8779 41.9739 25.8486 41.9446 25.8135 41.9094C25.7959 41.8919 25.7783 41.8801 25.7607 41.8626C25.7256 41.8332 25.6845 41.8039 25.6494 41.7805C25.5673 41.7277 25.4853 41.6809 25.415 41.6164C25.3212 41.5343 25.2333 41.4406 25.1454 41.3527C24.9286 41.1534 24.6707 41.0069 24.4656 40.7959C24.1784 40.4735 23.774 40.2918 23.5045 39.9519C23.3462 39.7702 23.1235 39.6764 22.9477 39.524C22.9126 39.4947 22.8715 39.4596 22.8364 39.4244C22.8188 39.4068 22.8012 39.3892 22.7836 39.3717C22.7485 39.3365 22.7192 39.3013 22.684 39.2662C22.6664 39.2486 22.6488 39.231 22.6371 39.2193C22.602 39.19 22.5727 39.1548 22.5375 39.1255C22.5199 39.1079 22.5023 39.0962 22.4847 39.0786C22.4496 39.0493 22.4144 39.02 22.3734 38.9966C22.2914 38.9438 22.2093 38.8969 22.139 38.8325C22.0452 38.7504 21.9573 38.6566 21.8635 38.5687C21.6174 38.3519 21.3361 38.176 21.1075 37.9416C21.0665 37.9064 21.0314 37.8713 20.9903 37.8302C20.9727 37.8126 20.9493 37.7951 20.9317 37.7775C20.8966 37.7423 20.8555 37.7072 20.8087 37.6778C20.6797 37.5899 20.5508 37.502 20.4688 37.3614C20.4746 37.3145 20.4922 37.2734 20.5449 37.25Z" fill="#1758FF"/>
<path d="M4.54118 41.1152C4.57048 41.1445 4.59978 41.1738 4.62908 41.2031C4.60564 41.209 4.58806 41.2149 4.56462 41.2149C4.54118 41.1797 4.53532 41.1504 4.54118 41.1152Z" fill="#11FEF5"/>
<path d="M5.83601 37.3588C5.74224 37.3646 5.64848 37.3646 5.54885 37.3705C5.51369 37.3295 5.47266 37.2943 5.4375 37.2533C5.58401 37.2415 5.73638 37.1888 5.83601 37.3588Z" fill="#CB5EFF"/>
<path d="M9.61526 41.2364C9.57423 41.1953 9.53321 41.1543 9.49219 41.1133C9.53321 41.1543 9.57423 41.1953 9.61526 41.2364Z" fill="#CB5EFF"/>
<path d="M33.1289 39.6582C33.0879 39.6992 33.041 39.7403 33 39.7754C33.041 39.7344 33.0879 39.6934 33.1289 39.6582Z" fill="#11FEF5"/>
<path d="M4.65625 41.2402C4.69141 41.2754 4.72072 41.3047 4.75588 41.3399C4.72072 41.3047 4.69141 41.2695 4.65625 41.2402Z" fill="#11FEF5"/>
<path d="M9.73244 41.3555C9.69142 41.3145 9.6504 41.2734 9.60938 41.2324C9.65626 41.2734 9.69728 41.3145 9.73244 41.3555Z" fill="#CB5EFF"/>
<path d="M4.77344 41.3496C4.8086 41.3848 4.84376 41.4199 4.87892 41.4551C4.84376 41.4199 4.8086 41.3848 4.77344 41.3496Z" fill="#11FEF5"/>
<path d="M9.84963 41.4805C9.80861 41.4395 9.76759 41.3984 9.72656 41.3574C9.76759 41.3984 9.80861 41.4395 9.84963 41.4805Z" fill="#CB5EFF"/>
<path d="M33.3731 39.4453C33.3379 39.4746 33.3027 39.5098 33.2734 39.5391C33.3027 39.5098 33.3379 39.4746 33.3731 39.4453Z" fill="#11FEF5"/>
<path d="M4.89062 41.4746C4.92579 41.5098 4.96095 41.5449 4.99612 41.586C4.96095 41.5449 4.92579 41.5098 4.89062 41.4746Z" fill="#11FEF5"/>
<path d="M9.96877 41.5977C9.92775 41.5567 9.88673 41.5156 9.85156 41.4746C9.89259 41.5156 9.92775 41.5567 9.96877 41.5977Z" fill="#CB5EFF"/>
<path d="M5.00781 41.5996C5.04298 41.6348 5.07814 41.6758 5.11916 41.711C5.07814 41.6699 5.04298 41.6348 5.00781 41.5996Z" fill="#11FEF5"/>
<path d="M10.086 41.7227C10.0449 41.6817 10.0098 41.6406 9.96875 41.5996C10.0039 41.6406 10.0449 41.6817 10.086 41.7227Z" fill="#CB5EFF"/>
<path d="M5.125 41.7168C5.16016 41.752 5.20119 41.793 5.23635 41.8282C5.20119 41.793 5.16602 41.7578 5.125 41.7168Z" fill="#11FEF5"/>
<path d="M10.2031 41.8457C10.1621 41.8047 10.127 41.7637 10.0859 41.7285C10.127 41.7637 10.1621 41.8047 10.2031 41.8457Z" fill="#CB5EFF"/>
<path d="M25.3828 41.7188C25.418 41.7481 25.4531 41.7832 25.4883 41.8125C25.4531 41.7774 25.418 41.7481 25.3828 41.7188Z" fill="#11FEF5"/>
<path d="M5.26562 41.8359C5.30079 41.8711 5.34181 41.9121 5.37697 41.9473C5.33595 41.9121 5.30079 41.877 5.26562 41.8359Z" fill="#11FEF5"/>
<path d="M10.3203 41.9649C10.2793 41.9238 10.2441 41.8887 10.2031 41.8477C10.2441 41.8828 10.2852 41.9238 10.3203 41.9649Z" fill="#CB5EFF"/>
<path d="M5.38281 41.9629C5.41798 42.0039 5.459 42.0391 5.49416 42.0801C5.459 42.0391 5.42384 41.9981 5.38281 41.9629Z" fill="#11FEF5"/>
<path d="M10.4551 42.0899C10.4199 42.0488 10.3789 42.0137 10.3438 41.9727C10.3789 42.0078 10.4141 42.0488 10.4551 42.0899Z" fill="#CB5EFF"/>
<path d="M5.5 42.082C5.54102 42.1231 5.57619 42.1582 5.61721 42.1992C5.57619 42.1582 5.54102 42.1172 5.5 42.082Z" fill="#11FEF5"/>
<path d="M10.5723 42.2071C10.5371 42.166 10.4961 42.1309 10.4609 42.0898C10.4961 42.1309 10.5371 42.1719 10.5723 42.2071Z" fill="#CB5EFF"/>
<path d="M5.61719 42.1992C5.65821 42.2402 5.69337 42.2754 5.7344 42.3164C5.69337 42.2813 5.65235 42.2402 5.61719 42.1992Z" fill="#11FEF5"/>
<path d="M10.6895 42.3282C10.6543 42.293 10.6133 42.252 10.5781 42.2168C10.6191 42.252 10.6543 42.293 10.6895 42.3282Z" fill="#CB5EFF"/>
<path d="M5.73438 42.3242C5.7754 42.3652 5.81056 42.4063 5.85158 42.4414C5.81056 42.4063 5.7754 42.3652 5.73438 42.3242Z" fill="#11FEF5"/>
<path d="M10.8067 42.4551C10.7715 42.4199 10.7363 42.3789 10.6953 42.3438C10.7305 42.3789 10.7656 42.4199 10.8067 42.4551Z" fill="#CB5EFF"/>
<path d="M10.9258 42.5742C10.8906 42.5391 10.8555 42.5039 10.8203 42.4629C10.8555 42.4981 10.8906 42.5332 10.9258 42.5742Z" fill="#CB5EFF"/>
<path d="M11.043 42.6934C11.0078 42.6582 10.9727 42.6231 10.9375 42.5879C10.9727 42.6231 11.0078 42.6582 11.043 42.6934Z" fill="#CB5EFF"/>
<path d="M11.1602 42.8184C11.125 42.7832 11.0899 42.7481 11.0547 42.7129C11.0957 42.7481 11.1309 42.7832 11.1602 42.8184Z" fill="#CB5EFF"/>
<path d="M11.2793 42.9375C11.2442 42.9024 11.2149 42.8672 11.1797 42.832C11.209 42.8672 11.2442 42.9024 11.2793 42.9375Z" fill="#CB5EFF"/>
<path d="M26.6797 42.8223C26.7266 42.8633 26.7735 42.9043 26.8203 42.9453C26.7735 42.9043 26.7266 42.8633 26.6797 42.8223Z" fill="#11FEF5"/>
<path d="M11.3848 43.0469C11.3555 43.0176 11.3262 42.9883 11.2969 42.959C11.3262 42.9883 11.3555 43.0176 11.3848 43.0469Z" fill="#CB5EFF"/>
<path d="M26.8281 42.9395C26.8691 42.9805 26.916 43.0156 26.9571 43.0567C26.916 43.0156 26.8691 42.9746 26.8281 42.9395Z" fill="#11FEF5"/>
<path d="M26.9531 43.0566C26.9941 43.0918 27.0352 43.127 27.0762 43.1621C27.0293 43.127 26.9941 43.0918 26.9531 43.0566Z" fill="#11FEF5"/>
<path d="M27.0781 43.1738C27.1074 43.2031 27.1426 43.2324 27.1719 43.2617C27.1426 43.2266 27.1074 43.2031 27.0781 43.1738Z" fill="#11FEF5"/>
<path d="M33.625 43.5235C33.666 43.4883 33.707 43.4531 33.7481 43.418C33.707 43.4531 33.666 43.4883 33.625 43.5235Z" fill="#CB5EFF"/>
<path d="M33.5078 43.6231C33.543 43.5938 33.5723 43.5645 33.6074 43.5352C33.5723 43.5645 33.5371 43.5938 33.5078 43.6231Z" fill="#CB5EFF"/>
<path d="M22.1094 38.9336C22.1445 38.9629 22.1797 38.9981 22.2149 39.0274C22.1797 38.9981 22.1445 38.9629 22.1094 38.9336Z" fill="#11FEF5"/>
<path d="M27.0606 45.0273C27.0254 45.0566 26.9902 45.086 26.9609 45.1211C26.9902 45.0918 27.0254 45.0566 27.0606 45.0273Z" fill="#11FEF5"/>
<path d="M26.9512 45.127C26.9102 45.1621 26.8691 45.1973 26.8281 45.2383C26.8633 45.2031 26.9043 45.168 26.9512 45.127Z" fill="#11FEF5"/>
<path d="M26.8223 45.2344C26.7754 45.2754 26.7344 45.3106 26.6875 45.3516C26.7344 45.3106 26.7754 45.2754 26.8223 45.2344Z" fill="#11FEF5"/>
<path d="M9.76562 46.4551C9.79493 46.4844 9.82423 46.5137 9.85353 46.543C9.82423 46.5137 9.79493 46.4844 9.76562 46.4551Z" fill="#11FEF5"/>
<path d="M9.875 46.5703C9.91016 46.6055 9.93947 46.6348 9.97463 46.6699C9.94533 46.6348 9.91016 46.6055 9.875 46.5703Z" fill="#11FEF5"/>
<path d="M6.54103 38.0742C6.51173 38.0449 6.48243 38.0156 6.45312 37.9863C6.48243 38.0156 6.51173 38.0449 6.54103 38.0742Z" fill="#CB5EFF"/>
<path d="M10 46.6895C10.0352 46.7246 10.0703 46.7598 10.0996 46.7949C10.0645 46.7539 10.0352 46.7188 10 46.6895Z" fill="#11FEF5"/>
<path d="M25.127 46.6875C25.0801 46.7285 25.0391 46.7696 24.9922 46.8106C25.0391 46.7696 25.086 46.7285 25.127 46.6875Z" fill="#11FEF5"/>
<path d="M10.1172 46.8066C10.1524 46.8418 10.1875 46.877 10.2227 46.9121C10.1875 46.877 10.1524 46.8418 10.1172 46.8066Z" fill="#11FEF5"/>
<path d="M10.2344 46.9336C10.2695 46.9688 10.3047 47.0039 10.3399 47.0391C10.3047 47.0039 10.2695 46.9688 10.2344 46.9336Z" fill="#11FEF5"/>
<path d="M10.3516 47.0508C10.3867 47.0859 10.4219 47.1211 10.457 47.1621C10.4219 47.1211 10.3867 47.0859 10.3516 47.0508Z" fill="#11FEF5"/>
<path d="M31.4141 47.0605C31.4551 47.1016 31.502 47.1367 31.543 47.1778C31.502 47.1367 31.4609 47.1016 31.4141 47.0605Z" fill="#11FEF5"/>
<path d="M10.4688 47.1777C10.5039 47.2129 10.5391 47.2539 10.5801 47.2891C10.5391 47.2481 10.5039 47.2129 10.4688 47.1777Z" fill="#11FEF5"/>
<path d="M31.5547 47.1777C31.5957 47.2129 31.6367 47.2481 31.6778 47.2832C31.6367 47.2481 31.5957 47.2129 31.5547 47.1777Z" fill="#11FEF5"/>
<path d="M10.5859 47.2949C10.6211 47.3301 10.6621 47.3711 10.6973 47.4063C10.6621 47.3711 10.627 47.3359 10.5859 47.2949Z" fill="#11FEF5"/>
<path d="M6.42775 37.9668C6.39259 37.9317 6.36329 37.8965 6.32812 37.8613C6.36329 37.9024 6.39259 37.9375 6.42775 37.9668Z" fill="#CB5EFF"/>
<path d="M31.6875 47.2949C31.7168 47.3242 31.752 47.3535 31.7813 47.3828C31.752 47.3535 31.7227 47.3242 31.6875 47.2949Z" fill="#11FEF5"/>
<path d="M10.7109 47.4199C10.7461 47.4551 10.7871 47.4961 10.8223 47.5313C10.7813 47.4961 10.7461 47.4609 10.7109 47.4199Z" fill="#11FEF5"/>
<path d="M10.8281 47.5391C10.8633 47.5801 10.9043 47.6153 10.9395 47.6563C10.9043 47.6153 10.8633 47.5742 10.8281 47.5391Z" fill="#11FEF5"/>
<path d="M10.9453 47.666C10.9863 47.707 11.0215 47.7422 11.0625 47.7832C11.0215 47.7422 10.9863 47.7012 10.9453 47.666Z" fill="#11FEF5"/>
<path d="M11.0625 47.7832C11.1035 47.8242 11.1387 47.8594 11.1797 47.9004C11.1387 47.8653 11.0977 47.8242 11.0625 47.7832Z" fill="#11FEF5"/>
<path d="M6.30861 37.8477C6.27345 37.8125 6.23829 37.7774 6.20312 37.7422C6.23829 37.7774 6.27345 37.8125 6.30861 37.8477Z" fill="#CB5EFF"/>
<path d="M32.4141 47.9043C32.4551 47.9395 32.4961 47.9746 32.5371 48.0098C32.4902 47.9805 32.4551 47.9453 32.4141 47.9043Z" fill="#11FEF5"/>
<path d="M32.5391 48.0273C32.5684 48.0566 32.6035 48.086 32.6328 48.1153C32.6035 48.086 32.5684 48.0566 32.5391 48.0273Z" fill="#11FEF5"/>
<path d="M28.2812 48.2715C28.3223 48.2305 28.3692 48.1895 28.4102 48.1543C28.3692 48.1895 28.3281 48.2305 28.2812 48.2715Z" fill="#CB5EFF"/>
<path d="M20.5391 37.5957C20.5684 37.625 20.6035 37.6543 20.6328 37.6836C20.5977 37.6543 20.5684 37.625 20.5391 37.5957Z" fill="#11FEF5"/>
<path d="M6.19142 37.7227C6.15626 37.6875 6.1211 37.6524 6.08594 37.6172C6.1211 37.6524 6.15626 37.6875 6.19142 37.7227Z" fill="#CB5EFF"/>
<path d="M27.3047 49.1133C27.3457 49.0781 27.3867 49.0371 27.4336 49.002C27.3867 49.0371 27.3457 49.0781 27.3047 49.1133Z" fill="#CB5EFF"/>
<path d="M27.1953 49.2129C27.2305 49.1836 27.2656 49.1484 27.3008 49.1191C27.2656 49.1484 27.2305 49.1836 27.1953 49.2129Z" fill="#CB5EFF"/>
<path d="M20.3984 37.4785C20.4395 37.5137 20.4805 37.5488 20.5215 37.584C20.4805 37.5488 20.4395 37.5137 20.3984 37.4785Z" fill="#11FEF5"/>
<path d="M6.07424 37.5996C6.03907 37.5645 6.00391 37.5293 5.96875 37.4883C6.00391 37.5293 6.03907 37.5645 6.07424 37.5996Z" fill="#CB5EFF"/>
<path d="M26.5938 49.7325C26.6348 49.6914 26.6817 49.6504 26.7227 49.6094C26.6758 49.6504 26.6348 49.6914 26.5938 49.7325Z" fill="#CB5EFF"/>
<path d="M26.4531 49.8379C26.4941 49.8028 26.5352 49.7617 26.5821 49.7266C26.541 49.7676 26.4941 49.8028 26.4531 49.8379Z" fill="#CB5EFF"/>
<path d="M26.3594 49.9434C26.3945 49.9082 26.4297 49.8789 26.4649 49.8438C26.4297 49.8789 26.3945 49.9082 26.3594 49.9434Z" fill="#CB5EFF"/>
<path d="M5.96291 37.4746C5.92775 37.4395 5.89259 37.3984 5.85156 37.3633C5.89259 37.4043 5.92775 37.4395 5.96291 37.4746Z" fill="#CB5EFF"/>
<path d="M39.9629 50.0782C39.9102 50.0371 39.8574 49.9961 39.8047 49.9551C39.8574 49.9902 39.9102 50.0313 39.9629 50.0782Z" fill="#CB5EFF"/>
<path d="M25.9844 50.2305C26.0371 50.1895 26.0899 50.1426 26.1426 50.1016C26.0899 50.1484 26.0371 50.1895 25.9844 50.2305Z" fill="#CB5EFF"/>
<path d="M25.8594 50.3477C25.9063 50.3067 25.9473 50.2656 25.9942 50.2246C25.9473 50.2598 25.9063 50.3008 25.8594 50.3477Z" fill="#CB5EFF"/>
<path d="M40.2695 50.3379C40.2344 50.3086 40.1992 50.2734 40.1641 50.2441C40.2051 50.2734 40.2344 50.3027 40.2695 50.3379Z" fill="#CB5EFF"/>
<path d="M25.7422 50.459C25.7891 50.418 25.8301 50.377 25.877 50.3359C25.8301 50.377 25.7832 50.418 25.7422 50.459Z" fill="#CB5EFF"/>
<path d="M40.4102 50.4473C40.3692 50.4121 40.3281 50.3711 40.2812 50.3359C40.3223 50.377 40.3633 50.4121 40.4102 50.4473Z" fill="#CB5EFF"/>
<path d="M40.5391 50.5664C40.4922 50.5254 40.4453 50.4902 40.3984 50.4492C40.4453 50.4902 40.4922 50.5313 40.5391 50.5664Z" fill="#CB5EFF"/>
<path d="M35.6641 50.7012C35.7109 50.7422 35.7578 50.7832 35.7989 50.8184C35.752 50.7832 35.7109 50.7422 35.6641 50.7012Z" fill="#11FEF5"/>
<path d="M35.7891 50.8184C35.8301 50.8477 35.8711 50.877 35.9121 50.9121C35.8711 50.8828 35.8301 50.8535 35.7891 50.8184Z" fill="#11FEF5"/>
<path d="M4.40629 40.6272C4.37113 40.7093 4.33011 40.7855 4.29494 40.8675L4.2422 40.8734L4.20118 40.8382C4.18946 40.7503 4.17774 40.6624 4.17188 40.5921C4.29494 40.4866 4.35355 40.5452 4.40629 40.6272Z" fill="#11FEF5"/>
<path d="M4.49416 40.7559C4.459 40.7207 4.42384 40.6797 4.38281 40.6445C4.41798 40.6797 4.459 40.7207 4.49416 40.7559Z" fill="#11FEF5"/>
<path d="M4.62892 40.875C4.59376 40.8399 4.5586 40.7988 4.52344 40.7637C4.5586 40.7988 4.59376 40.8399 4.62892 40.875Z" fill="#11FEF5"/>
<path d="M4.74612 41.002C4.71095 40.9668 4.67579 40.9316 4.64062 40.8965C4.66993 40.9258 4.71095 40.961 4.74612 41.002Z" fill="#11FEF5"/>
<path d="M4.8633 41.1192C4.82814 41.084 4.79298 41.0488 4.75781 41.0137C4.79298 41.0488 4.82814 41.084 4.8633 41.1192Z" fill="#11FEF5"/>
<path d="M4.98049 41.2383C4.94533 41.2031 4.91016 41.168 4.875 41.1328C4.91602 41.168 4.94533 41.2031 4.98049 41.2383Z" fill="#11FEF5"/>
<path d="M5.09963 41.3653C5.06447 41.3301 5.03516 41.2949 5 41.2598C5.0293 41.2949 5.06447 41.3301 5.09963 41.3653Z" fill="#11FEF5"/>
<path d="M5.20509 41.4668C5.17579 41.4375 5.14649 41.4082 5.11719 41.3789C5.14649 41.4082 5.17579 41.4375 5.20509 41.4668Z" fill="#11FEF5"/>
<path d="M10.7344 42.6973C10.7637 42.7266 10.793 42.7559 10.8223 42.7852C10.793 42.7559 10.7637 42.7266 10.7344 42.6973Z" fill="#CB5EFF"/>
<path d="M10.8516 42.8027C10.8867 42.8379 10.9219 42.8731 10.9512 42.9082C10.916 42.8731 10.8809 42.8379 10.8516 42.8027Z" fill="#CB5EFF"/>
<path d="M10.9688 42.9297C11.0039 42.9649 11.0391 43 11.0742 43.0352C11.0391 43 11.0039 42.9649 10.9688 42.9297Z" fill="#CB5EFF"/>
<path d="M11.0859 43.0488C11.1211 43.084 11.1563 43.1192 11.1914 43.1543C11.1563 43.1192 11.1211 43.084 11.0859 43.0488Z" fill="#CB5EFF"/>
<path d="M11.2031 43.166C11.2383 43.2012 11.2735 43.2422 11.3086 43.2774C11.2793 43.2422 11.2441 43.207 11.2031 43.166Z" fill="#CB5EFF"/>
<path d="M11.3203 43.291C11.3555 43.3262 11.3906 43.3672 11.4317 43.4024C11.3906 43.3672 11.3555 43.332 11.3203 43.291Z" fill="#CB5EFF"/>
<path d="M7.1875 39.0527C7.22852 39.0938 7.26955 39.1348 7.30471 39.1758C7.26369 39.1348 7.22852 39.0938 7.1875 39.0527Z" fill="#CB5EFF"/>
<path d="M11.4375 43.416C11.4727 43.4512 11.5137 43.4922 11.5488 43.5274C11.5137 43.4922 11.4727 43.4512 11.4375 43.416Z" fill="#CB5EFF"/>
<path d="M11.5547 43.5352C11.5899 43.5762 11.6309 43.6113 11.666 43.6524C11.6309 43.6113 11.5957 43.5703 11.5547 43.5352Z" fill="#CB5EFF"/>
<path d="M11.6797 43.6621C11.7149 43.7031 11.7559 43.7383 11.791 43.7793C11.7559 43.7383 11.7149 43.6973 11.6797 43.6621Z" fill="#CB5EFF"/>
<path d="M11.7969 43.7793C11.8379 43.8203 11.8731 43.8555 11.9141 43.8965C11.8731 43.8613 11.8379 43.8203 11.7969 43.7793Z" fill="#CB5EFF"/>
<path d="M11.9141 43.8984C11.9551 43.9395 11.9902 43.9805 12.0313 44.0157C11.9961 43.9805 11.9551 43.9395 11.9141 43.8984Z" fill="#CB5EFF"/>
<path d="M7.0625 38.9336C7.10352 38.9746 7.13869 39.0156 7.17971 39.0567C7.14455 39.0156 7.10352 38.9746 7.0625 38.9336Z" fill="#CB5EFF"/>
<path d="M6.94531 38.8086C6.98634 38.8496 7.0215 38.8906 7.06252 38.9258C7.0215 38.8906 6.98634 38.8496 6.94531 38.8086Z" fill="#CB5EFF"/>
<path d="M8.76369 45.1133C8.72267 45.0723 8.68165 45.0313 8.64062 44.9902C8.68165 45.0313 8.72267 45.0723 8.76369 45.1133Z" fill="#11FEF5"/>
<path d="M6.82812 38.6816C6.86915 38.7227 6.90431 38.7637 6.94533 38.7989C6.90431 38.7637 6.86329 38.7227 6.82812 38.6816Z" fill="#CB5EFF"/>
<path d="M8.87502 45.2383C8.834 45.1973 8.79298 45.1563 8.75781 45.1152C8.79884 45.1563 8.834 45.1973 8.87502 45.2383Z" fill="#11FEF5"/>
<path d="M8.99221 45.3575C8.95119 45.3164 8.91602 45.2754 8.875 45.2344C8.91016 45.2754 8.95119 45.3164 8.99221 45.3575Z" fill="#11FEF5"/>
<path d="M9.1094 45.4864C9.06837 45.4453 9.03321 45.4043 8.99219 45.3691C9.03321 45.4043 9.06837 45.4453 9.1094 45.4864Z" fill="#11FEF5"/>
<path d="M9.22658 45.6055C9.18556 45.5645 9.1504 45.5293 9.10938 45.4883C9.1504 45.5234 9.19142 45.5645 9.22658 45.6055Z" fill="#11FEF5"/>
<path d="M9.36721 45.7227C9.32619 45.6817 9.29102 45.6465 9.25 45.6055C9.29102 45.6465 9.32619 45.6875 9.36721 45.7227Z" fill="#11FEF5"/>
<path d="M6.71094 38.5645C6.75196 38.6055 6.78712 38.6406 6.82815 38.6817C6.78712 38.6465 6.75196 38.6055 6.71094 38.5645Z" fill="#CB5EFF"/>
<path d="M9.47854 45.8477C9.44337 45.8067 9.40235 45.7715 9.36719 45.7305C9.40235 45.7715 9.44337 45.8125 9.47854 45.8477Z" fill="#11FEF5"/>
<path d="M9.59573 45.9668C9.56056 45.9258 9.51954 45.8906 9.48438 45.8496C9.5254 45.8906 9.56056 45.9258 9.59573 45.9668Z" fill="#11FEF5"/>
<path d="M9.72072 46.0957C9.68556 46.0606 9.64454 46.0195 9.60938 45.9844C9.64454 46.0195 9.6797 46.0547 9.72072 46.0957Z" fill="#11FEF5"/>
<path d="M6.59375 38.4473C6.62891 38.4883 6.66993 38.5235 6.7051 38.5645C6.66993 38.5235 6.62891 38.4824 6.59375 38.4473Z" fill="#CB5EFF"/>
<path d="M9.83791 46.2129C9.80275 46.1778 9.76759 46.1367 9.72656 46.1016C9.76759 46.1426 9.80275 46.1778 9.83791 46.2129Z" fill="#11FEF5"/>
<path d="M9.94924 46.3321C9.91407 46.2969 9.87891 46.2617 9.84375 46.2207C9.87891 46.2617 9.91407 46.2969 9.94924 46.3321Z" fill="#11FEF5"/>
<path d="M6.47656 38.3203C6.51173 38.3613 6.55275 38.3965 6.58791 38.4375C6.54689 38.3965 6.51173 38.3555 6.47656 38.3203Z" fill="#CB5EFF"/>
<path d="M10.0742 46.4532C10.0391 46.418 10.0039 46.3828 9.96875 46.3477C10.0039 46.3828 10.0391 46.418 10.0742 46.4532Z" fill="#11FEF5"/>
<path d="M6.33594 38.2012C6.3711 38.2363 6.41212 38.2774 6.44729 38.3125C6.41212 38.2774 6.37696 38.2422 6.33594 38.2012Z" fill="#CB5EFF"/>
<path d="M6.21875 38.0762C6.25391 38.1113 6.28908 38.1524 6.3301 38.1875C6.28908 38.1524 6.25391 38.1172 6.21875 38.0762Z" fill="#CB5EFF"/>
<path d="M10.1914 46.5801C10.1563 46.5449 10.1211 46.5098 10.0859 46.4746C10.1211 46.5098 10.1563 46.5449 10.1914 46.5801Z" fill="#11FEF5"/>
<path d="M10.3028 46.6973C10.2676 46.6621 10.2324 46.627 10.2031 46.5918C10.2383 46.6328 10.2735 46.668 10.3028 46.6973Z" fill="#11FEF5"/>
<path d="M10.4199 46.8184C10.3848 46.7832 10.3555 46.7481 10.3203 46.7188C10.3496 46.7539 10.3848 46.7832 10.4199 46.8184Z" fill="#11FEF5"/>
<path d="M10.5488 46.9336C10.5195 46.9043 10.4902 46.875 10.4609 46.8457C10.4902 46.875 10.5195 46.9043 10.5488 46.9336Z" fill="#11FEF5"/>
<path d="M6.10156 37.959C6.13673 37.9941 6.17189 38.0293 6.20705 38.0703C6.17189 38.0293 6.13673 37.9941 6.10156 37.959Z" fill="#CB5EFF"/>
<path d="M5.98438 37.832C6.01954 37.8672 6.0547 37.9024 6.08986 37.9375C6.0547 37.9024 6.01954 37.8672 5.98438 37.832Z" fill="#CB5EFF"/>
<path d="M5.86719 37.7129C5.90235 37.7481 5.93751 37.7832 5.97267 37.8184C5.93751 37.7832 5.90235 37.7481 5.86719 37.7129Z" fill="#CB5EFF"/>
<path d="M5.77344 37.5977C5.80274 37.627 5.83204 37.6621 5.8672 37.6914C5.83204 37.6621 5.80274 37.627 5.77344 37.5977Z" fill="#CB5EFF"/>
<path d="M28.5234 40.3828C28.5645 40.418 28.6055 40.4531 28.6465 40.4883C28.6055 40.4531 28.5645 40.418 28.5234 40.3828Z" fill="#CB5EFF"/>
<path d="M28.6641 40.5C28.6992 40.5293 28.7285 40.5586 28.7637 40.5879C28.7285 40.5586 28.6992 40.5293 28.6641 40.5Z" fill="#CB5EFF"/>
<path d="M28.3906 40.2656C28.4316 40.3008 28.4785 40.3418 28.5196 40.377C28.4785 40.3418 28.4375 40.3067 28.3906 40.2656Z" fill="#CB5EFF"/>
<path d="M28.25 40.1484C28.2969 40.1895 28.3438 40.2305 28.3906 40.2715C28.3438 40.2305 28.2969 40.1895 28.25 40.1484Z" fill="#CB5EFF"/>
<path d="M31.9219 40.9571C31.957 40.9277 31.9863 40.8984 32.0215 40.8691C31.9863 40.8984 31.9512 40.9277 31.9219 40.9571Z" fill="#11FEF5"/>
<path d="M33.625 39.502C33.6543 39.4727 33.6895 39.4434 33.7188 39.4141C33.6895 39.4434 33.6602 39.4727 33.625 39.502Z" fill="#11FEF5"/>
<path d="M33.7422 39.4024C33.7832 39.3672 33.8242 39.332 33.8653 39.2969C33.8242 39.332 33.7832 39.3672 33.7422 39.4024Z" fill="#11FEF5"/>
<path d="M25.836 41.8457C25.8067 41.8164 25.7715 41.7871 25.7422 41.7578C25.7715 41.7871 25.8067 41.8164 25.836 41.8457Z" fill="#11FEF5"/>
<path d="M35.4395 41.7168C35.3926 41.7578 35.3516 41.7988 35.3047 41.834C35.3516 41.7988 35.3926 41.7578 35.4395 41.7168Z" fill="#CB5EFF"/>
<path d="M25.9746 41.961C25.9336 41.9258 25.8926 41.8906 25.8516 41.8555C25.8926 41.8906 25.9336 41.9258 25.9746 41.961Z" fill="#11FEF5"/>
<path d="M33.8594 39.2871C33.9004 39.2461 33.9473 39.2109 33.9883 39.1699C33.9473 39.2109 33.9063 39.252 33.8594 39.2871Z" fill="#11FEF5"/>
<path d="M26.2422 42.1934C26.1953 42.1524 26.1484 42.1113 26.1016 42.0703C26.1484 42.1113 26.1953 42.1524 26.2422 42.1934Z" fill="#11FEF5"/>
<path d="M22.8321 39.291C22.791 39.2559 22.7441 39.2149 22.7031 39.1797C22.7441 39.2149 22.791 39.2559 22.8321 39.291Z" fill="#11FEF5"/>
<path d="M27.5352 43.2969C27.5 43.2676 27.4649 43.2324 27.4297 43.2031C27.4649 43.2383 27.5 43.2676 27.5352 43.2969Z" fill="#11FEF5"/>
<path d="M30.5781 46.1035C30.5371 46.1328 30.502 46.1621 30.4609 46.1914C30.502 46.1621 30.543 46.1328 30.5781 46.1035Z" fill="#11FEF5"/>
<path d="M32.1387 47.4258C32.1035 47.3965 32.0684 47.3613 32.0391 47.332C32.0684 47.3613 32.1035 47.3965 32.1387 47.4258Z" fill="#11FEF5"/>
<path d="M32.4024 47.6563C32.3613 47.6153 32.3145 47.5801 32.2734 47.5391C32.3145 47.5801 32.3613 47.6153 32.4024 47.6563Z" fill="#11FEF5"/>
<path d="M32.5606 47.7774C32.5137 47.7363 32.4668 47.6953 32.4141 47.6543C32.4609 47.6953 32.5137 47.7363 32.5606 47.7774Z" fill="#11FEF5"/>
<path d="M26.834 49.2578C26.793 49.293 26.752 49.3281 26.7109 49.3633C26.752 49.3281 26.793 49.293 26.834 49.2578Z" fill="#CB5EFF"/>
<path d="M25.0078 37.3535C25.0488 37.3945 25.0899 37.4297 25.1309 37.4707C25.0899 37.4297 25.0488 37.3945 25.0078 37.3535Z" fill="#CB5EFF"/>
<path d="M34.8184 49.7246C34.7774 49.6895 34.7363 49.6543 34.6953 49.6191C34.7363 49.6543 34.7774 49.6895 34.8184 49.7246Z" fill="#11FEF5"/>
<path d="M34.9649 49.8438C34.9238 49.8028 34.877 49.7676 34.8359 49.7266C34.877 49.7676 34.9238 49.8028 34.9649 49.8438Z" fill="#11FEF5"/>
<path d="M1.25 1.74023C2.00014 1.74023 2.65651 1.74023 3.37148 1.74023C4.6432 4.88755 5.91492 8.04074 7.22766 11.2994C8.61659 8.05246 9.96449 4.911 11.3241 1.7461C12.2442 1.7461 13.1467 1.7461 14.1254 1.7461C15.4616 4.85825 16.8095 7.99971 18.2219 11.2994C19.5463 8.01729 20.8122 4.88755 22.078 1.7461C22.7754 1.7461 23.4318 1.7461 24.1937 1.7461C22.7051 5.36229 21.24 8.9316 19.769 12.5068C18.7376 12.5068 17.753 12.5068 16.6864 12.5068C15.3854 9.51183 14.0727 6.48759 12.7248 3.37543C11.3827 6.48173 10.0817 9.47666 8.77482 12.495C7.74924 12.495 6.7471 12.495 5.6805 12.495C4.21539 8.93746 2.74441 5.36815 1.25 1.74023Z" fill="#F7F7FC"/>
<path d="M13.9781 25.8769C13.9781 27.6352 13.9781 29.3642 13.9781 31.1225C13.521 31.269 13.0698 31.2104 12.5365 31.1576C12.5365 30.4895 12.5365 29.8272 12.5365 29.1766C12.1966 29.1063 12.1145 29.3407 12.0032 29.4755C9.90513 31.984 4.57797 31.8199 2.32756 30.0265C0.0185437 28.1803 -0.327223 22.8175 3.41761 21.2409C6.08411 20.1215 8.81508 20.1567 11.4992 21.2058C12.8588 21.7391 13.7144 22.7765 13.9664 24.3238C13.31 24.3238 12.6771 24.3238 12.0442 24.3238C11.3468 22.501 9.71759 21.8739 6.75806 22.0204C5.4629 22.0849 4.20291 22.3838 3.34728 23.4622C1.57156 25.6952 2.60886 28.9891 5.36914 29.7041C7.39685 30.2316 9.41871 30.1964 11.2003 28.8426C11.757 28.4206 12.0969 27.8638 12.0149 27.0491C10.5498 27.0491 9.09052 27.0491 7.58439 27.0491C7.58439 26.6271 7.58439 26.2755 7.58439 25.8711C9.70001 25.8769 11.8215 25.8769 13.9781 25.8769Z" fill="#F7F7FC"/>
<path d="M29.0218 7.94305C29.0218 9.47275 29.0218 10.9614 29.0218 12.4853C28.3596 12.4853 27.7677 12.4853 27.1172 12.4853C27.1172 8.92768 27.1172 5.36424 27.1172 1.75977C27.715 1.75977 28.3244 1.75977 29.0101 1.75977C29.0101 3.27775 29.0101 4.784 29.0101 6.33129C32.5791 6.33129 36.0837 6.33129 39.6468 6.33129C39.6468 4.82503 39.6468 3.31877 39.6468 1.76563C40.3149 1.76563 40.9244 1.76563 41.5866 1.76563C41.5866 5.32321 41.5866 8.88079 41.5866 12.4853C40.9772 12.4853 40.3794 12.4853 39.7113 12.4853C39.7113 10.9907 39.7113 9.49033 39.7113 7.94305C36.1306 7.94305 32.6319 7.94305 29.0218 7.94305Z" fill="#F7F7FC"/>
<path d="M45.6391 20.6621C45.6391 21.1544 45.6391 21.6116 45.6391 22.1449C43.8048 22.1449 41.9822 22.1449 40.0717 22.1449C40.0717 25.1926 40.0717 28.17 40.0717 31.1766C39.3977 31.1766 38.8 31.1766 38.1436 31.1766C38.1436 28.1934 38.1436 25.2336 38.1436 22.1977C36.2565 22.1977 34.4339 22.1977 32.5703 22.1977C32.5703 21.6526 32.5703 21.1779 32.5703 20.6621C36.9188 20.6621 41.2614 20.6621 45.6391 20.6621Z" fill="#F7F7FC"/>
<path d="M51.0767 1.56646C52.5594 1.57233 53.8253 1.68368 55.0208 2.15842C57.406 3.10203 58.5253 5.38193 58.0624 8.21862C57.7107 10.3989 56.4566 11.7469 54.3703 12.3154C52.3074 12.8781 50.2094 12.8781 48.1465 12.3213C45.3452 11.5594 43.9328 9.12706 44.4485 6.05594C44.8822 3.46541 46.4645 2.02948 49.2834 1.6954C49.9456 1.62507 50.6079 1.51372 51.0767 1.56646Z" fill="#F7F7FC"/>
<path d="M23.2482 20.4985C24.0804 20.4634 24.9009 20.5161 25.7155 20.6978C28.9622 21.4187 30.48 23.7045 29.9467 26.9983C29.5951 29.161 28.341 30.4797 26.2722 31.0248C24.3676 31.5229 22.4454 31.5171 20.5173 31.0892C17.3702 30.3859 16.2626 28.0415 16.5849 25.2166C16.9307 22.1396 18.7943 20.6509 22.2227 20.5044C22.5626 20.4868 22.9025 20.4985 23.2482 20.4985Z" fill="#F7F7FC"/>
<path d="M49.9714 25.61C49.9714 24.1154 49.9655 22.6209 49.9714 21.1264C49.9772 20.1769 50.4812 19.6553 51.4247 19.6553C53.4466 19.6436 55.4626 19.6436 57.4845 19.6553C58.4514 19.6611 58.973 20.1828 58.973 21.1674C58.9789 24.1565 58.9789 27.1455 58.973 30.1346C58.973 31.1661 58.4749 31.6585 57.4493 31.6585C55.4509 31.6643 53.4525 31.6643 51.4541 31.6585C50.4695 31.6526 49.9772 31.1486 49.9714 30.1581C49.9655 28.6401 49.9714 27.1221 49.9714 25.61Z" fill="#F7F7FC"/>
<path d="M21.0938 50.3047C21.0527 50.2988 21.0293 50.2754 21.0234 50.2344C21.0645 50.2402 21.0879 50.2637 21.0938 50.3047Z" fill="#11FEF5"/>
<path d="M51.2396 3.16635C51.9487 3.12532 52.652 3.17221 53.3376 3.33632C55.1544 3.76417 56.0686 4.8836 56.1565 6.76496C56.2561 8.86904 55.4767 10.2053 53.6893 10.7856C51.8901 11.3717 50.0617 11.3248 48.2918 10.639C46.7681 10.0471 46.0355 8.17745 46.4223 6.14956C46.7857 4.26235 47.9988 3.31874 50.2609 3.16635C50.5891 3.14877 50.9173 3.16635 51.2396 3.16635Z" fill="#1758FF"/>
<path d="M23.2001 29.8497C21.8815 29.8145 20.5219 29.7735 19.5197 28.7771C18.2597 27.5288 18.2656 25.958 18.7051 24.3697C19.0919 22.969 20.182 22.3887 21.524 22.1543C23.0829 21.8847 24.6183 21.9023 26.1127 22.4532C27.3903 22.9279 28.1053 24.1822 28.0877 25.8877C28.0701 27.4233 27.5603 28.6951 26.0424 29.3574C25.1341 29.7618 24.1729 29.8614 23.2001 29.8497Z" fill="#1758FF"/>
<path d="M51.2403 3.71094C51.7385 3.76369 52.2425 3.78713 52.7406 3.86332C55.284 4.26773 56.4561 6.94617 55.0613 9.14988C54.7332 9.66564 54.2702 10.0114 53.69 10.1814C52.0667 10.6679 50.4316 10.6737 48.8082 10.1755C47.9292 9.90594 47.39 9.2964 47.138 8.41726C46.4875 6.14908 47.3314 4.39081 49.3181 3.92779C49.9393 3.78127 50.584 3.7168 51.2403 3.71094Z" fill="#F7F7FC"/>
<path d="M23.2583 29.2777C22.7777 29.2308 22.2913 29.2074 21.8166 29.1253C19.3376 28.7033 18.1948 26.0483 19.5603 23.8974C19.8651 23.4109 20.3222 23.112 20.8555 22.9479C22.3968 22.4732 23.9557 22.4849 25.5087 22.8834C26.5694 23.153 27.1789 23.8739 27.4016 24.9406C27.847 27.0681 27.0207 28.6271 25.1863 29.0609C24.5593 29.2132 23.9088 29.2777 23.2583 29.2777Z" fill="#F7F7FC"/>
</svg>
