<svg width="21" height="15" viewBox="0 0 21 15" fill="none" xmlns="http://www.w3.org/2000/svg">
<path d="M9.14637 14.9299C5.35003 14.86 4.0534 14.7971 3.25641 14.6329C2.71719 14.5238 2.24861 14.2816 1.90504 13.9303C1.6395 13.6643 1.42832 13.2586 1.26449 12.6958C1.12395 12.2268 1.06921 11.8366 0.991179 10.8836C0.871723 8.73262 0.843245 6.97407 0.991179 5.00914C1.11322 3.92405 1.1724 2.63592 1.98307 1.88442C2.36585 1.53271 2.81113 1.30637 3.31114 1.21281C4.09223 1.0645 7.41999 0.947266 10.865 0.947266C14.3022 0.947266 17.6374 1.0645 18.4192 1.21281C19.0438 1.33004 19.6297 1.68138 19.9736 2.13443C20.7133 3.29792 20.7262 4.74471 20.8013 5.8764C20.8324 6.41562 20.8324 9.47747 20.8013 10.0167C20.6844 11.8052 20.5905 12.438 20.3249 13.0941C20.1607 13.5083 20.0206 13.7268 19.778 13.9691C19.3975 14.3419 18.9124 14.5898 18.3874 14.6799C15.1022 14.927 12.3125 14.9806 9.14637 14.9299ZM14.1772 7.74332C12.3495 6.76659 10.5994 5.86087 8.81056 4.92334V10.5322C10.693 9.5089 12.6775 8.57138 14.185 7.73555L14.1772 7.74332Z" fill="#1758FF"/>
</svg>
